G04*
G04 #@! TF.GenerationSoftware,Altium Limited,Altium Designer,25.1.2 (22)*
G04*
G04 Layer_Color=128*
%FSLAX44Y44*%
%MOMM*%
G71*
G04*
G04 #@! TF.SameCoordinates,2BCE8437-4B4B-493D-AEBF-8C89570F1AAD*
G04*
G04*
G04 #@! TF.FilePolarity,Positive*
G04*
G01*
G75*
%ADD212C,0.0508*%
D212*
X362250Y19000D02*
X363750D01*
X363000Y18250D02*
Y19750D01*
X485250Y42250D02*
X486250D01*
X485750Y41750D02*
Y42750D01*
X409270Y97505D02*
X410770D01*
X410020Y96755D02*
Y98255D01*
X409270Y108755D02*
X410770D01*
X410020Y108005D02*
Y109505D01*
X275250Y120000D02*
X276750D01*
X276000Y119250D02*
Y120750D01*
X275250Y110000D02*
X276750D01*
X276000Y109250D02*
Y110750D01*
X275250Y100000D02*
X276750D01*
X276000Y99250D02*
Y100750D01*
X304250Y93000D02*
X305750D01*
X305000Y92250D02*
Y93750D01*
X308250Y165000D02*
X309750D01*
X309000Y164250D02*
Y165750D01*
X308250Y192000D02*
X309750D01*
X309000Y191250D02*
Y192750D01*
X405017Y64133D02*
X406517D01*
X405767Y63383D02*
Y64883D01*
X405250Y75000D02*
X406750D01*
X406000Y74250D02*
Y75750D01*
X412250Y161000D02*
X413750D01*
X413000Y160250D02*
Y161750D01*
X412250Y173000D02*
X413750D01*
X413000Y172250D02*
Y173750D01*
X371250Y137000D02*
X372750D01*
X372000Y136250D02*
Y137750D01*
X311250Y124000D02*
X312750D01*
X312000Y123250D02*
Y124750D01*
X311250Y138000D02*
X312750D01*
X312000Y137250D02*
Y138750D01*
X304250Y77000D02*
X305750D01*
X305000Y76250D02*
Y77750D01*
X330250Y89000D02*
X331750D01*
X331000Y88250D02*
Y89750D01*
X328250Y39000D02*
X329750D01*
X329000Y38250D02*
Y39750D01*
X315250Y39000D02*
X316750D01*
X316000Y38250D02*
Y39750D01*
X292250Y39000D02*
X293750D01*
X293000Y38250D02*
Y39750D01*
X279250Y39000D02*
X280750D01*
X280000Y38250D02*
Y39750D01*
X339750Y11000D02*
X341250D01*
X340500Y10250D02*
Y11750D01*
X334750Y11000D02*
X336250D01*
X335500Y10250D02*
Y11750D01*
X329750Y11000D02*
X331250D01*
X330500Y10250D02*
Y11750D01*
X324750Y11000D02*
X326250D01*
X325500Y10250D02*
Y11750D01*
X428250Y194000D02*
X429750D01*
X429000Y193250D02*
Y194750D01*
X425250Y205000D02*
X426750D01*
X426000Y204250D02*
Y205750D01*
X426250Y8000D02*
X427750D01*
X427000Y7250D02*
Y8750D01*
X426250Y15000D02*
X427750D01*
X427000Y14250D02*
Y15750D01*
X425250Y211000D02*
X426750D01*
X426000Y210250D02*
Y211750D01*
X337250Y237000D02*
X338750D01*
X338000Y236250D02*
Y237750D01*
X359250Y217000D02*
X360750D01*
X360000Y216250D02*
Y217750D01*
X391250Y217000D02*
X392750D01*
X392000Y216250D02*
Y217750D01*
X384250Y217000D02*
X385750D01*
X385000Y216250D02*
Y217750D01*
X420250Y254000D02*
X421750D01*
X421000Y253250D02*
Y254750D01*
X335250Y254000D02*
X336750D01*
X336000Y253250D02*
Y254750D01*
X34250Y94000D02*
X35750D01*
X35000Y93250D02*
Y94750D01*
X50250Y146000D02*
X51750D01*
X51000Y145250D02*
Y146750D01*
X325950Y169000D02*
X327450D01*
X326700Y168250D02*
Y169750D01*
X315500Y28000D02*
X317000D01*
X316250Y27250D02*
Y28750D01*
X453150Y45100D02*
X454650D01*
X453900Y44350D02*
Y45850D01*
X361707Y39250D02*
X363207D01*
X362457Y38500D02*
Y40000D01*
X396189Y41411D02*
X397688D01*
X396939Y40662D02*
Y42161D01*
X314750Y200250D02*
X316250D01*
X315500Y199500D02*
Y201000D01*
X371683Y37909D02*
X373183D01*
X372433Y37159D02*
Y38659D01*
X401263Y26025D02*
X402762D01*
X402012Y25275D02*
Y26775D01*
X399250Y22000D02*
X400750D01*
X400000Y21250D02*
Y22750D01*
X396250Y34000D02*
X397750D01*
X397000Y33250D02*
Y34750D01*
X406250Y34000D02*
X407750D01*
X407000Y33250D02*
Y34750D01*
X424939Y21427D02*
X426439D01*
X425689Y20677D02*
Y22177D01*
X310250Y32000D02*
X311750D01*
X311000Y31250D02*
Y32750D01*
X304750Y11000D02*
X306250D01*
X305500Y10250D02*
Y11750D01*
X299750Y11000D02*
X301250D01*
X300500Y10250D02*
Y11750D01*
X294750Y11000D02*
X296250D01*
X295500Y10250D02*
Y11750D01*
X274750Y11000D02*
X276250D01*
X275500Y10250D02*
Y11750D01*
X279750Y11000D02*
X281250D01*
X280500Y10250D02*
Y11750D01*
X284750Y11000D02*
X286250D01*
X285500Y10250D02*
Y11750D01*
X289750Y11000D02*
X291250D01*
X290500Y10250D02*
Y11750D01*
X34250Y74000D02*
X35750D01*
X35000Y73250D02*
Y74750D01*
X34250Y78000D02*
X35750D01*
X35000Y77250D02*
Y78750D01*
X34250Y82000D02*
X35750D01*
X35000Y81250D02*
Y82750D01*
X34250Y86000D02*
X35750D01*
X35000Y85250D02*
Y86750D01*
X34250Y90000D02*
X35750D01*
X35000Y89250D02*
Y90750D01*
X38250Y74000D02*
X39750D01*
X39000Y73250D02*
Y74750D01*
X38250Y78000D02*
X39750D01*
X39000Y77250D02*
Y78750D01*
X38250Y82000D02*
X39750D01*
X39000Y81250D02*
Y82750D01*
X38250Y86000D02*
X39750D01*
X39000Y85250D02*
Y86750D01*
X38250Y90000D02*
X39750D01*
X39000Y89250D02*
Y90750D01*
X38250Y94000D02*
X39750D01*
X39000Y93250D02*
Y94750D01*
X319250Y225509D02*
X320750D01*
X320000Y224759D02*
Y226259D01*
X323798Y225461D02*
X325298D01*
X324548Y224711D02*
Y226210D01*
X343250Y227000D02*
X344750D01*
X344000Y226250D02*
Y227750D01*
X289450Y69900D02*
X290950D01*
X290200Y69150D02*
Y70650D01*
X280738Y69888D02*
X282238D01*
X281488Y69138D02*
Y70638D01*
X50550Y166400D02*
X52050D01*
X51300Y165650D02*
Y167150D01*
X50550Y176500D02*
X52050D01*
X51300Y175750D02*
Y177250D01*
X50550Y141500D02*
X52050D01*
X51300Y140750D02*
Y142250D01*
X379500Y41840D02*
X381000D01*
X380250Y41090D02*
Y42590D01*
X382650Y60000D02*
X384150D01*
X383400Y59250D02*
Y60750D01*
X339950Y231400D02*
X341450D01*
X340700Y230650D02*
Y232150D01*
X399750Y243300D02*
X401250D01*
X400500Y242550D02*
Y244050D01*
X368200Y35059D02*
X369700D01*
X368950Y34309D02*
Y35809D01*
X377406Y37345D02*
X378905D01*
X378156Y36595D02*
Y38095D01*
X311750Y66200D02*
X313250D01*
X312500Y65450D02*
Y66950D01*
X395450Y182000D02*
X396950D01*
X396200Y181250D02*
Y182750D01*
X333050Y194800D02*
X334550D01*
X333800Y194050D02*
Y195550D01*
X325523Y197873D02*
X327023D01*
X326273Y197123D02*
Y198623D01*
X329670Y187282D02*
X331170D01*
X330420Y186532D02*
Y188032D01*
X360950Y194200D02*
X362450D01*
X361700Y193450D02*
Y194950D01*
X309750Y240000D02*
X311250D01*
X310500Y239250D02*
Y240750D01*
X319500Y240000D02*
X321000D01*
X320250Y239250D02*
Y240750D01*
X314500Y240000D02*
X316000D01*
X315250Y239250D02*
Y240750D01*
X305000Y240250D02*
X306500D01*
X305750Y239500D02*
Y241000D01*
X299750Y240000D02*
X301250D01*
X300500Y239250D02*
Y240750D01*
X294500Y240000D02*
X296000D01*
X295250Y239250D02*
Y240750D01*
X394750Y243200D02*
X396250D01*
X395500Y242450D02*
Y243950D01*
X285550Y66800D02*
X287050D01*
X286300Y66050D02*
Y67550D01*
M02*
