G04*
G04 #@! TF.GenerationSoftware,Altium Limited,Altium Designer,25.1.2 (22)*
G04*
G04 Layer_Color=2752767*
%FSLAX44Y44*%
%MOMM*%
G71*
G04*
G04 #@! TF.SameCoordinates,2BCE8437-4B4B-493D-AEBF-8C89570F1AAD*
G04*
G04*
G04 #@! TF.FilePolarity,Positive*
G04*
G01*
G75*
%ADD212C,0.0508*%
D212*
X360968Y16968D02*
X361984Y19000D01*
X360968Y21032D01*
X363000Y20016D01*
X365032Y21032D01*
X364016Y19000D01*
X365032Y16968D01*
X363000Y17984D01*
X360968Y16968D01*
X484734Y41234D02*
Y40218D01*
X486766D01*
Y41234D01*
X487782D01*
Y43266D01*
X486766D01*
Y44282D01*
X484734D01*
Y43266D01*
X483718D01*
Y41234D01*
X484734D01*
X407988Y95473D02*
X409004Y97505D01*
X407988Y99537D01*
X410020Y98521D01*
X412052Y99537D01*
X411036Y97505D01*
X412052Y95473D01*
X410020Y96489D01*
X407988Y95473D01*
Y106723D02*
X409004Y108755D01*
X407988Y110787D01*
X410020Y109771D01*
X412052Y110787D01*
X411036Y108755D01*
X412052Y106723D01*
X410020Y107739D01*
X407988Y106723D01*
X273968Y117968D02*
X274984Y120000D01*
X273968Y122032D01*
X276000Y121016D01*
X278032Y122032D01*
X277016Y120000D01*
X278032Y117968D01*
X276000Y118984D01*
X273968Y117968D01*
Y107968D02*
X274984Y110000D01*
X273968Y112032D01*
X276000Y111016D01*
X278032Y112032D01*
X277016Y110000D01*
X278032Y107968D01*
X276000Y108984D01*
X273968Y107968D01*
Y97968D02*
X274984Y100000D01*
X273968Y102032D01*
X276000Y101016D01*
X278032Y102032D01*
X277016Y100000D01*
X278032Y97968D01*
X276000Y98984D01*
X273968Y97968D01*
X302968Y90968D02*
X303984Y93000D01*
X302968Y95032D01*
X305000Y94016D01*
X307032Y95032D01*
X306016Y93000D01*
X307032Y90968D01*
X305000Y91984D01*
X302968Y90968D01*
X306968Y162968D02*
X307984Y165000D01*
X306968Y167032D01*
X309000Y166016D01*
X311032Y167032D01*
X310016Y165000D01*
X311032Y162968D01*
X309000Y163984D01*
X306968Y162968D01*
Y189968D02*
X307984Y192000D01*
X306968Y194032D01*
X309000Y193016D01*
X311032Y194032D01*
X310016Y192000D01*
X311032Y189968D01*
X309000Y190984D01*
X306968Y189968D01*
X403735Y62101D02*
X404751Y64133D01*
X403735Y66165D01*
X405767Y65149D01*
X407799Y66165D01*
X406783Y64133D01*
X407799Y62101D01*
X405767Y63117D01*
X403735Y62101D01*
X403968Y72968D02*
X404984Y75000D01*
X403968Y77032D01*
X406000Y76016D01*
X408032Y77032D01*
X407016Y75000D01*
X408032Y72968D01*
X406000Y73984D01*
X403968Y72968D01*
X410968Y158968D02*
X411984Y161000D01*
X410968Y163032D01*
X413000Y162016D01*
X415032Y163032D01*
X414016Y161000D01*
X415032Y158968D01*
X413000Y159984D01*
X410968Y158968D01*
Y170968D02*
X411984Y173000D01*
X410968Y175032D01*
X413000Y174016D01*
X415032Y175032D01*
X414016Y173000D01*
X415032Y170968D01*
X413000Y171984D01*
X410968Y170968D01*
X369968Y134968D02*
X370984Y137000D01*
X369968Y139032D01*
X372000Y138016D01*
X374032Y139032D01*
X373016Y137000D01*
X374032Y134968D01*
X372000Y135984D01*
X369968Y134968D01*
X309968Y121968D02*
X310984Y124000D01*
X309968Y126032D01*
X312000Y125016D01*
X314032Y126032D01*
X313016Y124000D01*
X314032Y121968D01*
X312000Y122984D01*
X309968Y121968D01*
Y135968D02*
X310984Y138000D01*
X309968Y140032D01*
X312000Y139016D01*
X314032Y140032D01*
X313016Y138000D01*
X314032Y135968D01*
X312000Y136984D01*
X309968Y135968D01*
X302968Y74968D02*
X303984Y77000D01*
X302968Y79032D01*
X305000Y78016D01*
X307032Y79032D01*
X306016Y77000D01*
X307032Y74968D01*
X305000Y75984D01*
X302968Y74968D01*
X328968Y86968D02*
X329984Y89000D01*
X328968Y91032D01*
X331000Y90016D01*
X333032Y91032D01*
X332016Y89000D01*
X333032Y86968D01*
X331000Y87984D01*
X328968Y86968D01*
X326968Y36968D02*
X327984Y39000D01*
X326968Y41032D01*
X329000Y40016D01*
X331032Y41032D01*
X330016Y39000D01*
X331032Y36968D01*
X329000Y37984D01*
X326968Y36968D01*
X313968D02*
X314984Y39000D01*
X313968Y41032D01*
X316000Y40016D01*
X318032Y41032D01*
X317016Y39000D01*
X318032Y36968D01*
X316000Y37984D01*
X313968Y36968D01*
X290968D02*
X291984Y39000D01*
X290968Y41032D01*
X293000Y40016D01*
X295032Y41032D01*
X294016Y39000D01*
X295032Y36968D01*
X293000Y37984D01*
X290968Y36968D01*
X277968D02*
X278984Y39000D01*
X277968Y41032D01*
X280000Y40016D01*
X282032Y41032D01*
X281016Y39000D01*
X282032Y36968D01*
X280000Y37984D01*
X277968Y36968D01*
X338468Y8968D02*
X339484Y11000D01*
X338468Y13032D01*
X340500Y12016D01*
X342532Y13032D01*
X341516Y11000D01*
X342532Y8968D01*
X340500Y9984D01*
X338468Y8968D01*
X333468D02*
X334484Y11000D01*
X333468Y13032D01*
X335500Y12016D01*
X337532Y13032D01*
X336516Y11000D01*
X337532Y8968D01*
X335500Y9984D01*
X333468Y8968D01*
X328468D02*
X329484Y11000D01*
X328468Y13032D01*
X330500Y12016D01*
X332532Y13032D01*
X331516Y11000D01*
X332532Y8968D01*
X330500Y9984D01*
X328468Y8968D01*
X323468D02*
X324484Y11000D01*
X323468Y13032D01*
X325500Y12016D01*
X327532Y13032D01*
X326516Y11000D01*
X327532Y8968D01*
X325500Y9984D01*
X323468Y8968D01*
X426968Y191968D02*
X427984Y194000D01*
X426968Y196032D01*
X429000Y195016D01*
X431032Y196032D01*
X430016Y194000D01*
X431032Y191968D01*
X429000Y192984D01*
X426968Y191968D01*
X423968Y202968D02*
X424984Y205000D01*
X423968Y207032D01*
X426000Y206016D01*
X428032Y207032D01*
X427016Y205000D01*
X428032Y202968D01*
X426000Y203984D01*
X423968Y202968D01*
X424968Y5968D02*
X425984Y8000D01*
X424968Y10032D01*
X427000Y9016D01*
X429032Y10032D01*
X428016Y8000D01*
X429032Y5968D01*
X427000Y6984D01*
X424968Y5968D01*
Y12968D02*
X425984Y15000D01*
X424968Y17032D01*
X427000Y16016D01*
X429032Y17032D01*
X428016Y15000D01*
X429032Y12968D01*
X427000Y13984D01*
X424968Y12968D01*
X423968Y208968D02*
X424984Y211000D01*
X423968Y213032D01*
X426000Y212016D01*
X428032Y213032D01*
X427016Y211000D01*
X428032Y208968D01*
X426000Y209984D01*
X423968Y208968D01*
X335968Y234968D02*
X336984Y237000D01*
X335968Y239032D01*
X338000Y238016D01*
X340032Y239032D01*
X339016Y237000D01*
X340032Y234968D01*
X338000Y235984D01*
X335968Y234968D01*
X357968Y214968D02*
X358984Y217000D01*
X357968Y219032D01*
X360000Y218016D01*
X362032Y219032D01*
X361016Y217000D01*
X362032Y214968D01*
X360000Y215984D01*
X357968Y214968D01*
X389968D02*
X390984Y217000D01*
X389968Y219032D01*
X392000Y218016D01*
X394032Y219032D01*
X393016Y217000D01*
X394032Y214968D01*
X392000Y215984D01*
X389968Y214968D01*
X382968D02*
X383984Y217000D01*
X382968Y219032D01*
X385000Y218016D01*
X387032Y219032D01*
X386016Y217000D01*
X387032Y214968D01*
X385000Y215984D01*
X382968Y214968D01*
X418968Y251968D02*
X419984Y254000D01*
X418968Y256032D01*
X421000Y255016D01*
X423032Y256032D01*
X422016Y254000D01*
X423032Y251968D01*
X421000Y252984D01*
X418968Y251968D01*
X333968D02*
X334984Y254000D01*
X333968Y256032D01*
X336000Y255016D01*
X338032Y256032D01*
X337016Y254000D01*
X338032Y251968D01*
X336000Y252984D01*
X333968Y251968D01*
X32968Y91968D02*
X33984Y94000D01*
X32968Y96032D01*
X35000Y95016D01*
X37032Y96032D01*
X36016Y94000D01*
X37032Y91968D01*
X35000Y92984D01*
X32968Y91968D01*
X48968Y143968D02*
X49984Y146000D01*
X48968Y148032D01*
X51000Y147016D01*
X53032Y148032D01*
X52016Y146000D01*
X53032Y143968D01*
X51000Y144984D01*
X48968Y143968D01*
X324668Y166968D02*
X325684Y169000D01*
X324668Y171032D01*
X326700Y170016D01*
X328732Y171032D01*
X327716Y169000D01*
X328732Y166968D01*
X326700Y167984D01*
X324668Y166968D01*
X314218Y25968D02*
X315234Y28000D01*
X314218Y30032D01*
X316250Y29016D01*
X318282Y30032D01*
X317266Y28000D01*
X318282Y25968D01*
X316250Y26984D01*
X314218Y25968D01*
X451868Y43068D02*
X452884Y45100D01*
X451868Y47132D01*
X453900Y46116D01*
X455932Y47132D01*
X454916Y45100D01*
X455932Y43068D01*
X453900Y44084D01*
X451868Y43068D01*
X360425Y37218D02*
X361441Y39250D01*
X360425Y41282D01*
X362457Y40266D01*
X364489Y41282D01*
X363473Y39250D01*
X364489Y37218D01*
X362457Y38234D01*
X360425Y37218D01*
X394907Y39379D02*
X395923Y41411D01*
X394907Y43443D01*
X396939Y42428D01*
X398970Y43443D01*
X397954Y41411D01*
X398970Y39379D01*
X396939Y40395D01*
X394907Y39379D01*
X313468Y198218D02*
X314484Y200250D01*
X313468Y202282D01*
X315500Y201266D01*
X317532Y202282D01*
X316516Y200250D01*
X317532Y198218D01*
X315500Y199234D01*
X313468Y198218D01*
X370401Y35877D02*
X371417Y37909D01*
X370401Y39941D01*
X372433Y38925D01*
X374465Y39941D01*
X373449Y37909D01*
X374465Y35877D01*
X372433Y36893D01*
X370401Y35877D01*
X399981Y23993D02*
X400997Y26025D01*
X399981Y28057D01*
X402012Y27041D01*
X404044Y28057D01*
X403028Y26025D01*
X404044Y23993D01*
X402012Y25009D01*
X399981Y23993D01*
X397968Y19968D02*
X398984Y22000D01*
X397968Y24032D01*
X400000Y23016D01*
X402032Y24032D01*
X401016Y22000D01*
X402032Y19968D01*
X400000Y20984D01*
X397968Y19968D01*
X394968Y31968D02*
X395984Y34000D01*
X394968Y36032D01*
X397000Y35016D01*
X399032Y36032D01*
X398016Y34000D01*
X399032Y31968D01*
X397000Y32984D01*
X394968Y31968D01*
X404968D02*
X405984Y34000D01*
X404968Y36032D01*
X407000Y35016D01*
X409032Y36032D01*
X408016Y34000D01*
X409032Y31968D01*
X407000Y32984D01*
X404968Y31968D01*
X423657Y19395D02*
X424673Y21427D01*
X423657Y23459D01*
X425689Y22443D01*
X427721Y23459D01*
X426705Y21427D01*
X427721Y19395D01*
X425689Y20411D01*
X423657Y19395D01*
X308968Y29968D02*
X309984Y32000D01*
X308968Y34032D01*
X311000Y33016D01*
X313032Y34032D01*
X312016Y32000D01*
X313032Y29968D01*
X311000Y30984D01*
X308968Y29968D01*
X303468Y8968D02*
X304484Y11000D01*
X303468Y13032D01*
X305500Y12016D01*
X307532Y13032D01*
X306516Y11000D01*
X307532Y8968D01*
X305500Y9984D01*
X303468Y8968D01*
X298468D02*
X299484Y11000D01*
X298468Y13032D01*
X300500Y12016D01*
X302532Y13032D01*
X301516Y11000D01*
X302532Y8968D01*
X300500Y9984D01*
X298468Y8968D01*
X293468D02*
X294484Y11000D01*
X293468Y13032D01*
X295500Y12016D01*
X297532Y13032D01*
X296516Y11000D01*
X297532Y8968D01*
X295500Y9984D01*
X293468Y8968D01*
X273468D02*
X274484Y11000D01*
X273468Y13032D01*
X275500Y12016D01*
X277532Y13032D01*
X276516Y11000D01*
X277532Y8968D01*
X275500Y9984D01*
X273468Y8968D01*
X278468D02*
X279484Y11000D01*
X278468Y13032D01*
X280500Y12016D01*
X282532Y13032D01*
X281516Y11000D01*
X282532Y8968D01*
X280500Y9984D01*
X278468Y8968D01*
X283468D02*
X284484Y11000D01*
X283468Y13032D01*
X285500Y12016D01*
X287532Y13032D01*
X286516Y11000D01*
X287532Y8968D01*
X285500Y9984D01*
X283468Y8968D01*
X288468D02*
X289484Y11000D01*
X288468Y13032D01*
X290500Y12016D01*
X292532Y13032D01*
X291516Y11000D01*
X292532Y8968D01*
X290500Y9984D01*
X288468Y8968D01*
X32968Y71968D02*
X33984Y74000D01*
X32968Y76032D01*
X35000Y75016D01*
X37032Y76032D01*
X36016Y74000D01*
X37032Y71968D01*
X35000Y72984D01*
X32968Y71968D01*
Y75968D02*
X33984Y78000D01*
X32968Y80032D01*
X35000Y79016D01*
X37032Y80032D01*
X36016Y78000D01*
X37032Y75968D01*
X35000Y76984D01*
X32968Y75968D01*
Y79968D02*
X33984Y82000D01*
X32968Y84032D01*
X35000Y83016D01*
X37032Y84032D01*
X36016Y82000D01*
X37032Y79968D01*
X35000Y80984D01*
X32968Y79968D01*
Y83968D02*
X33984Y86000D01*
X32968Y88032D01*
X35000Y87016D01*
X37032Y88032D01*
X36016Y86000D01*
X37032Y83968D01*
X35000Y84984D01*
X32968Y83968D01*
Y87968D02*
X33984Y90000D01*
X32968Y92032D01*
X35000Y91016D01*
X37032Y92032D01*
X36016Y90000D01*
X37032Y87968D01*
X35000Y88984D01*
X32968Y87968D01*
X36968Y71968D02*
X37984Y74000D01*
X36968Y76032D01*
X39000Y75016D01*
X41032Y76032D01*
X40016Y74000D01*
X41032Y71968D01*
X39000Y72984D01*
X36968Y71968D01*
Y75968D02*
X37984Y78000D01*
X36968Y80032D01*
X39000Y79016D01*
X41032Y80032D01*
X40016Y78000D01*
X41032Y75968D01*
X39000Y76984D01*
X36968Y75968D01*
Y79968D02*
X37984Y82000D01*
X36968Y84032D01*
X39000Y83016D01*
X41032Y84032D01*
X40016Y82000D01*
X41032Y79968D01*
X39000Y80984D01*
X36968Y79968D01*
Y83968D02*
X37984Y86000D01*
X36968Y88032D01*
X39000Y87016D01*
X41032Y88032D01*
X40016Y86000D01*
X41032Y83968D01*
X39000Y84984D01*
X36968Y83968D01*
Y87968D02*
X37984Y90000D01*
X36968Y92032D01*
X39000Y91016D01*
X41032Y92032D01*
X40016Y90000D01*
X41032Y87968D01*
X39000Y88984D01*
X36968Y87968D01*
Y91968D02*
X37984Y94000D01*
X36968Y96032D01*
X39000Y95016D01*
X41032Y96032D01*
X40016Y94000D01*
X41032Y91968D01*
X39000Y92984D01*
X36968Y91968D01*
X317968Y223477D02*
X318984Y225509D01*
X317968Y227541D01*
X320000Y226525D01*
X322032Y227541D01*
X321016Y225509D01*
X322032Y223477D01*
X320000Y224493D01*
X317968Y223477D01*
X322516Y223429D02*
X323532Y225461D01*
X322516Y227493D01*
X324548Y226477D01*
X326580Y227493D01*
X325564Y225461D01*
X326580Y223429D01*
X324548Y224445D01*
X322516Y223429D01*
X341968Y224968D02*
X342984Y227000D01*
X341968Y229032D01*
X344000Y228016D01*
X346032Y229032D01*
X345016Y227000D01*
X346032Y224968D01*
X344000Y225984D01*
X341968Y224968D01*
X288168Y67868D02*
X289184Y69900D01*
X288168Y71932D01*
X290200Y70916D01*
X292232Y71932D01*
X291216Y69900D01*
X292232Y67868D01*
X290200Y68884D01*
X288168Y67868D01*
X279456Y67856D02*
X280472Y69888D01*
X279456Y71920D01*
X281488Y70904D01*
X283520Y71920D01*
X282504Y69888D01*
X283520Y67856D01*
X281488Y68872D01*
X279456Y67856D01*
X49268Y164368D02*
X50284Y166400D01*
X49268Y168432D01*
X51300Y167416D01*
X53332Y168432D01*
X52316Y166400D01*
X53332Y164368D01*
X51300Y165384D01*
X49268Y164368D01*
Y174468D02*
X50284Y176500D01*
X49268Y178532D01*
X51300Y177516D01*
X53332Y178532D01*
X52316Y176500D01*
X53332Y174468D01*
X51300Y175484D01*
X49268Y174468D01*
Y139468D02*
X50284Y141500D01*
X49268Y143532D01*
X51300Y142516D01*
X53332Y143532D01*
X52316Y141500D01*
X53332Y139468D01*
X51300Y140484D01*
X49268Y139468D01*
X378218Y39808D02*
X379234Y41840D01*
X378218Y43872D01*
X380250Y42856D01*
X382282Y43872D01*
X381266Y41840D01*
X382282Y39808D01*
X380250Y40824D01*
X378218Y39808D01*
X381368Y57968D02*
X382384Y60000D01*
X381368Y62032D01*
X383400Y61016D01*
X385432Y62032D01*
X384416Y60000D01*
X385432Y57968D01*
X383400Y58984D01*
X381368Y57968D01*
X338668Y229368D02*
X339684Y231400D01*
X338668Y233432D01*
X340700Y232416D01*
X342732Y233432D01*
X341716Y231400D01*
X342732Y229368D01*
X340700Y230384D01*
X338668Y229368D01*
X398468Y241268D02*
X399484Y243300D01*
X398468Y245332D01*
X400500Y244316D01*
X402532Y245332D01*
X401516Y243300D01*
X402532Y241268D01*
X400500Y242284D01*
X398468Y241268D01*
X366918Y33027D02*
X367934Y35059D01*
X366918Y37091D01*
X368950Y36075D01*
X370982Y37091D01*
X369966Y35059D01*
X370982Y33027D01*
X368950Y34043D01*
X366918Y33027D01*
X376124Y35313D02*
X377140Y37345D01*
X376124Y39377D01*
X378156Y38361D01*
X380187Y39377D01*
X379171Y37345D01*
X380187Y35313D01*
X378156Y36329D01*
X376124Y35313D01*
X310468Y64168D02*
X311484Y66200D01*
X310468Y68232D01*
X312500Y67216D01*
X314532Y68232D01*
X313516Y66200D01*
X314532Y64168D01*
X312500Y65184D01*
X310468Y64168D01*
X394168Y179968D02*
X395184Y182000D01*
X394168Y184032D01*
X396200Y183016D01*
X398232Y184032D01*
X397216Y182000D01*
X398232Y179968D01*
X396200Y180984D01*
X394168Y179968D01*
X331768Y192768D02*
X332784Y194800D01*
X331768Y196832D01*
X333800Y195816D01*
X335832Y196832D01*
X334816Y194800D01*
X335832Y192768D01*
X333800Y193784D01*
X331768Y192768D01*
X324241Y195841D02*
X325257Y197873D01*
X324241Y199905D01*
X326273Y198889D01*
X328305Y199905D01*
X327289Y197873D01*
X328305Y195841D01*
X326273Y196857D01*
X324241Y195841D01*
X328388Y185250D02*
X329404Y187282D01*
X328388Y189314D01*
X330420Y188298D01*
X332452Y189314D01*
X331436Y187282D01*
X332452Y185250D01*
X330420Y186266D01*
X328388Y185250D01*
X359668Y192168D02*
X360684Y194200D01*
X359668Y196232D01*
X361700Y195216D01*
X363732Y196232D01*
X362716Y194200D01*
X363732Y192168D01*
X361700Y193184D01*
X359668Y192168D01*
X308468Y237968D02*
X309484Y240000D01*
X308468Y242032D01*
X310500Y241016D01*
X312532Y242032D01*
X311516Y240000D01*
X312532Y237968D01*
X310500Y238984D01*
X308468Y237968D01*
X318218D02*
X319234Y240000D01*
X318218Y242032D01*
X320250Y241016D01*
X322282Y242032D01*
X321266Y240000D01*
X322282Y237968D01*
X320250Y238984D01*
X318218Y237968D01*
X313218D02*
X314234Y240000D01*
X313218Y242032D01*
X315250Y241016D01*
X317282Y242032D01*
X316266Y240000D01*
X317282Y237968D01*
X315250Y238984D01*
X313218Y237968D01*
X303718Y238218D02*
X304734Y240250D01*
X303718Y242282D01*
X305750Y241266D01*
X307782Y242282D01*
X306766Y240250D01*
X307782Y238218D01*
X305750Y239234D01*
X303718Y238218D01*
X298468Y237968D02*
X299484Y240000D01*
X298468Y242032D01*
X300500Y241016D01*
X302532Y242032D01*
X301516Y240000D01*
X302532Y237968D01*
X300500Y238984D01*
X298468Y237968D01*
X293218D02*
X294234Y240000D01*
X293218Y242032D01*
X295250Y241016D01*
X297282Y242032D01*
X296266Y240000D01*
X297282Y237968D01*
X295250Y238984D01*
X293218Y237968D01*
X393468Y241168D02*
X394484Y243200D01*
X393468Y245232D01*
X395500Y244216D01*
X397532Y245232D01*
X396516Y243200D01*
X397532Y241168D01*
X395500Y242184D01*
X393468Y241168D01*
X284268Y64768D02*
X285284Y66800D01*
X284268Y68832D01*
X286300Y67816D01*
X288332Y68832D01*
X287316Y66800D01*
X288332Y64768D01*
X286300Y65784D01*
X284268Y64768D01*
M02*
