G04*
G04 #@! TF.GenerationSoftware,Altium Limited,Altium Designer,25.1.2 (22)*
G04*
G04 Layer_Color=39423*
%FSLAX44Y44*%
%MOMM*%
G71*
G04*
G04 #@! TF.SameCoordinates,2BCE8437-4B4B-493D-AEBF-8C89570F1AAD*
G04*
G04*
G04 #@! TF.FilePolarity,Positive*
G04*
G01*
G75*
%ADD11C,0.2000*%
%ADD13C,0.1500*%
%ADD15C,0.1000*%
D11*
X452686Y36358D02*
G03*
X452686Y36358I-1000J0D01*
G01*
X524135Y25628D02*
G03*
X524135Y25628I-1000J0D01*
G01*
X525028Y32907D02*
X527528Y37237D01*
X507708Y42907D02*
X510208Y47237D01*
X507708Y42907D02*
X525028Y32907D01*
X510208Y47237D02*
X527528Y37237D01*
D13*
X129457Y13031D02*
G03*
X107927Y53958I-16457J17469D01*
G01*
X89542Y35573D02*
G03*
X89936Y23863I23458J-5073D01*
G01*
X253317Y154072D02*
G03*
X253317Y154072I-700J0D01*
G01*
X85244Y234578D02*
G03*
X85244Y234578I-20000J0D01*
G01*
Y24578D02*
G03*
X85244Y24578I-20000J0D01*
G01*
X565244Y234578D02*
G03*
X565244Y234578I-20000J0D01*
G01*
Y24578D02*
G03*
X565244Y24578I-20000J0D01*
G01*
X80820Y100164D02*
Y110000D01*
X25820Y100164D02*
Y107320D01*
Y65585D02*
Y67906D01*
X80820Y58000D02*
Y67906D01*
X433500Y210000D02*
X433500Y218220D01*
X424500Y210000D02*
X433500D01*
X424500Y246019D02*
X427100D01*
X268900D02*
X271500D01*
X262500Y210000D02*
X271500D01*
X262500Y218220D02*
X262500Y210000D01*
X281820Y190940D02*
X289820Y182940D01*
X257820D02*
X265820Y190940D01*
X281820Y158940D02*
X289820Y166940D01*
X257820D02*
X265820Y158940D01*
X273820Y149940D02*
X276320Y152440D01*
X271320D02*
X273820Y149940D01*
X257609Y150140D02*
X263494Y156025D01*
X258628Y149475D02*
X264284Y155132D01*
X20981Y185500D02*
Y188100D01*
X57000Y185500D02*
Y194500D01*
X48780Y194500D02*
X57000Y194500D01*
X48780Y123500D02*
X57000Y123500D01*
Y132500D01*
X20981Y129900D02*
Y132500D01*
X71250Y110000D02*
X80820D01*
X28500D02*
X52750D01*
X35500Y58000D02*
X80820D01*
X25820Y59685D02*
Y65646D01*
X180720Y49019D02*
X183320D01*
X174320Y13000D02*
X183320D01*
X174320Y21219D02*
X174320Y13000D01*
X245320D02*
X245320Y21219D01*
X236320Y13000D02*
X245320D01*
X236320Y49019D02*
X238920D01*
X262500Y40781D02*
X262500Y49000D01*
X271500D01*
X268900Y12981D02*
X271500D01*
X424500D02*
X427100D01*
X424500Y49000D02*
X433500D01*
X433500Y40781D01*
D15*
X109448Y89032D02*
Y210162D01*
X123590Y224532D02*
X205448D01*
Y239032D01*
X236084D01*
X249448Y88032D02*
Y221922D01*
X198784Y88032D02*
X249448D01*
X140784Y87922D02*
X175784D01*
X109448Y89032D02*
X118784D01*
X490882Y39358D02*
X494258D01*
X495382Y41200D02*
Y44358D01*
X451382Y41358D02*
X453382Y39358D01*
X451382Y41358D02*
Y44358D01*
Y78358D02*
Y83358D01*
X456382D01*
X490382D02*
X495382D01*
Y78358D02*
Y83358D01*
X453382Y39358D02*
X456382D01*
X261279Y158845D02*
X271179Y148945D01*
X254739Y152657D02*
X264617Y142779D01*
M02*
