G04*
G04 #@! TF.GenerationSoftware,Altium Limited,Altium Designer,25.1.2 (22)*
G04*
G04 Layer_Color=2752767*
%FSLAX44Y44*%
%MOMM*%
G71*
G04*
G04 #@! TF.SameCoordinates,2BCE8437-4B4B-493D-AEBF-8C89570F1AAD*
G04*
G04*
G04 #@! TF.FilePolarity,Positive*
G04*
G01*
G75*
%ADD212C,0.0508*%
%ADD213C,0.0677*%
%ADD214C,0.0339*%
D212*
X15288Y225658D02*
Y229722D01*
X19352D01*
Y225658D01*
X15288D01*
X59768Y113768D02*
Y117832D01*
X63832D01*
Y113768D01*
X59768D01*
X60784Y114784D02*
Y116816D01*
X62816D01*
Y114784D01*
X60784D01*
X59768Y200168D02*
Y204232D01*
X63832D01*
Y200168D01*
X59768D01*
X60784Y201184D02*
Y203216D01*
X62816D01*
Y201184D01*
X60784D01*
X54768Y187900D02*
X56800Y189932D01*
X58832Y187900D01*
X56800Y185868D01*
X54768Y187900D01*
Y130100D02*
X56800Y132132D01*
X58832Y130100D01*
X56800Y128068D01*
X54768Y130100D01*
X545244Y232546D02*
X543212Y236610D01*
X547276D01*
X545244Y232546D01*
Y22546D02*
X543212Y26610D01*
X547276D01*
X545244Y22546D01*
X65244D02*
X63212Y26610D01*
X67276D01*
X65244Y22546D01*
Y232546D02*
X63212Y236610D01*
X67276D01*
X65244Y232546D01*
X510000Y49968D02*
X511016Y50984D01*
X512032D01*
X511016Y52000D01*
X512032Y53016D01*
X511016D01*
X510000Y54032D01*
X508984Y53016D01*
X507968D01*
X508984Y52000D01*
X507968Y50984D01*
X508984D01*
X510000Y49968D01*
X547000Y45968D02*
X548016Y46984D01*
X549032D01*
X548016Y48000D01*
X549032Y49016D01*
X548016D01*
X547000Y50032D01*
X545984Y49016D01*
X544968D01*
X545984Y48000D01*
X544968Y46984D01*
X545984D01*
X547000Y45968D01*
X544000Y52968D02*
X545016Y53984D01*
X546032D01*
X545016Y55000D01*
X546032Y56016D01*
X545016D01*
X544000Y57032D01*
X542984Y56016D01*
X541968D01*
X542984Y55000D01*
X541968Y53984D01*
X542984D01*
X544000Y52968D01*
X553000D02*
X554016Y53984D01*
X555032D01*
X554016Y55000D01*
X555032Y56016D01*
X554016D01*
X553000Y57032D01*
X551984Y56016D01*
X550968D01*
X551984Y55000D01*
X550968Y53984D01*
X551984D01*
X553000Y52968D01*
Y45968D02*
X554016Y46984D01*
X555032D01*
X554016Y48000D01*
X555032Y49016D01*
X554016D01*
X553000Y50032D01*
X551984Y49016D01*
X550968D01*
X551984Y48000D01*
X550968Y46984D01*
X551984D01*
X553000Y45968D01*
X559000Y52968D02*
X560016Y53984D01*
X561032D01*
X560016Y55000D01*
X561032Y56016D01*
X560016D01*
X559000Y57032D01*
X557984Y56016D01*
X556968D01*
X557984Y55000D01*
X556968Y53984D01*
X557984D01*
X559000Y52968D01*
Y45968D02*
X560016Y46984D01*
X561032D01*
X560016Y48000D01*
X561032Y49016D01*
X560016D01*
X559000Y50032D01*
X557984Y49016D01*
X556968D01*
X557984Y48000D01*
X556968Y46984D01*
X557984D01*
X559000Y45968D01*
X544000Y121968D02*
X545016Y122984D01*
X546032D01*
X545016Y124000D01*
X546032Y125016D01*
X545016D01*
X544000Y126032D01*
X542984Y125016D01*
X541968D01*
X542984Y124000D01*
X541968Y122984D01*
X542984D01*
X544000Y121968D01*
Y127968D02*
X545016Y128984D01*
X546032D01*
X545016Y130000D01*
X546032Y131016D01*
X545016D01*
X544000Y132032D01*
X542984Y131016D01*
X541968D01*
X542984Y130000D01*
X541968Y128984D01*
X542984D01*
X544000Y127968D01*
Y133968D02*
X545016Y134984D01*
X546032D01*
X545016Y136000D01*
X546032Y137016D01*
X545016D01*
X544000Y138032D01*
X542984Y137016D01*
X541968D01*
X542984Y136000D01*
X541968Y134984D01*
X542984D01*
X544000Y133968D01*
Y139968D02*
X545016Y140984D01*
X546032D01*
X545016Y142000D01*
X546032Y143016D01*
X545016D01*
X544000Y144032D01*
X542984Y143016D01*
X541968D01*
X542984Y142000D01*
X541968Y140984D01*
X542984D01*
X544000Y139968D01*
Y145968D02*
X545016Y146984D01*
X546032D01*
X545016Y148000D01*
X546032Y149016D01*
X545016D01*
X544000Y150032D01*
X542984Y149016D01*
X541968D01*
X542984Y148000D01*
X541968Y146984D01*
X542984D01*
X544000Y145968D01*
Y151968D02*
X545016Y152984D01*
X546032D01*
X545016Y154000D01*
X546032Y155016D01*
X545016D01*
X544000Y156032D01*
X542984Y155016D01*
X541968D01*
X542984Y154000D01*
X541968Y152984D01*
X542984D01*
X544000Y151968D01*
X540117Y106615D02*
X541133Y107631D01*
X542149D01*
X541133Y108647D01*
X542149Y109663D01*
X541133D01*
X540117Y110679D01*
X539101Y109663D01*
X538085D01*
X539101Y108647D01*
X538085Y107631D01*
X539101D01*
X540117Y106615D01*
X540000Y111968D02*
X541016Y112984D01*
X542032D01*
X541016Y114000D01*
X542032Y115016D01*
X541016D01*
X540000Y116032D01*
X538984Y115016D01*
X537968D01*
X538984Y114000D01*
X537968Y112984D01*
X538984D01*
X540000Y111968D01*
X530000Y135968D02*
X531016Y136984D01*
X532032D01*
X531016Y138000D01*
X532032Y139016D01*
X531016D01*
X530000Y140032D01*
X528984Y139016D01*
X527968D01*
X528984Y138000D01*
X527968Y136984D01*
X528984D01*
X530000Y135968D01*
X525000D02*
X526016Y136984D01*
X527032D01*
X526016Y138000D01*
X527032Y139016D01*
X526016D01*
X525000Y140032D01*
X523984Y139016D01*
X522968D01*
X523984Y138000D01*
X522968Y136984D01*
X523984D01*
X525000Y135968D01*
X535500Y135718D02*
X536516Y136734D01*
X537532D01*
X536516Y137750D01*
X537532Y138766D01*
X536516D01*
X535500Y139782D01*
X534484Y138766D01*
X533468D01*
X534484Y137750D01*
X533468Y136734D01*
X534484D01*
X535500Y135718D01*
X559054Y82804D02*
X560070Y83820D01*
X561086D01*
X560070Y84836D01*
X561086Y85852D01*
X560070D01*
X559054Y86868D01*
X558038Y85852D01*
X557022D01*
X558038Y84836D01*
X557022Y83820D01*
X558038D01*
X559054Y82804D01*
X552450D02*
X553466Y83820D01*
X554482D01*
X553466Y84836D01*
X554482Y85852D01*
X553466D01*
X552450Y86868D01*
X551434Y85852D01*
X550418D01*
X551434Y84836D01*
X550418Y83820D01*
X551434D01*
X552450Y82804D01*
X545084Y82550D02*
X546100Y83566D01*
X547116D01*
X546100Y84582D01*
X547116Y85598D01*
X546100D01*
X545084Y86614D01*
X544068Y85598D01*
X543052D01*
X544068Y84582D01*
X543052Y83566D01*
X544068D01*
X545084Y82550D01*
X538226D02*
X539242Y83566D01*
X540258D01*
X539242Y84582D01*
X540258Y85598D01*
X539242D01*
X538226Y86614D01*
X537210Y85598D01*
X536194D01*
X537210Y84582D01*
X536194Y83566D01*
X537210D01*
X538226Y82550D01*
X565912Y85344D02*
X566928Y86360D01*
X567944D01*
X566928Y87376D01*
X567944Y88392D01*
X566928D01*
X565912Y89408D01*
X564896Y88392D01*
X563880D01*
X564896Y87376D01*
X563880Y86360D01*
X564896D01*
X565912Y85344D01*
Y81534D02*
X566928Y82550D01*
X567944D01*
X566928Y83566D01*
X567944Y84582D01*
X566928D01*
X565912Y85598D01*
X564896Y84582D01*
X563880D01*
X564896Y83566D01*
X563880Y82550D01*
X564896D01*
X565912Y81534D01*
Y77724D02*
X566928Y78740D01*
X567944D01*
X566928Y79756D01*
X567944Y80772D01*
X566928D01*
X565912Y81788D01*
X564896Y80772D01*
X563880D01*
X564896Y79756D01*
X563880Y78740D01*
X564896D01*
X565912Y77724D01*
Y34290D02*
X566928Y35306D01*
X567944D01*
X566928Y36322D01*
X567944Y37338D01*
X566928D01*
X565912Y38354D01*
X564896Y37338D01*
X563880D01*
X564896Y36322D01*
X563880Y35306D01*
X564896D01*
X565912Y34290D01*
Y38354D02*
X566928Y39370D01*
X567944D01*
X566928Y40386D01*
X567944Y41402D01*
X566928D01*
X565912Y42418D01*
X564896Y41402D01*
X563880D01*
X564896Y40386D01*
X563880Y39370D01*
X564896D01*
X565912Y38354D01*
Y42418D02*
X566928Y43434D01*
X567944D01*
X566928Y44450D01*
X567944Y45466D01*
X566928D01*
X565912Y46482D01*
X564896Y45466D01*
X563880D01*
X564896Y44450D01*
X563880Y43434D01*
X564896D01*
X565912Y42418D01*
X564388Y65278D02*
X565404Y66294D01*
X566420D01*
X565404Y67310D01*
X566420Y68326D01*
X565404D01*
X564388Y69342D01*
X563372Y68326D01*
X562356D01*
X563372Y67310D01*
X562356Y66294D01*
X563372D01*
X564388Y65278D01*
X560832D02*
X561848Y66294D01*
X562864D01*
X561848Y67310D01*
X562864Y68326D01*
X561848D01*
X560832Y69342D01*
X559816Y68326D01*
X558800D01*
X559816Y67310D01*
X558800Y66294D01*
X559816D01*
X560832Y65278D01*
X564311Y61356D02*
X565327Y62372D01*
X566343D01*
X565327Y63388D01*
X566343Y64404D01*
X565327D01*
X564311Y65420D01*
X563295Y64404D01*
X562279D01*
X563295Y63388D01*
X562279Y62372D01*
X563295D01*
X564311Y61356D01*
X552450Y77724D02*
X553466Y78740D01*
X554482D01*
X553466Y79756D01*
X554482Y80772D01*
X553466D01*
X552450Y81788D01*
X551434Y80772D01*
X550418D01*
X551434Y79756D01*
X550418Y78740D01*
X551434D01*
X552450Y77724D01*
X545084D02*
X546100Y78740D01*
X547116D01*
X546100Y79756D01*
X547116Y80772D01*
X546100D01*
X545084Y81788D01*
X544068Y80772D01*
X543052D01*
X544068Y79756D01*
X543052Y78740D01*
X544068D01*
X545084Y77724D01*
X538226D02*
X539242Y78740D01*
X540258D01*
X539242Y79756D01*
X540258Y80772D01*
X539242D01*
X538226Y81788D01*
X537210Y80772D01*
X536194D01*
X537210Y79756D01*
X536194Y78740D01*
X537210D01*
X538226Y77724D01*
X535686Y67056D02*
X536702Y68072D01*
X537718D01*
X536702Y69088D01*
X537718Y70104D01*
X536702D01*
X535686Y71120D01*
X534670Y70104D01*
X533654D01*
X534670Y69088D01*
X533654Y68072D01*
X534670D01*
X535686Y67056D01*
X529082D02*
X530098Y68072D01*
X531114D01*
X530098Y69088D01*
X531114Y70104D01*
X530098D01*
X529082Y71120D01*
X528066Y70104D01*
X527050D01*
X528066Y69088D01*
X527050Y68072D01*
X528066D01*
X529082Y67056D01*
Y61468D02*
X530098Y62484D01*
X531114D01*
X530098Y63500D01*
X531114Y64516D01*
X530098D01*
X529082Y65532D01*
X528066Y64516D01*
X527050D01*
X528066Y63500D01*
X527050Y62484D01*
X528066D01*
X529082Y61468D01*
X531347Y48059D02*
X532363Y49075D01*
X533379D01*
X532363Y50091D01*
X533379Y51107D01*
X532363D01*
X531347Y52123D01*
X530331Y51107D01*
X529315D01*
X530331Y50091D01*
X529315Y49075D01*
X530331D01*
X531347Y48059D01*
X502551Y40417D02*
X503567Y41433D01*
X504583D01*
X503567Y42449D01*
X504583Y43465D01*
X503567D01*
X502551Y44481D01*
X501535Y43465D01*
X500519D01*
X501535Y42449D01*
X500519Y41433D01*
X501535D01*
X502551Y40417D01*
X546354Y101092D02*
X547370Y102108D01*
X548386D01*
X547370Y103124D01*
X548386Y104140D01*
X547370D01*
X546354Y105156D01*
X545338Y104140D01*
X544322D01*
X545338Y103124D01*
X544322Y102108D01*
X545338D01*
X546354Y101092D01*
X538988D02*
X540004Y102108D01*
X541020D01*
X540004Y103124D01*
X541020Y104140D01*
X540004D01*
X538988Y105156D01*
X537972Y104140D01*
X536956D01*
X537972Y103124D01*
X536956Y102108D01*
X537972D01*
X538988Y101092D01*
X524510Y69088D02*
X525526Y70104D01*
X526542D01*
X525526Y71120D01*
X526542Y72136D01*
X525526D01*
X524510Y73152D01*
X523494Y72136D01*
X522478D01*
X523494Y71120D01*
X522478Y70104D01*
X523494D01*
X524510Y69088D01*
X495026Y17414D02*
X496042Y18430D01*
X497058D01*
X496042Y19446D01*
X497058Y20462D01*
X496042D01*
X495026Y21478D01*
X494010Y20462D01*
X492994D01*
X494010Y19446D01*
X492994Y18430D01*
X494010D01*
X495026Y17414D01*
X496050Y12432D02*
X497066Y13448D01*
X498082D01*
X497066Y14464D01*
X498082Y15480D01*
X497066D01*
X496050Y16496D01*
X495034Y15480D01*
X494018D01*
X495034Y14464D01*
X494018Y13448D01*
X495034D01*
X496050Y12432D01*
X208151Y23968D02*
X209167Y24984D01*
X210183D01*
X209167Y26000D01*
X210183Y27016D01*
X209167D01*
X208151Y28032D01*
X207135Y27016D01*
X206119D01*
X207135Y26000D01*
X206119Y24984D01*
X207135D01*
X208151Y23968D01*
X213000D02*
X214016Y24984D01*
X215032D01*
X214016Y26000D01*
X215032Y27016D01*
X214016D01*
X213000Y28032D01*
X211984Y27016D01*
X210968D01*
X211984Y26000D01*
X210968Y24984D01*
X211984D01*
X213000Y23968D01*
X217170Y23876D02*
X218186Y24892D01*
X219202D01*
X218186Y25908D01*
X219202Y26924D01*
X218186D01*
X217170Y27940D01*
X216154Y26924D01*
X215138D01*
X216154Y25908D01*
X215138Y24892D01*
X216154D01*
X217170Y23876D01*
X198682Y17410D02*
X199698Y18426D01*
X200714D01*
X199698Y19442D01*
X200714Y20458D01*
X199698D01*
X198682Y21474D01*
X197666Y20458D01*
X196650D01*
X197666Y19442D01*
X196650Y18426D01*
X197666D01*
X198682Y17410D01*
X231140Y17780D02*
X232156Y18796D01*
X233172D01*
X232156Y19812D01*
X233172Y20828D01*
X232156D01*
X231140Y21844D01*
X230124Y20828D01*
X229108D01*
X230124Y19812D01*
X229108Y18796D01*
X230124D01*
X231140Y17780D01*
X428752Y71068D02*
X429768Y72084D01*
X430784D01*
X429768Y73100D01*
X430784Y74116D01*
X429768D01*
X428752Y75132D01*
X427736Y74116D01*
X426720D01*
X427736Y73100D01*
X426720Y72084D01*
X427736D01*
X428752Y71068D01*
X496500Y85718D02*
X497516Y86734D01*
X498532D01*
X497516Y87750D01*
X498532Y88766D01*
X497516D01*
X496500Y89782D01*
X495484Y88766D01*
X494468D01*
X495484Y87750D01*
X494468Y86734D01*
X495484D01*
X496500Y85718D01*
X493000D02*
X494016Y86734D01*
X495032D01*
X494016Y87750D01*
X495032Y88766D01*
X494016D01*
X493000Y89782D01*
X491984Y88766D01*
X490968D01*
X491984Y87750D01*
X490968Y86734D01*
X491984D01*
X493000Y85718D01*
X491026Y79697D02*
X492042Y80713D01*
X493058D01*
X492042Y81729D01*
X493058Y82745D01*
X492042D01*
X491026Y83761D01*
X490010Y82745D01*
X488994D01*
X490010Y81729D01*
X488994Y80713D01*
X490010D01*
X491026Y79697D01*
X504963Y80110D02*
X505979Y81126D01*
X506995D01*
X505979Y82142D01*
X506995Y83158D01*
X505979D01*
X504963Y84174D01*
X503947Y83158D01*
X502931D01*
X503947Y82142D01*
X502931Y81126D01*
X503947D01*
X504963Y80110D01*
X508940Y80533D02*
X509956Y81549D01*
X510972D01*
X509956Y82565D01*
X510972Y83581D01*
X509956D01*
X508940Y84597D01*
X507924Y83581D01*
X506908D01*
X507924Y82565D01*
X506908Y81549D01*
X507924D01*
X508940Y80533D01*
X495250Y77718D02*
X496266Y78734D01*
X497282D01*
X496266Y79750D01*
X497282Y80766D01*
X496266D01*
X495250Y81782D01*
X494234Y80766D01*
X493218D01*
X494234Y79750D01*
X493218Y78734D01*
X494234D01*
X495250Y77718D01*
X489442Y85678D02*
X490458Y86694D01*
X491474D01*
X490458Y87710D01*
X491474Y88726D01*
X490458D01*
X489442Y89742D01*
X488426Y88726D01*
X487410D01*
X488426Y87710D01*
X487410Y86694D01*
X488426D01*
X489442Y85678D01*
X515000Y82333D02*
X516016Y83349D01*
X517032D01*
X516016Y84365D01*
X517032Y85381D01*
X516016D01*
X515000Y86397D01*
X513984Y85381D01*
X512968D01*
X513984Y84365D01*
X512968Y83349D01*
X513984D01*
X515000Y82333D01*
X421000Y64968D02*
X422016Y65984D01*
X423032D01*
X422016Y67000D01*
X423032Y68016D01*
X422016D01*
X421000Y69032D01*
X419984Y68016D01*
X418968D01*
X419984Y67000D01*
X418968Y65984D01*
X419984D01*
X421000Y64968D01*
X446522Y65721D02*
X447538Y66737D01*
X448554D01*
X447538Y67753D01*
X448554Y68769D01*
X447538D01*
X446522Y69785D01*
X445506Y68769D01*
X444490D01*
X445506Y67753D01*
X444490Y66737D01*
X445506D01*
X446522Y65721D01*
X371064Y94812D02*
X372080Y95828D01*
X373096D01*
X372080Y96844D01*
X373096Y97860D01*
X372080D01*
X371064Y98876D01*
X370048Y97860D01*
X369032D01*
X370048Y96844D01*
X369032Y95828D01*
X370048D01*
X371064Y94812D01*
X379064Y103664D02*
X380080Y104680D01*
X381096D01*
X380080Y105696D01*
X381096Y106712D01*
X380080D01*
X379064Y107728D01*
X378048Y106712D01*
X377032D01*
X378048Y105696D01*
X377032Y104680D01*
X378048D01*
X379064Y103664D01*
X387064D02*
X388080Y104680D01*
X389096D01*
X388080Y105696D01*
X389096Y106712D01*
X388080D01*
X387064Y107728D01*
X386048Y106712D01*
X385032D01*
X386048Y105696D01*
X385032Y104680D01*
X386048D01*
X387064Y103664D01*
X324955Y78980D02*
X325971Y79995D01*
X326987D01*
X325971Y81011D01*
X326987Y82028D01*
X325971D01*
X324955Y83043D01*
X323939Y82028D01*
X322923D01*
X323939Y81011D01*
X322923Y79995D01*
X323939D01*
X324955Y78980D01*
X328830Y77988D02*
X329846Y79004D01*
X330862D01*
X329846Y80020D01*
X330862Y81036D01*
X329846D01*
X328830Y82052D01*
X327814Y81036D01*
X326798D01*
X327814Y80020D01*
X326798Y79004D01*
X327814D01*
X328830Y77988D01*
X349267Y18469D02*
X350283Y19485D01*
X351299D01*
X350283Y20501D01*
X351299Y21517D01*
X350283D01*
X349267Y22533D01*
X348251Y21517D01*
X347235D01*
X348251Y20501D01*
X347235Y19485D01*
X348251D01*
X349267Y18469D01*
X336000Y19968D02*
X337016Y20984D01*
X338032D01*
X337016Y22000D01*
X338032Y23016D01*
X337016D01*
X336000Y24032D01*
X334984Y23016D01*
X333968D01*
X334984Y22000D01*
X333968Y20984D01*
X334984D01*
X336000Y19968D01*
X329000Y21968D02*
X330016Y22984D01*
X331032D01*
X330016Y24000D01*
X331032Y25016D01*
X330016D01*
X329000Y26032D01*
X327984Y25016D01*
X326968D01*
X327984Y24000D01*
X326968Y22984D01*
X327984D01*
X329000Y21968D01*
X363000Y24968D02*
X364016Y25984D01*
X365032D01*
X364016Y27000D01*
X365032Y28016D01*
X364016D01*
X363000Y29032D01*
X361984Y28016D01*
X360968D01*
X361984Y27000D01*
X360968Y25984D01*
X361984D01*
X363000Y24968D01*
X348300Y56768D02*
X349316Y57784D01*
X350332D01*
X349316Y58800D01*
X350332Y59816D01*
X349316D01*
X348300Y60832D01*
X347284Y59816D01*
X346268D01*
X347284Y58800D01*
X346268Y57784D01*
X347284D01*
X348300Y56768D01*
X431250Y63443D02*
X432266Y64459D01*
X433282D01*
X432266Y65475D01*
X433282Y66491D01*
X432266D01*
X431250Y67507D01*
X430233Y66491D01*
X429217D01*
X430233Y65475D01*
X429217Y64459D01*
X430233D01*
X431250Y63443D01*
X446272Y60971D02*
X447288Y61987D01*
X448304D01*
X447288Y63003D01*
X448304Y64019D01*
X447288D01*
X446272Y65035D01*
X445256Y64019D01*
X444240D01*
X445256Y63003D01*
X444240Y61987D01*
X445256D01*
X446272Y60971D01*
X430447Y59062D02*
X431463Y60078D01*
X432479D01*
X431463Y61094D01*
X432479Y62110D01*
X431463D01*
X430447Y63126D01*
X429431Y62110D01*
X428415D01*
X429431Y61094D01*
X428415Y60078D01*
X429431D01*
X430447Y59062D01*
X439506Y50457D02*
X440522Y51473D01*
X441538D01*
X440522Y52488D01*
X441538Y53505D01*
X440522D01*
X439506Y54521D01*
X438490Y53505D01*
X437474D01*
X438490Y52488D01*
X437474Y51473D01*
X438490D01*
X439506Y50457D01*
X437209Y44871D02*
X438225Y45887D01*
X439241D01*
X438225Y46903D01*
X439241Y47919D01*
X438225D01*
X437209Y48935D01*
X436193Y47919D01*
X435177D01*
X436193Y46903D01*
X435177Y45887D01*
X436193D01*
X437209Y44871D01*
X447140Y56201D02*
X448156Y57217D01*
X449172D01*
X448156Y58233D01*
X449172Y59249D01*
X448156D01*
X447140Y60265D01*
X446124Y59249D01*
X445108D01*
X446124Y58233D01*
X445108Y57217D01*
X446124D01*
X447140Y56201D01*
X512600Y20568D02*
X513616Y21584D01*
X514632D01*
X513616Y22600D01*
X514632Y23616D01*
X513616D01*
X512600Y24632D01*
X511584Y23616D01*
X510568D01*
X511584Y22600D01*
X510568Y21584D01*
X511584D01*
X512600Y20568D01*
X476000Y50968D02*
X477016Y51984D01*
X478032D01*
X477016Y53000D01*
X478032Y54016D01*
X477016D01*
X476000Y55032D01*
X474984Y54016D01*
X473968D01*
X474984Y53000D01*
X473968Y51984D01*
X474984D01*
X476000Y50968D01*
X472000D02*
X473016Y51984D01*
X474032D01*
X473016Y53000D01*
X474032Y54016D01*
X473016D01*
X472000Y55032D01*
X470984Y54016D01*
X469968D01*
X470984Y53000D01*
X469968Y51984D01*
X470984D01*
X472000Y50968D01*
X480000D02*
X481016Y51984D01*
X482032D01*
X481016Y53000D01*
X482032Y54016D01*
X481016D01*
X480000Y55032D01*
X478984Y54016D01*
X477968D01*
X478984Y53000D01*
X477968Y51984D01*
X478984D01*
X480000Y50968D01*
X484000D02*
X485016Y51984D01*
X486032D01*
X485016Y53000D01*
X486032Y54016D01*
X485016D01*
X484000Y55032D01*
X482984Y54016D01*
X481968D01*
X482984Y53000D01*
X481968Y51984D01*
X482984D01*
X484000Y50968D01*
X498500Y54218D02*
X499516Y55234D01*
X500532D01*
X499516Y56250D01*
X500532Y57266D01*
X499516D01*
X498500Y58282D01*
X497484Y57266D01*
X496468D01*
X497484Y56250D01*
X496468Y55234D01*
X497484D01*
X498500Y54218D01*
X498876Y59679D02*
X499892Y60695D01*
X500908D01*
X499892Y61711D01*
X500908Y62727D01*
X499892D01*
X498876Y63743D01*
X497860Y62727D01*
X496844D01*
X497860Y61711D01*
X496844Y60695D01*
X497860D01*
X498876Y59679D01*
X501789Y56495D02*
X502805Y57511D01*
X503821D01*
X502805Y58527D01*
X503821Y59543D01*
X502805D01*
X501789Y60559D01*
X500773Y59543D01*
X499757D01*
X500773Y58527D01*
X499757Y57511D01*
X500773D01*
X501789Y56495D01*
X512000Y40968D02*
X513016Y41984D01*
X514032D01*
X513016Y43000D01*
X514032Y44016D01*
X513016D01*
X512000Y45032D01*
X510984Y44016D01*
X509968D01*
X510984Y43000D01*
X509968Y41984D01*
X510984D01*
X512000Y40968D01*
X517500Y37968D02*
X518516Y38984D01*
X519532D01*
X518516Y40000D01*
X519532Y41016D01*
X518516D01*
X517500Y42032D01*
X516484Y41016D01*
X515468D01*
X516484Y40000D01*
X515468Y38984D01*
X516484D01*
X517500Y37968D01*
X507000Y42968D02*
X508016Y43984D01*
X509032D01*
X508016Y45000D01*
X509032Y46016D01*
X508016D01*
X507000Y47032D01*
X505984Y46016D01*
X504968D01*
X505984Y45000D01*
X504968Y43984D01*
X505984D01*
X507000Y42968D01*
X520000Y57968D02*
X521016Y58984D01*
X522032D01*
X521016Y60000D01*
X522032Y61016D01*
X521016D01*
X520000Y62032D01*
X518984Y61016D01*
X517968D01*
X518984Y60000D01*
X517968Y58984D01*
X518984D01*
X520000Y57968D01*
X477000Y85168D02*
X478016Y86184D01*
X479032D01*
X478016Y87200D01*
X479032Y88216D01*
X478016D01*
X477000Y89232D01*
X475984Y88216D01*
X474968D01*
X475984Y87200D01*
X474968Y86184D01*
X475984D01*
X477000Y85168D01*
X480440D02*
X481456Y86184D01*
X482472D01*
X481456Y87200D01*
X482472Y88216D01*
X481456D01*
X480440Y89232D01*
X479424Y88216D01*
X478408D01*
X479424Y87200D01*
X478408Y86184D01*
X479424D01*
X480440Y85168D01*
X510025Y2968D02*
X511041Y3984D01*
X512057D01*
X511041Y5000D01*
X512057Y6016D01*
X511041D01*
X510025Y7032D01*
X509009Y6016D01*
X507993D01*
X509009Y5000D01*
X507993Y3984D01*
X509009D01*
X510025Y2968D01*
X510000Y24968D02*
X511016Y25984D01*
X512032D01*
X511016Y27000D01*
X512032Y28016D01*
X511016D01*
X510000Y29032D01*
X508984Y28016D01*
X507968D01*
X508984Y27000D01*
X507968Y25984D01*
X508984D01*
X510000Y24968D01*
X522525Y7969D02*
X523541Y8985D01*
X524557D01*
X523541Y10000D01*
X524557Y11016D01*
X523541D01*
X522525Y12033D01*
X521510Y11016D01*
X520494D01*
X521510Y10000D01*
X520494Y8985D01*
X521510D01*
X522525Y7969D01*
X522500Y12968D02*
X523516Y13984D01*
X524532D01*
X523516Y15000D01*
X524532Y16016D01*
X523516D01*
X522500Y17032D01*
X521484Y16016D01*
X520468D01*
X521484Y15000D01*
X520468Y13984D01*
X521484D01*
X522500Y12968D01*
X418500Y111714D02*
X419516Y112730D01*
X420532D01*
X419516Y113746D01*
X420532Y114762D01*
X419516D01*
X418500Y115778D01*
X417484Y114762D01*
X416468D01*
X417484Y113746D01*
X416468Y112730D01*
X417484D01*
X418500Y111714D01*
X356700Y103314D02*
X357716Y104330D01*
X358732D01*
X357716Y105346D01*
X358732Y106362D01*
X357716D01*
X356700Y107378D01*
X355684Y106362D01*
X354668D01*
X355684Y105346D01*
X354668Y104330D01*
X355684D01*
X356700Y103314D01*
X348700D02*
X349716Y104330D01*
X350732D01*
X349716Y105346D01*
X350732Y106362D01*
X349716D01*
X348700Y107378D01*
X347684Y106362D01*
X346668D01*
X347684Y105346D01*
X346668Y104330D01*
X347684D01*
X348700Y103314D01*
X387064Y111314D02*
X388080Y112330D01*
X389096D01*
X388080Y113346D01*
X389096Y114362D01*
X388080D01*
X387064Y115378D01*
X386048Y114362D01*
X385032D01*
X386048Y113346D01*
X385032Y112330D01*
X386048D01*
X387064Y111314D01*
X371064D02*
X372080Y112330D01*
X373096D01*
X372080Y113346D01*
X373096Y114362D01*
X372080D01*
X371064Y115378D01*
X370048Y114362D01*
X369032D01*
X370048Y113346D01*
X369032Y112330D01*
X370048D01*
X371064Y111314D01*
X356700Y127314D02*
X357716Y128330D01*
X358732D01*
X357716Y129346D01*
X358732Y130362D01*
X357716D01*
X356700Y131378D01*
X355684Y130362D01*
X354668D01*
X355684Y129346D01*
X354668Y128330D01*
X355684D01*
X356700Y127314D01*
X370600Y103314D02*
X371616Y104330D01*
X372632D01*
X371616Y105346D01*
X372632Y106362D01*
X371616D01*
X370600Y107378D01*
X369584Y106362D01*
X368568D01*
X369584Y105346D01*
X368568Y104330D01*
X369584D01*
X370600Y103314D01*
X356700Y111314D02*
X357716Y112330D01*
X358732D01*
X357716Y113346D01*
X358732Y114362D01*
X357716D01*
X356700Y115378D01*
X355684Y114362D01*
X354668D01*
X355684Y113346D01*
X354668Y112330D01*
X355684D01*
X356700Y111314D01*
X348700D02*
X349716Y112330D01*
X350732D01*
X349716Y113346D01*
X350732Y114362D01*
X349716D01*
X348700Y115378D01*
X347684Y114362D01*
X346668D01*
X347684Y113346D01*
X346668Y112330D01*
X347684D01*
X348700Y111314D01*
X364694Y94221D02*
X365710Y95237D01*
X366726D01*
X365710Y96253D01*
X366726Y97269D01*
X365710D01*
X364694Y98285D01*
X363678Y97269D01*
X362662D01*
X363678Y96253D01*
X362662Y95237D01*
X363678D01*
X364694Y94221D01*
X356700Y119314D02*
X357716Y120330D01*
X358732D01*
X357716Y121346D01*
X358732Y122362D01*
X357716D01*
X356700Y123378D01*
X355684Y122362D01*
X354668D01*
X355684Y121346D01*
X354668Y120330D01*
X355684D01*
X356700Y119314D01*
X403064Y127314D02*
X404080Y128330D01*
X405096D01*
X404080Y129346D01*
X405096Y130362D01*
X404080D01*
X403064Y131378D01*
X402048Y130362D01*
X401032D01*
X402048Y129346D01*
X401032Y128330D01*
X402048D01*
X403064Y127314D01*
X411064Y119314D02*
X412080Y120330D01*
X413096D01*
X412080Y121346D01*
X413096Y122362D01*
X412080D01*
X411064Y123378D01*
X410048Y122362D01*
X409032D01*
X410048Y121346D01*
X409032Y120330D01*
X410048D01*
X411064Y119314D01*
Y141678D02*
X412080Y142694D01*
X413096D01*
X412080Y143710D01*
X413096Y144726D01*
X412080D01*
X411064Y145742D01*
X410048Y144726D01*
X409032D01*
X410048Y143710D01*
X409032Y142694D01*
X410048D01*
X411064Y141678D01*
X403064D02*
X404080Y142694D01*
X405096D01*
X404080Y143710D01*
X405096Y144726D01*
X404080D01*
X403064Y145742D01*
X402048Y144726D01*
X401032D01*
X402048Y143710D01*
X401032Y142694D01*
X402048D01*
X403064Y141678D01*
X395064D02*
X396080Y142694D01*
X397096D01*
X396080Y143710D01*
X397096Y144726D01*
X396080D01*
X395064Y145742D01*
X394048Y144726D01*
X393032D01*
X394048Y143710D01*
X393032Y142694D01*
X394048D01*
X395064Y141678D01*
X387064D02*
X388080Y142694D01*
X389096D01*
X388080Y143710D01*
X389096Y144726D01*
X388080D01*
X387064Y145742D01*
X386048Y144726D01*
X385032D01*
X386048Y143710D01*
X385032Y142694D01*
X386048D01*
X387064Y141678D01*
X356700D02*
X357716Y142694D01*
X358732D01*
X357716Y143710D01*
X358732Y144726D01*
X357716D01*
X356700Y145742D01*
X355684Y144726D01*
X354668D01*
X355684Y143710D01*
X354668Y142694D01*
X355684D01*
X356700Y141678D01*
X310500Y15968D02*
X311516Y16984D01*
X312532D01*
X311516Y18000D01*
X312532Y19016D01*
X311516D01*
X310500Y20032D01*
X309484Y19016D01*
X308468D01*
X309484Y18000D01*
X308468Y16984D01*
X309484D01*
X310500Y15968D01*
X305679Y23168D02*
X306695Y24184D01*
X307711D01*
X306695Y25200D01*
X307711Y26216D01*
X306695D01*
X305679Y27232D01*
X304663Y26216D01*
X303647D01*
X304663Y25200D01*
X303647Y24184D01*
X304663D01*
X305679Y23168D01*
X324000Y20968D02*
X325016Y21984D01*
X326032D01*
X325016Y23000D01*
X326032Y24016D01*
X325016D01*
X324000Y25032D01*
X322984Y24016D01*
X321968D01*
X322984Y23000D01*
X321968Y21984D01*
X322984D01*
X324000Y20968D01*
X136343Y5786D02*
X137359Y6802D01*
X138375D01*
X137359Y7818D01*
X138375Y8834D01*
X137359D01*
X136343Y9850D01*
X135327Y8834D01*
X134311D01*
X135327Y7818D01*
X134311Y6802D01*
X135327D01*
X136343Y5786D01*
X136222Y9784D02*
X137238Y10800D01*
X138253D01*
X137238Y11816D01*
X138253Y12832D01*
X137238D01*
X136222Y13848D01*
X135205Y12832D01*
X134190D01*
X135205Y11816D01*
X134190Y10800D01*
X135205D01*
X136222Y9784D01*
X77750Y127968D02*
X78766Y128984D01*
X79782D01*
X78766Y130000D01*
X79782Y131016D01*
X78766D01*
X77750Y132032D01*
X76734Y131016D01*
X75718D01*
X76734Y130000D01*
X75718Y128984D01*
X76734D01*
X77750Y127968D01*
X75750Y139468D02*
X76766Y140484D01*
X77782D01*
X76766Y141500D01*
X77782Y142516D01*
X76766D01*
X75750Y143532D01*
X74734Y142516D01*
X73718D01*
X74734Y141500D01*
X73718Y140484D01*
X74734D01*
X75750Y139468D01*
X103500Y149718D02*
X104516Y150734D01*
X105532D01*
X104516Y151750D01*
X105532Y152766D01*
X104516D01*
X103500Y153782D01*
X102484Y152766D01*
X101468D01*
X102484Y151750D01*
X101468Y150734D01*
X102484D01*
X103500Y149718D01*
X62992Y105410D02*
X64008Y106426D01*
X65024D01*
X64008Y107442D01*
X65024Y108458D01*
X64008D01*
X62992Y109474D01*
X61976Y108458D01*
X60960D01*
X61976Y107442D01*
X60960Y106426D01*
X61976D01*
X62992Y105410D01*
X255100Y201568D02*
X256116Y202584D01*
X257132D01*
X256116Y203600D01*
X257132Y204616D01*
X256116D01*
X255100Y205632D01*
X254084Y204616D01*
X253068D01*
X254084Y203600D01*
X253068Y202584D01*
X254084D01*
X255100Y201568D01*
X250600Y214468D02*
X251616Y215484D01*
X252632D01*
X251616Y216500D01*
X252632Y217516D01*
X251616D01*
X250600Y218532D01*
X249584Y217516D01*
X248568D01*
X249584Y216500D01*
X248568Y215484D01*
X249584D01*
X250600Y214468D01*
X251900Y204768D02*
X252916Y205784D01*
X253932D01*
X252916Y206800D01*
X253932Y207816D01*
X252916D01*
X251900Y208832D01*
X250884Y207816D01*
X249868D01*
X250884Y206800D01*
X249868Y205784D01*
X250884D01*
X251900Y204768D01*
X255100Y207968D02*
X256116Y208984D01*
X257132D01*
X256116Y210000D01*
X257132Y211016D01*
X256116D01*
X255100Y212032D01*
X254084Y211016D01*
X253068D01*
X254084Y210000D01*
X253068Y208984D01*
X254084D01*
X255100Y207968D01*
Y204768D02*
X256116Y205784D01*
X257132D01*
X256116Y206800D01*
X257132Y207816D01*
X256116D01*
X255100Y208832D01*
X254084Y207816D01*
X253068D01*
X254084Y206800D01*
X253068Y205784D01*
X254084D01*
X255100Y204768D01*
X251900Y201568D02*
X252916Y202584D01*
X253932D01*
X252916Y203600D01*
X253932Y204616D01*
X252916D01*
X251900Y205632D01*
X250884Y204616D01*
X249868D01*
X250884Y203600D01*
X249868Y202584D01*
X250884D01*
X251900Y201568D01*
X485968Y224968D02*
X486984D01*
X488000Y225984D01*
X489016Y224968D01*
X490032D01*
Y225984D01*
X489016Y227000D01*
X490032Y228016D01*
Y229032D01*
X489016D01*
X488000Y228016D01*
X486984Y229032D01*
X485968D01*
Y228016D01*
X486984Y227000D01*
X485968Y225984D01*
Y224968D01*
X493968D02*
X494984D01*
X496000Y225984D01*
X497016Y224968D01*
X498032D01*
Y225984D01*
X497016Y227000D01*
X498032Y228016D01*
Y229032D01*
X497016D01*
X496000Y228016D01*
X494984Y229032D01*
X493968D01*
Y228016D01*
X494984Y227000D01*
X493968Y225984D01*
Y224968D01*
X501968D02*
X502984D01*
X504000Y225984D01*
X505016Y224968D01*
X506032D01*
Y225984D01*
X505016Y227000D01*
X506032Y228016D01*
Y229032D01*
X505016D01*
X504000Y228016D01*
X502984Y229032D01*
X501968D01*
Y228016D01*
X502984Y227000D01*
X501968Y225984D01*
Y224968D01*
X509968D02*
X510984D01*
X512000Y225984D01*
X513016Y224968D01*
X514032D01*
Y225984D01*
X513016Y227000D01*
X514032Y228016D01*
Y229032D01*
X513016D01*
X512000Y228016D01*
X510984Y229032D01*
X509968D01*
Y228016D01*
X510984Y227000D01*
X509968Y225984D01*
Y224968D01*
X517968D02*
X518984D01*
X520000Y225984D01*
X521016Y224968D01*
X522032D01*
Y225984D01*
X521016Y227000D01*
X522032Y228016D01*
Y229032D01*
X521016D01*
X520000Y228016D01*
X518984Y229032D01*
X517968D01*
Y228016D01*
X518984Y227000D01*
X517968Y225984D01*
Y224968D01*
X462000Y195968D02*
X463016Y196984D01*
X464032D01*
X463016Y198000D01*
X464032Y199016D01*
X463016D01*
X462000Y200032D01*
X460984Y199016D01*
X459968D01*
X460984Y198000D01*
X459968Y196984D01*
X460984D01*
X462000Y195968D01*
X532250Y213218D02*
X533266Y214234D01*
X534282D01*
X533266Y215250D01*
X534282Y216266D01*
X533266D01*
X532250Y217282D01*
X531234Y216266D01*
X530218D01*
X531234Y215250D01*
X530218Y214234D01*
X531234D01*
X532250Y213218D01*
X526000D02*
X527016Y214234D01*
X528032D01*
X527016Y215250D01*
X528032Y216266D01*
X527016D01*
X526000Y217282D01*
X524984Y216266D01*
X523968D01*
X524984Y215250D01*
X523968Y214234D01*
X524984D01*
X526000Y213218D01*
X512750D02*
X513766Y214234D01*
X514782D01*
X513766Y215250D01*
X514782Y216266D01*
X513766D01*
X512750Y217282D01*
X511734Y216266D01*
X510718D01*
X511734Y215250D01*
X510718Y214234D01*
X511734D01*
X512750Y213218D01*
X519500Y197718D02*
X520516Y198734D01*
X521532D01*
X520516Y199750D01*
X521532Y200766D01*
X520516D01*
X519500Y201782D01*
X518484Y200766D01*
X517468D01*
X518484Y199750D01*
X517468Y198734D01*
X518484D01*
X519500Y197718D01*
X506301Y195667D02*
X507317Y196683D01*
X508333D01*
X507317Y197699D01*
X508333Y198715D01*
X507317D01*
X506301Y199731D01*
X505285Y198715D01*
X504269D01*
X505285Y197699D01*
X504269Y196683D01*
X505285D01*
X506301Y195667D01*
X445436Y3532D02*
X446452Y4548D01*
X447468D01*
X446452Y5564D01*
X447468Y6580D01*
X446452D01*
X445436Y7596D01*
X444420Y6580D01*
X443404D01*
X444420Y5564D01*
X443404Y4548D01*
X444420D01*
X445436Y3532D01*
X445000Y10218D02*
X446016Y11234D01*
X447032D01*
X446016Y12250D01*
X447032Y13266D01*
X446016D01*
X445000Y14282D01*
X443984Y13266D01*
X442968D01*
X443984Y12250D01*
X442968Y11234D01*
X443984D01*
X445000Y10218D01*
X434750Y3718D02*
X435766Y4734D01*
X436782D01*
X435766Y5750D01*
X436782Y6766D01*
X435766D01*
X434750Y7782D01*
X433734Y6766D01*
X432718D01*
X433734Y5750D01*
X432718Y4734D01*
X433734D01*
X434750Y3718D01*
X438250Y10218D02*
X439266Y11234D01*
X440282D01*
X439266Y12250D01*
X440282Y13266D01*
X439266D01*
X438250Y14282D01*
X437234Y13266D01*
X436218D01*
X437234Y12250D01*
X436218Y11234D01*
X437234D01*
X438250Y10218D01*
Y6968D02*
X439266Y7984D01*
X440282D01*
X439266Y9000D01*
X440282Y10016D01*
X439266D01*
X438250Y11032D01*
X437234Y10016D01*
X436218D01*
X437234Y9000D01*
X436218Y7984D01*
X437234D01*
X438250Y6968D01*
X265142Y60180D02*
X266157Y61196D01*
X267174D01*
X266157Y62212D01*
X267174Y63228D01*
X266157D01*
X265142Y64244D01*
X264125Y63228D01*
X263109D01*
X264125Y62212D01*
X263109Y61196D01*
X264125D01*
X265142Y60180D01*
X493968Y239968D02*
X494984D01*
X496000Y240984D01*
X497016Y239968D01*
X498032D01*
Y240984D01*
X497016Y242000D01*
X498032Y243016D01*
Y244032D01*
X497016D01*
X496000Y243016D01*
X494984Y244032D01*
X493968D01*
Y243016D01*
X494984Y242000D01*
X493968Y240984D01*
Y239968D01*
X509968D02*
X510984D01*
X512000Y240984D01*
X513016Y239968D01*
X514032D01*
Y240984D01*
X513016Y242000D01*
X514032Y243016D01*
Y244032D01*
X513016D01*
X512000Y243016D01*
X510984Y244032D01*
X509968D01*
Y243016D01*
X510984Y242000D01*
X509968Y240984D01*
Y239968D01*
X433076Y161795D02*
X434092Y162811D01*
X435108D01*
X434092Y163827D01*
X435108Y164843D01*
X434092D01*
X433076Y165859D01*
X432060Y164843D01*
X431044D01*
X432060Y163827D01*
X431044Y162811D01*
X432060D01*
X433076Y161795D01*
X436072Y164568D02*
X437088Y165584D01*
X438104D01*
X437088Y166600D01*
X438104Y167616D01*
X437088D01*
X436072Y168632D01*
X435056Y167616D01*
X434040D01*
X435056Y166600D01*
X434040Y165584D01*
X435056D01*
X436072Y164568D01*
X435500Y154968D02*
X436516Y155984D01*
X437532D01*
X436516Y157000D01*
X437532Y158016D01*
X436516D01*
X435500Y159032D01*
X434484Y158016D01*
X433468D01*
X434484Y157000D01*
X433468Y155984D01*
X434484D01*
X435500Y154968D01*
Y196168D02*
X436516Y197184D01*
X437532D01*
X436516Y198200D01*
X437532Y199216D01*
X436516D01*
X435500Y200232D01*
X434484Y199216D01*
X433468D01*
X434484Y198200D01*
X433468Y197184D01*
X434484D01*
X435500Y196168D01*
X388288Y165203D02*
X389304Y166219D01*
X390320D01*
X389304Y167235D01*
X390320Y168251D01*
X389304D01*
X388288Y169267D01*
X387271Y168251D01*
X386255D01*
X387271Y167235D01*
X386255Y166219D01*
X387271D01*
X388288Y165203D01*
X521000Y177968D02*
X522016Y178984D01*
X523032D01*
X522016Y180000D01*
X523032Y181016D01*
X522016D01*
X521000Y182032D01*
X519984Y181016D01*
X518968D01*
X519984Y180000D01*
X518968Y178984D01*
X519984D01*
X521000Y177968D01*
Y157968D02*
X522016Y158984D01*
X523032D01*
X522016Y160000D01*
X523032Y161016D01*
X522016D01*
X521000Y162032D01*
X519984Y161016D01*
X518968D01*
X519984Y160000D01*
X518968Y158984D01*
X519984D01*
X521000Y157968D01*
X356248Y165145D02*
X357264Y166161D01*
X358280D01*
X357264Y167177D01*
X358280Y168193D01*
X357264D01*
X356248Y169209D01*
X355232Y168193D01*
X354216D01*
X355232Y167177D01*
X354216Y166161D01*
X355232D01*
X356248Y165145D01*
X331601Y143169D02*
X332617Y144185D01*
X333633D01*
X332617Y145201D01*
X333633Y146217D01*
X332617D01*
X331601Y147233D01*
X330585Y146217D01*
X329569D01*
X330585Y145201D01*
X329569Y144185D01*
X330585D01*
X331601Y143169D01*
X352111Y216168D02*
X353127Y217184D01*
X354143D01*
X353127Y218200D01*
X354143Y219216D01*
X353127D01*
X352111Y220232D01*
X351095Y219216D01*
X350079D01*
X351095Y218200D01*
X350079Y217184D01*
X351095D01*
X352111Y216168D01*
X352000Y221968D02*
X353016Y222984D01*
X354032D01*
X353016Y224000D01*
X354032Y225016D01*
X353016D01*
X352000Y226032D01*
X350984Y225016D01*
X349968D01*
X350984Y224000D01*
X349968Y222984D01*
X350984D01*
X352000Y221968D01*
X489000Y130968D02*
X490016Y131984D01*
X491032D01*
X490016Y133000D01*
X491032Y134016D01*
X490016D01*
X489000Y135032D01*
X487984Y134016D01*
X486968D01*
X487984Y133000D01*
X486968Y131984D01*
X487984D01*
X489000Y130968D01*
X492088Y136070D02*
X493104Y137086D01*
X494120D01*
X493104Y138102D01*
X494120Y139118D01*
X493104D01*
X492088Y140134D01*
X491072Y139118D01*
X490056D01*
X491072Y138102D01*
X490056Y137086D01*
X491072D01*
X492088Y136070D01*
X508000Y128968D02*
X509016Y129984D01*
X510032D01*
X509016Y131000D01*
X510032Y132016D01*
X509016D01*
X508000Y133032D01*
X506984Y132016D01*
X505968D01*
X506984Y131000D01*
X505968Y129984D01*
X506984D01*
X508000Y128968D01*
X503000Y111968D02*
X504016Y112984D01*
X505032D01*
X504016Y114000D01*
X505032Y115016D01*
X504016D01*
X503000Y116032D01*
X501984Y115016D01*
X500968D01*
X501984Y114000D01*
X500968Y112984D01*
X501984D01*
X503000Y111968D01*
X429400Y86968D02*
X430416Y87984D01*
X431432D01*
X430416Y89000D01*
X431432Y90016D01*
X430416D01*
X429400Y91032D01*
X428384Y90016D01*
X427368D01*
X428384Y89000D01*
X427368Y87984D01*
X428384D01*
X429400Y86968D01*
X410800Y87368D02*
X411816Y88384D01*
X412832D01*
X411816Y89400D01*
X412832Y90416D01*
X411816D01*
X410800Y91432D01*
X409784Y90416D01*
X408768D01*
X409784Y89400D01*
X408768Y88384D01*
X409784D01*
X410800Y87368D01*
X201779Y182135D02*
X202795Y183151D01*
X203811D01*
X202795Y184167D01*
X203811Y185183D01*
X202795D01*
X201779Y186199D01*
X200763Y185183D01*
X199747D01*
X200763Y184167D01*
X199747Y183151D01*
X200763D01*
X201779Y182135D01*
X420100Y185368D02*
X421116Y186384D01*
X422132D01*
X421116Y187400D01*
X422132Y188416D01*
X421116D01*
X420100Y189432D01*
X419084Y188416D01*
X418068D01*
X419084Y187400D01*
X418068Y186384D01*
X419084D01*
X420100Y185368D01*
X453000Y157968D02*
X454016Y158984D01*
X455032D01*
X454016Y160000D01*
X455032Y161016D01*
X454016D01*
X453000Y162032D01*
X451984Y161016D01*
X450968D01*
X451984Y160000D01*
X450968Y158984D01*
X451984D01*
X453000Y157968D01*
X411109Y182077D02*
X412125Y183093D01*
X413141D01*
X412125Y184109D01*
X413141Y185125D01*
X412125D01*
X411109Y186141D01*
X410093Y185125D01*
X409077D01*
X410093Y184109D01*
X409077Y183093D01*
X410093D01*
X411109Y182077D01*
X156335Y247603D02*
X157352Y248619D01*
X158368D01*
X157352Y249636D01*
X158368Y250651D01*
X157352D01*
X156335Y251667D01*
X155319Y250651D01*
X154304D01*
X155319Y249636D01*
X154304Y248619D01*
X155319D01*
X156335Y247603D01*
X170600Y239683D02*
X171616Y240699D01*
X172632D01*
X171616Y241715D01*
X172632Y242731D01*
X171616D01*
X170600Y243747D01*
X169584Y242731D01*
X168568D01*
X169584Y241715D01*
X168568Y240699D01*
X169584D01*
X170600Y239683D01*
X176500Y229468D02*
X177516Y230484D01*
X178532D01*
X177516Y231500D01*
X178532Y232516D01*
X177516D01*
X176500Y233532D01*
X175484Y232516D01*
X174468D01*
X175484Y231500D01*
X174468Y230484D01*
X175484D01*
X176500Y229468D01*
X285300Y144668D02*
X286316Y145684D01*
X287332D01*
X286316Y146700D01*
X287332Y147716D01*
X286316D01*
X285300Y148732D01*
X284284Y147716D01*
X283268D01*
X284284Y146700D01*
X283268Y145684D01*
X284284D01*
X285300Y144668D01*
X289199Y141367D02*
X290215Y142383D01*
X291231D01*
X290215Y143399D01*
X291231Y144415D01*
X290215D01*
X289199Y145431D01*
X288183Y144415D01*
X287167D01*
X288183Y143399D01*
X287167Y142383D01*
X288183D01*
X289199Y141367D01*
X453800Y249468D02*
X454816Y250484D01*
X455832D01*
X454816Y251500D01*
X455832Y252516D01*
X454816D01*
X453800Y253532D01*
X452784Y252516D01*
X451768D01*
X452784Y251500D01*
X451768Y250484D01*
X452784D01*
X453800Y249468D01*
X457600D02*
X458616Y250484D01*
X459632D01*
X458616Y251500D01*
X459632Y252516D01*
X458616D01*
X457600Y253532D01*
X456584Y252516D01*
X455568D01*
X456584Y251500D01*
X455568Y250484D01*
X456584D01*
X457600Y249468D01*
X450000D02*
X451016Y250484D01*
X452032D01*
X451016Y251500D01*
X452032Y252516D01*
X451016D01*
X450000Y253532D01*
X448984Y252516D01*
X447968D01*
X448984Y251500D01*
X447968Y250484D01*
X448984D01*
X450000Y249468D01*
X214200Y104868D02*
X215216Y105884D01*
X216232D01*
X215216Y106900D01*
X216232Y107916D01*
X215216D01*
X214200Y108932D01*
X213184Y107916D01*
X212168D01*
X213184Y106900D01*
X212168Y105884D01*
X213184D01*
X214200Y104868D01*
X348500Y190468D02*
X349516Y191484D01*
X350532D01*
X349516Y192500D01*
X350532Y193516D01*
X349516D01*
X348500Y194532D01*
X347484Y193516D01*
X346468D01*
X347484Y192500D01*
X346468Y191484D01*
X347484D01*
X348500Y190468D01*
X351000Y197968D02*
X352016Y198984D01*
X353032D01*
X352016Y200000D01*
X353032Y201016D01*
X352016D01*
X351000Y202032D01*
X349984Y201016D01*
X348968D01*
X349984Y200000D01*
X348968Y198984D01*
X349984D01*
X351000Y197968D01*
X347021Y197561D02*
X348037Y198577D01*
X349053D01*
X348037Y199593D01*
X349053Y200609D01*
X348037D01*
X347021Y201625D01*
X346005Y200609D01*
X344989D01*
X346005Y199593D01*
X344989Y198577D01*
X346005D01*
X347021Y197561D01*
X437000Y205968D02*
X438016Y206984D01*
X439032D01*
X438016Y208000D01*
X439032Y209016D01*
X438016D01*
X437000Y210032D01*
X435984Y209016D01*
X434968D01*
X435984Y208000D01*
X434968Y206984D01*
X435984D01*
X437000Y205968D01*
X473049Y100817D02*
X474065Y101833D01*
X475081D01*
X474065Y102849D01*
X475081Y103865D01*
X474065D01*
X473049Y104881D01*
X472033Y103865D01*
X471017D01*
X472033Y102849D01*
X471017Y101833D01*
X472033D01*
X473049Y100817D01*
X271000Y251968D02*
X272016Y252984D01*
X273032D01*
X272016Y254000D01*
X273032Y255016D01*
X272016D01*
X271000Y256032D01*
X269984Y255016D01*
X268968D01*
X269984Y254000D01*
X268968Y252984D01*
X269984D01*
X271000Y251968D01*
X267000D02*
X268016Y252984D01*
X269032D01*
X268016Y254000D01*
X269032Y255016D01*
X268016D01*
X267000Y256032D01*
X265984Y255016D01*
X264968D01*
X265984Y254000D01*
X264968Y252984D01*
X265984D01*
X267000Y251968D01*
X437250Y237568D02*
X438266Y238584D01*
X439282D01*
X438266Y239600D01*
X439282Y240616D01*
X438266D01*
X437250Y241632D01*
X436234Y240616D01*
X435218D01*
X436234Y239600D01*
X435218Y238584D01*
X436234D01*
X437250Y237568D01*
X436200Y246868D02*
X437216Y247884D01*
X438232D01*
X437216Y248900D01*
X438232Y249916D01*
X437216D01*
X436200Y250932D01*
X435184Y249916D01*
X434168D01*
X435184Y248900D01*
X434168Y247884D01*
X435184D01*
X436200Y246868D01*
X440500Y246768D02*
X441516Y247784D01*
X442532D01*
X441516Y248800D01*
X442532Y249816D01*
X441516D01*
X440500Y250832D01*
X439484Y249816D01*
X438468D01*
X439484Y248800D01*
X438468Y247784D01*
X439484D01*
X440500Y246768D01*
X333300Y149868D02*
X334316Y150884D01*
X335332D01*
X334316Y151900D01*
X335332Y152916D01*
X334316D01*
X333300Y153932D01*
X332284Y152916D01*
X331268D01*
X332284Y151900D01*
X331268Y150884D01*
X332284D01*
X333300Y149868D01*
X169000Y136968D02*
X170016Y137984D01*
X171032D01*
X170016Y139000D01*
X171032Y140016D01*
X170016D01*
X169000Y141032D01*
X167984Y140016D01*
X166968D01*
X167984Y139000D01*
X166968Y137984D01*
X167984D01*
X169000Y136968D01*
X165000D02*
X166016Y137984D01*
X167032D01*
X166016Y139000D01*
X167032Y140016D01*
X166016D01*
X165000Y141032D01*
X163984Y140016D01*
X162968D01*
X163984Y139000D01*
X162968Y137984D01*
X163984D01*
X165000Y136968D01*
X161000D02*
X162016Y137984D01*
X163032D01*
X162016Y139000D01*
X163032Y140016D01*
X162016D01*
X161000Y141032D01*
X159984Y140016D01*
X158968D01*
X159984Y139000D01*
X158968Y137984D01*
X159984D01*
X161000Y136968D01*
X218600Y104968D02*
X219616Y105984D01*
X220632D01*
X219616Y107000D01*
X220632Y108016D01*
X219616D01*
X218600Y109032D01*
X217584Y108016D01*
X216568D01*
X217584Y107000D01*
X216568Y105984D01*
X217584D01*
X218600Y104968D01*
X221000Y107968D02*
X222016Y108984D01*
X223032D01*
X222016Y110000D01*
X223032Y111016D01*
X222016D01*
X221000Y112032D01*
X219984Y111016D01*
X218968D01*
X219984Y110000D01*
X218968Y108984D01*
X219984D01*
X221000Y107968D01*
X216000D02*
X217016Y108984D01*
X218032D01*
X217016Y110000D01*
X218032Y111016D01*
X217016D01*
X216000Y112032D01*
X214984Y111016D01*
X213968D01*
X214984Y110000D01*
X213968Y108984D01*
X214984D01*
X216000Y107968D01*
X231000Y148968D02*
X232016Y149984D01*
X233032D01*
X232016Y151000D01*
X233032Y152016D01*
X232016D01*
X231000Y153032D01*
X229984Y152016D01*
X228968D01*
X229984Y151000D01*
X228968Y149984D01*
X229984D01*
X231000Y148968D01*
X226000D02*
X227016Y149984D01*
X228032D01*
X227016Y151000D01*
X228032Y152016D01*
X227016D01*
X226000Y153032D01*
X224984Y152016D01*
X223968D01*
X224984Y151000D01*
X223968Y149984D01*
X224984D01*
X226000Y148968D01*
X221000D02*
X222016Y149984D01*
X223032D01*
X222016Y151000D01*
X223032Y152016D01*
X222016D01*
X221000Y153032D01*
X219984Y152016D01*
X218968D01*
X219984Y151000D01*
X218968Y149984D01*
X219984D01*
X221000Y148968D01*
X552500Y198168D02*
X553516Y199184D01*
X554532D01*
X553516Y200200D01*
X554532Y201216D01*
X553516D01*
X552500Y202232D01*
X551484Y201216D01*
X550468D01*
X551484Y200200D01*
X550468Y199184D01*
X551484D01*
X552500Y198168D01*
X545900D02*
X546916Y199184D01*
X547932D01*
X546916Y200200D01*
X547932Y201216D01*
X546916D01*
X545900Y202232D01*
X544884Y201216D01*
X543868D01*
X544884Y200200D01*
X543868Y199184D01*
X544884D01*
X545900Y198168D01*
X539200Y198068D02*
X540216Y199084D01*
X541232D01*
X540216Y200100D01*
X541232Y201116D01*
X540216D01*
X539200Y202132D01*
X538184Y201116D01*
X537168D01*
X538184Y200100D01*
X537168Y199084D01*
X538184D01*
X539200Y198068D01*
X16000Y87968D02*
X17016Y88984D01*
X18032D01*
X17016Y90000D01*
X18032Y91016D01*
X17016D01*
X16000Y92032D01*
X14984Y91016D01*
X13968D01*
X14984Y90000D01*
X13968Y88984D01*
X14984D01*
X16000Y87968D01*
X181000Y247968D02*
X182016Y248984D01*
X183032D01*
X182016Y250000D01*
X183032Y251016D01*
X182016D01*
X181000Y252032D01*
X179984Y251016D01*
X178968D01*
X179984Y250000D01*
X178968Y248984D01*
X179984D01*
X181000Y247968D01*
X93000Y251968D02*
X94016Y252984D01*
X95032D01*
X94016Y254000D01*
X95032Y255016D01*
X94016D01*
X93000Y256032D01*
X91984Y255016D01*
X90968D01*
X91984Y254000D01*
X90968Y252984D01*
X91984D01*
X93000Y251968D01*
Y241968D02*
X94016Y242984D01*
X95032D01*
X94016Y244000D01*
X95032Y245016D01*
X94016D01*
X93000Y246032D01*
X91984Y245016D01*
X90968D01*
X91984Y244000D01*
X90968Y242984D01*
X91984D01*
X93000Y241968D01*
Y222968D02*
X94016Y223984D01*
X95032D01*
X94016Y225000D01*
X95032Y226016D01*
X94016D01*
X93000Y227032D01*
X91984Y226016D01*
X90968D01*
X91984Y225000D01*
X90968Y223984D01*
X91984D01*
X93000Y222968D01*
X5000Y208968D02*
X6016Y209984D01*
X7032D01*
X6016Y211000D01*
X7032Y212016D01*
X6016D01*
X5000Y213032D01*
X3984Y212016D01*
X2968D01*
X3984Y211000D01*
X2968Y209984D01*
X3984D01*
X5000Y208968D01*
Y238968D02*
X6016Y239984D01*
X7032D01*
X6016Y241000D01*
X7032Y242016D01*
X6016D01*
X5000Y243032D01*
X3984Y242016D01*
X2968D01*
X3984Y241000D01*
X2968Y239984D01*
X3984D01*
X5000Y238968D01*
X30000D02*
X31016Y239984D01*
X32032D01*
X31016Y241000D01*
X32032Y242016D01*
X31016D01*
X30000Y243032D01*
X28984Y242016D01*
X27968D01*
X28984Y241000D01*
X27968Y239984D01*
X28984D01*
X30000Y238968D01*
X49000Y218968D02*
X50016Y219984D01*
X51032D01*
X50016Y221000D01*
X51032Y222016D01*
X50016D01*
X49000Y223032D01*
X47984Y222016D01*
X46968D01*
X47984Y221000D01*
X46968Y219984D01*
X47984D01*
X49000Y218968D01*
X37000Y158968D02*
X38016Y159984D01*
X39032D01*
X38016Y161000D01*
X39032Y162016D01*
X38016D01*
X37000Y163032D01*
X35984Y162016D01*
X34968D01*
X35984Y161000D01*
X34968Y159984D01*
X35984D01*
X37000Y158968D01*
X33000Y154968D02*
X34016Y155984D01*
X35032D01*
X34016Y157000D01*
X35032Y158016D01*
X34016D01*
X33000Y159032D01*
X31984Y158016D01*
X30968D01*
X31984Y157000D01*
X30968Y155984D01*
X31984D01*
X33000Y154968D01*
X48000Y152968D02*
X49016Y153984D01*
X50032D01*
X49016Y155000D01*
X50032Y156016D01*
X49016D01*
X48000Y157032D01*
X46984Y156016D01*
X45968D01*
X46984Y155000D01*
X45968Y153984D01*
X46984D01*
X48000Y152968D01*
X29000Y208968D02*
X30016Y209984D01*
X31032D01*
X30016Y211000D01*
X31032Y212016D01*
X30016D01*
X29000Y213032D01*
X27984Y212016D01*
X26968D01*
X27984Y211000D01*
X26968Y209984D01*
X27984D01*
X29000Y208968D01*
X123753Y248068D02*
X124769Y249084D01*
X125785D01*
X124769Y250100D01*
X125785Y251116D01*
X124769D01*
X123753Y252132D01*
X122737Y251116D01*
X121721D01*
X122737Y250100D01*
X121721Y249084D01*
X122737D01*
X123753Y248068D01*
X112541D02*
X113557Y249084D01*
X114573D01*
X113557Y250100D01*
X114573Y251116D01*
X113557D01*
X112541Y252132D01*
X111525Y251116D01*
X110509D01*
X111525Y250100D01*
X110509Y249084D01*
X111525D01*
X112541Y248068D01*
X125000Y203198D02*
X126016Y204214D01*
X127032D01*
X126016Y205230D01*
X127032Y206246D01*
X126016D01*
X125000Y207262D01*
X123984Y206246D01*
X122968D01*
X123984Y205230D01*
X122968Y204214D01*
X123984D01*
X125000Y203198D01*
X109000Y202968D02*
X110016Y203984D01*
X111032D01*
X110016Y205000D01*
X111032Y206016D01*
X110016D01*
X109000Y207032D01*
X107984Y206016D01*
X106968D01*
X107984Y205000D01*
X106968Y203984D01*
X107984D01*
X109000Y202968D01*
X100000Y203968D02*
X101016Y204984D01*
X102032D01*
X101016Y206000D01*
X102032Y207016D01*
X101016D01*
X100000Y208032D01*
X98984Y207016D01*
X97968D01*
X98984Y206000D01*
X97968Y204984D01*
X98984D01*
X100000Y203968D01*
X11200Y149468D02*
X12216Y150484D01*
X13232D01*
X12216Y151500D01*
X13232Y152516D01*
X12216D01*
X11200Y153532D01*
X10184Y152516D01*
X9168D01*
X10184Y151500D01*
X9168Y150484D01*
X10184D01*
X11200Y149468D01*
X523000Y19968D02*
X524016Y20984D01*
X525032D01*
X524016Y22000D01*
X525032Y23016D01*
X524016D01*
X523000Y24032D01*
X521984Y23016D01*
X520968D01*
X521984Y22000D01*
X520968Y20984D01*
X521984D01*
X523000Y19968D01*
Y34968D02*
X524016Y35984D01*
X525032D01*
X524016Y37000D01*
X525032Y38016D01*
X524016D01*
X523000Y39032D01*
X521984Y38016D01*
X520968D01*
X521984Y37000D01*
X520968Y35984D01*
X521984D01*
X523000Y34968D01*
X535432Y71374D02*
X536448Y72390D01*
X537464D01*
X536448Y73406D01*
X537464Y74422D01*
X536448D01*
X535432Y75438D01*
X534416Y74422D01*
X533400D01*
X534416Y73406D01*
X533400Y72390D01*
X534416D01*
X535432Y71374D01*
X565912Y46482D02*
X566928Y47498D01*
X567944D01*
X566928Y48514D01*
X567944Y49530D01*
X566928D01*
X565912Y50546D01*
X564896Y49530D01*
X563880D01*
X564896Y48514D01*
X563880Y47498D01*
X564896D01*
X565912Y46482D01*
X557022Y73914D02*
X558038Y74930D01*
X559054D01*
X558038Y75946D01*
X559054Y76962D01*
X558038D01*
X557022Y77978D01*
X556006Y76962D01*
X554990D01*
X556006Y75946D01*
X554990Y74930D01*
X556006D01*
X557022Y73914D01*
X561594D02*
X562610Y74930D01*
X563626D01*
X562610Y75946D01*
X563626Y76962D01*
X562610D01*
X561594Y77978D01*
X560578Y76962D01*
X559562D01*
X560578Y75946D01*
X559562Y74930D01*
X560578D01*
X561594Y73914D01*
X565912D02*
X566928Y74930D01*
X567944D01*
X566928Y75946D01*
X567944Y76962D01*
X566928D01*
X565912Y77978D01*
X564896Y76962D01*
X563880D01*
X564896Y75946D01*
X563880Y74930D01*
X564896D01*
X565912Y73914D01*
Y54610D02*
X566928Y55626D01*
X567944D01*
X566928Y56642D01*
X567944Y57658D01*
X566928D01*
X565912Y58674D01*
X564896Y57658D01*
X563880D01*
X564896Y56642D01*
X563880Y55626D01*
X564896D01*
X565912Y54610D01*
Y50546D02*
X566928Y51562D01*
X567944D01*
X566928Y52578D01*
X567944Y53594D01*
X566928D01*
X565912Y54610D01*
X564896Y53594D01*
X563880D01*
X564896Y52578D01*
X563880Y51562D01*
X564896D01*
X565912Y50546D01*
X416400Y32868D02*
X417416Y33884D01*
X418432D01*
X417416Y34900D01*
X418432Y35916D01*
X417416D01*
X416400Y36932D01*
X415384Y35916D01*
X414368D01*
X415384Y34900D01*
X414368Y33884D01*
X415384D01*
X416400Y32868D01*
Y37768D02*
X417416Y38784D01*
X418432D01*
X417416Y39800D01*
X418432Y40816D01*
X417416D01*
X416400Y41832D01*
X415384Y40816D01*
X414368D01*
X415384Y39800D01*
X414368Y38784D01*
X415384D01*
X416400Y37768D01*
Y27368D02*
X417416Y28384D01*
X418432D01*
X417416Y29400D01*
X418432Y30416D01*
X417416D01*
X416400Y31432D01*
X415384Y30416D01*
X414368D01*
X415384Y29400D01*
X414368Y28384D01*
X415384D01*
X416400Y27368D01*
X490000Y106668D02*
X491016Y107684D01*
X492032D01*
X491016Y108700D01*
X492032Y109716D01*
X491016D01*
X490000Y110732D01*
X488984Y109716D01*
X487968D01*
X488984Y108700D01*
X487968Y107684D01*
X488984D01*
X490000Y106668D01*
X280000Y214768D02*
X281016Y215784D01*
X282032D01*
X281016Y216800D01*
X282032Y217816D01*
X281016D01*
X280000Y218832D01*
X278984Y217816D01*
X277968D01*
X278984Y216800D01*
X277968Y215784D01*
X278984D01*
X280000Y214768D01*
X105950Y88043D02*
X106966Y89059D01*
X107982D01*
X106966Y90075D01*
X107982Y91091D01*
X106966D01*
X105950Y92107D01*
X104934Y91091D01*
X103918D01*
X104934Y90075D01*
X103918Y89059D01*
X104934D01*
X105950Y88043D01*
X451900Y182568D02*
X452916Y183584D01*
X453932D01*
X452916Y184600D01*
X453932Y185616D01*
X452916D01*
X451900Y186632D01*
X450884Y185616D01*
X449868D01*
X450884Y184600D01*
X449868Y183584D01*
X450884D01*
X451900Y182568D01*
X246800Y168368D02*
X247816Y169384D01*
X248832D01*
X247816Y170400D01*
X248832Y171416D01*
X247816D01*
X246800Y172432D01*
X245784Y171416D01*
X244768D01*
X245784Y170400D01*
X244768Y169384D01*
X245784D01*
X246800Y168368D01*
X247000Y177968D02*
X248016Y178984D01*
X249032D01*
X248016Y180000D01*
X249032Y181016D01*
X248016D01*
X247000Y182032D01*
X245984Y181016D01*
X244968D01*
X245984Y180000D01*
X244968Y178984D01*
X245984D01*
X247000Y177968D01*
X388300Y149368D02*
X389316Y150384D01*
X390332D01*
X389316Y151400D01*
X390332Y152416D01*
X389316D01*
X388300Y153432D01*
X387284Y152416D01*
X386268D01*
X387284Y151400D01*
X386268Y150384D01*
X387284D01*
X388300Y149368D01*
X83000Y218645D02*
X84016Y219661D01*
X85032D01*
X84016Y220677D01*
X85032Y221693D01*
X84016D01*
X83000Y222709D01*
X81984Y221693D01*
X80968D01*
X81984Y220677D01*
X80968Y219661D01*
X81984D01*
X83000Y218645D01*
X89000Y227801D02*
X90016Y228817D01*
X91032D01*
X90016Y229833D01*
X91032Y230849D01*
X90016D01*
X89000Y231865D01*
X87984Y230849D01*
X86968D01*
X87984Y229833D01*
X86968Y228817D01*
X87984D01*
X89000Y227801D01*
X93000Y217968D02*
X94016Y218984D01*
X95032D01*
X94016Y220000D01*
X95032Y221016D01*
X94016D01*
X93000Y222032D01*
X91984Y221016D01*
X90968D01*
X91984Y220000D01*
X90968Y218984D01*
X91984D01*
X93000Y217968D01*
X80404Y215602D02*
X81420Y216618D01*
X82436D01*
X81420Y217634D01*
X82436Y218650D01*
X81420D01*
X80404Y219666D01*
X79388Y218650D01*
X78372D01*
X79388Y217634D01*
X78372Y216618D01*
X79388D01*
X80404Y215602D01*
X460000Y231968D02*
X461016Y232984D01*
X462032D01*
X461016Y234000D01*
X462032Y235016D01*
X461016D01*
X460000Y236032D01*
X458984Y235016D01*
X457968D01*
X458984Y234000D01*
X457968Y232984D01*
X458984D01*
X460000Y231968D01*
X453700Y226468D02*
X454716Y227484D01*
X455732D01*
X454716Y228500D01*
X455732Y229516D01*
X454716D01*
X453700Y230532D01*
X452684Y229516D01*
X451668D01*
X452684Y228500D01*
X451668Y227484D01*
X452684D01*
X453700Y226468D01*
X26800Y159468D02*
X27816Y160484D01*
X28832D01*
X27816Y161500D01*
X28832Y162516D01*
X27816D01*
X26800Y163532D01*
X25784Y162516D01*
X24768D01*
X25784Y161500D01*
X24768Y160484D01*
X25784D01*
X26800Y159468D01*
Y144468D02*
X27816Y145484D01*
X28832D01*
X27816Y146500D01*
X28832Y147516D01*
X27816D01*
X26800Y148532D01*
X25784Y147516D01*
X24768D01*
X25784Y146500D01*
X24768Y145484D01*
X25784D01*
X26800Y144468D01*
Y154668D02*
X27816Y155684D01*
X28832D01*
X27816Y156700D01*
X28832Y157716D01*
X27816D01*
X26800Y158732D01*
X25784Y157716D01*
X24768D01*
X25784Y156700D01*
X24768Y155684D01*
X25784D01*
X26800Y154668D01*
X105320Y227068D02*
X106336Y228084D01*
X107352D01*
X106336Y229100D01*
X107352Y230116D01*
X106336D01*
X105320Y231132D01*
X104304Y230116D01*
X103288D01*
X104304Y229100D01*
X103288Y228084D01*
X104304D01*
X105320Y227068D01*
X103968Y66968D02*
X104984D01*
X106000Y67984D01*
X107016Y66968D01*
X108032D01*
Y67984D01*
X107016Y69000D01*
X108032Y70016D01*
Y71032D01*
X107016D01*
X106000Y70016D01*
X104984Y71032D01*
X103968D01*
Y70016D01*
X104984Y69000D01*
X103968Y67984D01*
Y66968D01*
X104011Y72908D02*
X105027D01*
X106043Y73924D01*
X107059Y72908D01*
X108075D01*
Y73924D01*
X107059Y74940D01*
X108075Y75956D01*
Y76972D01*
X107059D01*
X106043Y75956D01*
X105027Y76972D01*
X104011D01*
Y75956D01*
X105027Y74940D01*
X104011Y73924D01*
Y72908D01*
X454000Y129968D02*
X455016Y130984D01*
X456032D01*
X455016Y132000D01*
X456032Y133016D01*
X455016D01*
X454000Y134032D01*
X452984Y133016D01*
X451968D01*
X452984Y132000D01*
X451968Y130984D01*
X452984D01*
X454000Y129968D01*
Y126968D02*
X455016Y127984D01*
X456032D01*
X455016Y129000D01*
X456032Y130016D01*
X455016D01*
X454000Y131032D01*
X452984Y130016D01*
X451968D01*
X452984Y129000D01*
X451968Y127984D01*
X452984D01*
X454000Y126968D01*
Y123968D02*
X455016Y124984D01*
X456032D01*
X455016Y126000D01*
X456032Y127016D01*
X455016D01*
X454000Y128032D01*
X452984Y127016D01*
X451968D01*
X452984Y126000D01*
X451968Y124984D01*
X452984D01*
X454000Y123968D01*
Y120968D02*
X455016Y121984D01*
X456032D01*
X455016Y123000D01*
X456032Y124016D01*
X455016D01*
X454000Y125032D01*
X452984Y124016D01*
X451968D01*
X452984Y123000D01*
X451968Y121984D01*
X452984D01*
X454000Y120968D01*
X469512Y113968D02*
X470528Y114984D01*
X471544D01*
X470528Y116000D01*
X471544Y117016D01*
X470528D01*
X469512Y118032D01*
X468497Y117016D01*
X467481D01*
X468497Y116000D01*
X467481Y114984D01*
X468497D01*
X469512Y113968D01*
X466300D02*
X467316Y114984D01*
X468332D01*
X467316Y116000D01*
X468332Y117016D01*
X467316D01*
X466300Y118032D01*
X465284Y117016D01*
X464268D01*
X465284Y116000D01*
X464268Y114984D01*
X465284D01*
X466300Y113968D01*
X473000D02*
X474016Y114984D01*
X475032D01*
X474016Y116000D01*
X475032Y117016D01*
X474016D01*
X473000Y118032D01*
X471984Y117016D01*
X470968D01*
X471984Y116000D01*
X470968Y114984D01*
X471984D01*
X473000Y113968D01*
X498000Y112968D02*
X499016Y113984D01*
X500032D01*
X499016Y115000D01*
X500032Y116016D01*
X499016D01*
X498000Y117032D01*
X496984Y116016D01*
X495968D01*
X496984Y115000D01*
X495968Y113984D01*
X496984D01*
X498000Y112968D01*
X158000Y49968D02*
X159016Y50984D01*
X160032D01*
X159016Y52000D01*
X160032Y53016D01*
X159016D01*
X158000Y54032D01*
X156984Y53016D01*
X155968D01*
X156984Y52000D01*
X155968Y50984D01*
X156984D01*
X158000Y49968D01*
X184900Y23568D02*
X185916Y24584D01*
X186932D01*
X185916Y25600D01*
X186932Y26616D01*
X185916D01*
X184900Y27632D01*
X183884Y26616D01*
X182868D01*
X183884Y25600D01*
X182868Y24584D01*
X183884D01*
X184900Y23568D01*
X186000Y153968D02*
X187016Y154984D01*
X188032D01*
X187016Y156000D01*
X188032Y157016D01*
X187016D01*
X186000Y158032D01*
X184984Y157016D01*
X183968D01*
X184984Y156000D01*
X183968Y154984D01*
X184984D01*
X186000Y153968D01*
X194000D02*
X195016Y154984D01*
X196032D01*
X195016Y156000D01*
X196032Y157016D01*
X195016D01*
X194000Y158032D01*
X192984Y157016D01*
X191968D01*
X192984Y156000D01*
X191968Y154984D01*
X192984D01*
X194000Y153968D01*
X190000D02*
X191016Y154984D01*
X192032D01*
X191016Y156000D01*
X192032Y157016D01*
X191016D01*
X190000Y158032D01*
X188984Y157016D01*
X187968D01*
X188984Y156000D01*
X187968Y154984D01*
X188984D01*
X190000Y153968D01*
X181000Y214968D02*
X182016Y215984D01*
X183032D01*
X182016Y217000D01*
X183032Y218016D01*
X182016D01*
X181000Y219032D01*
X179984Y218016D01*
X178968D01*
X179984Y217000D01*
X178968Y215984D01*
X179984D01*
X181000Y214968D01*
X123959Y175968D02*
X124975Y176984D01*
X125991D01*
X124975Y178000D01*
X125991Y179016D01*
X124975D01*
X123959Y180032D01*
X122943Y179016D01*
X121927D01*
X122943Y178000D01*
X121927Y176984D01*
X122943D01*
X123959Y175968D01*
X186000Y35968D02*
X187016Y36984D01*
X188032D01*
X187016Y38000D01*
X188032Y39016D01*
X187016D01*
X186000Y40032D01*
X184984Y39016D01*
X183968D01*
X184984Y38000D01*
X183968Y36984D01*
X184984D01*
X186000Y35968D01*
Y39468D02*
X187016Y40484D01*
X188032D01*
X187016Y41500D01*
X188032Y42516D01*
X187016D01*
X186000Y43532D01*
X184984Y42516D01*
X183968D01*
X184984Y41500D01*
X183968Y40484D01*
X184984D01*
X186000Y39468D01*
X189500Y35968D02*
X190516Y36984D01*
X191532D01*
X190516Y38000D01*
X191532Y39016D01*
X190516D01*
X189500Y40032D01*
X188484Y39016D01*
X187468D01*
X188484Y38000D01*
X187468Y36984D01*
X188484D01*
X189500Y35968D01*
Y39468D02*
X190516Y40484D01*
X191532D01*
X190516Y41500D01*
X191532Y42516D01*
X190516D01*
X189500Y43532D01*
X188484Y42516D01*
X187468D01*
X188484Y41500D01*
X187468Y40484D01*
X188484D01*
X189500Y39468D01*
X203500Y32468D02*
X204516Y33484D01*
X205532D01*
X204516Y34500D01*
X205532Y35516D01*
X204516D01*
X203500Y36532D01*
X202484Y35516D01*
X201468D01*
X202484Y34500D01*
X201468Y33484D01*
X202484D01*
X203500Y32468D01*
X200000D02*
X201016Y33484D01*
X202032D01*
X201016Y34500D01*
X202032Y35516D01*
X201016D01*
X200000Y36532D01*
X198984Y35516D01*
X197968D01*
X198984Y34500D01*
X197968Y33484D01*
X198984D01*
X200000Y32468D01*
Y35968D02*
X201016Y36984D01*
X202032D01*
X201016Y38000D01*
X202032Y39016D01*
X201016D01*
X200000Y40032D01*
X198984Y39016D01*
X197968D01*
X198984Y38000D01*
X197968Y36984D01*
X198984D01*
X200000Y35968D01*
X196500Y32468D02*
X197516Y33484D01*
X198532D01*
X197516Y34500D01*
X198532Y35516D01*
X197516D01*
X196500Y36532D01*
X195484Y35516D01*
X194468D01*
X195484Y34500D01*
X194468Y33484D01*
X195484D01*
X196500Y32468D01*
Y35968D02*
X197516Y36984D01*
X198532D01*
X197516Y38000D01*
X198532Y39016D01*
X197516D01*
X196500Y40032D01*
X195484Y39016D01*
X194468D01*
X195484Y38000D01*
X194468Y36984D01*
X195484D01*
X196500Y35968D01*
Y39468D02*
X197516Y40484D01*
X198532D01*
X197516Y41500D01*
X198532Y42516D01*
X197516D01*
X196500Y43532D01*
X195484Y42516D01*
X194468D01*
X195484Y41500D01*
X194468Y40484D01*
X195484D01*
X196500Y39468D01*
X193000D02*
X194016Y40484D01*
X195032D01*
X194016Y41500D01*
X195032Y42516D01*
X194016D01*
X193000Y43532D01*
X191984Y42516D01*
X190968D01*
X191984Y41500D01*
X190968Y40484D01*
X191984D01*
X193000Y39468D01*
Y32468D02*
X194016Y33484D01*
X195032D01*
X194016Y34500D01*
X195032Y35516D01*
X194016D01*
X193000Y36532D01*
X191984Y35516D01*
X190968D01*
X191984Y34500D01*
X190968Y33484D01*
X191984D01*
X193000Y32468D01*
Y35968D02*
X194016Y36984D01*
X195032D01*
X194016Y38000D01*
X195032Y39016D01*
X194016D01*
X193000Y40032D01*
X191984Y39016D01*
X190968D01*
X191984Y38000D01*
X190968Y36984D01*
X191984D01*
X193000Y35968D01*
X182867Y16823D02*
X183883Y17839D01*
X184899D01*
X183883Y18855D01*
X184899Y19871D01*
X183883D01*
X182867Y20887D01*
X181851Y19871D01*
X180835D01*
X181851Y18855D01*
X180835Y17839D01*
X181851D01*
X182867Y16823D01*
X235400Y65568D02*
X236416Y66584D01*
X237432D01*
X236416Y67600D01*
X237432Y68616D01*
X236416D01*
X235400Y69632D01*
X234384Y68616D01*
X233368D01*
X234384Y67600D01*
X233368Y66584D01*
X234384D01*
X235400Y65568D01*
X237500Y63268D02*
X238516Y64284D01*
X239532D01*
X238516Y65300D01*
X239532Y66316D01*
X238516D01*
X237500Y67332D01*
X236484Y66316D01*
X235468D01*
X236484Y65300D01*
X235468Y64284D01*
X236484D01*
X237500Y63268D01*
X247000Y61368D02*
X248016Y62384D01*
X249032D01*
X248016Y63400D01*
X249032Y64416D01*
X248016D01*
X247000Y65432D01*
X245984Y64416D01*
X244968D01*
X245984Y63400D01*
X244968Y62384D01*
X245984D01*
X247000Y61368D01*
X424091Y58015D02*
X425107Y59031D01*
X426123D01*
X425107Y60047D01*
X426123Y61063D01*
X425107D01*
X424091Y62079D01*
X423075Y61063D01*
X422059D01*
X423075Y60047D01*
X422059Y59031D01*
X423075D01*
X424091Y58015D01*
X416741Y60167D02*
X417757Y61184D01*
X418773D01*
X417757Y62200D01*
X418773Y63215D01*
X417757D01*
X416741Y64232D01*
X415725Y63215D01*
X414709D01*
X415725Y62200D01*
X414709Y61184D01*
X415725D01*
X416741Y60167D01*
X420741Y60201D02*
X421757Y61217D01*
X422773D01*
X421757Y62233D01*
X422773Y63249D01*
X421757D01*
X420741Y64265D01*
X419725Y63249D01*
X418709D01*
X419725Y62233D01*
X418709Y61217D01*
X419725D01*
X420741Y60201D01*
X458427Y85325D02*
X459443Y86341D01*
X460459D01*
X459443Y87357D01*
X460459Y88373D01*
X459443D01*
X458427Y89389D01*
X457411Y88373D01*
X456395D01*
X457411Y87357D01*
X456395Y86341D01*
X457411D01*
X458427Y85325D01*
X473680Y85168D02*
X474697Y86184D01*
X475713D01*
X474697Y87200D01*
X475713Y88216D01*
X474697D01*
X473680Y89232D01*
X472664Y88216D01*
X471648D01*
X472664Y87200D01*
X471648Y86184D01*
X472664D01*
X473680Y85168D01*
X469000Y84968D02*
X470016Y85984D01*
X471032D01*
X470016Y87000D01*
X471032Y88016D01*
X470016D01*
X469000Y89032D01*
X467984Y88016D01*
X466968D01*
X467984Y87000D01*
X466968Y85984D01*
X467984D01*
X469000Y84968D01*
X513000Y171968D02*
X514016Y172984D01*
X515032D01*
X514016Y174000D01*
X515032Y175016D01*
X514016D01*
X513000Y176032D01*
X511984Y175016D01*
X510968D01*
X511984Y174000D01*
X510968Y172984D01*
X511984D01*
X513000Y171968D01*
X496000Y182968D02*
X497016Y183984D01*
X498032D01*
X497016Y185000D01*
X498032Y186016D01*
X497016D01*
X496000Y187032D01*
X494984Y186016D01*
X493968D01*
X494984Y185000D01*
X493968Y183984D01*
X494984D01*
X496000Y182968D01*
X488000Y149968D02*
X489016Y150984D01*
X490032D01*
X489016Y152000D01*
X490032Y153016D01*
X489016D01*
X488000Y154032D01*
X486984Y153016D01*
X485968D01*
X486984Y152000D01*
X485968Y150984D01*
X486984D01*
X488000Y149968D01*
X525000Y140968D02*
X526016Y141984D01*
X527032D01*
X526016Y143000D01*
X527032Y144016D01*
X526016D01*
X525000Y145032D01*
X523984Y144016D01*
X522968D01*
X523984Y143000D01*
X522968Y141984D01*
X523984D01*
X525000Y140968D01*
X485000Y129968D02*
X486016Y130984D01*
X487032D01*
X486016Y132000D01*
X487032Y133016D01*
X486016D01*
X485000Y134032D01*
X483984Y133016D01*
X482968D01*
X483984Y132000D01*
X482968Y130984D01*
X483984D01*
X485000Y129968D01*
X475000Y141968D02*
X476016Y142984D01*
X477032D01*
X476016Y144000D01*
X477032Y145016D01*
X476016D01*
X475000Y146032D01*
X473984Y145016D01*
X472968D01*
X473984Y144000D01*
X472968Y142984D01*
X473984D01*
X475000Y141968D01*
X463000Y173968D02*
X464016Y174984D01*
X465032D01*
X464016Y176000D01*
X465032Y177016D01*
X464016D01*
X463000Y178032D01*
X461984Y177016D01*
X460968D01*
X461984Y176000D01*
X460968Y174984D01*
X461984D01*
X463000Y173968D01*
X438250Y3718D02*
X439266Y4734D01*
X440282D01*
X439266Y5750D01*
X440282Y6766D01*
X439266D01*
X438250Y7782D01*
X437234Y6766D01*
X436218D01*
X437234Y5750D01*
X436218Y4734D01*
X437234D01*
X438250Y3718D01*
X403000Y37218D02*
X404016Y38234D01*
X405032D01*
X404016Y39250D01*
X405032Y40266D01*
X404016D01*
X403000Y41282D01*
X401984Y40266D01*
X400968D01*
X401984Y39250D01*
X400968Y38234D01*
X401984D01*
X403000Y37218D01*
X403353Y41240D02*
X404369Y42256D01*
X405385D01*
X404369Y43272D01*
X405385Y44288D01*
X404369D01*
X403353Y45304D01*
X402337Y44288D01*
X401321D01*
X402337Y43272D01*
X401321Y42256D01*
X402337D01*
X403353Y41240D01*
X389000Y26468D02*
X390016Y27484D01*
X391032D01*
X390016Y28500D01*
X391032Y29516D01*
X390016D01*
X389000Y30532D01*
X387984Y29516D01*
X386968D01*
X387984Y28500D01*
X386968Y27484D01*
X387984D01*
X389000Y26468D01*
X383907Y23075D02*
X384923Y24091D01*
X385939D01*
X384923Y25107D01*
X385939Y26123D01*
X384923D01*
X383907Y27139D01*
X382891Y26123D01*
X381875D01*
X382891Y25107D01*
X381875Y24091D01*
X382891D01*
X383907Y23075D01*
X320000Y197968D02*
X321016Y198984D01*
X322032D01*
X321016Y200000D01*
X322032Y201016D01*
X321016D01*
X320000Y202032D01*
X318984Y201016D01*
X317968D01*
X318984Y200000D01*
X317968Y198984D01*
X318984D01*
X320000Y197968D01*
X365000Y198468D02*
X366016Y199484D01*
X367032D01*
X366016Y200500D01*
X367032Y201516D01*
X366016D01*
X365000Y202532D01*
X363984Y201516D01*
X362968D01*
X363984Y200500D01*
X362968Y199484D01*
X363984D01*
X365000Y198468D01*
X405000Y214468D02*
X406016Y215484D01*
X407032D01*
X406016Y216500D01*
X407032Y217516D01*
X406016D01*
X405000Y218532D01*
X403984Y217516D01*
X402968D01*
X403984Y216500D01*
X402968Y215484D01*
X403984D01*
X405000Y214468D01*
X402046Y217922D02*
X403062Y218938D01*
X404078D01*
X403062Y219954D01*
X404078Y220970D01*
X403062D01*
X402046Y221986D01*
X401030Y220970D01*
X400014D01*
X401030Y219954D01*
X400014Y218938D01*
X401030D01*
X402046Y217922D01*
X402000Y221968D02*
X403016Y222984D01*
X404032D01*
X403016Y224000D01*
X404032Y225016D01*
X403016D01*
X402000Y226032D01*
X400984Y225016D01*
X399968D01*
X400984Y224000D01*
X399968Y222984D01*
X400984D01*
X402000Y221968D01*
X404266Y225264D02*
X405282Y226280D01*
X406298D01*
X405282Y227296D01*
X406298Y228312D01*
X405282D01*
X404266Y229328D01*
X403250Y228312D01*
X402234D01*
X403250Y227296D01*
X402234Y226280D01*
X403250D01*
X404266Y225264D01*
X387011Y192973D02*
X388027Y193990D01*
X389043D01*
X388027Y195005D01*
X389043Y196021D01*
X388027D01*
X387011Y197038D01*
X385995Y196021D01*
X384979D01*
X385995Y195005D01*
X384979Y193990D01*
X385995D01*
X387011Y192973D01*
X387008Y198974D02*
X388024Y199989D01*
X389040D01*
X388024Y201005D01*
X389040Y202022D01*
X388024D01*
X387008Y203037D01*
X385992Y202022D01*
X384976D01*
X385992Y201005D01*
X384976Y199989D01*
X385992D01*
X387008Y198974D01*
X379750Y190636D02*
X380766Y191652D01*
X381782D01*
X380766Y192668D01*
X381782Y193684D01*
X380766D01*
X379750Y194700D01*
X378734Y193684D01*
X377718D01*
X378734Y192668D01*
X377718Y191652D01*
X378734D01*
X379750Y190636D01*
X383000Y192968D02*
X384016Y193984D01*
X385032D01*
X384016Y195000D01*
X385032Y196016D01*
X384016D01*
X383000Y197032D01*
X381984Y196016D01*
X380968D01*
X381984Y195000D01*
X380968Y193984D01*
X381984D01*
X383000Y192968D01*
X372532Y197731D02*
X373548Y198747D01*
X374564D01*
X373548Y199763D01*
X374564Y200779D01*
X373548D01*
X372532Y201795D01*
X371516Y200779D01*
X370500D01*
X371516Y199763D01*
X370500Y198747D01*
X371516D01*
X372532Y197731D01*
X379000Y196468D02*
X380016Y197484D01*
X381032D01*
X380016Y198500D01*
X381032Y199516D01*
X380016D01*
X379000Y200532D01*
X377984Y199516D01*
X376968D01*
X377984Y198500D01*
X376968Y197484D01*
X377984D01*
X379000Y196468D01*
X375800Y191368D02*
X376816Y192384D01*
X377832D01*
X376816Y193400D01*
X377832Y194416D01*
X376816D01*
X375800Y195432D01*
X374784Y194416D01*
X373768D01*
X374784Y193400D01*
X373768Y192384D01*
X374784D01*
X375800Y191368D01*
X345500Y213468D02*
X346516Y214484D01*
X347532D01*
X346516Y215500D01*
X347532Y216516D01*
X346516D01*
X345500Y217532D01*
X344484Y216516D01*
X343468D01*
X344484Y215500D01*
X343468Y214484D01*
X344484D01*
X345500Y213468D01*
X310500Y197968D02*
X311516Y198984D01*
X312532D01*
X311516Y200000D01*
X312532Y201016D01*
X311516D01*
X310500Y202032D01*
X309484Y201016D01*
X308468D01*
X309484Y200000D01*
X308468Y198984D01*
X309484D01*
X310500Y197968D01*
X565000Y212968D02*
X566016Y213984D01*
X567032D01*
X566016Y215000D01*
X567032Y216016D01*
X566016D01*
X565000Y217032D01*
X563984Y216016D01*
X562968D01*
X563984Y215000D01*
X562968Y213984D01*
X563984D01*
X565000Y212968D01*
X453000Y169968D02*
X454016Y170984D01*
X455032D01*
X454016Y172000D01*
X455032Y173016D01*
X454016D01*
X453000Y174032D01*
X451984Y173016D01*
X450968D01*
X451984Y172000D01*
X450968Y170984D01*
X451984D01*
X453000Y169968D01*
X512000Y128968D02*
X513016Y129984D01*
X514032D01*
X513016Y131000D01*
X514032Y132016D01*
X513016D01*
X512000Y133032D01*
X510984Y132016D01*
X509968D01*
X510984Y131000D01*
X509968Y129984D01*
X510984D01*
X512000Y128968D01*
X480000Y150968D02*
X481016Y151984D01*
X482032D01*
X481016Y153000D01*
X482032Y154016D01*
X481016D01*
X480000Y155032D01*
X478984Y154016D01*
X477968D01*
X478984Y153000D01*
X477968Y151984D01*
X478984D01*
X480000Y150968D01*
X480799Y178068D02*
X481815Y179084D01*
X482831D01*
X481815Y180100D01*
X482831Y181116D01*
X481815D01*
X480799Y182132D01*
X479783Y181116D01*
X478767D01*
X479783Y180100D01*
X478767Y179084D01*
X479783D01*
X480799Y178068D01*
X480400Y129468D02*
X481416Y130484D01*
X482432D01*
X481416Y131500D01*
X482432Y132516D01*
X481416D01*
X480400Y133532D01*
X479384Y132516D01*
X478368D01*
X479384Y131500D01*
X478368Y130484D01*
X479384D01*
X480400Y129468D01*
X182000Y59968D02*
X183016Y60984D01*
X184032D01*
X183016Y62000D01*
X184032Y63016D01*
X183016D01*
X182000Y64032D01*
X180984Y63016D01*
X179968D01*
X180984Y62000D01*
X179968Y60984D01*
X180984D01*
X182000Y59968D01*
X370533Y23768D02*
X371549Y24784D01*
X372565D01*
X371549Y25800D01*
X372565Y26816D01*
X371549D01*
X370533Y27832D01*
X369517Y26816D01*
X368501D01*
X369517Y25800D01*
X368501Y24784D01*
X369517D01*
X370533Y23768D01*
X407500Y17718D02*
X408516Y18734D01*
X409532D01*
X408516Y19750D01*
X409532Y20766D01*
X408516D01*
X407500Y21782D01*
X406484Y20766D01*
X405468D01*
X406484Y19750D01*
X405468Y18734D01*
X406484D01*
X407500Y17718D01*
X225400Y163668D02*
X226416Y164684D01*
X227432D01*
X226416Y165700D01*
X227432Y166716D01*
X226416D01*
X225400Y167732D01*
X224384Y166716D01*
X223368D01*
X224384Y165700D01*
X223368Y164684D01*
X224384D01*
X225400Y163668D01*
X233000Y174968D02*
X234016Y175984D01*
X235032D01*
X234016Y177000D01*
X235032Y178016D01*
X234016D01*
X233000Y179032D01*
X231984Y178016D01*
X230968D01*
X231984Y177000D01*
X230968Y175984D01*
X231984D01*
X233000Y174968D01*
X193000Y183968D02*
X194016Y184984D01*
X195032D01*
X194016Y186000D01*
X195032Y187016D01*
X194016D01*
X193000Y188032D01*
X191984Y187016D01*
X190968D01*
X191984Y186000D01*
X190968Y184984D01*
X191984D01*
X193000Y183968D01*
X233000Y178968D02*
X234016Y179984D01*
X235032D01*
X234016Y181000D01*
X235032Y182016D01*
X234016D01*
X233000Y183032D01*
X231984Y182016D01*
X230968D01*
X231984Y181000D01*
X230968Y179984D01*
X231984D01*
X233000Y178968D01*
X229000D02*
X230016Y179984D01*
X231032D01*
X230016Y181000D01*
X231032Y182016D01*
X230016D01*
X229000Y183032D01*
X227984Y182016D01*
X226968D01*
X227984Y181000D01*
X226968Y179984D01*
X227984D01*
X229000Y178968D01*
Y174968D02*
X230016Y175984D01*
X231032D01*
X230016Y177000D01*
X231032Y178016D01*
X230016D01*
X229000Y179032D01*
X227984Y178016D01*
X226968D01*
X227984Y177000D01*
X226968Y175984D01*
X227984D01*
X229000Y174968D01*
X283000Y227968D02*
X284016Y228984D01*
X285032D01*
X284016Y230000D01*
X285032Y231016D01*
X284016D01*
X283000Y232032D01*
X281984Y231016D01*
X280968D01*
X281984Y230000D01*
X280968Y228984D01*
X281984D01*
X283000Y227968D01*
X63000Y99737D02*
X64016Y100753D01*
X65032D01*
X64016Y101769D01*
X65032Y102785D01*
X64016D01*
X63000Y103801D01*
X61984Y102785D01*
X60968D01*
X61984Y101769D01*
X60968Y100753D01*
X61984D01*
X63000Y99737D01*
X134714Y179543D02*
X135730Y180559D01*
X136746D01*
X135730Y181575D01*
X136746Y182591D01*
X135730D01*
X134714Y183607D01*
X133698Y182591D01*
X132682D01*
X133698Y181575D01*
X132682Y180559D01*
X133698D01*
X134714Y179543D01*
X115551Y182815D02*
X116567Y183832D01*
X117583D01*
X116567Y184848D01*
X117583Y185863D01*
X116567D01*
X115551Y186880D01*
X114535Y185863D01*
X113519D01*
X114535Y184848D01*
X113519Y183832D01*
X114535D01*
X115551Y182815D01*
X134570Y175095D02*
X135586Y176111D01*
X136602D01*
X135586Y177127D01*
X136602Y178143D01*
X135586D01*
X134570Y179159D01*
X133554Y178143D01*
X132538D01*
X133554Y177127D01*
X132538Y176111D01*
X133554D01*
X134570Y175095D01*
X137814Y184001D02*
X138830Y185017D01*
X139846D01*
X138830Y186033D01*
X139846Y187049D01*
X138830D01*
X137814Y188065D01*
X136798Y187049D01*
X135782D01*
X136798Y186033D01*
X135782Y185017D01*
X136798D01*
X137814Y184001D01*
X114968Y105968D02*
X115984D01*
X117000Y106984D01*
X118016Y105968D01*
X119032D01*
Y106984D01*
X118016Y108000D01*
X119032Y109016D01*
Y110032D01*
X118016D01*
X117000Y109016D01*
X115984Y110032D01*
X114968D01*
Y109016D01*
X115984Y108000D01*
X114968Y106984D01*
Y105968D01*
X120293Y136008D02*
X121309Y137024D01*
X122325D01*
X121309Y138040D01*
X122325Y139056D01*
X121309D01*
X120293Y140072D01*
X119277Y139056D01*
X118261D01*
X119277Y138040D01*
X118261Y137024D01*
X119277D01*
X120293Y136008D01*
X125160Y135983D02*
X126176Y136999D01*
X127192D01*
X126176Y138015D01*
X127192Y139031D01*
X126176D01*
X125160Y140047D01*
X124144Y139031D01*
X123128D01*
X124144Y138015D01*
X123128Y136999D01*
X124144D01*
X125160Y135983D01*
X113233Y121408D02*
X114249Y122424D01*
X115265D01*
X114249Y123440D01*
X115265Y124456D01*
X114249D01*
X113233Y125472D01*
X112217Y124456D01*
X111201D01*
X112217Y123440D01*
X111201Y122424D01*
X112217D01*
X113233Y121408D01*
X108000Y125968D02*
X109016Y126984D01*
X110032D01*
X109016Y128000D01*
X110032Y129016D01*
X109016D01*
X108000Y130032D01*
X106984Y129016D01*
X105968D01*
X106984Y128000D01*
X105968Y126984D01*
X106984D01*
X108000Y125968D01*
X160462Y180095D02*
X161479D01*
X162495Y181111D01*
X163510Y180095D01*
X164527D01*
Y181111D01*
X163510Y182127D01*
X164527Y183143D01*
Y184159D01*
X163510D01*
X162495Y183143D01*
X161479Y184159D01*
X160462D01*
Y183143D01*
X161479Y182127D01*
X160462Y181111D01*
Y180095D01*
X16000Y82968D02*
X17016Y83984D01*
X18032D01*
X17016Y85000D01*
X18032Y86016D01*
X17016D01*
X16000Y87032D01*
X14984Y86016D01*
X13968D01*
X14984Y85000D01*
X13968Y83984D01*
X14984D01*
X16000Y82968D01*
X254342Y11083D02*
X255358Y12099D01*
X256374D01*
X255358Y13115D01*
X256374Y14131D01*
X255358D01*
X254342Y15147D01*
X253326Y14131D01*
X252310D01*
X253326Y13115D01*
X252310Y12099D01*
X253326D01*
X254342Y11083D01*
X236405Y17718D02*
X237421Y18734D01*
X238437D01*
X237421Y19750D01*
X238437Y20766D01*
X237421D01*
X236405Y21782D01*
X235389Y20766D01*
X234373D01*
X235389Y19750D01*
X234373Y18734D01*
X235389D01*
X236405Y17718D01*
X320777Y26222D02*
X321793Y27238D01*
X322809D01*
X321793Y28254D01*
X322809Y29270D01*
X321793D01*
X320777Y30286D01*
X319761Y29270D01*
X318745D01*
X319761Y28254D01*
X318745Y27238D01*
X319761D01*
X320777Y26222D01*
X202500Y114468D02*
X203516Y115484D01*
X204532D01*
X203516Y116500D01*
X204532Y117516D01*
X203516D01*
X202500Y118532D01*
X201484Y117516D01*
X200468D01*
X201484Y116500D01*
X200468Y115484D01*
X201484D01*
X202500Y114468D01*
X168250Y98718D02*
X169266Y99734D01*
X170282D01*
X169266Y100750D01*
X170282Y101766D01*
X169266D01*
X168250Y102782D01*
X167234Y101766D01*
X166218D01*
X167234Y100750D01*
X166218Y99734D01*
X167234D01*
X168250Y98718D01*
X224000Y23968D02*
X225016Y24984D01*
X226032D01*
X225016Y26000D01*
X226032Y27016D01*
X225016D01*
X224000Y28032D01*
X222984Y27016D01*
X221968D01*
X222984Y26000D01*
X221968Y24984D01*
X222984D01*
X224000Y23968D01*
X156278Y151076D02*
X157294Y152092D01*
X158310D01*
X157294Y153108D01*
X158310Y154124D01*
X157294D01*
X156278Y155140D01*
X155262Y154124D01*
X154246D01*
X155262Y153108D01*
X154246Y152092D01*
X155262D01*
X156278Y151076D01*
X146968Y173168D02*
X147984D01*
X149000Y174184D01*
X150016Y173168D01*
X151032D01*
Y174184D01*
X150016Y175200D01*
X151032Y176216D01*
Y177232D01*
X150016D01*
X149000Y176216D01*
X147984Y177232D01*
X146968D01*
Y176216D01*
X147984Y175200D01*
X146968Y174184D01*
Y173168D01*
X157187Y93475D02*
X158203Y94491D01*
X159219D01*
X158203Y95507D01*
X159219Y96523D01*
X158203D01*
X157187Y97539D01*
X156171Y96523D01*
X155155D01*
X156171Y95507D01*
X155155Y94491D01*
X156171D01*
X157187Y93475D01*
X88416Y24499D02*
X89432Y25515D01*
X90448D01*
X89432Y26531D01*
X90448Y27547D01*
X89432D01*
X88416Y28563D01*
X87400Y27547D01*
X86384D01*
X87400Y26531D01*
X86384Y25515D01*
X87400D01*
X88416Y24499D01*
X209595Y140376D02*
X210611Y141392D01*
X211627D01*
X210611Y142408D01*
X211627Y143424D01*
X210611D01*
X209595Y144440D01*
X208579Y143424D01*
X207563D01*
X208579Y142408D01*
X207563Y141392D01*
X208579D01*
X209595Y140376D01*
X98968Y32968D02*
X99984D01*
X101000Y33984D01*
X102016Y32968D01*
X103032D01*
Y33984D01*
X102016Y35000D01*
X103032Y36016D01*
Y37032D01*
X102016D01*
X101000Y36016D01*
X99984Y37032D01*
X98968D01*
Y36016D01*
X99984Y35000D01*
X98968Y33984D01*
Y32968D01*
X193800Y168280D02*
X194816Y169296D01*
X195832D01*
X194816Y170312D01*
X195832Y171328D01*
X194816D01*
X193800Y172344D01*
X192784Y171328D01*
X191768D01*
X192784Y170312D01*
X191768Y169296D01*
X192784D01*
X193800Y168280D01*
X248800Y153936D02*
X249816Y154952D01*
X250832D01*
X249816Y155968D01*
X250832Y156984D01*
X249816D01*
X248800Y158000D01*
X247784Y156984D01*
X246768D01*
X247784Y155968D01*
X246768Y154952D01*
X247784D01*
X248800Y153936D01*
X245400D02*
X246416Y154952D01*
X247432D01*
X246416Y155968D01*
X247432Y156984D01*
X246416D01*
X245400Y158000D01*
X244384Y156984D01*
X243368D01*
X244384Y155968D01*
X243368Y154952D01*
X244384D01*
X245400Y153936D01*
X252080D02*
X253096Y154952D01*
X254112D01*
X253096Y155968D01*
X254112Y156984D01*
X253096D01*
X252080Y158000D01*
X251064Y156984D01*
X250048D01*
X251064Y155968D01*
X250048Y154952D01*
X251064D01*
X252080Y153936D01*
X273314Y172722D02*
X274330D01*
X275346Y173738D01*
X276362Y172722D01*
X277378D01*
Y173738D01*
X276362Y174755D01*
X277378Y175770D01*
Y176786D01*
X276362D01*
X275346Y175770D01*
X274330Y176786D01*
X273314D01*
Y175770D01*
X274330Y174755D01*
X273314Y173738D01*
Y172722D01*
X277000Y177968D02*
X278016Y178984D01*
X279032D01*
X278016Y180000D01*
X279032Y181016D01*
X278016D01*
X277000Y182032D01*
X275984Y181016D01*
X274968D01*
X275984Y180000D01*
X274968Y178984D01*
X275984D01*
X277000Y177968D01*
X127968Y34968D02*
X128984D01*
X130000Y35984D01*
X131016Y34968D01*
X132032D01*
Y35984D01*
X131016Y37000D01*
X132032Y38016D01*
Y39032D01*
X131016D01*
X130000Y38016D01*
X128984Y39032D01*
X127968D01*
Y38016D01*
X128984Y37000D01*
X127968Y35984D01*
Y34968D01*
X102968Y57968D02*
X103984D01*
X105000Y58984D01*
X106016Y57968D01*
X107032D01*
Y58984D01*
X106016Y60000D01*
X107032Y61016D01*
Y62032D01*
X106016D01*
X105000Y61016D01*
X103984Y62032D01*
X102968D01*
Y61016D01*
X103984Y60000D01*
X102968Y58984D01*
Y57968D01*
X95968D02*
X96984D01*
X98000Y58984D01*
X99016Y57968D01*
X100032D01*
Y58984D01*
X99016Y60000D01*
X100032Y61016D01*
Y62032D01*
X99016D01*
X98000Y61016D01*
X96984Y62032D01*
X95968D01*
Y61016D01*
X96984Y60000D01*
X95968Y58984D01*
Y57968D01*
X187040Y16799D02*
X188056Y17815D01*
X189072D01*
X188056Y18831D01*
X189072Y19847D01*
X188056D01*
X187040Y20863D01*
X186024Y19847D01*
X185008D01*
X186024Y18831D01*
X185008Y17815D01*
X186024D01*
X187040Y16799D01*
X125968Y47968D02*
X126984D01*
X128000Y48984D01*
X129016Y47968D01*
X130032D01*
Y48984D01*
X129016Y50000D01*
X130032Y51016D01*
Y52032D01*
X129016D01*
X128000Y51016D01*
X126984Y52032D01*
X125968D01*
Y51016D01*
X126984Y50000D01*
X125968Y48984D01*
Y47968D01*
X119968D02*
X120984D01*
X122000Y48984D01*
X123016Y47968D01*
X124032D01*
Y48984D01*
X123016Y50000D01*
X124032Y51016D01*
Y52032D01*
X123016D01*
X122000Y51016D01*
X120984Y52032D01*
X119968D01*
Y51016D01*
X120984Y50000D01*
X119968Y48984D01*
Y47968D01*
X81368Y49568D02*
X82384D01*
X83400Y50584D01*
X84416Y49568D01*
X85432D01*
Y50584D01*
X84416Y51600D01*
X85432Y52616D01*
Y53632D01*
X84416D01*
X83400Y52616D01*
X82384Y53632D01*
X81368D01*
Y52616D01*
X82384Y51600D01*
X81368Y50584D01*
Y49568D01*
X76968Y53968D02*
X77984D01*
X79000Y54984D01*
X80016Y53968D01*
X81032D01*
Y54984D01*
X80016Y56000D01*
X81032Y57016D01*
Y58032D01*
X80016D01*
X79000Y57016D01*
X77984Y58032D01*
X76968D01*
Y57016D01*
X77984Y56000D01*
X76968Y54984D01*
Y53968D01*
X113968Y47968D02*
X114984D01*
X116000Y48984D01*
X117016Y47968D01*
X118032D01*
Y48984D01*
X117016Y50000D01*
X118032Y51016D01*
Y52032D01*
X117016D01*
X116000Y51016D01*
X114984Y52032D01*
X113968D01*
Y51016D01*
X114984Y50000D01*
X113968Y48984D01*
Y47968D01*
X121968Y34968D02*
X122984D01*
X124000Y35984D01*
X125016Y34968D01*
X126032D01*
Y35984D01*
X125016Y37000D01*
X126032Y38016D01*
Y39032D01*
X125016D01*
X124000Y38016D01*
X122984Y39032D01*
X121968D01*
Y38016D01*
X122984Y37000D01*
X121968Y35984D01*
Y34968D01*
X115968D02*
X116984D01*
X118000Y35984D01*
X119016Y34968D01*
X120032D01*
Y35984D01*
X119016Y37000D01*
X120032Y38016D01*
Y39032D01*
X119016D01*
X118000Y38016D01*
X116984Y39032D01*
X115968D01*
Y38016D01*
X116984Y37000D01*
X115968Y35984D01*
Y34968D01*
X106044Y79844D02*
X107060Y80860D01*
X108076D01*
X107060Y81876D01*
X108076Y82892D01*
X107060D01*
X106044Y83908D01*
X105028Y82892D01*
X104012D01*
X105028Y81876D01*
X104012Y80860D01*
X105028D01*
X106044Y79844D01*
X106019Y83968D02*
X107035Y84984D01*
X108051D01*
X107035Y86000D01*
X108051Y87016D01*
X107035D01*
X106019Y88032D01*
X105003Y87016D01*
X103987D01*
X105003Y86000D01*
X103987Y84984D01*
X105003D01*
X106019Y83968D01*
X110968Y72968D02*
X111984D01*
X113000Y73984D01*
X114016Y72968D01*
X115032D01*
Y73984D01*
X114016Y75000D01*
X115032Y76016D01*
Y77032D01*
X114016D01*
X113000Y76016D01*
X111984Y77032D01*
X110968D01*
Y76016D01*
X111984Y75000D01*
X110968Y73984D01*
Y72968D01*
X109968Y57968D02*
X110984D01*
X112000Y58984D01*
X113016Y57968D01*
X114032D01*
Y58984D01*
X113016Y60000D01*
X114032Y61016D01*
Y62032D01*
X113016D01*
X112000Y61016D01*
X110984Y62032D01*
X109968D01*
Y61016D01*
X110984Y60000D01*
X109968Y58984D01*
Y57968D01*
X110968Y66968D02*
X111984D01*
X113000Y67984D01*
X114016Y66968D01*
X115032D01*
Y67984D01*
X114016Y69000D01*
X115032Y70016D01*
Y71032D01*
X114016D01*
X113000Y70016D01*
X111984Y71032D01*
X110968D01*
Y70016D01*
X111984Y69000D01*
X110968Y67984D01*
Y66968D01*
X87000Y107968D02*
X88016Y108984D01*
X89032D01*
X88016Y110000D01*
X89032Y111016D01*
X88016D01*
X87000Y112032D01*
X85984Y111016D01*
X84968D01*
X85984Y110000D01*
X84968Y108984D01*
X85984D01*
X87000Y107968D01*
X320500Y232568D02*
X321516Y233584D01*
X322532D01*
X321516Y234600D01*
X322532Y235616D01*
X321516D01*
X320500Y236632D01*
X319484Y235616D01*
X318468D01*
X319484Y234600D01*
X318468Y233584D01*
X319484D01*
X320500Y232568D01*
X317000Y232468D02*
X318016Y233484D01*
X319032D01*
X318016Y234500D01*
X319032Y235516D01*
X318016D01*
X317000Y236532D01*
X315984Y235516D01*
X314968D01*
X315984Y234500D01*
X314968Y233484D01*
X315984D01*
X317000Y232468D01*
X327800Y232168D02*
X328816Y233184D01*
X329832D01*
X328816Y234200D01*
X329832Y235216D01*
X328816D01*
X327800Y236232D01*
X326784Y235216D01*
X325768D01*
X326784Y234200D01*
X325768Y233184D01*
X326784D01*
X327800Y232168D01*
Y236868D02*
X328816Y237884D01*
X329832D01*
X328816Y238900D01*
X329832Y239916D01*
X328816D01*
X327800Y240932D01*
X326784Y239916D01*
X325768D01*
X326784Y238900D01*
X325768Y237884D01*
X326784D01*
X327800Y236868D01*
X334668Y238005D02*
X335684Y239021D01*
X336700D01*
X335684Y240037D01*
X336700Y241053D01*
X335684D01*
X334668Y242069D01*
X333652Y241053D01*
X332636D01*
X333652Y240037D01*
X332636Y239021D01*
X333652D01*
X334668Y238005D01*
X334215Y222968D02*
X335231Y223984D01*
X336247D01*
X335231Y225000D01*
X336247Y226016D01*
X335231D01*
X334215Y227032D01*
X333199Y226016D01*
X332183D01*
X333199Y225000D01*
X332183Y223984D01*
X333199D01*
X334215Y222968D01*
X179000Y16968D02*
X180016Y17984D01*
X181032D01*
X180016Y19000D01*
X181032Y20016D01*
X180016D01*
X179000Y21032D01*
X177984Y20016D01*
X176968D01*
X177984Y19000D01*
X176968Y17984D01*
X177984D01*
X179000Y16968D01*
X256250Y66968D02*
X257266Y67984D01*
X258282D01*
X257266Y69000D01*
X258282Y70016D01*
X257266D01*
X256250Y71032D01*
X255234Y70016D01*
X254218D01*
X255234Y69000D01*
X254218Y67984D01*
X255234D01*
X256250Y66968D01*
X250321Y177980D02*
X251337Y178996D01*
X252353D01*
X251337Y180012D01*
X252353Y181028D01*
X251337D01*
X250321Y182044D01*
X249305Y181028D01*
X248289D01*
X249305Y180012D01*
X248289Y178996D01*
X249305D01*
X250321Y177980D01*
X250300Y166068D02*
X251316Y167084D01*
X252332D01*
X251316Y168100D01*
X252332Y169116D01*
X251316D01*
X250300Y170132D01*
X249284Y169116D01*
X248268D01*
X249284Y168100D01*
X248268Y167084D01*
X249284D01*
X250300Y166068D01*
X299400Y148868D02*
X300416Y149884D01*
X301432D01*
X300416Y150900D01*
X301432Y151916D01*
X300416D01*
X299400Y152932D01*
X298384Y151916D01*
X297368D01*
X298384Y150900D01*
X297368Y149884D01*
X298384D01*
X299400Y148868D01*
X294600Y152868D02*
X295616Y153884D01*
X296632D01*
X295616Y154900D01*
X296632Y155916D01*
X295616D01*
X294600Y156932D01*
X293584Y155916D01*
X292568D01*
X293584Y154900D01*
X292568Y153884D01*
X293584D01*
X294600Y152868D01*
X291800Y156068D02*
X292816Y157084D01*
X293832D01*
X292816Y158100D01*
X293832Y159116D01*
X292816D01*
X291800Y160132D01*
X290784Y159116D01*
X289768D01*
X290784Y158100D01*
X289768Y157084D01*
X290784D01*
X291800Y156068D01*
X285347Y119620D02*
X286363Y120636D01*
X287379D01*
X286363Y121652D01*
X287379Y122668D01*
X286363D01*
X285347Y123684D01*
X284331Y122668D01*
X283315D01*
X284331Y121652D01*
X283315Y120636D01*
X284331D01*
X285347Y119620D01*
X290821Y123147D02*
X291837Y124163D01*
X292853D01*
X291837Y125179D01*
X292853Y126195D01*
X291837D01*
X290821Y127211D01*
X289805Y126195D01*
X288789D01*
X289805Y125179D01*
X288789Y124163D01*
X289805D01*
X290821Y123147D01*
X299200Y130668D02*
X300216Y131684D01*
X301232D01*
X300216Y132700D01*
X301232Y133716D01*
X300216D01*
X299200Y134732D01*
X298184Y133716D01*
X297168D01*
X298184Y132700D01*
X297168Y131684D01*
X298184D01*
X299200Y130668D01*
X256251Y146768D02*
X257267Y147784D01*
X258283D01*
X257267Y148800D01*
X258283Y149816D01*
X257267D01*
X256251Y150832D01*
X255235Y149816D01*
X254219D01*
X255235Y148800D01*
X254219Y147784D01*
X255235D01*
X256251Y146768D01*
X259900D02*
X260916Y147784D01*
X261932D01*
X260916Y148800D01*
X261932Y149816D01*
X260916D01*
X259900Y150832D01*
X258884Y149816D01*
X257868D01*
X258884Y148800D01*
X257868Y147784D01*
X258884D01*
X259900Y146768D01*
X264000Y146852D02*
X265016Y147868D01*
X266032D01*
X265016Y148884D01*
X266032Y149900D01*
X265016D01*
X264000Y150916D01*
X262984Y149900D01*
X261968D01*
X262984Y148884D01*
X261968Y147868D01*
X262984D01*
X264000Y146852D01*
X456196Y135872D02*
X457212Y136888D01*
X458228D01*
X457212Y137904D01*
X458228Y138920D01*
X457212D01*
X456196Y139936D01*
X455180Y138920D01*
X454164D01*
X455180Y137904D01*
X454164Y136888D01*
X455180D01*
X456196Y135872D01*
X532500Y167968D02*
X533516Y168984D01*
X534532D01*
X533516Y170000D01*
X534532Y171016D01*
X533516D01*
X532500Y172032D01*
X531484Y171016D01*
X530468D01*
X531484Y170000D01*
X530468Y168984D01*
X531484D01*
X532500Y167968D01*
X542000Y157968D02*
X543016Y158984D01*
X544032D01*
X543016Y160000D01*
X544032Y161016D01*
X543016D01*
X542000Y162032D01*
X540984Y161016D01*
X539968D01*
X540984Y160000D01*
X539968Y158984D01*
X540984D01*
X542000Y157968D01*
X529674Y147868D02*
X530690Y148884D01*
X531706D01*
X530690Y149900D01*
X531706Y150916D01*
X530690D01*
X529674Y151932D01*
X528658Y150916D01*
X527642D01*
X528658Y149900D01*
X527642Y148884D01*
X528658D01*
X529674Y147868D01*
X529400Y157968D02*
X530416Y158984D01*
X531432D01*
X530416Y160000D01*
X531432Y161016D01*
X530416D01*
X529400Y162032D01*
X528384Y161016D01*
X527368D01*
X528384Y160000D01*
X527368Y158984D01*
X528384D01*
X529400Y157968D01*
X397979Y228376D02*
X398995Y229392D01*
X400011D01*
X398995Y230408D01*
X400011Y231424D01*
X398995D01*
X397979Y232440D01*
X396963Y231424D01*
X395947D01*
X396963Y230408D01*
X395947Y229392D01*
X396963D01*
X397979Y228376D01*
X149200Y178968D02*
X150216Y179984D01*
X151232D01*
X150216Y181000D01*
X151232Y182016D01*
X150216D01*
X149200Y183032D01*
X148184Y182016D01*
X147168D01*
X148184Y181000D01*
X147168Y179984D01*
X148184D01*
X149200Y178968D01*
X80944Y207389D02*
X81960Y208405D01*
X82976D01*
X81960Y209421D01*
X82976Y210437D01*
X81960D01*
X80944Y211453D01*
X79928Y210437D01*
X78912D01*
X79928Y209421D01*
X78912Y208405D01*
X79928D01*
X80944Y207389D01*
X105445Y217968D02*
X106461Y218984D01*
X107477D01*
X106461Y220000D01*
X107477Y221016D01*
X106461D01*
X105445Y222032D01*
X104429Y221016D01*
X103413D01*
X104429Y220000D01*
X103413Y218984D01*
X104429D01*
X105445Y217968D01*
X117700Y234638D02*
X118716Y235654D01*
X119732D01*
X118716Y236670D01*
X119732Y237686D01*
X118716D01*
X117700Y238702D01*
X116684Y237686D01*
X115668D01*
X116684Y236670D01*
X115668Y235654D01*
X116684D01*
X117700Y234638D01*
X112400Y238668D02*
X113416Y239684D01*
X114432D01*
X113416Y240700D01*
X114432Y241716D01*
X113416D01*
X112400Y242732D01*
X111384Y241716D01*
X110368D01*
X111384Y240700D01*
X110368Y239684D01*
X111384D01*
X112400Y238668D01*
X105300Y233768D02*
X106316Y234784D01*
X107332D01*
X106316Y235800D01*
X107332Y236816D01*
X106316D01*
X105300Y237832D01*
X104284Y236816D01*
X103268D01*
X104284Y235800D01*
X103268Y234784D01*
X104284D01*
X105300Y233768D01*
X11200Y169368D02*
X12216Y170384D01*
X13232D01*
X12216Y171400D01*
X13232Y172416D01*
X12216D01*
X11200Y173432D01*
X10184Y172416D01*
X9168D01*
X10184Y171400D01*
X9168Y170384D01*
X10184D01*
X11200Y169368D01*
X191700Y246968D02*
X192716Y247984D01*
X193732D01*
X192716Y249000D01*
X193732Y250016D01*
X192716D01*
X191700Y251032D01*
X190684Y250016D01*
X189668D01*
X190684Y249000D01*
X189668Y247984D01*
X190684D01*
X191700Y246968D01*
X26800Y134368D02*
X27816Y135384D01*
X28832D01*
X27816Y136400D01*
X28832Y137416D01*
X27816D01*
X26800Y138432D01*
X25784Y137416D01*
X24768D01*
X25784Y136400D01*
X24768Y135384D01*
X25784D01*
X26800Y134368D01*
Y139468D02*
X27816Y140484D01*
X28832D01*
X27816Y141500D01*
X28832Y142516D01*
X27816D01*
X26800Y143532D01*
X25784Y142516D01*
X24768D01*
X25784Y141500D01*
X24768Y140484D01*
X25784D01*
X26800Y139468D01*
Y164368D02*
X27816Y165384D01*
X28832D01*
X27816Y166400D01*
X28832Y167416D01*
X27816D01*
X26800Y168432D01*
X25784Y167416D01*
X24768D01*
X25784Y166400D01*
X24768Y165384D01*
X25784D01*
X26800Y164368D01*
X195727Y234568D02*
X196743Y235584D01*
X197759D01*
X196743Y236600D01*
X197759Y237616D01*
X196743D01*
X195727Y238632D01*
X194711Y237616D01*
X193695D01*
X194711Y236600D01*
X193695Y235584D01*
X194711D01*
X195727Y234568D01*
X255400Y214468D02*
X256416Y215484D01*
X257432D01*
X256416Y216500D01*
X257432Y217516D01*
X256416D01*
X255400Y218532D01*
X254384Y217516D01*
X253368D01*
X254384Y216500D01*
X253368Y215484D01*
X254384D01*
X255400Y214468D01*
X273000Y177968D02*
X274016Y178984D01*
X275032D01*
X274016Y180000D01*
X275032Y181016D01*
X274016D01*
X273000Y182032D01*
X271984Y181016D01*
X270968D01*
X271984Y180000D01*
X270968Y178984D01*
X271984D01*
X273000Y177968D01*
X268000D02*
X269016Y178984D01*
X270032D01*
X269016Y180000D01*
X270032Y181016D01*
X269016D01*
X268000Y182032D01*
X266984Y181016D01*
X265968D01*
X266984Y180000D01*
X265968Y178984D01*
X266984D01*
X268000Y177968D01*
X226000Y236968D02*
X227016Y237984D01*
X228032D01*
X227016Y239000D01*
X228032Y240016D01*
X227016D01*
X226000Y241032D01*
X224984Y240016D01*
X223968D01*
X224984Y239000D01*
X223968Y237984D01*
X224984D01*
X226000Y236968D01*
X216000Y227968D02*
X217016Y228984D01*
X218032D01*
X217016Y230000D01*
X218032Y231016D01*
X217016D01*
X216000Y232032D01*
X214984Y231016D01*
X213968D01*
X214984Y230000D01*
X213968Y228984D01*
X214984D01*
X216000Y227968D01*
X238500Y234468D02*
X239516Y235484D01*
X240532D01*
X239516Y236500D01*
X240532Y237516D01*
X239516D01*
X238500Y238532D01*
X237484Y237516D01*
X236468D01*
X237484Y236500D01*
X236468Y235484D01*
X237484D01*
X238500Y234468D01*
X234750D02*
X235766Y235484D01*
X236782D01*
X235766Y236500D01*
X236782Y237516D01*
X235766D01*
X234750Y238532D01*
X233734Y237516D01*
X232718D01*
X233734Y236500D01*
X232718Y235484D01*
X233734D01*
X234750Y234468D01*
X230000Y232968D02*
X231016Y233984D01*
X232032D01*
X231016Y235000D01*
X232032Y236016D01*
X231016D01*
X230000Y237032D01*
X228984Y236016D01*
X227968D01*
X228984Y235000D01*
X227968Y233984D01*
X228984D01*
X230000Y232968D01*
Y236968D02*
X231016Y237984D01*
X232032D01*
X231016Y239000D01*
X232032Y240016D01*
X231016D01*
X230000Y241032D01*
X228984Y240016D01*
X227968D01*
X228984Y239000D01*
X227968Y237984D01*
X228984D01*
X230000Y236968D01*
X226000Y232968D02*
X227016Y233984D01*
X228032D01*
X227016Y235000D01*
X228032Y236016D01*
X227016D01*
X226000Y237032D01*
X224984Y236016D01*
X223968D01*
X224984Y235000D01*
X223968Y233984D01*
X224984D01*
X226000Y232968D01*
X238500Y237968D02*
X239516Y238984D01*
X240532D01*
X239516Y240000D01*
X240532Y241016D01*
X239516D01*
X238500Y242032D01*
X237484Y241016D01*
X236468D01*
X237484Y240000D01*
X236468Y238984D01*
X237484D01*
X238500Y237968D01*
X234750D02*
X235766Y238984D01*
X236782D01*
X235766Y240000D01*
X236782Y241016D01*
X235766D01*
X234750Y242032D01*
X233734Y241016D01*
X232718D01*
X233734Y240000D01*
X232718Y238984D01*
X233734D01*
X234750Y237968D01*
X226000Y228968D02*
X227016Y229984D01*
X228032D01*
X227016Y231000D01*
X228032Y232016D01*
X227016D01*
X226000Y233032D01*
X224984Y232016D01*
X223968D01*
X224984Y231000D01*
X223968Y229984D01*
X224984D01*
X226000Y228968D01*
X292000Y227968D02*
X293016Y228984D01*
X294032D01*
X293016Y230000D01*
X294032Y231016D01*
X293016D01*
X292000Y232032D01*
X290984Y231016D01*
X289968D01*
X290984Y230000D01*
X289968Y228984D01*
X290984D01*
X292000Y227968D01*
X272000Y204968D02*
X273016Y205984D01*
X274032D01*
X273016Y207000D01*
X274032Y208016D01*
X273016D01*
X272000Y209032D01*
X270984Y208016D01*
X269968D01*
X270984Y207000D01*
X269968Y205984D01*
X270984D01*
X272000Y204968D01*
X343360Y24418D02*
X344376Y25434D01*
X345392D01*
X344376Y26450D01*
X345392Y27466D01*
X344376D01*
X343360Y28482D01*
X342344Y27466D01*
X341328D01*
X342344Y26450D01*
X341328Y25434D01*
X342344D01*
X343360Y24418D01*
X347800D02*
X348816Y25434D01*
X349832D01*
X348816Y26450D01*
X349832Y27466D01*
X348816D01*
X347800Y28482D01*
X346784Y27466D01*
X345768D01*
X346784Y26450D01*
X345768Y25434D01*
X346784D01*
X347800Y24418D01*
X188800Y80762D02*
X189816Y81778D01*
X190832D01*
X189816Y82794D01*
X190832Y83810D01*
X189816D01*
X188800Y84826D01*
X187784Y83810D01*
X186768D01*
X187784Y82794D01*
X186768Y81778D01*
X187784D01*
X188800Y80762D01*
X192300Y16768D02*
X193316Y17784D01*
X194332D01*
X193316Y18800D01*
X194332Y19816D01*
X193316D01*
X192300Y20832D01*
X191284Y19816D01*
X190268D01*
X191284Y18800D01*
X190268Y17784D01*
X191284D01*
X192300Y16768D01*
X121920Y105968D02*
X122936D01*
X123952Y106984D01*
X124968Y105968D01*
X125984D01*
Y106984D01*
X124968Y108000D01*
X125984Y109016D01*
Y110032D01*
X124968D01*
X123952Y109016D01*
X122936Y110032D01*
X121920D01*
Y109016D01*
X122936Y108000D01*
X121920Y106984D01*
Y105968D01*
X121968Y112968D02*
X122984D01*
X124000Y113984D01*
X125016Y112968D01*
X126032D01*
Y113984D01*
X125016Y115000D01*
X126032Y116016D01*
Y117032D01*
X125016D01*
X124000Y116016D01*
X122984Y117032D01*
X121968D01*
Y116016D01*
X122984Y115000D01*
X121968Y113984D01*
Y112968D01*
X114968D02*
X115984D01*
X117000Y113984D01*
X118016Y112968D01*
X119032D01*
Y113984D01*
X118016Y115000D01*
X119032Y116016D01*
Y117032D01*
X118016D01*
X117000Y116016D01*
X115984Y117032D01*
X114968D01*
Y116016D01*
X115984Y115000D01*
X114968Y113984D01*
Y112968D01*
X316700Y151668D02*
X317716Y152684D01*
X318732D01*
X317716Y153700D01*
X318732Y154716D01*
X317716D01*
X316700Y155732D01*
X315684Y154716D01*
X314668D01*
X315684Y153700D01*
X314668Y152684D01*
X315684D01*
X316700Y151668D01*
X340942Y142688D02*
X341958Y143704D01*
X342974D01*
X341958Y144720D01*
X342974Y145736D01*
X341958D01*
X340942Y146752D01*
X339926Y145736D01*
X338910D01*
X339926Y144720D01*
X338910Y143704D01*
X339926D01*
X340942Y142688D01*
X315064Y159314D02*
X316080Y160330D01*
X317096D01*
X316080Y161346D01*
X317096Y162362D01*
X316080D01*
X315064Y163378D01*
X314048Y162362D01*
X313032D01*
X314048Y161346D01*
X313032Y160330D01*
X314048D01*
X315064Y159314D01*
X325800Y158473D02*
X326816Y159489D01*
X327832D01*
X326816Y160505D01*
X327832Y161521D01*
X326816D01*
X325800Y162537D01*
X324784Y161521D01*
X323768D01*
X324784Y160505D01*
X323768Y159489D01*
X324784D01*
X325800Y158473D01*
X308700Y144468D02*
X309716Y145484D01*
X310732D01*
X309716Y146500D01*
X310732Y147516D01*
X309716D01*
X308700Y148532D01*
X307684Y147516D01*
X306668D01*
X307684Y146500D01*
X306668Y145484D01*
X307684D01*
X308700Y144468D01*
X271400Y146468D02*
X272416Y147484D01*
X273432D01*
X272416Y148500D01*
X273432Y149516D01*
X272416D01*
X271400Y150532D01*
X270384Y149516D01*
X269368D01*
X270384Y148500D01*
X269368Y147484D01*
X270384D01*
X271400Y146468D01*
X275400D02*
X276416Y147484D01*
X277432D01*
X276416Y148500D01*
X277432Y149516D01*
X276416D01*
X275400Y150532D01*
X274384Y149516D01*
X273368D01*
X274384Y148500D01*
X273368Y147484D01*
X274384D01*
X275400Y146468D01*
X281000Y197011D02*
X282016Y198027D01*
X283032D01*
X282016Y199043D01*
X283032Y200059D01*
X282016D01*
X281000Y201075D01*
X279984Y200059D01*
X278968D01*
X279984Y199043D01*
X278968Y198027D01*
X279984D01*
X281000Y197011D01*
X300500Y174368D02*
X301516Y175384D01*
X302532D01*
X301516Y176400D01*
X302532Y177416D01*
X301516D01*
X300500Y178432D01*
X299484Y177416D01*
X298468D01*
X299484Y176400D01*
X298468Y175384D01*
X299484D01*
X300500Y174368D01*
X348700Y157678D02*
X349716Y158694D01*
X350732D01*
X349716Y159710D01*
X350732Y160726D01*
X349716D01*
X348700Y161742D01*
X347684Y160726D01*
X346668D01*
X347684Y159710D01*
X346668Y158694D01*
X347684D01*
X348700Y157678D01*
X332000Y158368D02*
X333016Y159384D01*
X334032D01*
X333016Y160400D01*
X334032Y161416D01*
X333016D01*
X332000Y162432D01*
X330984Y161416D01*
X329968D01*
X330984Y160400D01*
X329968Y159384D01*
X330984D01*
X332000Y158368D01*
X340517Y157476D02*
X341533Y158492D01*
X342549D01*
X341533Y159508D01*
X342549Y160524D01*
X341533D01*
X340517Y161540D01*
X339501Y160524D01*
X338485D01*
X339501Y159508D01*
X338485Y158492D01*
X339501D01*
X340517Y157476D01*
X425000Y249168D02*
X426016Y250184D01*
X427032D01*
X426016Y251200D01*
X427032Y252216D01*
X426016D01*
X425000Y253232D01*
X423984Y252216D01*
X422968D01*
X423984Y251200D01*
X422968Y250184D01*
X423984D01*
X425000Y249168D01*
X479000Y245768D02*
X480016Y246784D01*
X481032D01*
X480016Y247800D01*
X481032Y248816D01*
X480016D01*
X479000Y249832D01*
X477984Y248816D01*
X476968D01*
X477984Y247800D01*
X476968Y246784D01*
X477984D01*
X479000Y245768D01*
X424900Y245968D02*
X425916Y246984D01*
X426932D01*
X425916Y248000D01*
X426932Y249016D01*
X425916D01*
X424900Y250032D01*
X423884Y249016D01*
X422868D01*
X423884Y248000D01*
X422868Y246984D01*
X423884D01*
X424900Y245968D01*
X441500Y237568D02*
X442516Y238584D01*
X443532D01*
X442516Y239600D01*
X443532Y240616D01*
X442516D01*
X441500Y241632D01*
X440484Y240616D01*
X439468D01*
X440484Y239600D01*
X439468Y238584D01*
X440484D01*
X441500Y237568D01*
X477900Y220568D02*
X478916Y221584D01*
X479932D01*
X478916Y222600D01*
X479932Y223616D01*
X478916D01*
X477900Y224632D01*
X476884Y223616D01*
X475868D01*
X476884Y222600D01*
X475868Y221584D01*
X476884D01*
X477900Y220568D01*
X428500Y141218D02*
X429516Y142234D01*
X430532D01*
X429516Y143250D01*
X430532Y144266D01*
X429516D01*
X428500Y145282D01*
X427484Y144266D01*
X426468D01*
X427484Y143250D01*
X426468Y142234D01*
X427484D01*
X428500Y141218D01*
X335569Y213812D02*
X336585Y214828D01*
X337601D01*
X336585Y215844D01*
X337601Y216860D01*
X336585D01*
X335569Y217876D01*
X334553Y216860D01*
X333537D01*
X334553Y215844D01*
X333537Y214828D01*
X334553D01*
X335569Y213812D01*
X363064Y151314D02*
X364080Y152330D01*
X365096D01*
X364080Y153346D01*
X365096Y154362D01*
X364080D01*
X363064Y155378D01*
X362048Y154362D01*
X361032D01*
X362048Y153346D01*
X361032Y152330D01*
X362048D01*
X363064Y151314D01*
X355700Y150168D02*
X356716Y151184D01*
X357732D01*
X356716Y152200D01*
X357732Y153216D01*
X356716D01*
X355700Y154232D01*
X354684Y153216D01*
X353668D01*
X354684Y152200D01*
X353668Y151184D01*
X354684D01*
X355700Y150168D01*
X339064Y136968D02*
X340080Y137984D01*
X341096D01*
X340080Y139000D01*
X341096Y140016D01*
X340080D01*
X339064Y141032D01*
X338048Y140016D01*
X337032D01*
X338048Y139000D01*
X337032Y137984D01*
X338048D01*
X339064Y136968D01*
X331064Y135314D02*
X332080Y136330D01*
X333096D01*
X332080Y137346D01*
X333096Y138362D01*
X332080D01*
X331064Y139378D01*
X330048Y138362D01*
X329032D01*
X330048Y137346D01*
X329032Y136330D01*
X330048D01*
X331064Y135314D01*
X316200Y142268D02*
X317216Y143284D01*
X318232D01*
X317216Y144300D01*
X318232Y145316D01*
X317216D01*
X316200Y146332D01*
X315184Y145316D01*
X314168D01*
X315184Y144300D01*
X314168Y143284D01*
X315184D01*
X316200Y142268D01*
X348700Y149678D02*
X349716Y150694D01*
X350732D01*
X349716Y151710D01*
X350732Y152726D01*
X349716D01*
X348700Y153742D01*
X347684Y152726D01*
X346668D01*
X347684Y151710D01*
X346668Y150694D01*
X347684D01*
X348700Y149678D01*
X356300Y158268D02*
X357316Y159284D01*
X358332D01*
X357316Y160300D01*
X358332Y161316D01*
X357316D01*
X356300Y162332D01*
X355284Y161316D01*
X354268D01*
X355284Y160300D01*
X354268Y159284D01*
X355284D01*
X356300Y158268D01*
X418598Y175468D02*
X419614Y176484D01*
X420630D01*
X419614Y177500D01*
X420630Y178516D01*
X419614D01*
X418598Y179532D01*
X417582Y178516D01*
X416566D01*
X417582Y177500D01*
X416566Y176484D01*
X417582D01*
X418598Y175468D01*
X473300Y220668D02*
X474316Y221684D01*
X475332D01*
X474316Y222700D01*
X475332Y223716D01*
X474316D01*
X473300Y224732D01*
X472284Y223716D01*
X471268D01*
X472284Y222700D01*
X471268Y221684D01*
X472284D01*
X473300Y220668D01*
X469200D02*
X470216Y221684D01*
X471232D01*
X470216Y222700D01*
X471232Y223716D01*
X470216D01*
X469200Y224732D01*
X468184Y223716D01*
X467168D01*
X468184Y222700D01*
X467168Y221684D01*
X468184D01*
X469200Y220668D01*
X465200D02*
X466216Y221684D01*
X467232D01*
X466216Y222700D01*
X467232Y223716D01*
X466216D01*
X465200Y224732D01*
X464184Y223716D01*
X463168D01*
X464184Y222700D01*
X463168Y221684D01*
X464184D01*
X465200Y220668D01*
X177000Y182718D02*
X178016Y183734D01*
X179032D01*
X178016Y184750D01*
X179032Y185766D01*
X178016D01*
X177000Y186782D01*
X175984Y185766D01*
X174968D01*
X175984Y184750D01*
X174968Y183734D01*
X175984D01*
X177000Y182718D01*
X403064Y164068D02*
X404080Y165084D01*
X405096D01*
X404080Y166100D01*
X405096Y167116D01*
X404080D01*
X403064Y168132D01*
X402048Y167116D01*
X401032D01*
X402048Y166100D01*
X401032Y165084D01*
X402048D01*
X403064Y164068D01*
X403200Y172168D02*
X404216Y173184D01*
X405232D01*
X404216Y174200D01*
X405232Y175216D01*
X404216D01*
X403200Y176232D01*
X402184Y175216D01*
X401168D01*
X402184Y174200D01*
X401168Y173184D01*
X402184D01*
X403200Y172168D01*
X448800Y229468D02*
X449816Y230484D01*
X450832D01*
X449816Y231500D01*
X450832Y232516D01*
X449816D01*
X448800Y233532D01*
X447784Y232516D01*
X446768D01*
X447784Y231500D01*
X446768Y230484D01*
X447784D01*
X448800Y229468D01*
X454500Y219718D02*
X455516Y220734D01*
X456532D01*
X455516Y221750D01*
X456532Y222766D01*
X455516D01*
X454500Y223782D01*
X453484Y222766D01*
X452468D01*
X453484Y221750D01*
X452468Y220734D01*
X453484D01*
X454500Y219718D01*
X452600Y197768D02*
X453616Y198784D01*
X454632D01*
X453616Y199800D01*
X454632Y200816D01*
X453616D01*
X452600Y201832D01*
X451584Y200816D01*
X450568D01*
X451584Y199800D01*
X450568Y198784D01*
X451584D01*
X452600Y197768D01*
X338782Y24069D02*
X339798Y25085D01*
X340814D01*
X339798Y26101D01*
X340814Y27117D01*
X339798D01*
X338782Y28133D01*
X337766Y27117D01*
X336750D01*
X337766Y26101D01*
X336750Y25085D01*
X337766D01*
X338782Y24069D01*
X363750Y77614D02*
X364766Y78630D01*
X365782D01*
X364766Y79646D01*
X365782Y80662D01*
X364766D01*
X363750Y81678D01*
X362734Y80662D01*
X361718D01*
X362734Y79646D01*
X361718Y78630D01*
X362734D01*
X363750Y77614D01*
X324700Y127664D02*
X325716Y128680D01*
X326732D01*
X325716Y129696D01*
X326732Y130712D01*
X325716D01*
X324700Y131728D01*
X323684Y130712D01*
X322668D01*
X323684Y129696D01*
X322668Y128680D01*
X323684D01*
X324700Y127664D01*
X332700Y127368D02*
X333716Y128384D01*
X334732D01*
X333716Y129400D01*
X334732Y130416D01*
X333716D01*
X332700Y131432D01*
X331684Y130416D01*
X330668D01*
X331684Y129400D01*
X330668Y128384D01*
X331684D01*
X332700Y127368D01*
X340700Y119314D02*
X341716Y120330D01*
X342732D01*
X341716Y121346D01*
X342732Y122362D01*
X341716D01*
X340700Y123378D01*
X339684Y122362D01*
X338668D01*
X339684Y121346D01*
X338668Y120330D01*
X339684D01*
X340700Y119314D01*
X332700D02*
X333716Y120330D01*
X334732D01*
X333716Y121346D01*
X334732Y122362D01*
X333716D01*
X332700Y123378D01*
X331684Y122362D01*
X330668D01*
X331684Y121346D01*
X330668Y120330D01*
X331684D01*
X332700Y119314D01*
X340900Y103331D02*
X341916Y104347D01*
X342932D01*
X341916Y105363D01*
X342932Y106379D01*
X341916D01*
X340900Y107395D01*
X339884Y106379D01*
X338868D01*
X339884Y105363D01*
X338868Y104347D01*
X339884D01*
X340900Y103331D01*
X332700Y103314D02*
X333716Y104330D01*
X334732D01*
X333716Y105346D01*
X334732Y106362D01*
X333716D01*
X332700Y107378D01*
X331684Y106362D01*
X330668D01*
X331684Y105346D01*
X330668Y104330D01*
X331684D01*
X332700Y103314D01*
X418500Y119868D02*
X419516Y120884D01*
X420532D01*
X419516Y121900D01*
X420532Y122916D01*
X419516D01*
X418500Y123932D01*
X417484Y122916D01*
X416468D01*
X417484Y121900D01*
X416468Y120884D01*
X417484D01*
X418500Y119868D01*
X316700Y127314D02*
X317716Y128330D01*
X318732D01*
X317716Y129346D01*
X318732Y130362D01*
X317716D01*
X316700Y131378D01*
X315684Y130362D01*
X314668D01*
X315684Y129346D01*
X314668Y128330D01*
X315684D01*
X316700Y127314D01*
X340700D02*
X341716Y128330D01*
X342732D01*
X341716Y129346D01*
X342732Y130362D01*
X341716D01*
X340700Y131378D01*
X339684Y130362D01*
X338668D01*
X339684Y129346D01*
X338668Y128330D01*
X339684D01*
X340700Y127314D01*
X371064D02*
X372080Y128330D01*
X373096D01*
X372080Y129346D01*
X373096Y130362D01*
X372080D01*
X371064Y131378D01*
X370048Y130362D01*
X369032D01*
X370048Y129346D01*
X369032Y128330D01*
X370048D01*
X371064Y127314D01*
Y119314D02*
X372080Y120330D01*
X373096D01*
X372080Y121346D01*
X373096Y122362D01*
X372080D01*
X371064Y123378D01*
X370048Y122362D01*
X369032D01*
X370048Y121346D01*
X369032Y120330D01*
X370048D01*
X371064Y119314D01*
X379064Y141678D02*
X380080Y142694D01*
X381096D01*
X380080Y143710D01*
X381096Y144726D01*
X380080D01*
X379064Y145742D01*
X378048Y144726D01*
X377032D01*
X378048Y143710D01*
X377032Y142694D01*
X378048D01*
X379064Y141678D01*
Y157628D02*
X380080Y158644D01*
X381096D01*
X380080Y159660D01*
X381096Y160676D01*
X380080D01*
X379064Y161692D01*
X378048Y160676D01*
X377032D01*
X378048Y159660D01*
X377032Y158644D01*
X378048D01*
X379064Y157628D01*
X371064Y149678D02*
X372080Y150694D01*
X373096D01*
X372080Y151710D01*
X373096Y152726D01*
X372080D01*
X371064Y153742D01*
X370048Y152726D01*
X369032D01*
X370048Y151710D01*
X369032Y150694D01*
X370048D01*
X371064Y149678D01*
X370300Y157168D02*
X371316Y158184D01*
X372332D01*
X371316Y159200D01*
X372332Y160216D01*
X371316D01*
X370300Y161232D01*
X369284Y160216D01*
X368268D01*
X369284Y159200D01*
X368268Y158184D01*
X369284D01*
X370300Y157168D01*
X362800Y71568D02*
X363816Y72584D01*
X364832D01*
X363816Y73600D01*
X364832Y74616D01*
X363816D01*
X362800Y75632D01*
X361784Y74616D01*
X360768D01*
X361784Y73600D01*
X360768Y72584D01*
X361784D01*
X362800Y71568D01*
X348700Y87314D02*
X349716Y88330D01*
X350732D01*
X349716Y89346D01*
X350732Y90362D01*
X349716D01*
X348700Y91378D01*
X347684Y90362D01*
X346668D01*
X347684Y89346D01*
X346668Y88330D01*
X347684D01*
X348700Y87314D01*
X371182Y85968D02*
X372198Y86984D01*
X373214D01*
X372198Y88000D01*
X373214Y89016D01*
X372198D01*
X371182Y90032D01*
X370166Y89016D01*
X369150D01*
X370166Y88000D01*
X369150Y86984D01*
X370166D01*
X371182Y85968D01*
X387055Y119323D02*
X388071Y120339D01*
X389087D01*
X388071Y121355D01*
X389087Y122371D01*
X388071D01*
X387055Y123387D01*
X386039Y122371D01*
X385023D01*
X386039Y121355D01*
X385023Y120339D01*
X386039D01*
X387055Y119323D01*
X363064Y101678D02*
X364080Y102694D01*
X365096D01*
X364080Y103710D01*
X365096Y104726D01*
X364080D01*
X363064Y105742D01*
X362048Y104726D01*
X361032D01*
X362048Y103710D01*
X361032Y102694D01*
X362048D01*
X363064Y101678D01*
X435750Y176968D02*
X436766Y177984D01*
X437782D01*
X436766Y179000D01*
X437782Y180016D01*
X436766D01*
X435750Y181032D01*
X434734Y180016D01*
X433718D01*
X434734Y179000D01*
X433718Y177984D01*
X434734D01*
X435750Y176968D01*
X400600Y199018D02*
X401616Y200034D01*
X402632D01*
X401616Y201050D01*
X402632Y202066D01*
X401616D01*
X400600Y203082D01*
X399584Y202066D01*
X398568D01*
X399584Y201050D01*
X398568Y200034D01*
X399584D01*
X400600Y199018D01*
X344100Y56768D02*
X345116Y57784D01*
X346132D01*
X345116Y58800D01*
X346132Y59816D01*
X345116D01*
X344100Y60832D01*
X343084Y59816D01*
X342068D01*
X343084Y58800D01*
X342068Y57784D01*
X343084D01*
X344100Y56768D01*
X340700Y111314D02*
X341716Y112330D01*
X342732D01*
X341716Y113346D01*
X342732Y114362D01*
X341716D01*
X340700Y115378D01*
X339684Y114362D01*
X338668D01*
X339684Y113346D01*
X338668Y112330D01*
X339684D01*
X340700Y111314D01*
X358500Y86968D02*
X359516Y87984D01*
X360532D01*
X359516Y89000D01*
X360532Y90016D01*
X359516D01*
X358500Y91032D01*
X357484Y90016D01*
X356468D01*
X357484Y89000D01*
X356468Y87984D01*
X357484D01*
X358500Y86968D01*
X362500Y85718D02*
X363516Y86734D01*
X364532D01*
X363516Y87750D01*
X364532Y88766D01*
X363516D01*
X362500Y89782D01*
X361484Y88766D01*
X360468D01*
X361484Y87750D01*
X360468Y86734D01*
X361484D01*
X362500Y85718D01*
X454468Y175968D02*
X455484D01*
X456500Y176984D01*
X457516Y175968D01*
X458532D01*
Y176984D01*
X457516Y178000D01*
X458532Y179016D01*
Y180032D01*
X457516D01*
X456500Y179016D01*
X455484Y180032D01*
X454468D01*
Y179016D01*
X455484Y178000D01*
X454468Y176984D01*
Y175968D01*
X387064Y157678D02*
X388080Y158694D01*
X389096D01*
X388080Y159710D01*
X389096Y160726D01*
X388080D01*
X387064Y161742D01*
X386048Y160726D01*
X385032D01*
X386048Y159710D01*
X385032Y158694D01*
X386048D01*
X387064Y157678D01*
X395064D02*
X396080Y158694D01*
X397096D01*
X396080Y159710D01*
X397096Y160726D01*
X396080D01*
X395064Y161742D01*
X394048Y160726D01*
X393032D01*
X394048Y159710D01*
X393032Y158694D01*
X394048D01*
X395064Y157678D01*
Y164068D02*
X396080Y165084D01*
X397096D01*
X396080Y166100D01*
X397096Y167116D01*
X396080D01*
X395064Y168132D01*
X394048Y167116D01*
X393032D01*
X394048Y166100D01*
X393032Y165084D01*
X394048D01*
X395064Y164068D01*
X299200Y189333D02*
X300216Y190350D01*
X301232D01*
X300216Y191366D01*
X301232Y192381D01*
X300216D01*
X299200Y193398D01*
X298184Y192381D01*
X297168D01*
X298184Y191366D01*
X297168Y190350D01*
X298184D01*
X299200Y189333D01*
X298000Y197979D02*
X299016Y198995D01*
X300032D01*
X299016Y200011D01*
X300032Y201027D01*
X299016D01*
X298000Y202043D01*
X296984Y201027D01*
X295968D01*
X296984Y200011D01*
X295968Y198995D01*
X296984D01*
X298000Y197979D01*
X292820Y190968D02*
X293836Y191984D01*
X294852D01*
X293836Y193000D01*
X294852Y194016D01*
X293836D01*
X292820Y195032D01*
X291804Y194016D01*
X290788D01*
X291804Y193000D01*
X290788Y191984D01*
X291804D01*
X292820Y190968D01*
X305500Y197968D02*
X306516Y198984D01*
X307532D01*
X306516Y200000D01*
X307532Y201016D01*
X306516D01*
X305500Y202032D01*
X304484Y201016D01*
X303468D01*
X304484Y200000D01*
X303468Y198984D01*
X304484D01*
X305500Y197968D01*
X340500Y213468D02*
X341516Y214484D01*
X342532D01*
X341516Y215500D01*
X342532Y216516D01*
X341516D01*
X340500Y217532D01*
X339484Y216516D01*
X338468D01*
X339484Y215500D01*
X338468Y214484D01*
X339484D01*
X340500Y213468D01*
X333482Y182302D02*
X334498Y183318D01*
X335514D01*
X334498Y184334D01*
X335514Y185350D01*
X334498D01*
X333482Y186366D01*
X332466Y185350D01*
X331450D01*
X332466Y184334D01*
X331450Y183318D01*
X332466D01*
X333482Y182302D01*
X355750Y182368D02*
X356766Y183384D01*
X357782D01*
X356766Y184400D01*
X357782Y185416D01*
X356766D01*
X355750Y186432D01*
X354734Y185416D01*
X353718D01*
X354734Y184400D01*
X353718Y183384D01*
X354734D01*
X355750Y182368D01*
X363571Y167919D02*
X364587Y168935D01*
X365603D01*
X364587Y169951D01*
X365603Y170967D01*
X364587D01*
X363571Y171983D01*
X362555Y170967D01*
X361539D01*
X362555Y169951D01*
X361539Y168935D01*
X362555D01*
X363571Y167919D01*
X379064Y173678D02*
X380080Y174694D01*
X381096D01*
X380080Y175710D01*
X381096Y176726D01*
X380080D01*
X379064Y177742D01*
X378048Y176726D01*
X377032D01*
X378048Y175710D01*
X377032Y174694D01*
X378048D01*
X379064Y173678D01*
X396000Y196218D02*
X397016Y197234D01*
X398032D01*
X397016Y198250D01*
X398032Y199266D01*
X397016D01*
X396000Y200282D01*
X394984Y199266D01*
X393968D01*
X394984Y198250D01*
X393968Y197234D01*
X394984D01*
X396000Y196218D01*
X450000Y216968D02*
X451016Y217984D01*
X452032D01*
X451016Y219000D01*
X452032Y220016D01*
X451016D01*
X450000Y221032D01*
X448984Y220016D01*
X447968D01*
X448984Y219000D01*
X447968Y217984D01*
X448984D01*
X450000Y216968D01*
X449500Y221968D02*
X450516Y222984D01*
X451532D01*
X450516Y224000D01*
X451532Y225016D01*
X450516D01*
X449500Y226032D01*
X448484Y225016D01*
X447468D01*
X448484Y224000D01*
X447468Y222984D01*
X448484D01*
X449500Y221968D01*
X348500Y183968D02*
X349516Y184984D01*
X350532D01*
X349516Y186000D01*
X350532Y187016D01*
X349516D01*
X348500Y188032D01*
X347484Y187016D01*
X346468D01*
X347484Y186000D01*
X346468Y184984D01*
X347484D01*
X348500Y183968D01*
X347750Y174468D02*
X348766Y175484D01*
X349782D01*
X348766Y176500D01*
X349782Y177516D01*
X348766D01*
X347750Y178532D01*
X346734Y177516D01*
X345718D01*
X346734Y176500D01*
X345718Y175484D01*
X346734D01*
X347750Y174468D01*
X354250Y174468D02*
X355266Y175484D01*
X356282D01*
X355266Y176500D01*
X356282Y177516D01*
X355266D01*
X354250Y178532D01*
X353234Y177516D01*
X352218D01*
X353234Y176500D01*
X352218Y175484D01*
X353234D01*
X354250Y174468D01*
X340900Y165678D02*
X341916Y166694D01*
X342932D01*
X341916Y167710D01*
X342932Y168726D01*
X341916D01*
X340900Y169742D01*
X339884Y168726D01*
X338868D01*
X339884Y167710D01*
X338868Y166694D01*
X339884D01*
X340900Y165678D01*
X309250Y174368D02*
X310266Y175384D01*
X311282D01*
X310266Y176400D01*
X311282Y177416D01*
X310266D01*
X309250Y178432D01*
X308234Y177416D01*
X307218D01*
X308234Y176400D01*
X307218Y175384D01*
X308234D01*
X309250Y174368D01*
X403064Y157678D02*
X404080Y158694D01*
X405096D01*
X404080Y159710D01*
X405096Y160726D01*
X404080D01*
X403064Y161742D01*
X402048Y160726D01*
X401032D01*
X402048Y159710D01*
X401032Y158694D01*
X402048D01*
X403064Y157678D01*
X285000Y196968D02*
X286016Y197984D01*
X287032D01*
X286016Y199000D01*
X287032Y200016D01*
X286016D01*
X285000Y201032D01*
X283984Y200016D01*
X282968D01*
X283984Y199000D01*
X282968Y197984D01*
X283984D01*
X285000Y196968D01*
X121500Y159718D02*
X122516Y160734D01*
X123532D01*
X122516Y161750D01*
X123532Y162766D01*
X122516D01*
X121500Y163782D01*
X120484Y162766D01*
X119468D01*
X120484Y161750D01*
X119468Y160734D01*
X120484D01*
X121500Y159718D01*
X132718Y157718D02*
X133734D01*
X134750Y158734D01*
X135766Y157718D01*
X136782D01*
Y158734D01*
X135766Y159750D01*
X136782Y160766D01*
Y161782D01*
X135766D01*
X134750Y160766D01*
X133734Y161782D01*
X132718D01*
Y160766D01*
X133734Y159750D01*
X132718Y158734D01*
Y157718D01*
X126218D02*
X127234D01*
X128250Y158734D01*
X129266Y157718D01*
X130282D01*
Y158734D01*
X129266Y159750D01*
X130282Y160766D01*
Y161782D01*
X129266D01*
X128250Y160766D01*
X127234Y161782D01*
X126218D01*
Y160766D01*
X127234Y159750D01*
X126218Y158734D01*
Y157718D01*
X115900Y154718D02*
X116916Y155734D01*
X117932D01*
X116916Y156750D01*
X117932Y157766D01*
X116916D01*
X115900Y158782D01*
X114884Y157766D01*
X113868D01*
X114884Y156750D01*
X113868Y155734D01*
X114884D01*
X115900Y154718D01*
Y159718D02*
X116916Y160734D01*
X117932D01*
X116916Y161750D01*
X117932Y162766D01*
X116916D01*
X115900Y163782D01*
X114884Y162766D01*
X113868D01*
X114884Y161750D01*
X113868Y160734D01*
X114884D01*
X115900Y159718D01*
X393032Y78145D02*
X394048Y79162D01*
X395064D01*
X394048Y80177D01*
X395064Y81194D01*
X394048D01*
X393032Y82210D01*
X392016Y81194D01*
X391000D01*
X392016Y80177D01*
X391000Y79162D01*
X392016D01*
X393032Y78145D01*
X386769Y87472D02*
X387785Y88488D01*
X388801D01*
X387785Y89504D01*
X388801Y90520D01*
X387785D01*
X386769Y91536D01*
X385753Y90520D01*
X384737D01*
X385753Y89504D01*
X384737Y88488D01*
X385753D01*
X386769Y87472D01*
X387908Y79268D02*
X388924Y80284D01*
X389940D01*
X388924Y81300D01*
X389940Y82316D01*
X388924D01*
X387908Y83332D01*
X386892Y82316D01*
X385876D01*
X386892Y81300D01*
X385876Y80284D01*
X386892D01*
X387908Y79268D01*
X432750Y44968D02*
X433766Y45984D01*
X434782D01*
X433766Y47000D01*
X434782Y48016D01*
X433766D01*
X432750Y49032D01*
X431734Y48016D01*
X430718D01*
X431734Y47000D01*
X430718Y45984D01*
X431734D01*
X432750Y44968D01*
X348517Y165476D02*
X349533Y166492D01*
X350549D01*
X349533Y167508D01*
X350549Y168524D01*
X349533D01*
X348517Y169540D01*
X347501Y168524D01*
X346485D01*
X347501Y167508D01*
X346485Y166492D01*
X347501D01*
X348517Y165476D01*
X403064Y148768D02*
X404080Y149784D01*
X405096D01*
X404080Y150800D01*
X405096Y151816D01*
X404080D01*
X403064Y152832D01*
X402048Y151816D01*
X401032D01*
X402048Y150800D01*
X401032Y149784D01*
X402048D01*
X403064Y148768D01*
X398500Y214868D02*
X399516Y215884D01*
X400532D01*
X399516Y216900D01*
X400532Y217916D01*
X399516D01*
X398500Y218932D01*
X397484Y217916D01*
X396468D01*
X397484Y216900D01*
X396468Y215884D01*
X397484D01*
X398500Y214868D01*
X397300Y224168D02*
X398316Y225184D01*
X399332D01*
X398316Y226200D01*
X399332Y227216D01*
X398316D01*
X397300Y228232D01*
X396284Y227216D01*
X395268D01*
X396284Y226200D01*
X395268Y225184D01*
X396284D01*
X397300Y224168D01*
X394000Y227968D02*
X395016Y228984D01*
X396032D01*
X395016Y230000D01*
X396032Y231016D01*
X395016D01*
X394000Y232032D01*
X392984Y231016D01*
X391968D01*
X392984Y230000D01*
X391968Y228984D01*
X392984D01*
X394000Y227968D01*
X398400Y219568D02*
X399416Y220584D01*
X400432D01*
X399416Y221600D01*
X400432Y222616D01*
X399416D01*
X398400Y223632D01*
X397384Y222616D01*
X396368D01*
X397384Y221600D01*
X396368Y220584D01*
X397384D01*
X398400Y219568D01*
X388600Y230168D02*
X389616Y231184D01*
X390632D01*
X389616Y232200D01*
X390632Y233216D01*
X389616D01*
X388600Y234232D01*
X387584Y233216D01*
X386568D01*
X387584Y232200D01*
X386568Y231184D01*
X387584D01*
X388600Y230168D01*
X383700D02*
X384716Y231184D01*
X385732D01*
X384716Y232200D01*
X385732Y233216D01*
X384716D01*
X383700Y234232D01*
X382684Y233216D01*
X381668D01*
X382684Y232200D01*
X381668Y231184D01*
X382684D01*
X383700Y230168D01*
X370600Y238468D02*
X371616Y239484D01*
X372632D01*
X371616Y240500D01*
X372632Y241516D01*
X371616D01*
X370600Y242532D01*
X369584Y241516D01*
X368568D01*
X369584Y240500D01*
X368568Y239484D01*
X369584D01*
X370600Y238468D01*
X375500D02*
X376516Y239484D01*
X377532D01*
X376516Y240500D01*
X377532Y241516D01*
X376516D01*
X375500Y242532D01*
X374484Y241516D01*
X373468D01*
X374484Y240500D01*
X373468Y239484D01*
X374484D01*
X375500Y238468D01*
X485000Y113968D02*
X486016Y114984D01*
X487032D01*
X486016Y116000D01*
X487032Y117016D01*
X486016D01*
X485000Y118032D01*
X483984Y117016D01*
X482968D01*
X483984Y116000D01*
X482968Y114984D01*
X483984D01*
X485000Y113968D01*
X496500Y101668D02*
X497516Y102684D01*
X498532D01*
X497516Y103700D01*
X498532Y104716D01*
X497516D01*
X496500Y105732D01*
X495484Y104716D01*
X494468D01*
X495484Y103700D01*
X494468Y102684D01*
X495484D01*
X496500Y101668D01*
X501400D02*
X502416Y102684D01*
X503432D01*
X502416Y103700D01*
X503432Y104716D01*
X502416D01*
X501400Y105732D01*
X500384Y104716D01*
X499368D01*
X500384Y103700D01*
X499368Y102684D01*
X500384D01*
X501400Y101668D01*
X512700Y101768D02*
X513716Y102784D01*
X514732D01*
X513716Y103800D01*
X514732Y104816D01*
X513716D01*
X512700Y105832D01*
X511684Y104816D01*
X510668D01*
X511684Y103800D01*
X510668Y102784D01*
X511684D01*
X512700Y101768D01*
X506100D02*
X507116Y102784D01*
X508132D01*
X507116Y103800D01*
X508132Y104816D01*
X507116D01*
X506100Y105832D01*
X505084Y104816D01*
X504068D01*
X505084Y103800D01*
X504068Y102784D01*
X505084D01*
X506100Y101768D01*
X486304Y102804D02*
X487320Y103820D01*
X488336D01*
X487320Y104836D01*
X488336Y105852D01*
X487320D01*
X486304Y106868D01*
X485288Y105852D01*
X484272D01*
X485288Y104836D01*
X484272Y103820D01*
X485288D01*
X486304Y102804D01*
X261000Y137968D02*
X262016Y138984D01*
X263032D01*
X262016Y140000D01*
X263032Y141016D01*
X262016D01*
X261000Y142032D01*
X259984Y141016D01*
X258968D01*
X259984Y140000D01*
X258968Y138984D01*
X259984D01*
X261000Y137968D01*
X307100Y116968D02*
X308116Y117984D01*
X309132D01*
X308116Y119000D01*
X309132Y120016D01*
X308116D01*
X307100Y121032D01*
X306084Y120016D01*
X305068D01*
X306084Y119000D01*
X305068Y117984D01*
X306084D01*
X307100Y116968D01*
X161200Y119268D02*
X162216Y120284D01*
X163232D01*
X162216Y121300D01*
X163232Y122316D01*
X162216D01*
X161200Y123332D01*
X160184Y122316D01*
X159168D01*
X160184Y121300D01*
X159168Y120284D01*
X160184D01*
X161200Y119268D01*
X165000Y119218D02*
X166016Y120234D01*
X167032D01*
X166016Y121250D01*
X167032Y122266D01*
X166016D01*
X165000Y123282D01*
X163984Y122266D01*
X162968D01*
X163984Y121250D01*
X162968Y120234D01*
X163984D01*
X165000Y119218D01*
X169000D02*
X170016Y120234D01*
X171032D01*
X170016Y121250D01*
X171032Y122266D01*
X170016D01*
X169000Y123282D01*
X167984Y122266D01*
X166968D01*
X167984Y121250D01*
X166968Y120234D01*
X167984D01*
X169000Y119218D01*
X218500Y114468D02*
X219516Y115484D01*
X220532D01*
X219516Y116500D01*
X220532Y117516D01*
X219516D01*
X218500Y118532D01*
X217484Y117516D01*
X216468D01*
X217484Y116500D01*
X216468Y115484D01*
X217484D01*
X218500Y114468D01*
X167045Y122299D02*
X168061Y123315D01*
X169077D01*
X168061Y124331D01*
X169077Y125347D01*
X168061D01*
X167045Y126363D01*
X166029Y125347D01*
X165013D01*
X166029Y124331D01*
X165013Y123315D01*
X166029D01*
X167045Y122299D01*
X166996Y125810D02*
X168012Y126826D01*
X169028D01*
X168012Y127842D01*
X169028Y128858D01*
X168012D01*
X166996Y129874D01*
X165980Y128858D01*
X164964D01*
X165980Y127842D01*
X164964Y126826D01*
X165980D01*
X166996Y125810D01*
X168250Y93468D02*
X169266Y94484D01*
X170282D01*
X169266Y95500D01*
X170282Y96516D01*
X169266D01*
X168250Y97532D01*
X167234Y96516D01*
X166218D01*
X167234Y95500D01*
X166218Y94484D01*
X167234D01*
X168250Y93468D01*
Y89468D02*
X169266Y90484D01*
X170282D01*
X169266Y91500D01*
X170282Y92516D01*
X169266D01*
X168250Y93532D01*
X167234Y92516D01*
X166218D01*
X167234Y91500D01*
X166218Y90484D01*
X167234D01*
X168250Y89468D01*
X165000D02*
X166016Y90484D01*
X167032D01*
X166016Y91500D01*
X167032Y92516D01*
X166016D01*
X165000Y93532D01*
X163984Y92516D01*
X162968D01*
X163984Y91500D01*
X162968Y90484D01*
X163984D01*
X165000Y89468D01*
Y98718D02*
X166016Y99734D01*
X167032D01*
X166016Y100750D01*
X167032Y101766D01*
X166016D01*
X165000Y102782D01*
X163984Y101766D01*
X162968D01*
X163984Y100750D01*
X162968Y99734D01*
X163984D01*
X165000Y98718D01*
X161500D02*
X162516Y99734D01*
X163532D01*
X162516Y100750D01*
X163532Y101766D01*
X162516D01*
X161500Y102782D01*
X160484Y101766D01*
X159468D01*
X160484Y100750D01*
X159468Y99734D01*
X160484D01*
X161500Y98718D01*
Y89468D02*
X162516Y90484D01*
X163532D01*
X162516Y91500D01*
X163532Y92516D01*
X162516D01*
X161500Y93532D01*
X160484Y92516D01*
X159468D01*
X160484Y91500D01*
X159468Y90484D01*
X160484D01*
X161500Y89468D01*
X188500Y69968D02*
X189516Y70984D01*
X190532D01*
X189516Y72000D01*
X190532Y73016D01*
X189516D01*
X188500Y74032D01*
X187484Y73016D01*
X186468D01*
X187484Y72000D01*
X186468Y70984D01*
X187484D01*
X188500Y69968D01*
X229500Y88468D02*
X230516Y89484D01*
X231532D01*
X230516Y90500D01*
X231532Y91516D01*
X230516D01*
X229500Y92532D01*
X228484Y91516D01*
X227468D01*
X228484Y90500D01*
X227468Y89484D01*
X228484D01*
X229500Y88468D01*
X212750Y82218D02*
X213766Y83234D01*
X214782D01*
X213766Y84250D01*
X214782Y85266D01*
X213766D01*
X212750Y86282D01*
X211734Y85266D01*
X210718D01*
X211734Y84250D01*
X210718Y83234D01*
X211734D01*
X212750Y82218D01*
X219035Y82266D02*
X220051Y83282D01*
X221067D01*
X220051Y84298D01*
X221067Y85314D01*
X220051D01*
X219035Y86330D01*
X218019Y85314D01*
X217003D01*
X218019Y84298D01*
X217003Y83282D01*
X218019D01*
X219035Y82266D01*
X300750Y102468D02*
X301766Y103484D01*
X302782D01*
X301766Y104500D01*
X302782Y105516D01*
X301766D01*
X300750Y106532D01*
X299734Y105516D01*
X298718D01*
X299734Y104500D01*
X298718Y103484D01*
X299734D01*
X300750Y102468D01*
X303882Y102496D02*
X304898Y103512D01*
X305914D01*
X304898Y104528D01*
X305914Y105544D01*
X304898D01*
X303882Y106560D01*
X302866Y105544D01*
X301850D01*
X302866Y104528D01*
X301850Y103512D01*
X302866D01*
X303882Y102496D01*
X311882D02*
X312898Y103512D01*
X313914D01*
X312898Y104528D01*
X313914Y105544D01*
X312898D01*
X311882Y106560D01*
X310866Y105544D01*
X309850D01*
X310866Y104528D01*
X309850Y103512D01*
X310866D01*
X311882Y102496D01*
X308750Y102468D02*
X309766Y103484D01*
X310782D01*
X309766Y104500D01*
X310782Y105516D01*
X309766D01*
X308750Y106532D01*
X307734Y105516D01*
X306718D01*
X307734Y104500D01*
X306718Y103484D01*
X307734D01*
X308750Y102468D01*
X323064Y135314D02*
X324080Y136330D01*
X325096D01*
X324080Y137346D01*
X325096Y138362D01*
X324080D01*
X323064Y139378D01*
X322048Y138362D01*
X321032D01*
X322048Y137346D01*
X321032Y136330D01*
X322048D01*
X323064Y135314D01*
X395064Y111314D02*
X396080Y112330D01*
X397096D01*
X396080Y113346D01*
X397096Y114362D01*
X396080D01*
X395064Y115378D01*
X394048Y114362D01*
X393032D01*
X394048Y113346D01*
X393032Y112330D01*
X394048D01*
X395064Y111314D01*
Y127314D02*
X396080Y128330D01*
X397096D01*
X396080Y129346D01*
X397096Y130362D01*
X396080D01*
X395064Y131378D01*
X394048Y130362D01*
X393032D01*
X394048Y129346D01*
X393032Y128330D01*
X394048D01*
X395064Y127314D01*
X332700Y111314D02*
X333716Y112330D01*
X334732D01*
X333716Y113346D01*
X334732Y114362D01*
X333716D01*
X332700Y115378D01*
X331684Y114362D01*
X330668D01*
X331684Y113346D01*
X330668Y112330D01*
X331684D01*
X332700Y111314D01*
X387064Y127314D02*
X388080Y128330D01*
X389096D01*
X388080Y129346D01*
X389096Y130362D01*
X388080D01*
X387064Y131378D01*
X386048Y130362D01*
X385032D01*
X386048Y129346D01*
X385032Y128330D01*
X386048D01*
X387064Y127314D01*
X379064Y111314D02*
X380080Y112330D01*
X381096D01*
X380080Y113346D01*
X381096Y114362D01*
X380080D01*
X379064Y115378D01*
X378048Y114362D01*
X377032D01*
X378048Y113346D01*
X377032Y112330D01*
X378048D01*
X379064Y111314D01*
Y127314D02*
X380080Y128330D01*
X381096D01*
X380080Y129346D01*
X381096Y130362D01*
X380080D01*
X379064Y131378D01*
X378048Y130362D01*
X377032D01*
X378048Y129346D01*
X377032Y128330D01*
X378048D01*
X379064Y127314D01*
X348700Y119314D02*
X349716Y120330D01*
X350732D01*
X349716Y121346D01*
X350732Y122362D01*
X349716D01*
X348700Y123378D01*
X347684Y122362D01*
X346668D01*
X347684Y121346D01*
X346668Y120330D01*
X347684D01*
X348700Y119314D01*
Y127314D02*
X349716Y128330D01*
X350732D01*
X349716Y129346D01*
X350732Y130362D01*
X349716D01*
X348700Y131378D01*
X347684Y130362D01*
X346668D01*
X347684Y129346D01*
X346668Y128330D01*
X347684D01*
X348700Y127314D01*
D213*
X32852Y50940D02*
G03*
X32852Y50940I-2032J0D01*
G01*
Y30940D02*
G03*
X32852Y30940I-2032J0D01*
G01*
X22032Y115800D02*
G03*
X22032Y115800I-2032J0D01*
G01*
Y202200D02*
G03*
X22032Y202200I-2032J0D01*
G01*
X17852Y30940D02*
G03*
X17852Y30940I-2032J0D01*
G01*
Y50940D02*
G03*
X17852Y50940I-2032J0D01*
G01*
D214*
X21016Y115800D02*
G03*
X21016Y115800I-1016J0D01*
G01*
Y202200D02*
G03*
X21016Y202200I-1016J0D01*
G01*
M02*
