G04*
G04 #@! TF.GenerationSoftware,Altium Limited,Altium Designer,25.1.2 (22)*
G04*
G04 Layer_Color=128*
%FSLAX44Y44*%
%MOMM*%
G71*
G04*
G04 #@! TF.SameCoordinates,2BCE8437-4B4B-493D-AEBF-8C89570F1AAD*
G04*
G04*
G04 #@! TF.FilePolarity,Positive*
G04*
G01*
G75*
%ADD212C,0.0508*%
D212*
X9820Y227690D02*
X24820D01*
X17320Y220190D02*
Y235190D01*
X26820Y50940D02*
X34820D01*
X30820Y46940D02*
Y54940D01*
X26820Y30940D02*
X34820D01*
X30820Y26940D02*
Y34940D01*
X17000Y115800D02*
X23000D01*
X20000Y112800D02*
Y118800D01*
X17000Y202200D02*
X23000D01*
X20000Y199200D02*
Y205200D01*
X58800Y115800D02*
X64800D01*
X61800Y112800D02*
Y118800D01*
X58800Y202200D02*
X64800D01*
X61800Y199200D02*
Y205200D01*
X53550Y187900D02*
X60050D01*
X56800Y184650D02*
Y191150D01*
X53550Y130100D02*
X60050D01*
X56800Y126850D02*
Y133350D01*
X535244Y234578D02*
X555244D01*
X545244Y224578D02*
Y244578D01*
X535244Y24578D02*
X555244D01*
X545244Y14578D02*
Y34578D01*
X55244Y24578D02*
X75244D01*
X65244Y14578D02*
Y34578D01*
X55244Y234578D02*
X75244D01*
X65244Y224578D02*
Y244578D01*
X509500Y52000D02*
X510500D01*
X510000Y51500D02*
Y52500D01*
X546500Y48000D02*
X547500D01*
X547000Y47500D02*
Y48500D01*
X543500Y55000D02*
X544500D01*
X544000Y54500D02*
Y55500D01*
X552500Y55000D02*
X553500D01*
X553000Y54500D02*
Y55500D01*
X552500Y48000D02*
X553500D01*
X553000Y47500D02*
Y48500D01*
X558500Y55000D02*
X559500D01*
X559000Y54500D02*
Y55500D01*
X558500Y48000D02*
X559500D01*
X559000Y47500D02*
Y48500D01*
X543500Y124000D02*
X544500D01*
X544000Y123500D02*
Y124500D01*
X543500Y130000D02*
X544500D01*
X544000Y129500D02*
Y130500D01*
X543500Y136000D02*
X544500D01*
X544000Y135500D02*
Y136500D01*
X543500Y142000D02*
X544500D01*
X544000Y141500D02*
Y142500D01*
X543500Y148000D02*
X544500D01*
X544000Y147500D02*
Y148500D01*
X543500Y154000D02*
X544500D01*
X544000Y153500D02*
Y154500D01*
X539617Y108647D02*
X540617D01*
X540117Y108147D02*
Y109147D01*
X539500Y114000D02*
X540500D01*
X540000Y113500D02*
Y114500D01*
X529500Y138000D02*
X530500D01*
X530000Y137500D02*
Y138500D01*
X524500Y138000D02*
X525500D01*
X525000Y137500D02*
Y138500D01*
X535000Y137750D02*
X536000D01*
X535500Y137250D02*
Y138250D01*
X558554Y84836D02*
X559554D01*
X559054Y84336D02*
Y85336D01*
X551950Y84836D02*
X552950D01*
X552450Y84336D02*
Y85336D01*
X544584Y84582D02*
X545584D01*
X545084Y84082D02*
Y85082D01*
X537726Y84582D02*
X538726D01*
X538226Y84082D02*
Y85082D01*
X565412Y87376D02*
X566412D01*
X565912Y86876D02*
Y87876D01*
X565412Y83566D02*
X566412D01*
X565912Y83066D02*
Y84066D01*
X565412Y79756D02*
X566412D01*
X565912Y79256D02*
Y80256D01*
X565412Y36322D02*
X566412D01*
X565912Y35822D02*
Y36822D01*
X565412Y40386D02*
X566412D01*
X565912Y39886D02*
Y40886D01*
X565412Y44450D02*
X566412D01*
X565912Y43950D02*
Y44950D01*
X563888Y67310D02*
X564888D01*
X564388Y66810D02*
Y67810D01*
X560332Y67310D02*
X561332D01*
X560832Y66810D02*
Y67810D01*
X563811Y63388D02*
X564811D01*
X564311Y62888D02*
Y63888D01*
X551950Y79756D02*
X552950D01*
X552450Y79256D02*
Y80256D01*
X544584Y79756D02*
X545584D01*
X545084Y79256D02*
Y80256D01*
X537726Y79756D02*
X538726D01*
X538226Y79256D02*
Y80256D01*
X535186Y69088D02*
X536186D01*
X535686Y68588D02*
Y69588D01*
X528582Y69088D02*
X529582D01*
X529082Y68588D02*
Y69588D01*
X528582Y63500D02*
X529582D01*
X529082Y63000D02*
Y64000D01*
X530847Y50091D02*
X531847D01*
X531347Y49591D02*
Y50591D01*
X502051Y42449D02*
X503051D01*
X502551Y41949D02*
Y42949D01*
X545854Y103124D02*
X546854D01*
X546354Y102624D02*
Y103624D01*
X538488Y103124D02*
X539488D01*
X538988Y102624D02*
Y103624D01*
X524010Y71120D02*
X525010D01*
X524510Y70620D02*
Y71620D01*
X494526Y19446D02*
X495526D01*
X495026Y18946D02*
Y19946D01*
X495550Y14464D02*
X496550D01*
X496050Y13964D02*
Y14964D01*
X207651Y26000D02*
X208651D01*
X208151Y25500D02*
Y26500D01*
X212500Y26000D02*
X213500D01*
X213000Y25500D02*
Y26500D01*
X216670Y25908D02*
X217670D01*
X217170Y25408D02*
Y26408D01*
X198182Y19442D02*
X199182D01*
X198682Y18942D02*
Y19942D01*
X230640Y19812D02*
X231640D01*
X231140Y19312D02*
Y20312D01*
X428252Y73100D02*
X429252D01*
X428752Y72600D02*
Y73600D01*
X496000Y87750D02*
X497000D01*
X496500Y87250D02*
Y88250D01*
X492500Y87750D02*
X493500D01*
X493000Y87250D02*
Y88250D01*
X490526Y81729D02*
X491526D01*
X491026Y81229D02*
Y82229D01*
X504463Y82142D02*
X505463D01*
X504963Y81642D02*
Y82642D01*
X508440Y82565D02*
X509440D01*
X508940Y82065D02*
Y83065D01*
X494750Y79750D02*
X495750D01*
X495250Y79250D02*
Y80250D01*
X488942Y87710D02*
X489942D01*
X489442Y87210D02*
Y88210D01*
X514500Y84365D02*
X515500D01*
X515000Y83865D02*
Y84865D01*
X420500Y67000D02*
X421500D01*
X421000Y66500D02*
Y67500D01*
X446022Y67753D02*
X447022D01*
X446522Y67253D02*
Y68253D01*
X370564Y96844D02*
X371564D01*
X371064Y96344D02*
Y97344D01*
X378564Y105696D02*
X379564D01*
X379064Y105196D02*
Y106196D01*
X386564Y105696D02*
X387564D01*
X387064Y105196D02*
Y106196D01*
X324455Y81011D02*
X325455D01*
X324955Y80512D02*
Y81511D01*
X328330Y80020D02*
X329330D01*
X328830Y79520D02*
Y80520D01*
X348767Y20501D02*
X349767D01*
X349267Y20001D02*
Y21001D01*
X335500Y22000D02*
X336500D01*
X336000Y21500D02*
Y22500D01*
X328500Y24000D02*
X329500D01*
X329000Y23500D02*
Y24500D01*
X362500Y27000D02*
X363500D01*
X363000Y26500D02*
Y27500D01*
X347800Y58800D02*
X348800D01*
X348300Y58300D02*
Y59300D01*
X430750Y65475D02*
X431749D01*
X431250Y64975D02*
Y65975D01*
X445772Y63003D02*
X446772D01*
X446272Y62503D02*
Y63503D01*
X429947Y61094D02*
X430947D01*
X430447Y60594D02*
Y61594D01*
X439006Y52488D02*
X440006D01*
X439506Y51989D02*
Y52989D01*
X436709Y46903D02*
X437709D01*
X437209Y46403D02*
Y47403D01*
X446640Y58233D02*
X447640D01*
X447140Y57733D02*
Y58733D01*
X512100Y22600D02*
X513100D01*
X512600Y22100D02*
Y23100D01*
X475500Y53000D02*
X476500D01*
X476000Y52500D02*
Y53500D01*
X471500Y53000D02*
X472500D01*
X472000Y52500D02*
Y53500D01*
X479500Y53000D02*
X480500D01*
X480000Y52500D02*
Y53500D01*
X483500Y53000D02*
X484500D01*
X484000Y52500D02*
Y53500D01*
X498000Y56250D02*
X499000D01*
X498500Y55750D02*
Y56750D01*
X498376Y61711D02*
X499376D01*
X498876Y61211D02*
Y62211D01*
X501289Y58527D02*
X502289D01*
X501789Y58027D02*
Y59027D01*
X511500Y43000D02*
X512500D01*
X512000Y42500D02*
Y43500D01*
X517000Y40000D02*
X518000D01*
X517500Y39500D02*
Y40500D01*
X506500Y45000D02*
X507500D01*
X507000Y44500D02*
Y45500D01*
X519500Y60000D02*
X520500D01*
X520000Y59500D02*
Y60500D01*
X476500Y87200D02*
X477500D01*
X477000Y86700D02*
Y87700D01*
X479940Y87200D02*
X480940D01*
X480440Y86700D02*
Y87700D01*
X509525Y5000D02*
X510525D01*
X510025Y4500D02*
Y5500D01*
X509500Y27000D02*
X510500D01*
X510000Y26500D02*
Y27500D01*
X522025Y10000D02*
X523026D01*
X522525Y9500D02*
Y10501D01*
X522000Y15000D02*
X523000D01*
X522500Y14500D02*
Y15500D01*
X418000Y113746D02*
X419000D01*
X418500Y113246D02*
Y114246D01*
X356200Y105346D02*
X357200D01*
X356700Y104846D02*
Y105846D01*
X348200Y105346D02*
X349200D01*
X348700Y104846D02*
Y105846D01*
X386564Y113346D02*
X387564D01*
X387064Y112846D02*
Y113846D01*
X370564Y113346D02*
X371564D01*
X371064Y112846D02*
Y113846D01*
X356200Y129346D02*
X357200D01*
X356700Y128846D02*
Y129846D01*
X370100Y105346D02*
X371100D01*
X370600Y104846D02*
Y105846D01*
X356200Y113346D02*
X357200D01*
X356700Y112846D02*
Y113846D01*
X348200Y113346D02*
X349200D01*
X348700Y112846D02*
Y113846D01*
X364194Y96253D02*
X365194D01*
X364694Y95753D02*
Y96753D01*
X356200Y121346D02*
X357200D01*
X356700Y120846D02*
Y121846D01*
X402564Y129346D02*
X403564D01*
X403064Y128846D02*
Y129846D01*
X410564Y121346D02*
X411564D01*
X411064Y120846D02*
Y121846D01*
X410564Y143710D02*
X411564D01*
X411064Y143210D02*
Y144210D01*
X402564Y143710D02*
X403564D01*
X403064Y143210D02*
Y144210D01*
X394564Y143710D02*
X395564D01*
X395064Y143210D02*
Y144210D01*
X386564Y143710D02*
X387564D01*
X387064Y143210D02*
Y144210D01*
X356200Y143710D02*
X357200D01*
X356700Y143210D02*
Y144210D01*
X310000Y18000D02*
X311000D01*
X310500Y17500D02*
Y18500D01*
X305179Y25200D02*
X306179D01*
X305679Y24700D02*
Y25700D01*
X323500Y23000D02*
X324500D01*
X324000Y22500D02*
Y23500D01*
X135843Y7818D02*
X136843D01*
X136343Y7318D02*
Y8318D01*
X135722Y11816D02*
X136721D01*
X136222Y11316D02*
Y12316D01*
X77250Y130000D02*
X78250D01*
X77750Y129500D02*
Y130500D01*
X75250Y141500D02*
X76250D01*
X75750Y141000D02*
Y142000D01*
X103000Y151750D02*
X104000D01*
X103500Y151250D02*
Y152250D01*
X62492Y107442D02*
X63492D01*
X62992Y106942D02*
Y107942D01*
X254600Y203600D02*
X255600D01*
X255100Y203100D02*
Y204100D01*
X250100Y216500D02*
X251100D01*
X250600Y216000D02*
Y217000D01*
X251400Y206800D02*
X252400D01*
X251900Y206300D02*
Y207300D01*
X254600Y210000D02*
X255600D01*
X255100Y209500D02*
Y210500D01*
X254600Y206800D02*
X255600D01*
X255100Y206300D02*
Y207300D01*
X251400Y203600D02*
X252400D01*
X251900Y203100D02*
Y204100D01*
X486500Y227000D02*
X489500D01*
X488000Y225500D02*
Y228500D01*
X494500Y227000D02*
X497500D01*
X496000Y225500D02*
Y228500D01*
X502500Y227000D02*
X505500D01*
X504000Y225500D02*
Y228500D01*
X510500Y227000D02*
X513500D01*
X512000Y225500D02*
Y228500D01*
X518500Y227000D02*
X521500D01*
X520000Y225500D02*
Y228500D01*
X461500Y198000D02*
X462500D01*
X462000Y197500D02*
Y198500D01*
X531750Y215250D02*
X532750D01*
X532250Y214750D02*
Y215750D01*
X525500Y215250D02*
X526500D01*
X526000Y214750D02*
Y215750D01*
X512250Y215250D02*
X513250D01*
X512750Y214750D02*
Y215750D01*
X519000Y199750D02*
X520000D01*
X519500Y199250D02*
Y200250D01*
X505801Y197699D02*
X506801D01*
X506301Y197199D02*
Y198199D01*
X444936Y5564D02*
X445936D01*
X445436Y5064D02*
Y6064D01*
X444500Y12250D02*
X445500D01*
X445000Y11750D02*
Y12750D01*
X434250Y5750D02*
X435250D01*
X434750Y5250D02*
Y6250D01*
X437750Y12250D02*
X438750D01*
X438250Y11750D02*
Y12750D01*
X437750Y9000D02*
X438750D01*
X438250Y8500D02*
Y9500D01*
X264641Y62212D02*
X265641D01*
X265142Y61712D02*
Y62712D01*
X494500Y242000D02*
X497500D01*
X496000Y240500D02*
Y243500D01*
X510500Y242000D02*
X513500D01*
X512000Y240500D02*
Y243500D01*
X432576Y163827D02*
X433576D01*
X433076Y163327D02*
Y164327D01*
X435572Y166600D02*
X436572D01*
X436072Y166100D02*
Y167100D01*
X435000Y157000D02*
X436000D01*
X435500Y156500D02*
Y157500D01*
X435000Y198200D02*
X436000D01*
X435500Y197700D02*
Y198700D01*
X387788Y167235D02*
X388787D01*
X388288Y166735D02*
Y167735D01*
X520500Y180000D02*
X521500D01*
X521000Y179500D02*
Y180500D01*
X520500Y160000D02*
X521500D01*
X521000Y159500D02*
Y160500D01*
X355748Y167177D02*
X356748D01*
X356248Y166677D02*
Y167677D01*
X331101Y145201D02*
X332101D01*
X331601Y144701D02*
Y145701D01*
X351611Y218200D02*
X352611D01*
X352111Y217700D02*
Y218700D01*
X351500Y224000D02*
X352500D01*
X352000Y223500D02*
Y224500D01*
X488500Y133000D02*
X489500D01*
X489000Y132500D02*
Y133500D01*
X491588Y138102D02*
X492588D01*
X492088Y137602D02*
Y138602D01*
X507500Y131000D02*
X508500D01*
X508000Y130500D02*
Y131500D01*
X502500Y114000D02*
X503500D01*
X503000Y113500D02*
Y114500D01*
X428900Y89000D02*
X429900D01*
X429400Y88500D02*
Y89500D01*
X410300Y89400D02*
X411300D01*
X410800Y88900D02*
Y89900D01*
X201279Y184167D02*
X202279D01*
X201779Y183667D02*
Y184667D01*
X419600Y187400D02*
X420600D01*
X420100Y186900D02*
Y187900D01*
X452500Y160000D02*
X453500D01*
X453000Y159500D02*
Y160500D01*
X410609Y184109D02*
X411609D01*
X411109Y183609D02*
Y184609D01*
X155836Y249636D02*
X156835D01*
X156335Y249135D02*
Y250135D01*
X170100Y241715D02*
X171100D01*
X170600Y241215D02*
Y242215D01*
X176000Y231500D02*
X177000D01*
X176500Y231000D02*
Y232000D01*
X284800Y146700D02*
X285800D01*
X285300Y146200D02*
Y147200D01*
X288699Y143399D02*
X289699D01*
X289199Y142899D02*
Y143899D01*
X453300Y251500D02*
X454300D01*
X453800Y251000D02*
Y252000D01*
X457100Y251500D02*
X458100D01*
X457600Y251000D02*
Y252000D01*
X449500Y251500D02*
X450500D01*
X450000Y251000D02*
Y252000D01*
X213700Y106900D02*
X214700D01*
X214200Y106400D02*
Y107400D01*
X348000Y192500D02*
X349000D01*
X348500Y192000D02*
Y193000D01*
X350500Y200000D02*
X351500D01*
X351000Y199500D02*
Y200500D01*
X346521Y199593D02*
X347521D01*
X347021Y199093D02*
Y200093D01*
X436500Y208000D02*
X437500D01*
X437000Y207500D02*
Y208500D01*
X472549Y102849D02*
X473549D01*
X473049Y102349D02*
Y103349D01*
X270500Y254000D02*
X271500D01*
X271000Y253500D02*
Y254500D01*
X266500Y254000D02*
X267500D01*
X267000Y253500D02*
Y254500D01*
X436750Y239600D02*
X437750D01*
X437250Y239100D02*
Y240100D01*
X435700Y248900D02*
X436700D01*
X436200Y248400D02*
Y249400D01*
X440000Y248800D02*
X441000D01*
X440500Y248300D02*
Y249300D01*
X332800Y151900D02*
X333800D01*
X333300Y151400D02*
Y152400D01*
X168500Y139000D02*
X169500D01*
X169000Y138500D02*
Y139500D01*
X164500Y139000D02*
X165500D01*
X165000Y138500D02*
Y139500D01*
X160500Y139000D02*
X161500D01*
X161000Y138500D02*
Y139500D01*
X218100Y107000D02*
X219100D01*
X218600Y106500D02*
Y107500D01*
X220500Y110000D02*
X221500D01*
X221000Y109500D02*
Y110500D01*
X215500Y110000D02*
X216500D01*
X216000Y109500D02*
Y110500D01*
X230500Y151000D02*
X231500D01*
X231000Y150500D02*
Y151500D01*
X225500Y151000D02*
X226500D01*
X226000Y150500D02*
Y151500D01*
X220500Y151000D02*
X221500D01*
X221000Y150500D02*
Y151500D01*
X552000Y200200D02*
X553000D01*
X552500Y199700D02*
Y200700D01*
X545400Y200200D02*
X546400D01*
X545900Y199700D02*
Y200700D01*
X538700Y200100D02*
X539700D01*
X539200Y199600D02*
Y200600D01*
X15500Y90000D02*
X16500D01*
X16000Y89500D02*
Y90500D01*
X11820Y30940D02*
X19820D01*
X15820Y26940D02*
Y34940D01*
X11820Y50940D02*
X19820D01*
X15820Y46940D02*
Y54940D01*
X180500Y250000D02*
X181500D01*
X181000Y249500D02*
Y250500D01*
X92500Y254000D02*
X93500D01*
X93000Y253500D02*
Y254500D01*
X92500Y244000D02*
X93500D01*
X93000Y243500D02*
Y244500D01*
X92500Y225000D02*
X93500D01*
X93000Y224500D02*
Y225500D01*
X4500Y211000D02*
X5500D01*
X5000Y210500D02*
Y211500D01*
X4500Y241000D02*
X5500D01*
X5000Y240500D02*
Y241500D01*
X29500Y241000D02*
X30500D01*
X30000Y240500D02*
Y241500D01*
X48500Y221000D02*
X49500D01*
X49000Y220500D02*
Y221500D01*
X36500Y161000D02*
X37500D01*
X37000Y160500D02*
Y161500D01*
X32500Y157000D02*
X33500D01*
X33000Y156500D02*
Y157500D01*
X47500Y155000D02*
X48500D01*
X48000Y154500D02*
Y155500D01*
X28500Y211000D02*
X29500D01*
X29000Y210500D02*
Y211500D01*
X123253Y250100D02*
X124253D01*
X123753Y249600D02*
Y250600D01*
X112041Y250100D02*
X113041D01*
X112541Y249600D02*
Y250600D01*
X124500Y205230D02*
X125500D01*
X125000Y204730D02*
Y205730D01*
X108500Y205000D02*
X109500D01*
X109000Y204500D02*
Y205500D01*
X99500Y206000D02*
X100500D01*
X100000Y205500D02*
Y206500D01*
X10700Y151500D02*
X11700D01*
X11200Y151000D02*
Y152000D01*
X522500Y22000D02*
X523500D01*
X523000Y21500D02*
Y22500D01*
X522500Y37000D02*
X523500D01*
X523000Y36500D02*
Y37500D01*
X534932Y73406D02*
X535932D01*
X535432Y72906D02*
Y73906D01*
X565412Y48514D02*
X566412D01*
X565912Y48014D02*
Y49014D01*
X556522Y75946D02*
X557522D01*
X557022Y75446D02*
Y76446D01*
X561094Y75946D02*
X562094D01*
X561594Y75446D02*
Y76446D01*
X565412Y75946D02*
X566412D01*
X565912Y75446D02*
Y76446D01*
X565412Y56642D02*
X566412D01*
X565912Y56142D02*
Y57142D01*
X565412Y52578D02*
X566412D01*
X565912Y52078D02*
Y53078D01*
X415900Y34900D02*
X416900D01*
X416400Y34400D02*
Y35400D01*
X415900Y39800D02*
X416900D01*
X416400Y39300D02*
Y40300D01*
X415900Y29400D02*
X416900D01*
X416400Y28900D02*
Y29900D01*
X489500Y108700D02*
X490500D01*
X490000Y108200D02*
Y109200D01*
X279500Y216800D02*
X280500D01*
X280000Y216300D02*
Y217300D01*
X105450Y90075D02*
X106450D01*
X105950Y89575D02*
Y90575D01*
X451400Y184600D02*
X452400D01*
X451900Y184100D02*
Y185100D01*
X246300Y170400D02*
X247300D01*
X246800Y169900D02*
Y170900D01*
X246500Y180000D02*
X247500D01*
X247000Y179500D02*
Y180500D01*
X387800Y151400D02*
X388800D01*
X388300Y150900D02*
Y151900D01*
X82500Y220677D02*
X83500D01*
X83000Y220177D02*
Y221177D01*
X88500Y229833D02*
X89500D01*
X89000Y229333D02*
Y230333D01*
X92500Y220000D02*
X93500D01*
X93000Y219500D02*
Y220500D01*
X79904Y217634D02*
X80904D01*
X80404Y217134D02*
Y218134D01*
X459500Y234000D02*
X460500D01*
X460000Y233500D02*
Y234500D01*
X453200Y228500D02*
X454200D01*
X453700Y228000D02*
Y229000D01*
X26300Y161500D02*
X27300D01*
X26800Y161000D02*
Y162000D01*
X26300Y146500D02*
X27300D01*
X26800Y146000D02*
Y147000D01*
X26300Y156700D02*
X27300D01*
X26800Y156200D02*
Y157200D01*
X104820Y229100D02*
X105820D01*
X105320Y228600D02*
Y229600D01*
X104500Y69000D02*
X107500D01*
X106000Y67500D02*
Y70500D01*
X104543Y74940D02*
X107543D01*
X106043Y73440D02*
Y76439D01*
X453500Y132000D02*
X454500D01*
X454000Y131500D02*
Y132500D01*
X453500Y129000D02*
X454500D01*
X454000Y128500D02*
Y129500D01*
X453500Y126000D02*
X454500D01*
X454000Y125500D02*
Y126500D01*
X453500Y123000D02*
X454500D01*
X454000Y122500D02*
Y123500D01*
X469012Y116000D02*
X470013D01*
X469512Y115500D02*
Y116500D01*
X465800Y116000D02*
X466800D01*
X466300Y115500D02*
Y116500D01*
X472500Y116000D02*
X473500D01*
X473000Y115500D02*
Y116500D01*
X497500Y115000D02*
X498500D01*
X498000Y114500D02*
Y115500D01*
X157500Y52000D02*
X158500D01*
X158000Y51500D02*
Y52500D01*
X184400Y25600D02*
X185400D01*
X184900Y25100D02*
Y26100D01*
X185500Y156000D02*
X186500D01*
X186000Y155500D02*
Y156500D01*
X193500Y156000D02*
X194500D01*
X194000Y155500D02*
Y156500D01*
X189500Y156000D02*
X190500D01*
X190000Y155500D02*
Y156500D01*
X180500Y217000D02*
X181500D01*
X181000Y216500D02*
Y217500D01*
X123459Y178000D02*
X124459D01*
X123959Y177500D02*
Y178500D01*
X185500Y38000D02*
X186500D01*
X186000Y37500D02*
Y38500D01*
X185500Y41500D02*
X186500D01*
X186000Y41000D02*
Y42000D01*
X189000Y38000D02*
X190000D01*
X189500Y37500D02*
Y38500D01*
X189000Y41500D02*
X190000D01*
X189500Y41000D02*
Y42000D01*
X203000Y34500D02*
X204000D01*
X203500Y34000D02*
Y35000D01*
X199500Y34500D02*
X200500D01*
X200000Y34000D02*
Y35000D01*
X199500Y38000D02*
X200500D01*
X200000Y37500D02*
Y38500D01*
X196000Y34500D02*
X197000D01*
X196500Y34000D02*
Y35000D01*
X196000Y38000D02*
X197000D01*
X196500Y37500D02*
Y38500D01*
X196000Y41500D02*
X197000D01*
X196500Y41000D02*
Y42000D01*
X192500Y41500D02*
X193500D01*
X193000Y41000D02*
Y42000D01*
X192500Y34500D02*
X193500D01*
X193000Y34000D02*
Y35000D01*
X192500Y38000D02*
X193500D01*
X193000Y37500D02*
Y38500D01*
X182367Y18855D02*
X183367D01*
X182867Y18355D02*
Y19355D01*
X234900Y67600D02*
X235900D01*
X235400Y67100D02*
Y68100D01*
X237000Y65300D02*
X238000D01*
X237500Y64800D02*
Y65800D01*
X246500Y63400D02*
X247500D01*
X247000Y62900D02*
Y63900D01*
X423591Y60047D02*
X424591D01*
X424091Y59547D02*
Y60547D01*
X416241Y62200D02*
X417241D01*
X416741Y61700D02*
Y62699D01*
X420241Y62233D02*
X421241D01*
X420741Y61733D02*
Y62733D01*
X457927Y87357D02*
X458927D01*
X458427Y86857D02*
Y87857D01*
X473181Y87200D02*
X474180D01*
X473680Y86700D02*
Y87700D01*
X468500Y87000D02*
X469500D01*
X469000Y86500D02*
Y87500D01*
X512500Y174000D02*
X513500D01*
X513000Y173500D02*
Y174500D01*
X495500Y185000D02*
X496500D01*
X496000Y184500D02*
Y185500D01*
X487500Y152000D02*
X488500D01*
X488000Y151500D02*
Y152500D01*
X524500Y143000D02*
X525500D01*
X525000Y142500D02*
Y143500D01*
X484500Y132000D02*
X485500D01*
X485000Y131500D02*
Y132500D01*
X474500Y144000D02*
X475500D01*
X475000Y143500D02*
Y144500D01*
X462500Y176000D02*
X463500D01*
X463000Y175500D02*
Y176500D01*
X437750Y5750D02*
X438750D01*
X438250Y5250D02*
Y6250D01*
X402500Y39250D02*
X403500D01*
X403000Y38750D02*
Y39750D01*
X402853Y43272D02*
X403853D01*
X403353Y42772D02*
Y43772D01*
X388500Y28500D02*
X389500D01*
X389000Y28000D02*
Y29000D01*
X383407Y25107D02*
X384407D01*
X383907Y24607D02*
Y25607D01*
X319500Y200000D02*
X320500D01*
X320000Y199500D02*
Y200500D01*
X364500D02*
X365500D01*
X365000Y200000D02*
Y201000D01*
X404500Y216500D02*
X405500D01*
X405000Y216000D02*
Y217000D01*
X401546Y219954D02*
X402546D01*
X402046Y219454D02*
Y220454D01*
X401500Y224000D02*
X402500D01*
X402000Y223500D02*
Y224500D01*
X403766Y227296D02*
X404766D01*
X404266Y226796D02*
Y227796D01*
X386511Y195005D02*
X387511D01*
X387011Y194506D02*
Y195506D01*
X386508Y201005D02*
X387508D01*
X387008Y200506D02*
Y201506D01*
X379250Y192668D02*
X380250D01*
X379750Y192168D02*
Y193168D01*
X382500Y195000D02*
X383500D01*
X383000Y194500D02*
Y195500D01*
X372032Y199763D02*
X373032D01*
X372532Y199263D02*
Y200263D01*
X378500Y198500D02*
X379500D01*
X379000Y198000D02*
Y199000D01*
X375300Y193400D02*
X376300D01*
X375800Y192900D02*
Y193900D01*
X345000Y215500D02*
X346000D01*
X345500Y215000D02*
Y216000D01*
X310000Y200000D02*
X311000D01*
X310500Y199500D02*
Y200500D01*
X564500Y215000D02*
X565500D01*
X565000Y214500D02*
Y215500D01*
X452500Y172000D02*
X453500D01*
X453000Y171500D02*
Y172500D01*
X511500Y131000D02*
X512500D01*
X512000Y130500D02*
Y131500D01*
X479500Y153000D02*
X480500D01*
X480000Y152500D02*
Y153500D01*
X480299Y180100D02*
X481299D01*
X480799Y179600D02*
Y180600D01*
X479900Y131500D02*
X480900D01*
X480400Y131000D02*
Y132000D01*
X181500Y62000D02*
X182500D01*
X182000Y61500D02*
Y62500D01*
X370033Y25800D02*
X371033D01*
X370533Y25300D02*
Y26300D01*
X407000Y19750D02*
X408000D01*
X407500Y19250D02*
Y20250D01*
X224900Y165700D02*
X225900D01*
X225400Y165200D02*
Y166200D01*
X232500Y177000D02*
X233500D01*
X233000Y176500D02*
Y177500D01*
X192500Y186000D02*
X193500D01*
X193000Y185500D02*
Y186500D01*
X232500Y181000D02*
X233500D01*
X233000Y180500D02*
Y181500D01*
X228500Y181000D02*
X229500D01*
X229000Y180500D02*
Y181500D01*
X228500Y177000D02*
X229500D01*
X229000Y176500D02*
Y177500D01*
X282500Y230000D02*
X283500D01*
X283000Y229500D02*
Y230500D01*
X62500Y101769D02*
X63500D01*
X63000Y101269D02*
Y102269D01*
X134214Y181575D02*
X135214D01*
X134714Y181075D02*
Y182075D01*
X115051Y184848D02*
X116051D01*
X115551Y184347D02*
Y185347D01*
X134070Y177127D02*
X135070D01*
X134570Y176627D02*
Y177627D01*
X137314Y186033D02*
X138314D01*
X137814Y185533D02*
Y186533D01*
X115500Y108000D02*
X118500D01*
X117000Y106500D02*
Y109500D01*
X119793Y138040D02*
X120793D01*
X120293Y137540D02*
Y138540D01*
X124660Y138015D02*
X125660D01*
X125160Y137515D02*
Y138515D01*
X112733Y123440D02*
X113733D01*
X113233Y122940D02*
Y123940D01*
X107500Y128000D02*
X108500D01*
X108000Y127500D02*
Y128500D01*
X160994Y182127D02*
X163995D01*
X162495Y180627D02*
Y183627D01*
X15500Y85000D02*
X16500D01*
X16000Y84500D02*
Y85500D01*
X253842Y13115D02*
X254842D01*
X254342Y12615D02*
Y13615D01*
X235905Y19750D02*
X236905D01*
X236405Y19250D02*
Y20250D01*
X320277Y28254D02*
X321277D01*
X320777Y27754D02*
Y28754D01*
X202000Y116500D02*
X203000D01*
X202500Y116000D02*
Y117000D01*
X167750Y100750D02*
X168750D01*
X168250Y100250D02*
Y101250D01*
X223500Y26000D02*
X224500D01*
X224000Y25500D02*
Y26500D01*
X155778Y153108D02*
X156778D01*
X156278Y152608D02*
Y153608D01*
X147500Y175200D02*
X150500D01*
X149000Y173700D02*
Y176700D01*
X156687Y95507D02*
X157687D01*
X157187Y95007D02*
Y96007D01*
X87916Y26531D02*
X88916D01*
X88416Y26031D02*
Y27031D01*
X209095Y142408D02*
X210095D01*
X209595Y141908D02*
Y142908D01*
X99500Y35000D02*
X102500D01*
X101000Y33500D02*
Y36500D01*
X193300Y170312D02*
X194300D01*
X193800Y169812D02*
Y170812D01*
X248300Y155968D02*
X249300D01*
X248800Y155468D02*
Y156468D01*
X244900Y155968D02*
X245900D01*
X245400Y155468D02*
Y156468D01*
X251580Y155968D02*
X252580D01*
X252080Y155468D02*
Y156468D01*
X273846Y174755D02*
X276846D01*
X275346Y173255D02*
Y176255D01*
X276500Y180000D02*
X277500D01*
X277000Y179500D02*
Y180500D01*
X128500Y37000D02*
X131500D01*
X130000Y35500D02*
Y38500D01*
X103500Y60000D02*
X106500D01*
X105000Y58500D02*
Y61500D01*
X96500Y60000D02*
X99500D01*
X98000Y58500D02*
Y61500D01*
X186540Y18831D02*
X187540D01*
X187040Y18331D02*
Y19331D01*
X126500Y50000D02*
X129500D01*
X128000Y48500D02*
Y51500D01*
X120500Y50000D02*
X123500D01*
X122000Y48500D02*
Y51500D01*
X81900Y51600D02*
X84900D01*
X83400Y50100D02*
Y53100D01*
X77500Y56000D02*
X80500D01*
X79000Y54500D02*
Y57500D01*
X114500Y50000D02*
X117500D01*
X116000Y48500D02*
Y51500D01*
X122500Y37000D02*
X125500D01*
X124000Y35500D02*
Y38500D01*
X116500Y37000D02*
X119500D01*
X118000Y35500D02*
Y38500D01*
X105544Y81876D02*
X106544D01*
X106044Y81376D02*
Y82376D01*
X105519Y86000D02*
X106519D01*
X106019Y85500D02*
Y86500D01*
X111500Y75000D02*
X114500D01*
X113000Y73500D02*
Y76500D01*
X110500Y60000D02*
X113500D01*
X112000Y58500D02*
Y61500D01*
X111500Y69000D02*
X114500D01*
X113000Y67500D02*
Y70500D01*
X86500Y110000D02*
X87500D01*
X87000Y109500D02*
Y110500D01*
X320000Y234600D02*
X321000D01*
X320500Y234100D02*
Y235100D01*
X316500Y234500D02*
X317500D01*
X317000Y234000D02*
Y235000D01*
X327300Y234200D02*
X328300D01*
X327800Y233700D02*
Y234700D01*
X327300Y238900D02*
X328300D01*
X327800Y238400D02*
Y239400D01*
X334168Y240037D02*
X335168D01*
X334668Y239537D02*
Y240537D01*
X333715Y225000D02*
X334715D01*
X334215Y224500D02*
Y225500D01*
X178500Y19000D02*
X179500D01*
X179000Y18500D02*
Y19500D01*
X255750Y69000D02*
X256750D01*
X256250Y68500D02*
Y69500D01*
X249821Y180012D02*
X250821D01*
X250321Y179512D02*
Y180512D01*
X249800Y168100D02*
X250800D01*
X250300Y167600D02*
Y168600D01*
X298900Y150900D02*
X299900D01*
X299400Y150400D02*
Y151400D01*
X294100Y154900D02*
X295100D01*
X294600Y154400D02*
Y155400D01*
X291300Y158100D02*
X292300D01*
X291800Y157600D02*
Y158600D01*
X284847Y121652D02*
X285847D01*
X285347Y121152D02*
Y122152D01*
X290321Y125179D02*
X291321D01*
X290821Y124679D02*
Y125679D01*
X298700Y132700D02*
X299700D01*
X299200Y132200D02*
Y133200D01*
X255751Y148800D02*
X256751D01*
X256251Y148300D02*
Y149300D01*
X259400Y148800D02*
X260400D01*
X259900Y148300D02*
Y149300D01*
X263500Y148884D02*
X264500D01*
X264000Y148384D02*
Y149384D01*
X455696Y137904D02*
X456696D01*
X456196Y137404D02*
Y138404D01*
X532000Y170000D02*
X533000D01*
X532500Y169500D02*
Y170500D01*
X541500Y160000D02*
X542500D01*
X542000Y159500D02*
Y160500D01*
X529174Y149900D02*
X530174D01*
X529674Y149400D02*
Y150400D01*
X528900Y160000D02*
X529900D01*
X529400Y159500D02*
Y160500D01*
X397479Y230408D02*
X398479D01*
X397979Y229908D02*
Y230908D01*
X148700Y181000D02*
X149700D01*
X149200Y180500D02*
Y181500D01*
X80444Y209421D02*
X81444D01*
X80944Y208921D02*
Y209921D01*
X104945Y220000D02*
X105945D01*
X105445Y219500D02*
Y220500D01*
X117200Y236670D02*
X118200D01*
X117700Y236170D02*
Y237170D01*
X111900Y240700D02*
X112900D01*
X112400Y240200D02*
Y241200D01*
X104800Y235800D02*
X105800D01*
X105300Y235300D02*
Y236300D01*
X10700Y171400D02*
X11700D01*
X11200Y170900D02*
Y171900D01*
X191200Y249000D02*
X192200D01*
X191700Y248500D02*
Y249500D01*
X26300Y136400D02*
X27300D01*
X26800Y135900D02*
Y136900D01*
X26300Y141500D02*
X27300D01*
X26800Y141000D02*
Y142000D01*
X26300Y166400D02*
X27300D01*
X26800Y165900D02*
Y166900D01*
X195227Y236600D02*
X196227D01*
X195727Y236100D02*
Y237100D01*
X254900Y216500D02*
X255900D01*
X255400Y216000D02*
Y217000D01*
X272500Y180000D02*
X273500D01*
X273000Y179500D02*
Y180500D01*
X267500Y180000D02*
X268500D01*
X268000Y179500D02*
Y180500D01*
X225500Y239000D02*
X226500D01*
X226000Y238500D02*
Y239500D01*
X215500Y230000D02*
X216500D01*
X216000Y229500D02*
Y230500D01*
X238000Y236500D02*
X239000D01*
X238500Y236000D02*
Y237000D01*
X234250Y236500D02*
X235250D01*
X234750Y236000D02*
Y237000D01*
X229500Y235000D02*
X230500D01*
X230000Y234500D02*
Y235500D01*
X229500Y239000D02*
X230500D01*
X230000Y238500D02*
Y239500D01*
X225500Y235000D02*
X226500D01*
X226000Y234500D02*
Y235500D01*
X238000Y240000D02*
X239000D01*
X238500Y239500D02*
Y240500D01*
X234250Y240000D02*
X235250D01*
X234750Y239500D02*
Y240500D01*
X225500Y231000D02*
X226500D01*
X226000Y230500D02*
Y231500D01*
X291500Y230000D02*
X292500D01*
X292000Y229500D02*
Y230500D01*
X271500Y207000D02*
X272500D01*
X272000Y206500D02*
Y207500D01*
X342860Y26450D02*
X343860D01*
X343360Y25950D02*
Y26950D01*
X347300Y26450D02*
X348300D01*
X347800Y25950D02*
Y26950D01*
X188300Y82794D02*
X189300D01*
X188800Y82294D02*
Y83294D01*
X191800Y18800D02*
X192800D01*
X192300Y18300D02*
Y19300D01*
X122452Y108000D02*
X125452D01*
X123952Y106500D02*
Y109500D01*
X122500Y115000D02*
X125500D01*
X124000Y113500D02*
Y116500D01*
X115500Y115000D02*
X118500D01*
X117000Y113500D02*
Y116500D01*
X316200Y153700D02*
X317200D01*
X316700Y153200D02*
Y154200D01*
X340442Y144720D02*
X341442D01*
X340942Y144220D02*
Y145220D01*
X314564Y161346D02*
X315564D01*
X315064Y160846D02*
Y161846D01*
X325300Y160505D02*
X326300D01*
X325800Y160005D02*
Y161005D01*
X308200Y146500D02*
X309200D01*
X308700Y146000D02*
Y147000D01*
X270900Y148500D02*
X271900D01*
X271400Y148000D02*
Y149000D01*
X274900Y148500D02*
X275900D01*
X275400Y148000D02*
Y149000D01*
X280500Y199043D02*
X281500D01*
X281000Y198543D02*
Y199543D01*
X300000Y176400D02*
X301000D01*
X300500Y175900D02*
Y176900D01*
X348200Y159710D02*
X349200D01*
X348700Y159210D02*
Y160210D01*
X331500Y160400D02*
X332500D01*
X332000Y159900D02*
Y160900D01*
X340017Y159508D02*
X341017D01*
X340517Y159008D02*
Y160008D01*
X424500Y251200D02*
X425500D01*
X425000Y250700D02*
Y251700D01*
X478500Y247800D02*
X479500D01*
X479000Y247300D02*
Y248300D01*
X424400Y248000D02*
X425400D01*
X424900Y247500D02*
Y248500D01*
X441000Y239600D02*
X442000D01*
X441500Y239100D02*
Y240100D01*
X477400Y222600D02*
X478400D01*
X477900Y222100D02*
Y223100D01*
X428000Y143250D02*
X429000D01*
X428500Y142750D02*
Y143750D01*
X335069Y215844D02*
X336069D01*
X335569Y215344D02*
Y216344D01*
X362564Y153346D02*
X363564D01*
X363064Y152846D02*
Y153846D01*
X355200Y152200D02*
X356200D01*
X355700Y151700D02*
Y152700D01*
X338564Y139000D02*
X339564D01*
X339064Y138500D02*
Y139500D01*
X330564Y137346D02*
X331564D01*
X331064Y136846D02*
Y137846D01*
X315700Y144300D02*
X316700D01*
X316200Y143800D02*
Y144800D01*
X348200Y151710D02*
X349200D01*
X348700Y151210D02*
Y152210D01*
X355800Y160300D02*
X356800D01*
X356300Y159800D02*
Y160800D01*
X418098Y177500D02*
X419098D01*
X418598Y177000D02*
Y178000D01*
X472800Y222700D02*
X473800D01*
X473300Y222200D02*
Y223200D01*
X468700Y222700D02*
X469700D01*
X469200Y222200D02*
Y223200D01*
X464700Y222700D02*
X465700D01*
X465200Y222200D02*
Y223200D01*
X176500Y184750D02*
X177500D01*
X177000Y184250D02*
Y185250D01*
X402564Y166100D02*
X403564D01*
X403064Y165600D02*
Y166600D01*
X402700Y174200D02*
X403700D01*
X403200Y173700D02*
Y174700D01*
X448300Y231500D02*
X449300D01*
X448800Y231000D02*
Y232000D01*
X454000Y221750D02*
X455000D01*
X454500Y221250D02*
Y222250D01*
X452100Y199800D02*
X453100D01*
X452600Y199300D02*
Y200300D01*
X338282Y26101D02*
X339282D01*
X338782Y25601D02*
Y26601D01*
X363250Y79646D02*
X364250D01*
X363750Y79146D02*
Y80146D01*
X324200Y129696D02*
X325200D01*
X324700Y129196D02*
Y130196D01*
X332200Y129400D02*
X333200D01*
X332700Y128900D02*
Y129900D01*
X340200Y121346D02*
X341200D01*
X340700Y120846D02*
Y121846D01*
X332200Y121346D02*
X333200D01*
X332700Y120846D02*
Y121846D01*
X340400Y105363D02*
X341400D01*
X340900Y104863D02*
Y105863D01*
X332200Y105346D02*
X333200D01*
X332700Y104846D02*
Y105846D01*
X418000Y121900D02*
X419000D01*
X418500Y121400D02*
Y122400D01*
X316200Y129346D02*
X317200D01*
X316700Y128846D02*
Y129846D01*
X340200Y129346D02*
X341200D01*
X340700Y128846D02*
Y129846D01*
X370564Y129346D02*
X371564D01*
X371064Y128846D02*
Y129846D01*
X370564Y121346D02*
X371564D01*
X371064Y120846D02*
Y121846D01*
X378564Y143710D02*
X379564D01*
X379064Y143210D02*
Y144210D01*
X378564Y159660D02*
X379564D01*
X379064Y159160D02*
Y160160D01*
X370564Y151710D02*
X371564D01*
X371064Y151210D02*
Y152210D01*
X369800Y159200D02*
X370800D01*
X370300Y158700D02*
Y159700D01*
X362300Y73600D02*
X363300D01*
X362800Y73100D02*
Y74100D01*
X348200Y89346D02*
X349200D01*
X348700Y88846D02*
Y89846D01*
X370682Y88000D02*
X371682D01*
X371182Y87500D02*
Y88500D01*
X386555Y121355D02*
X387555D01*
X387055Y120855D02*
Y121855D01*
X362564Y103710D02*
X363564D01*
X363064Y103210D02*
Y104210D01*
X435250Y179000D02*
X436250D01*
X435750Y178500D02*
Y179500D01*
X400100Y201050D02*
X401100D01*
X400600Y200550D02*
Y201550D01*
X343600Y58800D02*
X344600D01*
X344100Y58300D02*
Y59300D01*
X340200Y113346D02*
X341200D01*
X340700Y112846D02*
Y113846D01*
X358000Y89000D02*
X359000D01*
X358500Y88500D02*
Y89500D01*
X362000Y87750D02*
X363000D01*
X362500Y87250D02*
Y88250D01*
X455000Y178000D02*
X458000D01*
X456500Y176500D02*
Y179500D01*
X386564Y159710D02*
X387564D01*
X387064Y159210D02*
Y160210D01*
X394564Y159710D02*
X395564D01*
X395064Y159210D02*
Y160210D01*
X394564Y166100D02*
X395564D01*
X395064Y165600D02*
Y166600D01*
X298700Y191366D02*
X299700D01*
X299200Y190865D02*
Y191866D01*
X297500Y200011D02*
X298500D01*
X298000Y199511D02*
Y200511D01*
X292320Y193000D02*
X293320D01*
X292820Y192500D02*
Y193500D01*
X305000Y200000D02*
X306000D01*
X305500Y199500D02*
Y200500D01*
X340000Y215500D02*
X341000D01*
X340500Y215000D02*
Y216000D01*
X332982Y184334D02*
X333982D01*
X333482Y183834D02*
Y184834D01*
X355250Y184400D02*
X356250D01*
X355750Y183900D02*
Y184900D01*
X363071Y169951D02*
X364071D01*
X363571Y169451D02*
Y170451D01*
X378564Y175710D02*
X379564D01*
X379064Y175210D02*
Y176210D01*
X395500Y198250D02*
X396500D01*
X396000Y197750D02*
Y198750D01*
X449500Y219000D02*
X450500D01*
X450000Y218500D02*
Y219500D01*
X449000Y224000D02*
X450000D01*
X449500Y223500D02*
Y224500D01*
X348000Y186000D02*
X349000D01*
X348500Y185500D02*
Y186500D01*
X347250Y176500D02*
X348250D01*
X347750Y176000D02*
Y177000D01*
X353750Y176500D02*
X354750D01*
X354250Y176000D02*
Y177000D01*
X340400Y167710D02*
X341400D01*
X340900Y167210D02*
Y168210D01*
X308750Y176400D02*
X309750D01*
X309250Y175900D02*
Y176900D01*
X402564Y159710D02*
X403564D01*
X403064Y159210D02*
Y160210D01*
X284500Y199000D02*
X285500D01*
X285000Y198500D02*
Y199500D01*
X121000Y161750D02*
X122000D01*
X121500Y161250D02*
Y162250D01*
X133250Y159750D02*
X136250D01*
X134750Y158250D02*
Y161250D01*
X126750Y159750D02*
X129750D01*
X128250Y158250D02*
Y161250D01*
X115400Y156750D02*
X116400D01*
X115900Y156250D02*
Y157250D01*
X115400Y161750D02*
X116400D01*
X115900Y161250D02*
Y162250D01*
X392532Y80177D02*
X393532D01*
X393032Y79678D02*
Y80677D01*
X386269Y89504D02*
X387269D01*
X386769Y89004D02*
Y90004D01*
X387408Y81300D02*
X388408D01*
X387908Y80800D02*
Y81800D01*
X432250Y47000D02*
X433250D01*
X432750Y46500D02*
Y47500D01*
X348017Y167508D02*
X349017D01*
X348517Y167008D02*
Y168008D01*
X402564Y150800D02*
X403564D01*
X403064Y150300D02*
Y151300D01*
X398000Y216900D02*
X399000D01*
X398500Y216400D02*
Y217400D01*
X396800Y226200D02*
X397800D01*
X397300Y225700D02*
Y226700D01*
X393500Y230000D02*
X394500D01*
X394000Y229500D02*
Y230500D01*
X397900Y221600D02*
X398900D01*
X398400Y221100D02*
Y222100D01*
X388100Y232200D02*
X389100D01*
X388600Y231700D02*
Y232700D01*
X383200Y232200D02*
X384200D01*
X383700Y231700D02*
Y232700D01*
X370100Y240500D02*
X371100D01*
X370600Y240000D02*
Y241000D01*
X375000Y240500D02*
X376000D01*
X375500Y240000D02*
Y241000D01*
X484500Y116000D02*
X485500D01*
X485000Y115500D02*
Y116500D01*
X496000Y103700D02*
X497000D01*
X496500Y103200D02*
Y104200D01*
X500900Y103700D02*
X501900D01*
X501400Y103200D02*
Y104200D01*
X512200Y103800D02*
X513200D01*
X512700Y103300D02*
Y104300D01*
X505600Y103800D02*
X506600D01*
X506100Y103300D02*
Y104300D01*
X485804Y104836D02*
X486804D01*
X486304Y104336D02*
Y105336D01*
X260500Y140000D02*
X261500D01*
X261000Y139500D02*
Y140500D01*
X306600Y119000D02*
X307600D01*
X307100Y118500D02*
Y119500D01*
X160700Y121300D02*
X161700D01*
X161200Y120800D02*
Y121800D01*
X164500Y121250D02*
X165500D01*
X165000Y120750D02*
Y121750D01*
X168500Y121250D02*
X169500D01*
X169000Y120750D02*
Y121750D01*
X218000Y116500D02*
X219000D01*
X218500Y116000D02*
Y117000D01*
X166545Y124331D02*
X167545D01*
X167045Y123831D02*
Y124831D01*
X166496Y127842D02*
X167496D01*
X166996Y127342D02*
Y128342D01*
X167750Y95500D02*
X168750D01*
X168250Y95000D02*
Y96000D01*
X167750Y91500D02*
X168750D01*
X168250Y91000D02*
Y92000D01*
X164500Y91500D02*
X165500D01*
X165000Y91000D02*
Y92000D01*
X164500Y100750D02*
X165500D01*
X165000Y100250D02*
Y101250D01*
X161000Y100750D02*
X162000D01*
X161500Y100250D02*
Y101250D01*
X161000Y91500D02*
X162000D01*
X161500Y91000D02*
Y92000D01*
X188000Y72000D02*
X189000D01*
X188500Y71500D02*
Y72500D01*
X229000Y90500D02*
X230000D01*
X229500Y90000D02*
Y91000D01*
X212250Y84250D02*
X213250D01*
X212750Y83750D02*
Y84750D01*
X218535Y84298D02*
X219535D01*
X219035Y83798D02*
Y84798D01*
X300250Y104500D02*
X301250D01*
X300750Y104000D02*
Y105000D01*
X303382Y104528D02*
X304382D01*
X303882Y104028D02*
Y105028D01*
X311382Y104528D02*
X312382D01*
X311882Y104028D02*
Y105028D01*
X308250Y104500D02*
X309250D01*
X308750Y104000D02*
Y105000D01*
X322564Y137346D02*
X323564D01*
X323064Y136846D02*
Y137846D01*
X394564Y113346D02*
X395564D01*
X395064Y112846D02*
Y113846D01*
X394564Y129346D02*
X395564D01*
X395064Y128846D02*
Y129846D01*
X332200Y113346D02*
X333200D01*
X332700Y112846D02*
Y113846D01*
X386564Y129346D02*
X387564D01*
X387064Y128846D02*
Y129846D01*
X378564Y113346D02*
X379564D01*
X379064Y112846D02*
Y113846D01*
X378564Y129346D02*
X379564D01*
X379064Y128846D02*
Y129846D01*
X348200Y121346D02*
X349200D01*
X348700Y120846D02*
Y121846D01*
X348200Y129346D02*
X349200D01*
X348700Y128846D02*
Y129846D01*
M02*
