G04*
G04 #@! TF.GenerationSoftware,Altium Limited,Altium Designer,25.1.2 (22)*
G04*
G04 Layer_Physical_Order=5*
G04 Layer_Color=13619712*
%FSLAX44Y44*%
%MOMM*%
G71*
G04*
G04 #@! TF.SameCoordinates,2BCE8437-4B4B-493D-AEBF-8C89570F1AAD*
G04*
G04*
G04 #@! TF.FilePolarity,Positive*
G04*
G01*
G75*
%ADD11C,0.2000*%
%ADD14C,0.3000*%
%ADD15C,0.1000*%
%ADD24C,0.3500*%
%ADD72C,0.3000*%
%ADD98C,0.6000*%
%ADD138C,1.2000*%
%ADD139O,1.8000X1.0000*%
%ADD140O,2.1000X1.0000*%
%ADD142C,0.0800*%
%ADD145C,1.0000*%
G36*
X443100Y256957D02*
X446048Y254008D01*
X446048Y254008D01*
X446710Y253566D01*
X447490Y253411D01*
X447490Y253411D01*
X475500D01*
X475892Y253489D01*
X476278Y253565D01*
X476279Y253566D01*
X476280Y253566D01*
X476617Y253791D01*
X476940Y254006D01*
X476942Y254008D01*
X476942Y254008D01*
X476942Y254008D01*
X479901Y256959D01*
X545275Y256937D01*
X547475Y256934D01*
X551790Y256070D01*
X555854Y254382D01*
X559510Y251934D01*
X562620Y248820D01*
X565063Y245160D01*
X566745Y241094D01*
X567603Y236778D01*
X567603Y234578D01*
Y200000D01*
X555000D01*
X550000Y195000D01*
Y107500D01*
X555000Y102500D01*
X567603D01*
X567603Y71921D01*
X566483Y71322D01*
X566144Y71549D01*
X564388Y71898D01*
X562632Y71549D01*
X562610Y71534D01*
X562588Y71549D01*
X560832Y71898D01*
X559076Y71549D01*
X557588Y70554D01*
X556593Y69066D01*
X556244Y67310D01*
X556593Y65554D01*
X557588Y64066D01*
X559076Y63071D01*
X559815Y62924D01*
X560072Y61632D01*
X561067Y60144D01*
X562555Y59149D01*
X564311Y58800D01*
X566067Y59149D01*
X566333Y59327D01*
X567603Y58648D01*
Y24547D01*
X567600Y22347D01*
X566736Y18032D01*
X565048Y13968D01*
X562600Y10311D01*
X559487Y7202D01*
X555826Y4759D01*
X551760Y3076D01*
X547444Y2219D01*
X545244D01*
X545244Y2219D01*
X545243Y2219D01*
X310330Y2140D01*
X310101Y2583D01*
X309940Y3410D01*
X311765Y5235D01*
X312082Y6000D01*
Y15498D01*
X312040Y15601D01*
X312061Y15710D01*
X312136Y16086D01*
X312302Y16198D01*
X312855Y17025D01*
X313049Y18000D01*
X312855Y18975D01*
X312302Y19802D01*
X312136Y19914D01*
X312061Y20290D01*
X312040Y20399D01*
X312082Y20502D01*
Y22000D01*
X312083Y22000D01*
X311765Y22765D01*
X311765Y22766D01*
X310765Y23765D01*
X310000Y24082D01*
X309301D01*
X308228Y25200D01*
X308059Y26052D01*
X308399Y26466D01*
X308600Y26627D01*
X309089Y26883D01*
X310050Y26485D01*
X313955D01*
X314267Y26017D01*
X315177Y25410D01*
X316250Y25196D01*
X317323Y25410D01*
X317890Y25789D01*
X318975Y26451D01*
X319802Y25899D01*
X320397Y25780D01*
X320777Y25705D01*
X321605Y25667D01*
X321605Y25667D01*
X321605D01*
X322112Y24927D01*
X322176Y24771D01*
X321645Y23975D01*
X321451Y23000D01*
X321645Y22025D01*
X322198Y21198D01*
X323025Y20645D01*
X324000Y20451D01*
X324339Y20518D01*
X330127Y14729D01*
X331199Y14286D01*
X354801D01*
X355872Y14729D01*
X359107Y17964D01*
X359526Y17952D01*
X360592Y17653D01*
X361017Y17017D01*
X361927Y16410D01*
X363000Y16196D01*
X364073Y16410D01*
X364983Y17017D01*
X365295Y17485D01*
X372672D01*
X375229Y14928D01*
X376300Y14485D01*
X399372D01*
X402547Y11310D01*
X403618Y10867D01*
X411927D01*
X412999Y11310D01*
X421926Y20237D01*
X423395Y19911D01*
X423707Y19444D01*
X424616Y18837D01*
X425689Y18623D01*
X426762Y18837D01*
X427672Y19444D01*
X428280Y20354D01*
X428493Y21427D01*
X428383Y21978D01*
X450112Y43707D01*
X450253Y43745D01*
X451678Y43476D01*
X451917Y43117D01*
X452827Y42510D01*
X453900Y42296D01*
X454973Y42510D01*
X455883Y43117D01*
X456490Y44027D01*
X456704Y45100D01*
X456490Y46173D01*
X455939Y46998D01*
Y51183D01*
X458742Y53986D01*
X459184Y54647D01*
X459339Y55428D01*
X459339Y55428D01*
Y73955D01*
X461442Y76058D01*
X461442Y76058D01*
X461884Y76720D01*
X462039Y77500D01*
Y79755D01*
X462545Y80261D01*
X475828D01*
X476609Y80416D01*
X477270Y80858D01*
X478251Y81838D01*
X478251Y81838D01*
X478693Y82500D01*
X478848Y83280D01*
X478848Y83280D01*
Y83846D01*
X480118Y84715D01*
X480440Y84651D01*
X481415Y84845D01*
X482242Y85398D01*
X482795Y86225D01*
X482989Y87200D01*
X482795Y88175D01*
X482242Y89002D01*
X481415Y89555D01*
X480440Y89749D01*
X479465Y89555D01*
X478720Y89057D01*
X477975Y89555D01*
X477000Y89749D01*
X476025Y89555D01*
X475340Y89098D01*
X474656Y89555D01*
X473680Y89749D01*
X472705Y89555D01*
X472098Y89149D01*
X470802Y88802D01*
X470478Y89019D01*
X469975Y89355D01*
X469000Y89549D01*
X468025Y89355D01*
X467198Y88802D01*
X466645Y87975D01*
X466451Y87000D01*
X466645Y86025D01*
X466923Y85609D01*
X466379Y84358D01*
X466360Y84339D01*
X461700D01*
X461700Y84339D01*
X460920Y84184D01*
X460258Y83742D01*
X458558Y82042D01*
X458116Y81380D01*
X457961Y80600D01*
Y78345D01*
X457085Y77469D01*
X455815Y77995D01*
Y82700D01*
X455372Y83771D01*
X451615Y87528D01*
Y120059D01*
X452885Y120738D01*
X453025Y120645D01*
X454000Y120451D01*
X454975Y120645D01*
X455802Y121198D01*
X456355Y122025D01*
X456549Y123000D01*
X456355Y123975D01*
X456004Y124500D01*
X456355Y125025D01*
X456549Y126000D01*
X456355Y126975D01*
X456004Y127500D01*
X456355Y128025D01*
X456549Y129000D01*
X456355Y129975D01*
X456004Y130500D01*
X456355Y131025D01*
X456549Y132000D01*
X456355Y132975D01*
X455850Y133731D01*
X455802Y133802D01*
X455738Y133862D01*
X456053Y135300D01*
X456175Y135349D01*
X456196Y135355D01*
X456345Y135385D01*
X457171Y135549D01*
X457998Y136102D01*
X458550Y136929D01*
X458745Y137904D01*
X458550Y138880D01*
X457998Y139707D01*
X457171Y140259D01*
X456196Y140453D01*
X455220Y140259D01*
X454393Y139707D01*
X453841Y138880D01*
X453647Y137904D01*
X453841Y136929D01*
X454346Y136173D01*
X454393Y136102D01*
X454457Y136042D01*
X454143Y134604D01*
X454020Y134556D01*
X454000Y134549D01*
X453851Y134519D01*
X453025Y134355D01*
X452885Y134262D01*
X451615Y134941D01*
Y175999D01*
X451771Y176060D01*
X452885Y176210D01*
X453616Y175116D01*
X454939Y174232D01*
X456500Y173922D01*
X458061Y174232D01*
X459384Y175116D01*
X460268Y176439D01*
X460578Y178000D01*
X460268Y179561D01*
X459384Y180884D01*
X458061Y181768D01*
X457094Y181960D01*
X456318Y183111D01*
X456282Y183318D01*
X456315Y183399D01*
Y197600D01*
X455872Y198671D01*
X455082Y199461D01*
X455149Y199800D01*
X454955Y200775D01*
X454402Y201602D01*
X453575Y202155D01*
X452600Y202349D01*
X451625Y202155D01*
X450798Y201602D01*
X450245Y200775D01*
X450051Y199800D01*
X450245Y198825D01*
X450798Y197998D01*
X451625Y197445D01*
X452600Y197251D01*
X453285Y196138D01*
Y188093D01*
X452015Y187126D01*
X451900Y187149D01*
X450925Y186955D01*
X450098Y186402D01*
X449545Y185575D01*
X449351Y184600D01*
X449418Y184261D01*
X446529Y181371D01*
X446085Y180300D01*
Y121654D01*
X444815Y121128D01*
X440215Y125728D01*
Y146700D01*
X439771Y147772D01*
X437015Y150528D01*
Y155006D01*
X437302Y155198D01*
X437855Y156025D01*
X438049Y157000D01*
X437855Y157975D01*
X437302Y158802D01*
X436666Y159227D01*
X436386Y160129D01*
X436323Y160680D01*
X437143Y161500D01*
X437587Y162572D01*
Y164606D01*
X437874Y164798D01*
X438427Y165625D01*
X438621Y166600D01*
X438427Y167575D01*
X437874Y168402D01*
X437255Y168816D01*
X436854Y170076D01*
X436866Y170286D01*
X437265Y171250D01*
Y177006D01*
X437552Y177198D01*
X438105Y178025D01*
X438299Y179000D01*
X438105Y179975D01*
X437552Y180802D01*
X436725Y181355D01*
X435750Y181549D01*
X434775Y181355D01*
X434535Y181195D01*
X433265Y181874D01*
Y187522D01*
X436572Y190828D01*
X437015Y191900D01*
Y196206D01*
X437302Y196398D01*
X437855Y197225D01*
X438049Y198200D01*
X437855Y199175D01*
X437302Y200002D01*
X436475Y200555D01*
X435500Y200749D01*
X434525Y200555D01*
X433698Y200002D01*
X433145Y199175D01*
X432951Y198200D01*
X433145Y197225D01*
X433698Y196398D01*
X433985Y196206D01*
Y192528D01*
X430678Y189221D01*
X430235Y188150D01*
Y172378D01*
X424179Y166322D01*
X423735Y165250D01*
Y142979D01*
X422465Y142453D01*
X405546Y159372D01*
X405613Y159710D01*
X405419Y160686D01*
X404866Y161513D01*
X404040Y162065D01*
X403064Y162259D01*
X402089Y162065D01*
X401262Y161513D01*
X400709Y160686D01*
X400515Y159710D01*
X400709Y158735D01*
X401262Y157908D01*
X402089Y157355D01*
X403064Y157161D01*
X403403Y157228D01*
X420685Y139947D01*
Y116820D01*
X419488Y116109D01*
X419415Y116113D01*
X418500Y116295D01*
X417525Y116101D01*
X416698Y115548D01*
X416145Y114721D01*
X415951Y113746D01*
X416145Y112771D01*
X416698Y111944D01*
X417525Y111391D01*
X418500Y111197D01*
X419475Y111391D01*
X420302Y111944D01*
X420855Y112771D01*
X420927Y113134D01*
X422279Y113578D01*
X424337Y111520D01*
Y71899D01*
X424781Y70827D01*
X425476Y70132D01*
Y58919D01*
X410028Y43471D01*
X409585Y42400D01*
Y37108D01*
X408315Y36429D01*
X408073Y36590D01*
X407000Y36804D01*
X405927Y36590D01*
X405017Y35983D01*
X404810Y35672D01*
X404242Y35662D01*
X403997Y36796D01*
X404026Y36929D01*
X404802Y37448D01*
X405355Y38275D01*
X405549Y39250D01*
X405355Y40225D01*
X404802Y41052D01*
X403975Y41605D01*
X403000Y41799D01*
X402025Y41605D01*
X401198Y41052D01*
X400959Y40696D01*
X400868Y40558D01*
X399671Y41054D01*
X399696Y41179D01*
X399742Y41411D01*
X399529Y42484D01*
X398921Y43394D01*
X398547Y43644D01*
Y81000D01*
X398103Y82072D01*
X398049Y82094D01*
X392415Y87728D01*
Y110698D01*
X392416Y110699D01*
X393685Y111260D01*
X394089Y110991D01*
X395064Y110797D01*
X396040Y110991D01*
X396866Y111544D01*
X397419Y112371D01*
X397613Y113346D01*
X397419Y114321D01*
X396866Y115148D01*
X396040Y115701D01*
X395064Y115895D01*
X394089Y115701D01*
X393685Y115431D01*
X392416Y115993D01*
X392415Y115994D01*
Y126698D01*
X392416Y126699D01*
X393685Y127261D01*
X394089Y126991D01*
X395064Y126797D01*
X396040Y126991D01*
X396866Y127543D01*
X397419Y128371D01*
X397613Y129346D01*
X397419Y130321D01*
X396866Y131148D01*
X396040Y131701D01*
X395064Y131895D01*
X394089Y131701D01*
X393685Y131431D01*
X392701Y131775D01*
X392418Y131930D01*
X392377Y131968D01*
X391972Y132946D01*
X381546Y143371D01*
X381613Y143710D01*
X381419Y144686D01*
X380867Y145513D01*
X380039Y146065D01*
X379064Y146259D01*
X378089Y146065D01*
X377262Y145513D01*
X376709Y144686D01*
X376515Y143710D01*
X376709Y142735D01*
X377262Y141908D01*
X378089Y141355D01*
X379064Y141161D01*
X379403Y141229D01*
X389385Y131247D01*
Y124333D01*
X388115Y123654D01*
X388030Y123710D01*
X387055Y123904D01*
X386080Y123710D01*
X385253Y123157D01*
X384700Y122330D01*
X384506Y121355D01*
X384700Y120380D01*
X385253Y119553D01*
X386080Y119000D01*
X387055Y118806D01*
X388030Y119000D01*
X388115Y119056D01*
X389385Y118378D01*
Y116329D01*
X388115Y115651D01*
X388040Y115701D01*
X387064Y115895D01*
X386089Y115701D01*
X385262Y115148D01*
X384709Y114321D01*
X384515Y113346D01*
X384709Y112371D01*
X385262Y111544D01*
X386089Y110991D01*
X387064Y110797D01*
X388040Y110991D01*
X388115Y111041D01*
X389385Y110362D01*
Y108680D01*
X388115Y108001D01*
X388040Y108051D01*
X387064Y108245D01*
X386089Y108051D01*
X385262Y107498D01*
X384709Y106671D01*
X384515Y105696D01*
X384709Y104721D01*
X385262Y103894D01*
X386089Y103341D01*
X387064Y103147D01*
X388040Y103341D01*
X388115Y103391D01*
X389385Y102712D01*
Y92201D01*
X388115Y91612D01*
X387744Y91859D01*
X386769Y92053D01*
X385793Y91859D01*
X384967Y91307D01*
X384414Y90480D01*
X384220Y89504D01*
X384414Y88529D01*
X384967Y87702D01*
X385793Y87149D01*
X386769Y86955D01*
X387744Y87149D01*
X388115Y87397D01*
X388646Y87273D01*
X389423Y86935D01*
X389471Y86892D01*
X389828Y86028D01*
X395516Y80341D01*
Y43768D01*
X394956Y43394D01*
X394348Y42484D01*
X394135Y41411D01*
X394348Y40339D01*
X394956Y39429D01*
X395866Y38821D01*
X396939Y38608D01*
X398012Y38821D01*
X398921Y39429D01*
X399215Y39868D01*
X399306Y40005D01*
X400503Y39510D01*
X400478Y39385D01*
X400451Y39250D01*
X400645Y38275D01*
X401198Y37448D01*
X402025Y36895D01*
X402576Y36785D01*
X402453Y35537D01*
X402414Y35515D01*
X402302Y35469D01*
X401343Y35071D01*
X400961Y34690D01*
X399591Y35073D01*
X399573Y35099D01*
X398983Y35983D01*
X398073Y36590D01*
X397000Y36804D01*
X395927Y36590D01*
X395017Y35983D01*
X394410Y35073D01*
X394196Y34000D01*
X394306Y33449D01*
X390829Y29971D01*
X390385Y28900D01*
Y27926D01*
X388434Y25975D01*
X387357Y26695D01*
X387615Y27318D01*
Y36900D01*
X387172Y37971D01*
X384915Y40228D01*
Y57705D01*
X385383Y58017D01*
X385990Y58927D01*
X386204Y60000D01*
X385990Y61073D01*
X385383Y61983D01*
X384473Y62590D01*
X383400Y62804D01*
X383035Y62731D01*
X381765Y63626D01*
Y96160D01*
X381321Y97232D01*
X377045Y101508D01*
X377148Y102559D01*
X378267Y103306D01*
X379064Y103147D01*
X380039Y103341D01*
X380867Y103894D01*
X381419Y104721D01*
X381613Y105696D01*
X381419Y106671D01*
X380867Y107498D01*
X380039Y108051D01*
X379064Y108245D01*
X378089Y108051D01*
X378085Y108049D01*
X376815Y108728D01*
Y110314D01*
X378085Y110993D01*
X378089Y110991D01*
X379064Y110797D01*
X380039Y110991D01*
X380867Y111544D01*
X381419Y112371D01*
X381613Y113346D01*
X381419Y114321D01*
X380867Y115148D01*
X380039Y115701D01*
X379064Y115895D01*
X378089Y115701D01*
X378085Y115699D01*
X376815Y116377D01*
Y117110D01*
X376371Y118181D01*
X373546Y121007D01*
X373613Y121346D01*
X373419Y122321D01*
X372867Y123148D01*
X372039Y123701D01*
X371064Y123895D01*
X370089Y123701D01*
X369385Y123231D01*
X368810Y123373D01*
X368115Y123719D01*
Y126973D01*
X368810Y127319D01*
X369385Y127461D01*
X370089Y126991D01*
X371064Y126797D01*
X372039Y126991D01*
X372867Y127543D01*
X373419Y128371D01*
X373613Y129346D01*
X373419Y130321D01*
X372867Y131148D01*
X372039Y131701D01*
X371064Y131895D01*
X370089Y131701D01*
X369385Y131231D01*
X368810Y131373D01*
X368115Y131719D01*
Y144072D01*
X371982Y147939D01*
X372425Y149010D01*
Y149613D01*
X372867Y149908D01*
X373419Y150735D01*
X373613Y151710D01*
X373419Y152686D01*
X372867Y153512D01*
X372039Y154065D01*
X371064Y154259D01*
X370089Y154065D01*
X369262Y153512D01*
X368709Y152686D01*
X368515Y151710D01*
X368709Y150735D01*
X369262Y149908D01*
X368588Y148831D01*
X365528Y145772D01*
X365085Y144700D01*
Y106894D01*
X364650Y106549D01*
X363815Y106110D01*
X363064Y106259D01*
X362685Y106184D01*
X361530Y106950D01*
X361457Y108214D01*
X362271Y109029D01*
X362715Y110100D01*
Y146500D01*
X362271Y147571D01*
X358148Y151695D01*
X358249Y152200D01*
X358055Y153175D01*
X357502Y154002D01*
X356675Y154555D01*
X355700Y154749D01*
X354725Y154555D01*
X353898Y154002D01*
X353345Y153175D01*
X353151Y152200D01*
X353345Y151225D01*
X353898Y150398D01*
X354725Y149845D01*
X355700Y149651D01*
X355872Y149685D01*
X358547Y147010D01*
X357737Y146024D01*
X357675Y146065D01*
X356700Y146259D01*
X355724Y146065D01*
X354897Y145513D01*
X354345Y144686D01*
X354151Y143710D01*
X354345Y142735D01*
X354897Y141908D01*
X355724Y141355D01*
X356700Y141161D01*
X357675Y141355D01*
X358415Y141849D01*
X358869Y141748D01*
X359685Y141391D01*
Y131665D01*
X358869Y131308D01*
X358415Y131207D01*
X357675Y131701D01*
X356700Y131895D01*
X355724Y131701D01*
X354897Y131148D01*
X354345Y130321D01*
X354151Y129346D01*
X354345Y128371D01*
X354897Y127543D01*
X355724Y126991D01*
X356700Y126797D01*
X357675Y126991D01*
X358415Y127485D01*
X358869Y127383D01*
X359685Y127027D01*
Y123665D01*
X358869Y123308D01*
X358415Y123207D01*
X357675Y123701D01*
X356700Y123895D01*
X355724Y123701D01*
X354897Y123148D01*
X354345Y122321D01*
X354151Y121346D01*
X354345Y120371D01*
X354897Y119544D01*
X355724Y118991D01*
X356700Y118797D01*
X357675Y118991D01*
X358415Y119485D01*
X358869Y119383D01*
X359685Y119027D01*
Y115665D01*
X358869Y115308D01*
X358415Y115207D01*
X357675Y115701D01*
X356700Y115895D01*
X355724Y115701D01*
X354897Y115148D01*
X354385Y114382D01*
X354291Y114365D01*
X353115Y114826D01*
Y118446D01*
X352671Y119517D01*
X351181Y121007D01*
X351249Y121346D01*
X351055Y122321D01*
X350502Y123148D01*
X349675Y123701D01*
X348700Y123895D01*
X347724Y123701D01*
X347285Y123407D01*
X346074Y123915D01*
X346015Y123970D01*
Y126722D01*
X346074Y126776D01*
X347285Y127284D01*
X347724Y126991D01*
X348700Y126797D01*
X349675Y126991D01*
X350502Y127543D01*
X351055Y128371D01*
X351249Y129346D01*
X351055Y130321D01*
X350502Y131148D01*
X349675Y131701D01*
X348700Y131895D01*
X347724Y131701D01*
X347285Y131407D01*
X346074Y131915D01*
X346015Y131970D01*
Y132188D01*
X345572Y133259D01*
X343759Y135071D01*
X342688Y135515D01*
X340461D01*
X340344Y135830D01*
X340250Y136785D01*
X340867Y137198D01*
X341419Y138025D01*
X341613Y139000D01*
X341419Y139975D01*
X340867Y140802D01*
X340677Y140929D01*
X340868Y141821D01*
X341067Y142196D01*
X341918Y142365D01*
X342745Y142917D01*
X343297Y143744D01*
X343491Y144720D01*
X343297Y145695D01*
X342745Y146522D01*
X341918Y147075D01*
X340942Y147269D01*
X339967Y147075D01*
X339140Y146522D01*
X338587Y145695D01*
X338393Y144720D01*
X338587Y143744D01*
X339140Y142917D01*
X339329Y142791D01*
X339139Y141899D01*
X338939Y141524D01*
X338089Y141355D01*
X337262Y140802D01*
X336709Y139975D01*
X336702Y139937D01*
X335324Y139519D01*
X333091Y141752D01*
X333306Y143333D01*
X333403Y143398D01*
X333955Y144225D01*
X334150Y145201D01*
X333955Y146176D01*
X333403Y147003D01*
X332576Y147556D01*
X331601Y147750D01*
X331085Y147647D01*
X329815Y148426D01*
Y150503D01*
X330130Y150621D01*
X331085Y150715D01*
X331498Y150098D01*
X332325Y149545D01*
X333300Y149351D01*
X334275Y149545D01*
X335102Y150098D01*
X335655Y150925D01*
X335849Y151900D01*
X335655Y152875D01*
X335102Y153702D01*
X334275Y154255D01*
X333300Y154449D01*
X332325Y154255D01*
X331630Y153791D01*
X330820Y154777D01*
X332672Y156629D01*
X333115Y157700D01*
Y158139D01*
X333802Y158598D01*
X334355Y159424D01*
X334549Y160400D01*
X334355Y161375D01*
X333802Y162202D01*
X332975Y162755D01*
X332000Y162949D01*
X331522Y162854D01*
X330985Y162785D01*
X329956Y163568D01*
X329871Y163771D01*
X328215Y165428D01*
Y166705D01*
X328683Y167017D01*
X329290Y167927D01*
X329504Y169000D01*
X329290Y170073D01*
X328683Y170983D01*
X327773Y171590D01*
X326700Y171804D01*
X325627Y171590D01*
X324717Y170983D01*
X324110Y170073D01*
X323896Y169000D01*
X324110Y167927D01*
X324717Y167017D01*
X325185Y166705D01*
Y164800D01*
X325404Y164270D01*
X324862Y162927D01*
X324751Y162810D01*
X323998Y162307D01*
X323445Y161480D01*
X323251Y160505D01*
X323445Y159529D01*
X323998Y158702D01*
X324576Y158315D01*
X324903Y157188D01*
X324928Y156875D01*
X324914Y156837D01*
X324485Y155800D01*
Y143000D01*
X324929Y141929D01*
X328680Y138177D01*
X328515Y137346D01*
X328709Y136370D01*
X329262Y135543D01*
X330089Y134991D01*
X331064Y134797D01*
X332039Y134991D01*
X332422Y135247D01*
X333797Y135005D01*
X333912Y134938D01*
X333961Y134896D01*
X335928Y132928D01*
X337000Y132485D01*
X338612D01*
X338997Y131215D01*
X338898Y131148D01*
X338345Y130321D01*
X338151Y129346D01*
X338345Y128371D01*
X338898Y127543D01*
X339724Y126991D01*
X340700Y126797D01*
X341675Y126991D01*
X341715Y127017D01*
X342985Y126338D01*
Y124353D01*
X341715Y123675D01*
X341675Y123701D01*
X340700Y123895D01*
X339724Y123701D01*
X338898Y123148D01*
X338667Y122804D01*
X337397Y123189D01*
Y126218D01*
X336954Y127289D01*
X335182Y129061D01*
X335249Y129400D01*
X335055Y130375D01*
X334502Y131202D01*
X333675Y131755D01*
X332700Y131949D01*
X331725Y131755D01*
X330897Y131202D01*
X330345Y130375D01*
X330151Y129400D01*
X330345Y128425D01*
X330897Y127598D01*
X331725Y127045D01*
X332700Y126851D01*
X333038Y126918D01*
X334153Y125804D01*
X334068Y124578D01*
X333028Y123829D01*
X332700Y123895D01*
X331725Y123701D01*
X330897Y123148D01*
X330345Y122321D01*
X330151Y121346D01*
X330345Y120371D01*
X330897Y119544D01*
X331725Y118991D01*
X332700Y118797D01*
X333097Y118876D01*
X334367Y118042D01*
Y116650D01*
X333097Y115816D01*
X332700Y115895D01*
X331725Y115701D01*
X330897Y115148D01*
X330345Y114321D01*
X330151Y113346D01*
X330345Y112371D01*
X330897Y111544D01*
X331725Y110991D01*
X332700Y110797D01*
X333097Y110876D01*
X334367Y110042D01*
Y108650D01*
X333097Y107816D01*
X332700Y107895D01*
X331725Y107701D01*
X330897Y107148D01*
X330345Y106321D01*
X330151Y105346D01*
X330345Y104370D01*
X330897Y103544D01*
X331725Y102991D01*
X332700Y102797D01*
X333097Y102876D01*
X334367Y102042D01*
Y23915D01*
X334198Y23802D01*
X333645Y22975D01*
X333451Y22000D01*
X333645Y21025D01*
X334198Y20198D01*
X335025Y19645D01*
X336000Y19451D01*
X336975Y19645D01*
X337802Y20198D01*
X338355Y21025D01*
X338549Y22000D01*
X338486Y22316D01*
X338699Y23204D01*
X339412Y23677D01*
X339757Y23746D01*
X340584Y24299D01*
X341558Y24648D01*
X342385Y24095D01*
X343360Y23901D01*
X344336Y24095D01*
X345402Y23714D01*
X345608Y23086D01*
X345296Y22774D01*
X344852Y21702D01*
Y19300D01*
X345147Y18586D01*
X344548Y17316D01*
X331827D01*
X326482Y22661D01*
X326549Y23000D01*
X326355Y23975D01*
X325802Y24802D01*
X324975Y25355D01*
X324380Y25473D01*
X324000Y25549D01*
X323172Y25587D01*
X323172Y25587D01*
X323172D01*
X322665Y26326D01*
X322601Y26483D01*
X323132Y27278D01*
X323326Y28254D01*
X323132Y29229D01*
X322579Y30056D01*
X322162Y30335D01*
Y58054D01*
X321718Y59125D01*
X315194Y65649D01*
X315304Y66200D01*
X315090Y67273D01*
X314483Y68183D01*
X313573Y68790D01*
X312500Y69004D01*
X311427Y68790D01*
X310517Y68183D01*
X309910Y67273D01*
X309696Y66200D01*
X309910Y65127D01*
X310517Y64217D01*
X311427Y63610D01*
X312500Y63396D01*
X313051Y63506D01*
X319131Y57426D01*
Y30793D01*
X319043Y30714D01*
X317998Y30287D01*
X317656Y30368D01*
X317323Y30590D01*
X316250Y30804D01*
X315177Y30590D01*
X314650Y30238D01*
X313951Y30692D01*
X313620Y31078D01*
X313804Y32000D01*
X313590Y33073D01*
X312983Y33983D01*
X312515Y34295D01*
Y38100D01*
X312071Y39172D01*
X291715Y59528D01*
Y67605D01*
X292183Y67917D01*
X292790Y68827D01*
X293004Y69900D01*
X292790Y70973D01*
X292183Y71883D01*
X291273Y72490D01*
X290200Y72704D01*
X289127Y72490D01*
X288217Y71883D01*
X287610Y70973D01*
X287396Y69900D01*
X286166Y69577D01*
X285499Y69444D01*
X284908Y69662D01*
X284221Y70246D01*
X284079Y70961D01*
X283471Y71871D01*
X282561Y72478D01*
X281488Y72692D01*
X280415Y72478D01*
X279506Y71871D01*
X278898Y70961D01*
X278684Y69888D01*
X278898Y68815D01*
X279506Y67906D01*
X279973Y67593D01*
Y58512D01*
X280417Y57440D01*
X304485Y33372D01*
Y27408D01*
X303877Y27002D01*
X303656Y26671D01*
X302166Y26365D01*
X298765Y29765D01*
X298000Y30082D01*
X295886D01*
X295666Y30230D01*
X293325Y30695D01*
X251254D01*
X239623Y42326D01*
X237638Y43652D01*
X235297Y44117D01*
X169035D01*
X165369Y47783D01*
X163384Y49109D01*
X161043Y49575D01*
X160914D01*
X160235Y50845D01*
X160355Y51025D01*
X160549Y52000D01*
X160355Y52975D01*
X159802Y53802D01*
X158975Y54355D01*
X158000Y54549D01*
X157025Y54355D01*
X156198Y53802D01*
X155645Y52975D01*
X155451Y52000D01*
X155645Y51025D01*
X155765Y50845D01*
X155086Y49575D01*
X135082D01*
Y50000D01*
X134765Y50765D01*
X131765Y53765D01*
X131000Y54082D01*
X99448D01*
X91082Y62448D01*
X91082Y65000D01*
X91082Y65000D01*
X90765Y65765D01*
X90765Y65765D01*
X80765Y75765D01*
X80765Y75765D01*
X80000Y76082D01*
X64448Y76082D01*
X55681Y84850D01*
X56306Y86020D01*
X57000Y85883D01*
X93000D01*
X95341Y86348D01*
X97326Y87674D01*
X111569Y101918D01*
X128000D01*
X128765Y102235D01*
X130765Y104235D01*
X131082Y105000D01*
Y117000D01*
X130765Y117765D01*
X128765Y119765D01*
X128000Y120082D01*
X113000D01*
X113000Y120083D01*
X112235Y119765D01*
X112234Y119765D01*
X109235Y116765D01*
X109197Y116675D01*
X108674Y116326D01*
X90466Y98118D01*
X63966D01*
X63841Y99388D01*
X63976Y99414D01*
X64803Y99967D01*
X65128Y100454D01*
X90171D01*
X91243Y100898D01*
X100493Y110148D01*
X100937Y111220D01*
Y129977D01*
X102193Y131233D01*
X106053D01*
X106438Y129963D01*
X106197Y129802D01*
X105645Y128975D01*
X105451Y128000D01*
X105645Y127024D01*
X106197Y126197D01*
X107024Y125645D01*
X108000Y125451D01*
X108975Y125645D01*
X109802Y126197D01*
X110355Y127024D01*
X110549Y128000D01*
X110355Y128975D01*
X109802Y129802D01*
X109562Y129963D01*
X109947Y131233D01*
X113072D01*
X115437Y128868D01*
X116509Y128424D01*
X130941D01*
X132013Y128868D01*
X143850Y140705D01*
X144294Y141777D01*
Y173510D01*
X143850Y174582D01*
X137196Y181236D01*
X137263Y181575D01*
X137113Y182329D01*
X137593Y183120D01*
X137954Y183512D01*
X138789Y183678D01*
X139616Y184231D01*
X140169Y185058D01*
X140363Y186033D01*
X140169Y187009D01*
X139616Y187836D01*
X138789Y188388D01*
X137814Y188582D01*
X136838Y188388D01*
X136011Y187836D01*
X135459Y187009D01*
X135265Y186033D01*
X135415Y185280D01*
X134935Y184489D01*
X134574Y184096D01*
X133738Y183930D01*
X132912Y183377D01*
X132359Y182551D01*
X132165Y181575D01*
X132359Y180600D01*
X132551Y180312D01*
X132767Y178930D01*
X132215Y178103D01*
X132021Y177127D01*
X132215Y176152D01*
X132767Y175325D01*
X133594Y174772D01*
X134570Y174578D01*
X134908Y174646D01*
X138945Y170609D01*
Y162957D01*
X137675Y162572D01*
X137634Y162634D01*
X136311Y163518D01*
X134750Y163828D01*
X133189Y163518D01*
X131866Y162634D01*
X131134D01*
X129811Y163518D01*
X128250Y163828D01*
X126689Y163518D01*
X125366Y162634D01*
X125213Y162405D01*
X123865Y162673D01*
X123855Y162725D01*
X123302Y163552D01*
X122475Y164105D01*
X121500Y164299D01*
X120525Y164105D01*
X119698Y163552D01*
X119145Y162725D01*
X118951Y161750D01*
X119145Y160775D01*
X119698Y159948D01*
X120525Y159395D01*
X121500Y159201D01*
X122475Y159395D01*
X122971Y159726D01*
X124095Y159337D01*
X124283Y159192D01*
X124482Y158189D01*
X125366Y156866D01*
X126689Y155982D01*
X128250Y155672D01*
X129811Y155982D01*
X131134Y156866D01*
X131866D01*
X133189Y155982D01*
X134750Y155672D01*
X136311Y155982D01*
X137634Y156866D01*
X137675Y156928D01*
X138945Y156543D01*
Y144230D01*
X128828Y134113D01*
X118106D01*
X115747Y136472D01*
X114676Y136915D01*
X100430D01*
X99358Y136472D01*
X95584Y132698D01*
X95140Y131626D01*
Y113928D01*
X90752Y109540D01*
X89941Y109850D01*
X89527Y110111D01*
X89355Y110975D01*
X88802Y111802D01*
X88515Y111994D01*
Y114100D01*
X88071Y115172D01*
X79721Y123521D01*
X78650Y123965D01*
X72978D01*
X65015Y131928D01*
Y172872D01*
X87686Y195543D01*
X163405D01*
X164476Y195986D01*
X176071Y207582D01*
X176515Y208654D01*
Y220372D01*
X182071Y225928D01*
X182515Y227000D01*
Y242372D01*
X187628Y247485D01*
X189706D01*
X189898Y247198D01*
X190725Y246645D01*
X191700Y246451D01*
X192675Y246645D01*
X193502Y247198D01*
X194055Y248025D01*
X194249Y249000D01*
X194055Y249975D01*
X193502Y250802D01*
X192675Y251355D01*
X191700Y251549D01*
X190725Y251355D01*
X189898Y250802D01*
X189706Y250515D01*
X187000D01*
X185928Y250072D01*
X184534Y248676D01*
X183422Y249361D01*
X183549Y250000D01*
X183355Y250975D01*
X182802Y251802D01*
X181975Y252355D01*
X181000Y252549D01*
X180025Y252355D01*
X179198Y251802D01*
X178645Y250975D01*
X178451Y250000D01*
X178645Y249025D01*
X179198Y248198D01*
X180025Y247645D01*
X181000Y247451D01*
X181639Y247578D01*
X182323Y246467D01*
X179928Y244072D01*
X179485Y243000D01*
Y227628D01*
X174352Y222495D01*
X173082Y223022D01*
Y241381D01*
X173149Y241715D01*
X173082Y242050D01*
Y251000D01*
X172765Y251765D01*
X168645Y255886D01*
X169131Y257059D01*
X443100Y256957D01*
D02*
G37*
G36*
X38174Y257108D02*
X165940Y257061D01*
X172000Y251000D01*
Y209000D01*
X161573Y198573D01*
X89529D01*
X89043Y199747D01*
X96360Y207064D01*
X97259Y206616D01*
X97500Y206408D01*
Y205502D01*
X97880Y204583D01*
X98584Y203880D01*
X99502Y203500D01*
X100497D01*
X101416Y203880D01*
X102119Y204583D01*
X102500Y205502D01*
Y206497D01*
X102119Y207416D01*
X101416Y208119D01*
X100497Y208500D01*
X99592D01*
X99383Y208740D01*
X98935Y209639D01*
X103348Y214052D01*
X103824Y215200D01*
Y216591D01*
X104948Y217500D01*
X105942D01*
X106106Y217568D01*
X107376Y216737D01*
Y206912D01*
X106881Y206416D01*
X106500Y205497D01*
Y204503D01*
X106881Y203584D01*
X107584Y202881D01*
X108503Y202500D01*
X109497D01*
X110416Y202881D01*
X111119Y203584D01*
X111500Y204503D01*
Y205497D01*
X111119Y206416D01*
X110624Y206912D01*
Y231540D01*
X114544Y235460D01*
X115581Y235254D01*
X116284Y234551D01*
X117203Y234170D01*
X118197D01*
X119116Y234551D01*
X119819Y235254D01*
X120200Y236173D01*
Y237167D01*
X119819Y238086D01*
X119207Y238698D01*
Y245087D01*
X118732Y246236D01*
X116719Y248248D01*
X115571Y248724D01*
X104029D01*
X102881Y248248D01*
X91657Y237024D01*
X83744D01*
X82596Y236548D01*
X78319Y232272D01*
X77220Y232907D01*
X77244Y232998D01*
Y236158D01*
X76426Y239210D01*
X74846Y241946D01*
X72612Y244180D01*
X69876Y245760D01*
X66824Y246578D01*
X63664D01*
X60612Y245760D01*
X57876Y244180D01*
X55642Y241946D01*
X54062Y239210D01*
X53244Y236158D01*
Y232998D01*
X54062Y229946D01*
X55642Y227210D01*
X57876Y224976D01*
X57958Y224928D01*
X57629Y223702D01*
X56750D01*
X55602Y223226D01*
X39852Y207477D01*
X39376Y206328D01*
Y150000D01*
X39852Y148852D01*
X47954Y140750D01*
X48775Y140410D01*
X48969Y139942D01*
X49742Y139169D01*
X50753Y138750D01*
X51847D01*
X52858Y139169D01*
X53631Y139942D01*
X54050Y140953D01*
Y142047D01*
X53631Y143058D01*
X53561Y143128D01*
X53331Y144442D01*
X53500Y144849D01*
X53750Y145453D01*
Y146547D01*
X53331Y147558D01*
X52558Y148331D01*
X51547Y148750D01*
X50453D01*
X49442Y148331D01*
X49204Y148093D01*
X44624Y152673D01*
Y204827D01*
X58250Y218454D01*
X71250D01*
X72398Y218930D01*
X84663Y231195D01*
X85525Y231118D01*
X86500Y230330D01*
Y229335D01*
X86881Y228417D01*
X87584Y227713D01*
X88503Y227333D01*
X89497D01*
X90416Y227713D01*
X91119Y228417D01*
X91500Y229335D01*
Y230330D01*
X91427Y230506D01*
X92251Y231776D01*
X93157D01*
X94305Y232252D01*
X97306Y235253D01*
X98576Y234727D01*
Y216701D01*
X87499Y205624D01*
X87000D01*
X85852Y205148D01*
X58828Y178124D01*
X53566D01*
X52858Y178831D01*
X51847Y179250D01*
X50753D01*
X49742Y178831D01*
X48969Y178058D01*
X48550Y177047D01*
Y175953D01*
X48969Y174942D01*
X49742Y174169D01*
X50753Y173750D01*
X51847D01*
X52858Y174169D01*
X53566Y174876D01*
X56921D01*
X57407Y173703D01*
X52559Y168855D01*
X51847Y169150D01*
X50753D01*
X49742Y168731D01*
X48969Y167958D01*
X48550Y166947D01*
Y165853D01*
X48969Y164842D01*
X49742Y164069D01*
X50753Y163650D01*
X51847D01*
X52858Y164069D01*
X53631Y164842D01*
X53994Y165717D01*
X54026Y165730D01*
X60715Y172419D01*
X61985Y171893D01*
Y134136D01*
X60715Y133610D01*
X59774Y134551D01*
X57844Y135350D01*
X55756D01*
X53826Y134551D01*
X52349Y133074D01*
X51550Y131144D01*
Y130000D01*
X2014D01*
Y243777D01*
Y244366D01*
X2465Y245454D01*
X3297Y246287D01*
X4386Y246738D01*
X4975Y246738D01*
X28173D01*
X28272Y246758D01*
X28373Y246748D01*
X29348Y246844D01*
X29635Y246931D01*
X29929Y246989D01*
X31731Y247736D01*
X32392Y248178D01*
X33772Y249557D01*
X34214Y250219D01*
X34961Y252021D01*
X35019Y252315D01*
X35106Y252602D01*
X35202Y253577D01*
X35192Y253678D01*
X35212Y253777D01*
X35212Y254147D01*
X35212Y254147D01*
X35212Y254147D01*
Y254736D01*
X35663Y255825D01*
X36496Y256658D01*
X37585Y257109D01*
X38174Y257108D01*
D02*
G37*
G36*
X71279Y121378D02*
X72350Y120935D01*
X78022D01*
X85485Y113472D01*
Y111994D01*
X85197Y111802D01*
X84645Y110975D01*
X84451Y110000D01*
X84645Y109024D01*
X85197Y108197D01*
X86024Y107645D01*
X86185Y107244D01*
X86262Y106303D01*
X86124Y106185D01*
X66570D01*
X65541Y107442D01*
X65347Y108417D01*
X64794Y109244D01*
X63967Y109797D01*
X62992Y109991D01*
X62017Y109797D01*
X61190Y109244D01*
X60637Y108417D01*
X60618Y108321D01*
X59240Y107903D01*
X58071Y109072D01*
X57000Y109515D01*
X53224D01*
X50468Y112271D01*
X49397Y112715D01*
X42428D01*
X30071Y125071D01*
X29000Y125515D01*
X10900D01*
X9829Y125071D01*
X8029Y123272D01*
X7585Y122200D01*
Y109848D01*
X8029Y108776D01*
X14485Y102320D01*
Y91994D01*
X14198Y91802D01*
X13645Y90975D01*
X13451Y90000D01*
X13645Y89025D01*
X14198Y88198D01*
Y86802D01*
X13645Y85975D01*
X13451Y85000D01*
X13645Y84025D01*
X14198Y83198D01*
X15025Y82645D01*
X16000Y82451D01*
X16975Y82645D01*
X17802Y83198D01*
X18355Y84025D01*
X18413Y84314D01*
X18613Y84442D01*
X19883Y83748D01*
Y80534D01*
X11877Y72528D01*
X10551Y70544D01*
X10085Y68203D01*
Y54965D01*
X9706Y54470D01*
X9000Y52767D01*
X8760Y50940D01*
X9000Y49113D01*
X9706Y47410D01*
X10828Y45948D01*
X12290Y44826D01*
X13993Y44120D01*
X15820Y43880D01*
X17647Y44120D01*
X19350Y44826D01*
X20812Y45948D01*
X21934Y47410D01*
X22640Y49113D01*
X22680Y49414D01*
X23960D01*
X24000Y49113D01*
X24706Y47410D01*
X25828Y45948D01*
X27290Y44826D01*
X28985Y44123D01*
X39883Y33226D01*
Y13436D01*
X40348Y11095D01*
X41674Y9110D01*
X47464Y3321D01*
X47434Y2928D01*
X47168Y2051D01*
X37585Y2047D01*
X36496Y2498D01*
X35663Y3331D01*
X35212Y4419D01*
X35212Y5009D01*
X35212Y5009D01*
X35212Y5009D01*
X35212Y5379D01*
X35192Y5478D01*
X35202Y5579D01*
X35106Y6554D01*
X35019Y6841D01*
X34961Y7135D01*
X34214Y8937D01*
X33772Y9599D01*
X32393Y10978D01*
X32392Y10978D01*
X31731Y11420D01*
X29929Y12167D01*
X29635Y12225D01*
X29348Y12312D01*
X28373Y12408D01*
X28272Y12398D01*
X28173Y12418D01*
X4386D01*
X3297Y12869D01*
X2465Y13701D01*
X2014Y14790D01*
X2014Y15379D01*
Y128918D01*
X51550D01*
X51698Y128838D01*
X51855Y128052D01*
X53015Y126315D01*
X54752Y125155D01*
X56800Y124747D01*
X58848Y125155D01*
X60585Y126315D01*
X61745Y128052D01*
X61922Y128939D01*
X63300Y129357D01*
X71279Y121378D01*
D02*
G37*
G36*
X38768Y112089D02*
X38282Y110915D01*
X29349D01*
X28277Y110471D01*
X27971Y110165D01*
X25050D01*
X23979Y109721D01*
X18396Y104139D01*
X18327Y104114D01*
X17997Y104089D01*
X17059Y104158D01*
X16849Y104242D01*
X10615Y110475D01*
Y121572D01*
X11528Y122485D01*
X28372D01*
X38768Y112089D01*
D02*
G37*
G36*
X130000Y117000D02*
Y105000D01*
X128000Y103000D01*
X110000D01*
Y116000D01*
X112000Y118000D01*
X113000Y119000D01*
X128000D01*
X130000Y117000D01*
D02*
G37*
G36*
X361251Y95880D02*
X362254Y95706D01*
X362339Y95278D01*
X362892Y94451D01*
X363232Y94223D01*
Y93553D01*
X363675Y92482D01*
X364185Y91972D01*
Y83828D01*
X364377Y83365D01*
X364092Y82834D01*
X363568Y82158D01*
X362775Y82001D01*
X361948Y81448D01*
X361395Y80621D01*
X361201Y79646D01*
X361395Y78670D01*
X361948Y77843D01*
X362648Y77376D01*
X362649Y76793D01*
X362470Y76083D01*
X361825Y75955D01*
X360998Y75402D01*
X360445Y74575D01*
X360251Y73600D01*
X360445Y72625D01*
X360998Y71798D01*
X361707Y71324D01*
X361855Y71083D01*
X362079Y69900D01*
X361385Y69207D01*
X360942Y68135D01*
Y41545D01*
X360474Y41233D01*
X359866Y40323D01*
X359653Y39250D01*
X359866Y38177D01*
X360474Y37267D01*
X361384Y36660D01*
X362457Y36446D01*
X363015Y36557D01*
X364285Y35753D01*
Y33623D01*
X364729Y32552D01*
X367619Y29661D01*
X363574Y25615D01*
X360554D01*
X359483Y25171D01*
X353859Y19548D01*
X352687Y19611D01*
X351816Y20501D01*
X351749Y20840D01*
X356671Y25762D01*
X357115Y26834D01*
Y85507D01*
X358385Y86474D01*
X358500Y86451D01*
X359475Y86645D01*
X360302Y87198D01*
X360855Y88025D01*
X361049Y89000D01*
X360855Y89975D01*
X360302Y90802D01*
X359475Y91355D01*
X358500Y91549D01*
X358385Y91526D01*
X358349Y91542D01*
X357735Y92692D01*
X360924Y95881D01*
X361251Y95880D01*
D02*
G37*
G36*
X64000Y75000D02*
X80000Y75000D01*
X90000Y65000D01*
X90000Y62000D01*
X99000Y53000D01*
X131000D01*
X134000Y50000D01*
Y34000D01*
X133000Y33000D01*
X116000D01*
X114000Y35000D01*
Y41000D01*
X111000Y44000D01*
X86000D01*
X74000Y56000D01*
X49000D01*
X32000Y73000D01*
Y77409D01*
X32118Y78000D01*
Y94117D01*
X34000Y96000D01*
X43000D01*
X64000Y75000D01*
D02*
G37*
G36*
X162175Y33674D02*
X164159Y32348D01*
X166500Y31883D01*
X232763D01*
X244394Y20252D01*
X246378Y18926D01*
X248519Y18500D01*
X248390Y17231D01*
X239290Y17282D01*
X238614Y18556D01*
X238760Y18775D01*
X238954Y19750D01*
X238760Y20725D01*
X238207Y21552D01*
X237380Y22105D01*
X236405Y22299D01*
X235429Y22105D01*
X234602Y21552D01*
X234554Y21479D01*
X233029Y21484D01*
X232942Y21614D01*
X232115Y22167D01*
X231140Y22361D01*
X230165Y22167D01*
X229338Y21614D01*
X228785Y20787D01*
X228591Y19812D01*
X228785Y18837D01*
X229338Y18010D01*
X230165Y17457D01*
X231140Y17263D01*
X232115Y17457D01*
X232942Y18010D01*
X232991Y18083D01*
X234515Y18078D01*
X234602Y17948D01*
X234790Y17822D01*
X234826Y16319D01*
X234603Y16170D01*
X233622Y15522D01*
X233612Y15508D01*
X233597Y15498D01*
X232983Y14884D01*
X176083D01*
X160162Y30805D01*
X158177Y32131D01*
X155836Y32597D01*
X135787D01*
X135027Y33867D01*
X135082Y34000D01*
Y37340D01*
X158509D01*
X162175Y33674D01*
D02*
G37*
G36*
X31073Y72625D02*
X31235Y72235D01*
X48235Y55235D01*
X49000Y54918D01*
X73552D01*
X85235Y43235D01*
X86000Y42918D01*
X110552D01*
X112918Y40552D01*
Y35000D01*
X113235Y34235D01*
X115235Y32235D01*
X116000Y31918D01*
X130183D01*
X130405Y30648D01*
X123026Y23268D01*
X91467D01*
X89126Y22802D01*
X87141Y21476D01*
X79361Y13695D01*
X72860D01*
X72429Y14965D01*
X73802Y16020D01*
X75726Y18526D01*
X76935Y21445D01*
X77347Y24578D01*
X76935Y27711D01*
X75726Y30630D01*
X73802Y33136D01*
X71296Y35060D01*
X68377Y36269D01*
X65244Y36682D01*
X62111Y36269D01*
X59192Y35060D01*
X56686Y33136D01*
X54762Y30630D01*
X53553Y27711D01*
X53387Y26455D01*
X52118Y26538D01*
Y35760D01*
X51652Y38101D01*
X50326Y40086D01*
X37637Y52775D01*
X36934Y54470D01*
X35812Y55932D01*
X34350Y57055D01*
X32647Y57760D01*
X30820Y58000D01*
X28993Y57760D01*
X27290Y57055D01*
X25828Y55932D01*
X24706Y54470D01*
X24000Y52767D01*
X23968Y52526D01*
X22707Y52675D01*
X22320Y53587D01*
Y65669D01*
X29649Y72997D01*
X30013Y72998D01*
X31073Y72625D01*
D02*
G37*
G36*
X292000Y15000D02*
Y6000D01*
X291000Y5000D01*
X269744D01*
X269702Y5041D01*
X269702Y5041D01*
X269702Y5042D01*
X269363Y5268D01*
X269041Y5484D01*
X269041Y5484D01*
X269040Y5484D01*
X268679Y5556D01*
X268386Y5614D01*
X268000Y6000D01*
Y7000D01*
X268002Y15999D01*
X268005Y16000D01*
X291000D01*
X292000Y15000D01*
D02*
G37*
G36*
X304000Y23000D02*
X304458D01*
X305182Y22700D01*
X306176D01*
X306901Y23000D01*
X310000D01*
X311000Y22000D01*
Y20502D01*
X310997Y20500D01*
X310003D01*
X309084Y20119D01*
X308381Y19416D01*
X308000Y18497D01*
Y17503D01*
X308381Y16584D01*
X309084Y15881D01*
X310003Y15500D01*
X310997D01*
X311000Y15498D01*
Y6000D01*
X309000Y4000D01*
X294000D01*
X293000Y5000D01*
Y5801D01*
X293082Y6000D01*
Y10049D01*
X293250Y10453D01*
Y11547D01*
X293082Y11952D01*
Y15000D01*
X293082Y15000D01*
X293000Y15199D01*
Y16000D01*
X289000Y20000D01*
Y29000D01*
X298000D01*
X304000Y23000D01*
D02*
G37*
%LPC*%
G36*
X436200Y251449D02*
X435225Y251255D01*
X434398Y250702D01*
X433845Y249875D01*
X433651Y248900D01*
X433845Y247925D01*
X434398Y247098D01*
X435225Y246545D01*
X436200Y246351D01*
X437175Y246545D01*
X438002Y247098D01*
X439227Y246644D01*
X439525Y246445D01*
X440500Y246251D01*
X441475Y246445D01*
X442302Y246998D01*
X442855Y247825D01*
X443049Y248800D01*
X442855Y249775D01*
X442302Y250602D01*
X441475Y251155D01*
X440500Y251349D01*
X439525Y251155D01*
X438698Y250602D01*
X437473Y251056D01*
X437175Y251255D01*
X436200Y251449D01*
D02*
G37*
G36*
X479000Y250349D02*
X478025Y250155D01*
X477198Y249602D01*
X476645Y248775D01*
X476451Y247800D01*
X476645Y246825D01*
X477198Y245998D01*
X478025Y245445D01*
X479000Y245251D01*
X479976Y245445D01*
X480802Y245998D01*
X481355Y246825D01*
X481549Y247800D01*
X481355Y248775D01*
X480802Y249602D01*
X479976Y250155D01*
X479000Y250349D01*
D02*
G37*
G36*
X351868Y249815D02*
X282400D01*
X281329Y249371D01*
X250939Y218982D01*
X250600Y219049D01*
X249625Y218855D01*
X248798Y218302D01*
X248245Y217475D01*
X248051Y216500D01*
X248245Y215525D01*
X248798Y214698D01*
X249625Y214145D01*
X250600Y213951D01*
X251575Y214145D01*
X252402Y214698D01*
X253598D01*
X254425Y214145D01*
X255400Y213951D01*
X256375Y214145D01*
X257202Y214698D01*
X257755Y215525D01*
X257949Y216500D01*
X257882Y216839D01*
X285528Y244485D01*
X310323D01*
X310891Y243215D01*
X310520Y242800D01*
X310500Y242804D01*
X309427Y242590D01*
X308517Y241983D01*
X307335Y242498D01*
X306823Y242840D01*
X305750Y243054D01*
X304677Y242840D01*
X303767Y242233D01*
X302483Y241983D01*
X301573Y242590D01*
X300500Y242804D01*
X299427Y242590D01*
X298517Y241983D01*
X297233D01*
X296323Y242590D01*
X295250Y242804D01*
X294177Y242590D01*
X293267Y241983D01*
X292660Y241073D01*
X292446Y240000D01*
X292660Y238927D01*
X293267Y238017D01*
X293735Y237705D01*
Y225878D01*
X291528Y223671D01*
X291085Y222600D01*
Y194847D01*
X291018Y194802D01*
X290465Y193975D01*
X290271Y193000D01*
X290465Y192025D01*
X291018Y191198D01*
X291845Y190645D01*
X292820Y190451D01*
X293795Y190645D01*
X294622Y191198D01*
X295175Y192025D01*
X295369Y193000D01*
X295175Y193975D01*
X294622Y194802D01*
X294115Y195141D01*
Y221972D01*
X296322Y224179D01*
X296765Y225250D01*
Y237303D01*
X298007Y237773D01*
X298885Y237035D01*
Y223745D01*
X299328Y222674D01*
X323578Y198424D01*
X323469Y197873D01*
X323682Y196800D01*
X324290Y195890D01*
X325200Y195282D01*
X326273Y195069D01*
X327346Y195282D01*
X328255Y195890D01*
X328462Y196199D01*
X329993Y196464D01*
X331106Y195351D01*
X330996Y194800D01*
X331210Y193727D01*
X331817Y192817D01*
X332727Y192210D01*
X333800Y191996D01*
X334873Y192210D01*
X335783Y192817D01*
X336390Y193727D01*
X336604Y194800D01*
X336390Y195873D01*
X335783Y196783D01*
X334873Y197390D01*
X333800Y197604D01*
X333249Y197494D01*
X307265Y223478D01*
Y237435D01*
X308378Y237986D01*
X308915Y237752D01*
X309427Y237410D01*
X310500Y237196D01*
X311312Y237358D01*
X311966Y236813D01*
X312270Y236352D01*
X312185Y236147D01*
Y233253D01*
X312628Y232182D01*
X317082Y227729D01*
X317423Y226602D01*
X317410Y226582D01*
X317196Y225509D01*
X317410Y224436D01*
X318017Y223526D01*
X318485Y223214D01*
Y217000D01*
X318929Y215928D01*
X338485Y196372D01*
Y179628D01*
X336928Y178071D01*
X336485Y177000D01*
Y162025D01*
X336928Y160954D01*
X338035Y159847D01*
X337968Y159508D01*
X338162Y158533D01*
X338715Y157706D01*
X339542Y157153D01*
X340517Y156959D01*
X341097Y157074D01*
X342029Y156673D01*
X342470Y156279D01*
X342811Y155456D01*
X346218Y152049D01*
X346151Y151710D01*
X346345Y150735D01*
X346898Y149908D01*
X347724Y149355D01*
X348700Y149161D01*
X349675Y149355D01*
X350502Y149908D01*
X351055Y150735D01*
X351249Y151710D01*
X351055Y152686D01*
X350502Y153512D01*
X349675Y154065D01*
X348700Y154259D01*
X348361Y154192D01*
X345870Y156683D01*
X345964Y157120D01*
X346059Y157200D01*
X347366Y157595D01*
X347724Y157355D01*
X348700Y157161D01*
X349675Y157355D01*
X350502Y157908D01*
X351055Y158735D01*
X351249Y159710D01*
X351181Y160049D01*
X352489Y161356D01*
X352932Y162427D01*
Y165353D01*
X354202Y165738D01*
X354445Y165375D01*
X355272Y164822D01*
X356248Y164628D01*
X357223Y164822D01*
X358050Y165375D01*
X359640Y165467D01*
X361549Y163558D01*
Y155340D01*
X361262Y155148D01*
X360709Y154321D01*
X360515Y153346D01*
X360709Y152371D01*
X361262Y151544D01*
X362089Y150991D01*
X363064Y150797D01*
X364039Y150991D01*
X364866Y151544D01*
X365419Y152371D01*
X365613Y153346D01*
X365419Y154321D01*
X364866Y155148D01*
X364579Y155340D01*
Y164186D01*
X364136Y165257D01*
X360415Y168978D01*
Y186100D01*
X360202Y186615D01*
X360898Y187849D01*
X360946Y187885D01*
X364747D01*
X376582Y176049D01*
X376515Y175710D01*
X376709Y174735D01*
X377262Y173908D01*
X378089Y173355D01*
X379064Y173161D01*
X380039Y173355D01*
X380867Y173908D01*
X381419Y174735D01*
X381613Y175710D01*
X381419Y176686D01*
X380867Y177512D01*
X380039Y178065D01*
X379064Y178259D01*
X378726Y178192D01*
X366446Y190471D01*
X365374Y190915D01*
X365182D01*
X364542Y192185D01*
X364832Y192576D01*
X369185D01*
X373241Y188520D01*
X374389Y188045D01*
X386668D01*
X387816Y188520D01*
X392748Y193452D01*
X393224Y194600D01*
Y195687D01*
X393475Y195884D01*
X394494Y196250D01*
X395025Y195895D01*
X396000Y195701D01*
X396975Y195895D01*
X397802Y196448D01*
X398355Y197275D01*
X398485Y197929D01*
X399398Y198543D01*
X399761Y198668D01*
X400600Y198501D01*
X400802Y198541D01*
X401428Y197371D01*
X398829Y194771D01*
X398385Y193700D01*
Y185375D01*
X397477Y184734D01*
X397115Y184622D01*
X396200Y184804D01*
X395127Y184590D01*
X394217Y183983D01*
X393610Y183073D01*
X393396Y182000D01*
X393610Y180927D01*
X394217Y180017D01*
X394685Y179705D01*
Y174628D01*
X390129Y170072D01*
X390025Y169821D01*
X389263Y169590D01*
X388288Y169784D01*
X387312Y169590D01*
X386485Y169038D01*
X385933Y168211D01*
X385738Y167235D01*
X385933Y166260D01*
X386485Y165433D01*
X387312Y164880D01*
X388288Y164686D01*
X388415Y164712D01*
X389685Y163751D01*
Y154928D01*
X388639Y153882D01*
X388300Y153949D01*
X387325Y153755D01*
X386498Y153202D01*
X385945Y152375D01*
X385751Y151400D01*
X385945Y150425D01*
X386498Y149598D01*
X387325Y149045D01*
X388300Y148851D01*
X389275Y149045D01*
X390102Y149598D01*
X390655Y150425D01*
X390849Y151400D01*
X390782Y151739D01*
X392271Y153229D01*
X392715Y154300D01*
Y156745D01*
X393985Y157424D01*
X394089Y157355D01*
X395064Y157161D01*
X396040Y157355D01*
X396866Y157908D01*
X397419Y158735D01*
X397613Y159710D01*
X397419Y160686D01*
X396866Y161513D01*
X396040Y162065D01*
X395064Y162259D01*
X394902Y162227D01*
X393989Y162905D01*
X394902Y163583D01*
X395064Y163551D01*
X396040Y163745D01*
X396866Y164298D01*
X397419Y165125D01*
X397613Y166100D01*
X397546Y166439D01*
X399771Y168664D01*
X400215Y169736D01*
Y171881D01*
X401031Y172237D01*
X401485Y172339D01*
X402225Y171845D01*
X403200Y171651D01*
X404175Y171845D01*
X405002Y172398D01*
X405555Y173225D01*
X405749Y174200D01*
X405555Y175175D01*
X405002Y176002D01*
X404175Y176555D01*
X403200Y176749D01*
X402254Y176561D01*
X402221Y176556D01*
X400870Y177177D01*
X400795Y177652D01*
X400971Y177829D01*
X401415Y178900D01*
Y193072D01*
X406671Y198328D01*
X407115Y199400D01*
Y210972D01*
X409571Y213428D01*
X410015Y214500D01*
Y217601D01*
X409571Y218673D01*
X404705Y223540D01*
X404861Y224866D01*
X405242Y224941D01*
X406068Y225494D01*
X406133Y225591D01*
X407715Y225806D01*
X412685Y220836D01*
Y193300D01*
X413129Y192229D01*
X417618Y187739D01*
X417551Y187400D01*
X417745Y186425D01*
X418298Y185598D01*
X419125Y185045D01*
X420100Y184851D01*
X420975Y185025D01*
X422085Y184309D01*
X422188Y183233D01*
X418937Y179982D01*
X418598Y180049D01*
X417623Y179855D01*
X416796Y179302D01*
X416243Y178475D01*
X416049Y177500D01*
X416243Y176525D01*
X416796Y175698D01*
X417623Y175145D01*
X418598Y174951D01*
X419574Y175145D01*
X420401Y175698D01*
X420953Y176525D01*
X421147Y177500D01*
X421080Y177839D01*
X424972Y181730D01*
X425415Y182802D01*
Y189800D01*
X424972Y190872D01*
X419015Y196828D01*
Y221300D01*
X418572Y222372D01*
X404332Y236611D01*
X404818Y237785D01*
X432172D01*
X436129Y233829D01*
X437200Y233385D01*
X444772D01*
X446318Y231839D01*
X446251Y231500D01*
X446445Y230525D01*
X446998Y229698D01*
X447825Y229145D01*
X448800Y228951D01*
X449775Y229145D01*
X450017Y229306D01*
X451160Y228542D01*
X451151Y228500D01*
X451345Y227525D01*
X451581Y227171D01*
X451614Y227121D01*
X450962Y226468D01*
D01*
X450942Y226449D01*
D01*
X450824Y226331D01*
X450824Y226331D01*
X450699Y226206D01*
X450667Y226227D01*
X450475Y226355D01*
X449500Y226549D01*
X448525Y226355D01*
X447698Y225802D01*
X447145Y224975D01*
X446951Y224000D01*
X447145Y223025D01*
X447698Y222198D01*
X447849Y222097D01*
X448177Y220878D01*
X448027Y220548D01*
X447645Y219975D01*
X447451Y219000D01*
X447645Y218025D01*
X448198Y217198D01*
X449025Y216645D01*
X450000Y216451D01*
X450975Y216645D01*
X451802Y217198D01*
X452355Y218025D01*
X452465Y218576D01*
X453279Y219206D01*
X453775Y219345D01*
X454500Y219201D01*
X455475Y219395D01*
X456302Y219948D01*
X456855Y220775D01*
X457049Y221750D01*
X456855Y222725D01*
X456302Y223552D01*
X455475Y224105D01*
X454500Y224299D01*
X453525Y224105D01*
X453380Y224009D01*
X452224Y224489D01*
X452077Y225078D01*
X452235Y225338D01*
X453115Y226067D01*
X453700Y225951D01*
X454675Y226145D01*
X455502Y226698D01*
X456055Y227525D01*
X456249Y228500D01*
X456055Y229475D01*
X455502Y230302D01*
X454675Y230855D01*
X453700Y231049D01*
X452725Y230855D01*
X452483Y230694D01*
X451340Y231458D01*
X451349Y231500D01*
X451155Y232475D01*
X450602Y233302D01*
X449775Y233855D01*
X448800Y234049D01*
X448461Y233982D01*
X446471Y235972D01*
X445400Y236415D01*
X443520D01*
X443134Y237685D01*
X443302Y237798D01*
X443855Y238625D01*
X444049Y239600D01*
X443855Y240575D01*
X443302Y241402D01*
X442475Y241955D01*
X441500Y242149D01*
X441161Y242082D01*
X438871Y244371D01*
X437800Y244815D01*
X402795D01*
X402483Y245283D01*
X401573Y245890D01*
X400500Y246104D01*
X399427Y245890D01*
X398517Y245283D01*
X397096Y245441D01*
X396573Y245790D01*
X395500Y246004D01*
X394427Y245790D01*
X393517Y245183D01*
X392910Y244273D01*
X392696Y243200D01*
X392910Y242127D01*
X393517Y241217D01*
X394427Y240610D01*
X395112Y240473D01*
X395254Y240285D01*
X394622Y239015D01*
X378926D01*
X378006Y240285D01*
X378049Y240500D01*
X377855Y241475D01*
X377302Y242302D01*
X376475Y242855D01*
X375500Y243049D01*
X374525Y242855D01*
X373698Y242302D01*
X372402D01*
X371575Y242855D01*
X370600Y243049D01*
X369625Y242855D01*
X368798Y242302D01*
X368245Y241475D01*
X368051Y240500D01*
X368094Y240285D01*
X367174Y239015D01*
X363296D01*
X352939Y249371D01*
X351868Y249815D01*
D02*
G37*
G36*
X512750Y246439D02*
Y242750D01*
X516439D01*
X516239Y243756D01*
X515244Y245244D01*
X513756Y246239D01*
X512750Y246439D01*
D02*
G37*
G36*
X511250D02*
X510244Y246239D01*
X508756Y245244D01*
X507761Y243756D01*
X507561Y242750D01*
X511250D01*
Y246439D01*
D02*
G37*
G36*
X496750D02*
Y242750D01*
X500439D01*
X500239Y243756D01*
X499244Y245244D01*
X497756Y246239D01*
X496750Y246439D01*
D02*
G37*
G36*
X495250D02*
X494244Y246239D01*
X492756Y245244D01*
X491761Y243756D01*
X491561Y242750D01*
X495250D01*
Y246439D01*
D02*
G37*
G36*
X230000Y241549D02*
X229025Y241355D01*
X228198Y240802D01*
X227802D01*
X226975Y241355D01*
X226000Y241549D01*
X225025Y241355D01*
X224198Y240802D01*
X223645Y239975D01*
X223451Y239000D01*
X223645Y238025D01*
X224198Y237198D01*
Y236802D01*
X223645Y235975D01*
X223451Y235000D01*
X223645Y234025D01*
X223675Y233980D01*
X224110Y233000D01*
X223675Y232020D01*
X223645Y231975D01*
X223451Y231000D01*
X223645Y230025D01*
X224198Y229198D01*
X225025Y228645D01*
X226000Y228451D01*
X226975Y228645D01*
X227802Y229198D01*
X228355Y230025D01*
X228549Y231000D01*
X228436Y231566D01*
X228538Y231751D01*
X229248Y232462D01*
X229434Y232564D01*
X230000Y232451D01*
X230975Y232645D01*
X231802Y233198D01*
X232355Y234025D01*
X232549Y235000D01*
X232355Y235975D01*
X231802Y236802D01*
Y237198D01*
X232355Y238025D01*
X232549Y239000D01*
X232355Y239975D01*
X231802Y240802D01*
X230975Y241355D01*
X230000Y241549D01*
D02*
G37*
G36*
X516439Y241250D02*
X512750D01*
Y237561D01*
X513756Y237761D01*
X515244Y238756D01*
X516239Y240244D01*
X516439Y241250D01*
D02*
G37*
G36*
X511250D02*
X507561D01*
X507761Y240244D01*
X508756Y238756D01*
X510244Y237761D01*
X511250Y237561D01*
Y241250D01*
D02*
G37*
G36*
X500439D02*
X496750D01*
Y237561D01*
X497756Y237761D01*
X499244Y238756D01*
X500239Y240244D01*
X500439Y241250D01*
D02*
G37*
G36*
X495250D02*
X491561D01*
X491761Y240244D01*
X492756Y238756D01*
X494244Y237761D01*
X495250Y237561D01*
Y241250D01*
D02*
G37*
G36*
X195727Y239149D02*
X194751Y238955D01*
X193924Y238402D01*
X193372Y237575D01*
X193178Y236600D01*
X193372Y235625D01*
X193924Y234798D01*
X194751Y234245D01*
X195727Y234051D01*
X196702Y234245D01*
X197529Y234798D01*
X198081Y235625D01*
X198276Y236600D01*
X198081Y237575D01*
X197529Y238402D01*
X196702Y238955D01*
X195727Y239149D01*
D02*
G37*
G36*
X520000Y231078D02*
X518439Y230768D01*
X517116Y229884D01*
X516764Y229356D01*
X515236D01*
X514884Y229884D01*
X513561Y230768D01*
X512000Y231078D01*
X510439Y230768D01*
X509116Y229884D01*
X508764Y229356D01*
X507236D01*
X506884Y229884D01*
X505561Y230768D01*
X504000Y231078D01*
X502439Y230768D01*
X501116Y229884D01*
X500764Y229356D01*
X499236D01*
X498884Y229884D01*
X497561Y230768D01*
X496000Y231078D01*
X494439Y230768D01*
X493116Y229884D01*
X492764Y229356D01*
X491236D01*
X490884Y229884D01*
X489561Y230768D01*
X488000Y231078D01*
X486439Y230768D01*
X485116Y229884D01*
X484232Y228561D01*
X483922Y227000D01*
X484232Y225439D01*
X485116Y224116D01*
X486439Y223232D01*
X488000Y222922D01*
X489561Y223232D01*
X490884Y224116D01*
X491236Y224644D01*
X492764D01*
X493116Y224116D01*
X494439Y223232D01*
X496000Y222922D01*
X497561Y223232D01*
X498884Y224116D01*
X499236Y224644D01*
X500764D01*
X501116Y224116D01*
X502439Y223232D01*
X504000Y222922D01*
X505561Y223232D01*
X506884Y224116D01*
X507236Y224644D01*
X508764D01*
X509116Y224116D01*
X510439Y223232D01*
X512000Y222922D01*
X513561Y223232D01*
X514884Y224116D01*
X515236Y224644D01*
X516764D01*
X517116Y224116D01*
X518439Y223232D01*
X520000Y222922D01*
X521561Y223232D01*
X522884Y224116D01*
X523768Y225439D01*
X524078Y227000D01*
X523768Y228561D01*
X522884Y229884D01*
X521561Y230768D01*
X520000Y231078D01*
D02*
G37*
G36*
X473300Y225249D02*
X472325Y225055D01*
X472211Y224979D01*
X471250Y224600D01*
X470289Y224979D01*
X470175Y225055D01*
X469200Y225249D01*
X468225Y225055D01*
X468180Y225025D01*
X467200Y224590D01*
X466220Y225025D01*
X466175Y225055D01*
X465200Y225249D01*
X464225Y225055D01*
X463398Y224502D01*
X462845Y223675D01*
X462651Y222700D01*
X462845Y221725D01*
X463398Y220898D01*
X464225Y220345D01*
X464985Y220194D01*
Y145400D01*
X465429Y144328D01*
X477918Y131839D01*
X477851Y131500D01*
X478045Y130525D01*
X478598Y129698D01*
X479425Y129145D01*
X480400Y128951D01*
X481375Y129145D01*
X482065Y129606D01*
X483198Y130198D01*
X484025Y129645D01*
X485000Y129451D01*
X485975Y129645D01*
X486802Y130198D01*
X487355Y131025D01*
X487549Y132000D01*
X487355Y132975D01*
X486802Y133802D01*
X485975Y134355D01*
X485000Y134549D01*
X484661Y134482D01*
X480462Y138681D01*
X479390Y139125D01*
X477917D01*
X470715Y146326D01*
Y150363D01*
X471985Y150616D01*
X472229Y150028D01*
X479218Y143039D01*
X480289Y142595D01*
X485262D01*
X489575Y138282D01*
X489539Y138102D01*
X489733Y137127D01*
X490285Y136300D01*
X491112Y135747D01*
X492088Y135554D01*
X493063Y135747D01*
X493890Y136300D01*
X494443Y137127D01*
X494637Y138102D01*
X494443Y139078D01*
X493890Y139905D01*
X493063Y140457D01*
X492088Y140651D01*
X491590Y140553D01*
X486961Y145182D01*
X485890Y145626D01*
X480917D01*
X474815Y151728D01*
Y154246D01*
X476085Y154772D01*
X477518Y153339D01*
X477451Y153000D01*
X477645Y152025D01*
X478198Y151198D01*
X479025Y150645D01*
X480000Y150451D01*
X480975Y150645D01*
X481802Y151198D01*
X482355Y152025D01*
X482549Y153000D01*
X482355Y153975D01*
X481802Y154802D01*
X480975Y155355D01*
X480000Y155549D01*
X479661Y155482D01*
X478015Y157128D01*
Y177542D01*
X478285Y177750D01*
X479285Y178104D01*
X479823Y177745D01*
X480799Y177551D01*
X481774Y177745D01*
X482601Y178298D01*
X483154Y179125D01*
X483348Y180100D01*
X483154Y181075D01*
X482601Y181902D01*
X481774Y182455D01*
X480799Y182649D01*
X479823Y182455D01*
X479285Y182096D01*
X478285Y182451D01*
X478015Y182658D01*
Y220074D01*
X478875Y220245D01*
X479702Y220798D01*
X480255Y221625D01*
X480449Y222600D01*
X480255Y223575D01*
X479702Y224402D01*
X478875Y224955D01*
X477900Y225149D01*
X476925Y224955D01*
X476098Y224402D01*
X475169D01*
X475102Y224502D01*
X474275Y225055D01*
X473300Y225249D01*
D02*
G37*
G36*
X545244Y246681D02*
X542111Y246269D01*
X539192Y245060D01*
X536685Y243137D01*
X534762Y240630D01*
X533553Y237711D01*
X533140Y234578D01*
X533553Y231445D01*
X534762Y228526D01*
X536685Y226019D01*
X539192Y224096D01*
X542111Y222887D01*
X545244Y222474D01*
X548377Y222887D01*
X551296Y224096D01*
X553802Y226019D01*
X555726Y228526D01*
X556935Y231445D01*
X557348Y234578D01*
X556935Y237711D01*
X555726Y240630D01*
X553802Y243137D01*
X551296Y245060D01*
X548377Y246269D01*
X545244Y246681D01*
D02*
G37*
G36*
X532250Y217799D02*
X531275Y217605D01*
X530448Y217052D01*
X529895Y216225D01*
X529772Y215609D01*
X528478D01*
X528355Y216225D01*
X527802Y217052D01*
X526975Y217605D01*
X526000Y217799D01*
X525025Y217605D01*
X524198Y217052D01*
X523645Y216225D01*
X523451Y215250D01*
X523645Y214275D01*
X524198Y213448D01*
X525025Y212895D01*
X526000Y212701D01*
X526975Y212895D01*
X527802Y213448D01*
X528355Y214275D01*
X528478Y214891D01*
X529772D01*
X529895Y214275D01*
X530448Y213448D01*
X531275Y212895D01*
X532250Y212701D01*
X533225Y212895D01*
X534052Y213448D01*
X534605Y214275D01*
X534799Y215250D01*
X534605Y216225D01*
X534052Y217052D01*
X533225Y217605D01*
X532250Y217799D01*
D02*
G37*
G36*
X181000Y219549D02*
X180025Y219355D01*
X179198Y218802D01*
X178645Y217975D01*
X178451Y217000D01*
X178645Y216025D01*
X179198Y215198D01*
X180025Y214645D01*
X181000Y214451D01*
X181975Y214645D01*
X182802Y215198D01*
X183355Y216025D01*
X183549Y217000D01*
X183355Y217975D01*
X182802Y218802D01*
X181975Y219355D01*
X181000Y219549D01*
D02*
G37*
G36*
X512750Y217799D02*
X511775Y217605D01*
X510948Y217052D01*
X510395Y216225D01*
X510201Y215250D01*
X510395Y214275D01*
X510948Y213448D01*
X511775Y212895D01*
X512750Y212701D01*
X513725Y212895D01*
X514552Y213448D01*
X515105Y214275D01*
X515299Y215250D01*
X515105Y216225D01*
X514552Y217052D01*
X513725Y217605D01*
X512750Y217799D01*
D02*
G37*
G36*
X315500Y203054D02*
X314427Y202840D01*
X313535Y202244D01*
X313514Y202231D01*
X312302Y201802D01*
X311475Y202355D01*
X310500Y202549D01*
X309525Y202355D01*
X308698Y201802D01*
X307302Y201802D01*
X306476Y202355D01*
X305500Y202549D01*
X304525Y202355D01*
X303698Y201802D01*
X303145Y200975D01*
X302951Y200000D01*
X303145Y199025D01*
X303698Y198198D01*
X304525Y197645D01*
X305500Y197451D01*
X306476Y197645D01*
X307302Y198198D01*
X308698Y198198D01*
X309525Y197645D01*
X310500Y197451D01*
X311475Y197645D01*
X312199Y198129D01*
X312302Y198198D01*
X312385Y198202D01*
X313766Y198102D01*
X314427Y197660D01*
X315500Y197446D01*
X316051Y197556D01*
X326004Y187603D01*
X327075Y187160D01*
X327640D01*
X327829Y186209D01*
X328437Y185299D01*
X329347Y184691D01*
X330420Y184478D01*
X331493Y184691D01*
X332402Y185299D01*
X333010Y186209D01*
X333223Y187282D01*
X333010Y188355D01*
X332402Y189264D01*
X331493Y189872D01*
X330420Y190086D01*
X329347Y189872D01*
X329238Y189800D01*
X328296Y190190D01*
X327703D01*
X318194Y199699D01*
X318304Y200250D01*
X318090Y201323D01*
X317483Y202233D01*
X316573Y202840D01*
X315500Y203054D01*
D02*
G37*
G36*
X255100Y212549D02*
X254125Y212355D01*
X253298Y211802D01*
X252745Y210975D01*
X252551Y210000D01*
X251900Y209349D01*
X250925Y209155D01*
X250098Y208602D01*
X249545Y207775D01*
X249351Y206800D01*
X249545Y205825D01*
X249962Y205200D01*
X249545Y204575D01*
X249351Y203600D01*
X249545Y202625D01*
X250098Y201798D01*
X250925Y201245D01*
X251900Y201051D01*
X252875Y201245D01*
X253500Y201662D01*
X254125Y201245D01*
X255100Y201051D01*
X256075Y201245D01*
X256902Y201798D01*
X257455Y202625D01*
X257649Y203600D01*
X257455Y204575D01*
X257038Y205200D01*
X257455Y205825D01*
X257649Y206800D01*
X257455Y207775D01*
X257038Y208400D01*
X257455Y209025D01*
X257649Y210000D01*
X257455Y210975D01*
X256902Y211802D01*
X256075Y212355D01*
X255100Y212549D01*
D02*
G37*
G36*
X539200Y202649D02*
X538225Y202455D01*
X537398Y201902D01*
X536845Y201075D01*
X536651Y200100D01*
X536845Y199125D01*
X537398Y198298D01*
X538225Y197745D01*
X539200Y197551D01*
X540175Y197745D01*
X541002Y198298D01*
X541555Y199125D01*
X541749Y200100D01*
X541555Y201075D01*
X541002Y201902D01*
X540175Y202455D01*
X539200Y202649D01*
D02*
G37*
G36*
X298000Y202560D02*
X297025Y202366D01*
X296198Y201814D01*
X295645Y200987D01*
X295451Y200011D01*
X295645Y199036D01*
X296198Y198209D01*
X297025Y197656D01*
X298000Y197462D01*
X298975Y197656D01*
X299802Y198209D01*
X300355Y199036D01*
X300549Y200011D01*
X300355Y200987D01*
X299802Y201814D01*
X298975Y202366D01*
X298000Y202560D01*
D02*
G37*
G36*
X519500Y202299D02*
X518525Y202105D01*
X517698Y201552D01*
X517145Y200725D01*
X516951Y199750D01*
X517145Y198775D01*
X517698Y197948D01*
X518525Y197395D01*
X519500Y197201D01*
X520475Y197395D01*
X521302Y197948D01*
X521855Y198775D01*
X522049Y199750D01*
X521855Y200725D01*
X521302Y201552D01*
X520475Y202105D01*
X519500Y202299D01*
D02*
G37*
G36*
X281000Y201592D02*
X280025Y201398D01*
X279198Y200845D01*
X278645Y200018D01*
X278451Y199043D01*
X278645Y198068D01*
X279198Y197241D01*
X280025Y196688D01*
X281000Y196494D01*
X281975Y196688D01*
X282000Y196704D01*
X283198Y197198D01*
X284025Y196645D01*
X285000Y196451D01*
X285975Y196645D01*
X286802Y197198D01*
X287355Y198025D01*
X287549Y199000D01*
X287355Y199975D01*
X286802Y200802D01*
X285975Y201355D01*
X285000Y201549D01*
X284025Y201355D01*
X284000Y201339D01*
X282802Y200845D01*
X281975Y201398D01*
X281000Y201592D01*
D02*
G37*
G36*
X299200Y193914D02*
X298225Y193720D01*
X297398Y193168D01*
X296845Y192341D01*
X296651Y191366D01*
X296845Y190390D01*
X297398Y189563D01*
X298225Y189011D01*
X299200Y188817D01*
X300175Y189011D01*
X301002Y189563D01*
X301555Y190390D01*
X301749Y191366D01*
X301555Y192341D01*
X301002Y193168D01*
X300175Y193720D01*
X299200Y193914D01*
D02*
G37*
G36*
X193000Y188549D02*
X192025Y188355D01*
X191198Y187802D01*
X190645Y186975D01*
X190451Y186000D01*
X190645Y185025D01*
X191198Y184198D01*
X192025Y183645D01*
X193000Y183451D01*
X193975Y183645D01*
X194802Y184198D01*
X195355Y185025D01*
X195549Y186000D01*
X195355Y186975D01*
X194802Y187802D01*
X193975Y188355D01*
X193000Y188549D01*
D02*
G37*
G36*
X233000Y183549D02*
X232025Y183355D01*
X231198Y182802D01*
X230802D01*
X229975Y183355D01*
X229000Y183549D01*
X228025Y183355D01*
X227198Y182802D01*
X226645Y181975D01*
X226451Y181000D01*
X226645Y180025D01*
X227198Y179198D01*
Y178802D01*
X226645Y177975D01*
X226451Y177000D01*
X226645Y176025D01*
X227198Y175198D01*
X228025Y174645D01*
X229000Y174451D01*
X229975Y174645D01*
X230802Y175198D01*
X231198D01*
X232025Y174645D01*
X233000Y174451D01*
X233975Y174645D01*
X234802Y175198D01*
X235355Y176025D01*
X235549Y177000D01*
X235355Y177975D01*
X234802Y178802D01*
Y179198D01*
X235355Y180025D01*
X235549Y181000D01*
X235355Y181975D01*
X234802Y182802D01*
X233975Y183355D01*
X233000Y183549D01*
D02*
G37*
G36*
X115551Y187397D02*
X114576Y187202D01*
X113749Y186650D01*
X113196Y185823D01*
X113002Y184848D01*
X113196Y183872D01*
X113749Y183045D01*
X114576Y182493D01*
X115551Y182299D01*
X116526Y182493D01*
X117353Y183045D01*
X117906Y183872D01*
X118100Y184848D01*
X117906Y185823D01*
X117353Y186650D01*
X116526Y187202D01*
X115551Y187397D01*
D02*
G37*
G36*
X177000Y187299D02*
X176025Y187105D01*
X175198Y186552D01*
X174645Y185725D01*
X174451Y184750D01*
X174645Y183775D01*
X175198Y182948D01*
X176025Y182395D01*
X177000Y182201D01*
X177975Y182395D01*
X178802Y182948D01*
X179355Y183775D01*
X179549Y184750D01*
X179355Y185725D01*
X178802Y186552D01*
X177975Y187105D01*
X177000Y187299D01*
D02*
G37*
G36*
X201779Y186716D02*
X200804Y186522D01*
X199977Y185970D01*
X199424Y185143D01*
X199230Y184167D01*
X199424Y183192D01*
X199977Y182365D01*
X200804Y181812D01*
X201779Y181618D01*
X202755Y181812D01*
X203582Y182365D01*
X204134Y183192D01*
X204328Y184167D01*
X204134Y185143D01*
X203582Y185970D01*
X202755Y186522D01*
X201779Y186716D01*
D02*
G37*
G36*
X411109Y186658D02*
X410133Y186464D01*
X409306Y185911D01*
X408754Y185084D01*
X408560Y184109D01*
X408754Y183133D01*
X409306Y182306D01*
X410133Y181754D01*
X411109Y181560D01*
X412084Y181754D01*
X412911Y182306D01*
X413464Y183133D01*
X413658Y184109D01*
X413464Y185084D01*
X412911Y185911D01*
X412084Y186464D01*
X411109Y186658D01*
D02*
G37*
G36*
X149200Y183549D02*
X148225Y183355D01*
X147398Y182802D01*
X146845Y181975D01*
X146651Y181000D01*
X146845Y180025D01*
X147398Y179198D01*
X148225Y178645D01*
X149200Y178451D01*
X150175Y178645D01*
X151002Y179198D01*
X151555Y180025D01*
X151749Y181000D01*
X151555Y181975D01*
X151002Y182802D01*
X150175Y183355D01*
X149200Y183549D01*
D02*
G37*
G36*
X162495Y186205D02*
X160934Y185895D01*
X159611Y185011D01*
X158727Y183687D01*
X158416Y182127D01*
X158727Y180566D01*
X159611Y179243D01*
X160934Y178359D01*
X162495Y178048D01*
X164055Y178359D01*
X165378Y179243D01*
X166262Y180566D01*
X166573Y182127D01*
X166262Y183687D01*
X165378Y185011D01*
X164055Y185895D01*
X162495Y186205D01*
D02*
G37*
G36*
X123959Y180549D02*
X122984Y180355D01*
X122157Y179802D01*
X121604Y178975D01*
X121410Y178000D01*
X121604Y177025D01*
X122157Y176198D01*
X122984Y175645D01*
X123959Y175451D01*
X124935Y175645D01*
X125761Y176198D01*
X126314Y177025D01*
X126508Y178000D01*
X126314Y178975D01*
X125761Y179802D01*
X124935Y180355D01*
X123959Y180549D01*
D02*
G37*
G36*
X300500Y178949D02*
X299525Y178755D01*
X298698Y178202D01*
X298145Y177375D01*
X297951Y176400D01*
X298145Y175425D01*
X298698Y174598D01*
X299525Y174045D01*
X300500Y173851D01*
X301475Y174045D01*
X302302Y174598D01*
X302855Y175425D01*
X303049Y176400D01*
X302855Y177375D01*
X302302Y178202D01*
X301475Y178755D01*
X300500Y178949D01*
D02*
G37*
G36*
X275346Y178833D02*
X273786Y178522D01*
X272463Y177638D01*
X271579Y176315D01*
X271268Y174755D01*
X271579Y173194D01*
X272463Y171871D01*
X273786Y170987D01*
X275346Y170676D01*
X276907Y170987D01*
X278230Y171871D01*
X279114Y173194D01*
X279425Y174755D01*
X279114Y176315D01*
X278230Y177638D01*
X276907Y178522D01*
X275346Y178833D01*
D02*
G37*
G36*
X403064Y168649D02*
X402089Y168455D01*
X401262Y167902D01*
X400709Y167075D01*
X400515Y166100D01*
X400709Y165125D01*
X401262Y164298D01*
X402089Y163745D01*
X403064Y163551D01*
X404040Y163745D01*
X404866Y164298D01*
X405419Y165125D01*
X405613Y166100D01*
X405419Y167075D01*
X404866Y167902D01*
X404040Y168455D01*
X403064Y168649D01*
D02*
G37*
G36*
X315064Y163895D02*
X314089Y163701D01*
X313262Y163148D01*
X312709Y162321D01*
X312515Y161346D01*
X312709Y160371D01*
X313262Y159544D01*
X314089Y158991D01*
X315064Y158797D01*
X316040Y158991D01*
X316866Y159544D01*
X317419Y160371D01*
X317613Y161346D01*
X317419Y162321D01*
X316866Y163148D01*
X316040Y163701D01*
X315064Y163895D01*
D02*
G37*
G36*
X194000Y158549D02*
X193025Y158355D01*
X192198Y157802D01*
X191802D01*
X190975Y158355D01*
X190000Y158549D01*
X189025Y158355D01*
X188198Y157802D01*
X187802D01*
X186975Y158355D01*
X186000Y158549D01*
X185025Y158355D01*
X185009Y158345D01*
X184072Y157842D01*
X183375Y158062D01*
X183267Y158040D01*
X183164Y158082D01*
X174794D01*
X174029Y157765D01*
X174029Y157765D01*
X158235Y141971D01*
X157918Y141206D01*
Y124365D01*
X158058Y124025D01*
X158074Y123975D01*
X158069Y123923D01*
X158103Y123882D01*
X158167Y123674D01*
X158270Y123549D01*
X158460Y123449D01*
X158596Y123284D01*
X159762Y122665D01*
X159817Y122660D01*
X159856Y122621D01*
X160222D01*
X160587Y122586D01*
X160630Y122621D01*
X160684D01*
X160918Y122718D01*
X161482D01*
X162003Y122502D01*
X162261Y122244D01*
X162360Y122145D01*
Y122145D01*
X162360Y122145D01*
X162474Y122028D01*
X162414Y120499D01*
X162378Y120466D01*
X162310Y120405D01*
Y120405D01*
X162230Y120326D01*
X162003Y120098D01*
X161482Y119882D01*
X160918D01*
X160684Y119979D01*
X160629D01*
X160587Y120014D01*
X160222Y119979D01*
X159856D01*
X159817Y119941D01*
X159762Y119935D01*
X158596Y119316D01*
X158460Y119151D01*
X158270Y119051D01*
X158167Y118926D01*
X158103Y118719D01*
X158069Y118677D01*
X158074Y118625D01*
X158058Y118575D01*
X157918Y118235D01*
X157918Y103582D01*
X157962Y103475D01*
X157940Y103362D01*
X158115Y103104D01*
X158235Y102816D01*
X158341Y102772D01*
X158406Y102677D01*
X158922Y102338D01*
X159037Y102316D01*
X159121Y102234D01*
X159875Y101939D01*
X160279Y101946D01*
X160684D01*
X161218Y102168D01*
X161782D01*
X162303Y101952D01*
X162485Y101770D01*
X162485Y101770D01*
X163250Y101453D01*
X163513Y101562D01*
X163513Y101562D01*
X164015Y101770D01*
X164015Y101770D01*
X164197Y101952D01*
X164686Y102154D01*
X165860Y101895D01*
X166625Y101578D01*
X166625Y101578D01*
X166625Y101578D01*
X166961Y101717D01*
X166961D01*
X167033Y101747D01*
X167390Y101895D01*
X167447Y101952D01*
X167968Y102168D01*
X168532D01*
X169053Y101952D01*
X169452Y101553D01*
X169668Y101032D01*
Y100468D01*
X169452Y99947D01*
X169158Y99653D01*
X169038Y99363D01*
X168862Y99103D01*
X168708Y98340D01*
X168750Y98125D01*
X168708Y97910D01*
X168862Y97147D01*
X169038Y96887D01*
X169158Y96597D01*
X169452Y96303D01*
X169668Y95782D01*
Y95218D01*
X169452Y94697D01*
X169020Y94265D01*
X168703Y93500D01*
X169020Y92735D01*
X169020Y92734D01*
X169452Y92303D01*
X169668Y91782D01*
Y91218D01*
X169452Y90697D01*
X169053Y90298D01*
X168532Y90082D01*
X167968D01*
X167447Y90298D01*
X167390Y90355D01*
X166625Y90672D01*
X166625Y90672D01*
X166625Y90672D01*
X166231Y90509D01*
X165860Y90355D01*
X165860Y90355D01*
X165860Y90355D01*
X165803Y90298D01*
X165282Y90082D01*
X164718D01*
X164197Y90298D01*
X164015Y90480D01*
X163513Y90688D01*
X163250Y90797D01*
X163250D01*
X162485Y90480D01*
X162303Y90298D01*
X161782Y90082D01*
X161218D01*
X160684Y90303D01*
X160279D01*
X159875Y90311D01*
X159121Y90015D01*
X159037Y89934D01*
X158922Y89913D01*
X158406Y89573D01*
X158341Y89478D01*
X158235Y89434D01*
X158115Y89146D01*
X157940Y88888D01*
X157962Y88775D01*
X157918Y88668D01*
Y87000D01*
X158235Y86235D01*
X158235Y86235D01*
X180240Y64230D01*
X180198Y63802D01*
X179645Y62975D01*
X179451Y62000D01*
X179645Y61025D01*
X180198Y60198D01*
X181025Y59645D01*
X182000Y59451D01*
X182975Y59645D01*
X183802Y60198D01*
X184230Y60240D01*
X185235Y59235D01*
X186000Y58918D01*
X245357D01*
X245648Y59038D01*
X245958Y59100D01*
X246020Y59192D01*
X246122Y59235D01*
X246243Y59526D01*
X246317Y59637D01*
X247000Y59719D01*
X247683Y59637D01*
X247757Y59526D01*
X247878Y59235D01*
X247980Y59192D01*
X248042Y59100D01*
X248351Y59038D01*
X248643Y58918D01*
X262000D01*
X262000Y58917D01*
X262765Y59235D01*
X262766Y59235D01*
X263721Y60191D01*
X263804Y60389D01*
X263956Y60542D01*
Y60757D01*
X264038Y60956D01*
X263956Y61155D01*
Y61370D01*
X263724Y61930D01*
Y62494D01*
X263940Y63015D01*
X264338Y63414D01*
X264860Y63630D01*
X265423D01*
X265984Y63398D01*
X266199D01*
X266398Y63315D01*
X266597Y63398D01*
X266812D01*
X266964Y63550D01*
X267163Y63632D01*
X270765Y67235D01*
X271082Y68000D01*
Y138000D01*
X271082Y138000D01*
X270765Y138765D01*
X262083Y147448D01*
X262058Y147530D01*
X262255Y147825D01*
X262449Y148800D01*
X262255Y149775D01*
X261702Y150602D01*
X260875Y151155D01*
X259900Y151349D01*
X258925Y151155D01*
X258432Y150826D01*
X257143Y151286D01*
X256876Y151715D01*
X256609Y152473D01*
X256500Y152737D01*
X256462Y153019D01*
X256347Y153106D01*
X256292Y153239D01*
X254589Y154942D01*
X254438Y155004D01*
X254629Y155968D01*
X254435Y156944D01*
X253883Y157771D01*
X253056Y158323D01*
X252080Y158517D01*
X251105Y158323D01*
X250440Y157879D01*
X249775Y158323D01*
X248800Y158517D01*
X247825Y158323D01*
X247100Y157839D01*
X246375Y158323D01*
X245400Y158517D01*
X244425Y158323D01*
X244416Y158317D01*
X243433Y157828D01*
X242754Y158062D01*
X242645Y158040D01*
X242543Y158082D01*
X196836D01*
X196733Y158040D01*
X196625Y158062D01*
X195928Y157842D01*
X194991Y158345D01*
X194975Y158355D01*
X194000Y158549D01*
D02*
G37*
G36*
X356300Y162849D02*
X355325Y162655D01*
X354498Y162102D01*
X353945Y161275D01*
X353751Y160300D01*
X353945Y159325D01*
X354498Y158498D01*
X355325Y157945D01*
X356300Y157751D01*
X357275Y157945D01*
X358102Y158498D01*
X358655Y159325D01*
X358849Y160300D01*
X358655Y161275D01*
X358102Y162102D01*
X357275Y162655D01*
X356300Y162849D01*
D02*
G37*
G36*
X542000Y162549D02*
X541025Y162355D01*
X540198Y161802D01*
X539645Y160975D01*
X539451Y160000D01*
X539645Y159025D01*
X540198Y158198D01*
X541025Y157645D01*
X542000Y157451D01*
X542975Y157645D01*
X543802Y158198D01*
X544355Y159025D01*
X544549Y160000D01*
X544355Y160975D01*
X543802Y161802D01*
X542975Y162355D01*
X542000Y162549D01*
D02*
G37*
G36*
X529400D02*
X528425Y162355D01*
X527598Y161802D01*
X527045Y160975D01*
X526851Y160000D01*
X527045Y159025D01*
X527598Y158198D01*
X528425Y157645D01*
X529400Y157451D01*
X530375Y157645D01*
X531202Y158198D01*
X531755Y159025D01*
X531949Y160000D01*
X531755Y160975D01*
X531202Y161802D01*
X530375Y162355D01*
X529400Y162549D01*
D02*
G37*
G36*
X379064Y162209D02*
X378089Y162015D01*
X377262Y161462D01*
X376709Y160636D01*
X376515Y159660D01*
X376709Y158685D01*
X377262Y157858D01*
X378089Y157305D01*
X379064Y157111D01*
X380039Y157305D01*
X380867Y157858D01*
X381419Y158685D01*
X381613Y159660D01*
X381419Y160636D01*
X380867Y161462D01*
X380039Y162015D01*
X379064Y162209D01*
D02*
G37*
G36*
X370300Y161749D02*
X369325Y161555D01*
X368498Y161002D01*
X367945Y160175D01*
X367751Y159200D01*
X367945Y158225D01*
X368498Y157398D01*
X369325Y156845D01*
X370300Y156651D01*
X371275Y156845D01*
X372102Y157398D01*
X372655Y158225D01*
X372849Y159200D01*
X372655Y160175D01*
X372102Y161002D01*
X371275Y161555D01*
X370300Y161749D01*
D02*
G37*
G36*
X316700Y156249D02*
X315724Y156055D01*
X314897Y155502D01*
X314345Y154675D01*
X314151Y153700D01*
X314345Y152725D01*
X314897Y151898D01*
X315724Y151345D01*
X316700Y151151D01*
X317675Y151345D01*
X318502Y151898D01*
X319055Y152725D01*
X319249Y153700D01*
X319055Y154675D01*
X318502Y155502D01*
X317675Y156055D01*
X316700Y156249D01*
D02*
G37*
G36*
X156278Y155657D02*
X155302Y155463D01*
X154475Y154911D01*
X153923Y154084D01*
X153729Y153108D01*
X153923Y152133D01*
X154475Y151306D01*
X155302Y150753D01*
X156278Y150559D01*
X157253Y150753D01*
X158080Y151306D01*
X158633Y152133D01*
X158827Y153108D01*
X158633Y154084D01*
X158080Y154911D01*
X157253Y155463D01*
X156278Y155657D01*
D02*
G37*
G36*
X291800Y160649D02*
X290825Y160455D01*
X289998Y159902D01*
X289445Y159075D01*
X289251Y158100D01*
X289445Y157125D01*
X289998Y156298D01*
X290825Y155745D01*
X291800Y155551D01*
X292165Y154329D01*
X292245Y153925D01*
X292798Y153098D01*
X293625Y152545D01*
X294600Y152351D01*
X295575Y152545D01*
X295868Y152740D01*
X295911Y152763D01*
X297055Y152006D01*
X297045Y151875D01*
X297002Y151661D01*
X296851Y150900D01*
X297045Y149925D01*
X297598Y149098D01*
X298425Y148545D01*
X299400Y148351D01*
X300375Y148545D01*
X301202Y149098D01*
X301755Y149925D01*
X301949Y150900D01*
X301755Y151875D01*
X301202Y152702D01*
X300375Y153255D01*
X299400Y153449D01*
X298425Y153255D01*
X298132Y153060D01*
X298089Y153037D01*
X296945Y153794D01*
X296955Y153925D01*
X296998Y154139D01*
X297149Y154900D01*
X296955Y155875D01*
X296402Y156702D01*
X295575Y157255D01*
X294600Y157449D01*
X294235Y158671D01*
X294155Y159075D01*
X293602Y159902D01*
X292775Y160455D01*
X291800Y160649D01*
D02*
G37*
G36*
X529674Y152449D02*
X528699Y152255D01*
X527872Y151702D01*
X527319Y150875D01*
X527125Y149900D01*
X527319Y148925D01*
X527872Y148098D01*
X528699Y147545D01*
X529674Y147351D01*
X530649Y147545D01*
X531476Y148098D01*
X532029Y148925D01*
X532223Y149900D01*
X532029Y150875D01*
X531476Y151702D01*
X530649Y152255D01*
X529674Y152449D01*
D02*
G37*
G36*
X395064Y146259D02*
X394089Y146065D01*
X393262Y145513D01*
X392709Y144686D01*
X392515Y143710D01*
X392709Y142735D01*
X393262Y141908D01*
X394089Y141355D01*
X395064Y141161D01*
X396040Y141355D01*
X396866Y141908D01*
X397419Y142735D01*
X397613Y143710D01*
X397419Y144686D01*
X396866Y145513D01*
X396040Y146065D01*
X395064Y146259D01*
D02*
G37*
G36*
X387064D02*
X386089Y146065D01*
X385262Y145513D01*
X384709Y144686D01*
X384515Y143710D01*
X384709Y142735D01*
X385262Y141908D01*
X386089Y141355D01*
X387064Y141161D01*
X388040Y141355D01*
X388867Y141908D01*
X389419Y142735D01*
X389613Y143710D01*
X389419Y144686D01*
X388867Y145513D01*
X388040Y146065D01*
X387064Y146259D01*
D02*
G37*
G36*
X289199Y145948D02*
X288224Y145754D01*
X287397Y145202D01*
X286845Y144375D01*
X286650Y143399D01*
X286845Y142424D01*
X287397Y141597D01*
X288224Y141044D01*
X289199Y140850D01*
X290175Y141044D01*
X291002Y141597D01*
X291554Y142424D01*
X291748Y143399D01*
X291554Y144375D01*
X291002Y145202D01*
X290175Y145754D01*
X289199Y145948D01*
D02*
G37*
G36*
X120293Y140589D02*
X119318Y140395D01*
X118491Y139843D01*
X117938Y139016D01*
X117744Y138040D01*
X117938Y137065D01*
X118491Y136238D01*
X119318Y135685D01*
X120293Y135491D01*
X121269Y135685D01*
X122096Y136238D01*
X122648Y137065D01*
X122842Y138040D01*
X122648Y139016D01*
X122096Y139843D01*
X121269Y140395D01*
X120293Y140589D01*
D02*
G37*
G36*
X535500Y140299D02*
X534525Y140105D01*
X533698Y139552D01*
X533145Y138726D01*
X532951Y137750D01*
X533145Y136775D01*
X533698Y135948D01*
X534525Y135395D01*
X535500Y135201D01*
X536475Y135395D01*
X537302Y135948D01*
X537855Y136775D01*
X538049Y137750D01*
X537855Y138726D01*
X537302Y139552D01*
X536475Y140105D01*
X535500Y140299D01*
D02*
G37*
G36*
X323064Y139895D02*
X322089Y139701D01*
X321262Y139148D01*
X320709Y138321D01*
X320515Y137346D01*
X320709Y136370D01*
X321262Y135543D01*
X322089Y134991D01*
X323064Y134797D01*
X324039Y134991D01*
X324866Y135543D01*
X325419Y136370D01*
X325613Y137346D01*
X325419Y138321D01*
X324866Y139148D01*
X324039Y139701D01*
X323064Y139895D01*
D02*
G37*
G36*
X299200Y135249D02*
X298225Y135055D01*
X297398Y134502D01*
X296845Y133675D01*
X296651Y132700D01*
X296845Y131725D01*
X297398Y130898D01*
X298225Y130345D01*
X299200Y130151D01*
X300175Y130345D01*
X301002Y130898D01*
X301555Y131725D01*
X301749Y132700D01*
X301555Y133675D01*
X301002Y134502D01*
X300175Y135055D01*
X299200Y135249D01*
D02*
G37*
G36*
X75750Y144049D02*
X74775Y143855D01*
X73948Y143302D01*
X73395Y142475D01*
X73201Y141500D01*
X73395Y140525D01*
X73948Y139698D01*
X74126Y139578D01*
Y132250D01*
X74602Y131102D01*
X75285Y130419D01*
X75201Y130000D01*
X75395Y129025D01*
X75948Y128198D01*
X76775Y127645D01*
X77750Y127451D01*
X78725Y127645D01*
X79552Y128198D01*
X80105Y129025D01*
X80299Y130000D01*
X80105Y130976D01*
X79552Y131802D01*
X78725Y132355D01*
X77750Y132549D01*
X77374Y133710D01*
Y139578D01*
X77552Y139698D01*
X78105Y140525D01*
X78299Y141500D01*
X78105Y142475D01*
X77552Y143302D01*
X76725Y143855D01*
X75750Y144049D01*
D02*
G37*
G36*
X324700Y132245D02*
X323724Y132051D01*
X322897Y131498D01*
X322345Y130672D01*
X322151Y129696D01*
X322345Y128721D01*
X322897Y127894D01*
X323724Y127341D01*
X324700Y127147D01*
X325675Y127341D01*
X326502Y127894D01*
X327055Y128721D01*
X327249Y129696D01*
X327055Y130672D01*
X326502Y131498D01*
X325675Y132051D01*
X324700Y132245D01*
D02*
G37*
G36*
X379064Y131895D02*
X378089Y131701D01*
X377262Y131148D01*
X376709Y130321D01*
X376515Y129346D01*
X376709Y128371D01*
X377262Y127543D01*
X378089Y126991D01*
X379064Y126797D01*
X380039Y126991D01*
X380867Y127543D01*
X381419Y128371D01*
X381613Y129346D01*
X381419Y130321D01*
X380867Y131148D01*
X380039Y131701D01*
X379064Y131895D01*
D02*
G37*
G36*
X316700D02*
X315724Y131701D01*
X314897Y131148D01*
X314345Y130321D01*
X314151Y129346D01*
X314345Y128371D01*
X314897Y127543D01*
X315724Y126991D01*
X316700Y126797D01*
X317675Y126991D01*
X318502Y127543D01*
X319055Y128371D01*
X319249Y129346D01*
X319055Y130321D01*
X318502Y131148D01*
X317675Y131701D01*
X316700Y131895D01*
D02*
G37*
G36*
X290821Y127728D02*
X289846Y127534D01*
X289019Y126981D01*
X288466Y126154D01*
X288272Y125179D01*
X288466Y124203D01*
X289019Y123376D01*
X289846Y122824D01*
X290821Y122630D01*
X291797Y122824D01*
X292624Y123376D01*
X293176Y124203D01*
X293370Y125179D01*
X293176Y126154D01*
X292624Y126981D01*
X291797Y127534D01*
X290821Y127728D01*
D02*
G37*
G36*
X285347Y124201D02*
X284372Y124007D01*
X283545Y123454D01*
X282992Y122627D01*
X282798Y121652D01*
X282992Y120676D01*
X283545Y119849D01*
X284372Y119297D01*
X285347Y119103D01*
X286322Y119297D01*
X287149Y119849D01*
X287702Y120676D01*
X287896Y121652D01*
X287702Y122627D01*
X287149Y123454D01*
X286322Y124007D01*
X285347Y124201D01*
D02*
G37*
G36*
X403064Y153349D02*
X402089Y153155D01*
X401262Y152602D01*
X400709Y151775D01*
X400515Y150800D01*
X400709Y149825D01*
X401262Y148998D01*
X402089Y148445D01*
X403064Y148251D01*
X403403Y148318D01*
X405585Y146136D01*
Y115200D01*
X406029Y114129D01*
X408599Y111559D01*
X409670Y111115D01*
X409972D01*
X416283Y104804D01*
Y65299D01*
X415899Y64581D01*
X415766Y64555D01*
X414939Y64002D01*
X414386Y63175D01*
X414192Y62200D01*
X414386Y61224D01*
X414939Y60397D01*
X415766Y59845D01*
X416741Y59651D01*
X417717Y59845D01*
X417776Y59884D01*
X418939Y60431D01*
X419766Y59878D01*
X420741Y59684D01*
X421716Y59878D01*
X422543Y60431D01*
X423096Y61258D01*
X423290Y62233D01*
X423096Y63208D01*
X422543Y64036D01*
X421716Y64588D01*
X420741Y64782D01*
X420505Y64735D01*
X419314Y65927D01*
Y105432D01*
X418870Y106503D01*
X411671Y113702D01*
X410600Y114145D01*
X410298D01*
X408615Y115828D01*
Y118448D01*
X409885Y119127D01*
X410089Y118991D01*
X411064Y118797D01*
X412039Y118991D01*
X412867Y119544D01*
X413419Y120371D01*
X413613Y121346D01*
X413419Y122321D01*
X412867Y123148D01*
X412039Y123701D01*
X411064Y123895D01*
X410089Y123701D01*
X409885Y123565D01*
X408615Y124244D01*
Y146764D01*
X408172Y147836D01*
X405546Y150461D01*
X405613Y150800D01*
X405419Y151775D01*
X404866Y152602D01*
X404040Y153155D01*
X403064Y153349D01*
D02*
G37*
G36*
X473000Y118549D02*
X472025Y118355D01*
X471256Y117842D01*
X470488Y118355D01*
X469512Y118549D01*
X468537Y118355D01*
X467906Y117933D01*
X467275Y118355D01*
X466300Y118549D01*
X465325Y118355D01*
X464498Y117802D01*
X463945Y116975D01*
X463751Y116000D01*
X463945Y115025D01*
X464498Y114198D01*
X465325Y113645D01*
X466300Y113451D01*
X467275Y113645D01*
X467906Y114067D01*
X468537Y113645D01*
X469512Y113451D01*
X470488Y113645D01*
X471256Y114158D01*
X472025Y113645D01*
X473000Y113451D01*
X473975Y113645D01*
X474802Y114198D01*
X475355Y115025D01*
X475549Y116000D01*
X475355Y116975D01*
X474802Y117802D01*
X473975Y118355D01*
X473000Y118549D01*
D02*
G37*
G36*
X307100Y121549D02*
X306125Y121355D01*
X305298Y120802D01*
X304745Y119975D01*
X304551Y119000D01*
X304745Y118025D01*
X305298Y117198D01*
X306125Y116645D01*
X307100Y116451D01*
X308075Y116645D01*
X308902Y117198D01*
X309455Y118025D01*
X309649Y119000D01*
X309455Y119975D01*
X308902Y120802D01*
X308075Y121355D01*
X307100Y121549D01*
D02*
G37*
G36*
X498000Y117549D02*
X497025Y117355D01*
X496198Y116802D01*
X495645Y115975D01*
X495451Y115000D01*
X495645Y114025D01*
X496198Y113198D01*
X497025Y112645D01*
X498000Y112451D01*
X498975Y112645D01*
X499373Y112911D01*
X500203Y112985D01*
X500930Y112599D01*
X501198Y112198D01*
X502025Y111645D01*
X503000Y111451D01*
X503975Y111645D01*
X504802Y112198D01*
X505355Y113025D01*
X505549Y114000D01*
X505355Y114975D01*
X504802Y115802D01*
X503975Y116355D01*
X503000Y116549D01*
X502025Y116355D01*
X501627Y116089D01*
X500797Y116015D01*
X500070Y116401D01*
X499802Y116802D01*
X498975Y117355D01*
X498000Y117549D01*
D02*
G37*
G36*
X311882Y107077D02*
X310907Y106883D01*
X310295Y106474D01*
X309725Y106855D01*
X308750Y107049D01*
X307775Y106855D01*
X306948Y106302D01*
X306395Y105475D01*
X306201Y104500D01*
X306395Y103525D01*
X306948Y102698D01*
X307775Y102145D01*
X308750Y101951D01*
X309725Y102145D01*
X310337Y102554D01*
X310907Y102173D01*
X311882Y101979D01*
X312857Y102173D01*
X313684Y102726D01*
X314237Y103553D01*
X314431Y104528D01*
X314237Y105504D01*
X313684Y106330D01*
X312857Y106883D01*
X311882Y107077D01*
D02*
G37*
G36*
X506100Y106349D02*
X505125Y106155D01*
X504298Y105602D01*
X503202Y105502D01*
X502938Y105679D01*
X502375Y106055D01*
X501400Y106249D01*
X500425Y106055D01*
X499598Y105502D01*
X498302D01*
X497475Y106055D01*
X496500Y106249D01*
X495525Y106055D01*
X494698Y105502D01*
X494145Y104675D01*
X493951Y103700D01*
X494145Y102725D01*
X494698Y101898D01*
X495525Y101345D01*
X496500Y101151D01*
X497475Y101345D01*
X498302Y101898D01*
X499598D01*
X500425Y101345D01*
X501400Y101151D01*
X502375Y101345D01*
X503202Y101898D01*
X504298Y101998D01*
X504562Y101821D01*
X505125Y101445D01*
X506100Y101251D01*
X507075Y101445D01*
X507902Y101998D01*
X508455Y102825D01*
X508649Y103800D01*
X508455Y104775D01*
X507902Y105602D01*
X507075Y106155D01*
X506100Y106349D01*
D02*
G37*
G36*
X486304Y107385D02*
X485328Y107191D01*
X484501Y106638D01*
X483949Y105812D01*
X483755Y104836D01*
X483949Y103861D01*
X484501Y103034D01*
X485328Y102481D01*
X486304Y102287D01*
X487279Y102481D01*
X488106Y103034D01*
X488659Y103861D01*
X488853Y104836D01*
X488659Y105812D01*
X488106Y106638D01*
X487279Y107191D01*
X486304Y107385D01*
D02*
G37*
G36*
X512700Y106349D02*
X511725Y106155D01*
X510898Y105602D01*
X510345Y104775D01*
X510151Y103800D01*
X510345Y102825D01*
X510898Y101998D01*
X511725Y101445D01*
X512700Y101251D01*
X513675Y101445D01*
X514502Y101998D01*
X515055Y102825D01*
X515249Y103800D01*
X515055Y104775D01*
X514502Y105602D01*
X513675Y106155D01*
X512700Y106349D01*
D02*
G37*
G36*
X546354Y105673D02*
X545379Y105479D01*
X544552Y104926D01*
X543999Y104099D01*
X543805Y103124D01*
X543999Y102149D01*
X544552Y101322D01*
X545379Y100769D01*
X546354Y100575D01*
X547329Y100769D01*
X548156Y101322D01*
X548709Y102149D01*
X548903Y103124D01*
X548709Y104099D01*
X548156Y104926D01*
X547329Y105479D01*
X546354Y105673D01*
D02*
G37*
G36*
X538988D02*
X538013Y105479D01*
X537186Y104926D01*
X536633Y104099D01*
X536439Y103124D01*
X536633Y102149D01*
X537186Y101322D01*
X538013Y100769D01*
X538988Y100575D01*
X539963Y100769D01*
X540790Y101322D01*
X541343Y102149D01*
X541537Y103124D01*
X541343Y104099D01*
X540790Y104926D01*
X539963Y105479D01*
X538988Y105673D01*
D02*
G37*
G36*
X473049Y105398D02*
X472074Y105204D01*
X471247Y104652D01*
X470695Y103825D01*
X470500Y102849D01*
X470695Y101874D01*
X471247Y101047D01*
X472074Y100494D01*
X473049Y100301D01*
X474025Y100494D01*
X474852Y101047D01*
X475404Y101874D01*
X475598Y102849D01*
X475404Y103825D01*
X474852Y104652D01*
X474025Y105204D01*
X473049Y105398D01*
D02*
G37*
G36*
X410800Y91949D02*
X409825Y91755D01*
X408998Y91202D01*
X408445Y90375D01*
X408251Y89400D01*
X408445Y88425D01*
X408998Y87598D01*
X409825Y87045D01*
X410800Y86851D01*
X411775Y87045D01*
X412602Y87598D01*
X413155Y88425D01*
X413349Y89400D01*
X413155Y90375D01*
X412602Y91202D01*
X411775Y91755D01*
X410800Y91949D01*
D02*
G37*
G36*
X458427Y89906D02*
X457452Y89712D01*
X456625Y89160D01*
X456072Y88333D01*
X455878Y87357D01*
X456072Y86382D01*
X456625Y85555D01*
X457452Y85002D01*
X458427Y84808D01*
X459403Y85002D01*
X460229Y85555D01*
X460782Y86382D01*
X460976Y87357D01*
X460782Y88333D01*
X460229Y89160D01*
X459403Y89712D01*
X458427Y89906D01*
D02*
G37*
G36*
X508940Y85114D02*
X507965Y84920D01*
X507138Y84368D01*
X505938Y84497D01*
X504963Y84691D01*
X503987Y84497D01*
X503160Y83945D01*
X502608Y83118D01*
X502414Y82142D01*
X502608Y81167D01*
X503160Y80340D01*
X503987Y79787D01*
X504963Y79593D01*
X505566Y79713D01*
X505988Y79466D01*
X506455Y79056D01*
X506672Y78750D01*
Y74204D01*
X507148Y73056D01*
X511126Y69078D01*
Y63536D01*
X505512Y57922D01*
X504338Y58527D01*
X504144Y59502D01*
X503591Y60329D01*
X502764Y60882D01*
X501789Y61076D01*
X501313Y62276D01*
X501231Y62687D01*
X500678Y63514D01*
X499851Y64066D01*
X498876Y64260D01*
X497901Y64066D01*
X497074Y63514D01*
X496521Y62687D01*
X496327Y61711D01*
X496521Y60736D01*
X497074Y59909D01*
X497219Y59812D01*
X497279Y59573D01*
X497132Y58343D01*
X496698Y58052D01*
X496145Y57225D01*
X495951Y56250D01*
X496072Y55644D01*
X495486Y54633D01*
X495220Y54374D01*
X489750D01*
X488602Y53898D01*
X484602Y49898D01*
X484126Y48750D01*
Y44172D01*
X483948Y44052D01*
X483395Y43225D01*
X483201Y42250D01*
X483395Y41275D01*
X483948Y40448D01*
X484775Y39895D01*
X485750Y39701D01*
X486725Y39895D01*
X487552Y40448D01*
X488105Y41275D01*
X488299Y42250D01*
X488105Y43225D01*
X487552Y44052D01*
X487374Y44172D01*
Y48078D01*
X490423Y51126D01*
X502637D01*
X503785Y51602D01*
X513898Y61715D01*
X514374Y62863D01*
Y69750D01*
X513898Y70898D01*
X509919Y74877D01*
Y78393D01*
X509944Y78417D01*
X510419Y79565D01*
Y80547D01*
X510743Y80763D01*
X511295Y81590D01*
X511489Y82565D01*
X511295Y83541D01*
X510743Y84368D01*
X509916Y84920D01*
X508940Y85114D01*
D02*
G37*
G36*
X515000Y86914D02*
X514025Y86720D01*
X513198Y86168D01*
X512645Y85341D01*
X512451Y84365D01*
X512645Y83390D01*
X513198Y82563D01*
X514025Y82010D01*
X515000Y81816D01*
X515975Y82010D01*
X516802Y82563D01*
X517355Y83390D01*
X517549Y84365D01*
X517355Y85341D01*
X516802Y86168D01*
X515975Y86720D01*
X515000Y86914D01*
D02*
G37*
G36*
X387908Y83849D02*
X386933Y83655D01*
X386106Y83102D01*
X385553Y82275D01*
X385359Y81300D01*
X385553Y80325D01*
X386106Y79498D01*
X386933Y78945D01*
X387908Y78751D01*
X388884Y78945D01*
X389711Y79498D01*
X390263Y80325D01*
X390457Y81300D01*
X390263Y82275D01*
X389711Y83102D01*
X388884Y83655D01*
X387908Y83849D01*
D02*
G37*
G36*
X328830Y82569D02*
X327854Y82375D01*
X327028Y81822D01*
X326475Y80995D01*
X326281Y80020D01*
X326475Y79045D01*
X327028Y78218D01*
X327854Y77665D01*
X328830Y77471D01*
X329805Y77665D01*
X330632Y78218D01*
X331185Y79045D01*
X331379Y80020D01*
X331185Y80995D01*
X330632Y81822D01*
X329805Y82375D01*
X328830Y82569D01*
D02*
G37*
G36*
X491026Y84278D02*
X490050Y84084D01*
X489223Y83532D01*
X488671Y82705D01*
X488477Y81729D01*
X488671Y80754D01*
X489223Y79927D01*
X490050Y79374D01*
X491026Y79180D01*
X492001Y79374D01*
X493048Y78546D01*
X493448Y77948D01*
X494275Y77395D01*
X495250Y77201D01*
X496225Y77395D01*
X497052Y77948D01*
X497605Y78775D01*
X497799Y79750D01*
X497605Y80725D01*
X497052Y81552D01*
X496225Y82105D01*
X495250Y82299D01*
X494275Y82105D01*
X493228Y82933D01*
X492828Y83532D01*
X492001Y84084D01*
X491026Y84278D01*
D02*
G37*
G36*
X524510Y73669D02*
X523535Y73475D01*
X522708Y72922D01*
X522155Y72095D01*
X521961Y71120D01*
X522155Y70145D01*
X522708Y69318D01*
X523535Y68765D01*
X524510Y68571D01*
X525485Y68765D01*
X526312Y69318D01*
X526865Y70145D01*
X527059Y71120D01*
X526865Y72095D01*
X526312Y72922D01*
X525485Y73475D01*
X524510Y73669D01*
D02*
G37*
G36*
X105950Y92624D02*
X104975Y92430D01*
X104148Y91878D01*
X103595Y91051D01*
X103401Y90075D01*
X103595Y89100D01*
X104148Y88273D01*
X103707Y87040D01*
X103664Y86975D01*
X103470Y86000D01*
X103664Y85024D01*
X103758Y84883D01*
X104129Y83959D01*
X103768Y82970D01*
X103689Y82852D01*
X103495Y81876D01*
X103689Y80901D01*
X103235Y79765D01*
X101235Y77765D01*
X100918Y77000D01*
Y67000D01*
X101235Y66235D01*
X103235Y64235D01*
X104000Y63918D01*
X115000D01*
X115000Y63917D01*
X115765Y64235D01*
X115765Y64235D01*
X118765Y67235D01*
X119082Y68000D01*
Y77000D01*
X118765Y77765D01*
X116765Y79765D01*
X116000Y80082D01*
X109263D01*
X108489Y81352D01*
X108593Y81876D01*
X108399Y82852D01*
X108304Y82993D01*
X107934Y83918D01*
X108295Y84906D01*
X108374Y85024D01*
X108568Y86000D01*
X108374Y86975D01*
X107821Y87802D01*
X108262Y89035D01*
X108305Y89100D01*
X108499Y90075D01*
X108305Y91051D01*
X107752Y91878D01*
X106925Y92430D01*
X105950Y92624D01*
D02*
G37*
G36*
X531347Y52640D02*
X530372Y52446D01*
X529545Y51893D01*
X528992Y51066D01*
X528798Y50091D01*
X528992Y49115D01*
X529545Y48288D01*
X530372Y47736D01*
X531347Y47542D01*
X532322Y47736D01*
X533149Y48288D01*
X533702Y49115D01*
X533896Y50091D01*
X533702Y51066D01*
X533149Y51893D01*
X532322Y52446D01*
X531347Y52640D01*
D02*
G37*
G36*
X545244Y36682D02*
X542111Y36269D01*
X539192Y35060D01*
X536685Y33136D01*
X534762Y30630D01*
X533553Y27711D01*
X533140Y24578D01*
X533553Y21445D01*
X534762Y18526D01*
X536685Y16020D01*
X539192Y14096D01*
X542111Y12887D01*
X545244Y12474D01*
X548377Y12887D01*
X551296Y14096D01*
X553802Y16020D01*
X555726Y18526D01*
X556935Y21445D01*
X557348Y24578D01*
X556935Y27711D01*
X555726Y30630D01*
X553802Y33136D01*
X551296Y35060D01*
X548377Y36269D01*
X545244Y36682D01*
D02*
G37*
%LPD*%
G36*
X359372Y234485D02*
X358846Y233215D01*
X342794D01*
X342683Y233383D01*
X341773Y233990D01*
X340700Y234204D01*
X339627Y233990D01*
X338717Y233383D01*
X338110Y232473D01*
X338019Y232020D01*
X336664Y231579D01*
X334615Y233628D01*
Y236900D01*
X334171Y237971D01*
X332815Y239328D01*
Y242000D01*
X332371Y243071D01*
X332132Y243311D01*
X332618Y244485D01*
X349372D01*
X359372Y234485D01*
D02*
G37*
G36*
X381174Y232315D02*
X381151Y232200D01*
X381345Y231225D01*
X381898Y230398D01*
X382725Y229845D01*
X383700Y229651D01*
X384675Y229845D01*
X385502Y230398D01*
X386798D01*
X387625Y229845D01*
X388600Y229651D01*
X389575Y229845D01*
X390210Y230269D01*
X390864Y230127D01*
X391500Y229754D01*
X391645Y229025D01*
X392198Y228198D01*
X393025Y227645D01*
X393811Y227489D01*
X394012Y227433D01*
X394773Y226310D01*
X394751Y226200D01*
X394945Y225225D01*
X395498Y224398D01*
X395742Y224234D01*
X396294Y223698D01*
X396066Y222607D01*
X396045Y222575D01*
X395851Y221600D01*
X396045Y220625D01*
X396429Y220050D01*
X396698Y218702D01*
X396521Y218438D01*
X396145Y217875D01*
X395951Y216900D01*
X396145Y215925D01*
X396698Y215098D01*
X397525Y214545D01*
X398500Y214351D01*
X399106Y214472D01*
X400117Y213886D01*
X400376Y213620D01*
Y209473D01*
X390452Y199548D01*
X389363Y200030D01*
X389557Y201005D01*
X389363Y201981D01*
X388810Y202808D01*
X387983Y203361D01*
X387008Y203554D01*
X386032Y203361D01*
X385205Y202808D01*
X384653Y201981D01*
X384554Y201486D01*
X383295Y200986D01*
X383259Y200986D01*
X380423Y203821D01*
Y213992D01*
X379979Y215064D01*
X362728Y232315D01*
X363254Y233585D01*
X380207D01*
X381174Y232315D01*
D02*
G37*
G36*
X370785Y211372D02*
Y201603D01*
X370729Y201566D01*
X370177Y200739D01*
X369983Y199763D01*
X370177Y198788D01*
X370729Y197961D01*
X371556Y197409D01*
X372532Y197215D01*
X373507Y197409D01*
X374552Y196641D01*
X374604Y196472D01*
X374095Y195267D01*
X373998Y195202D01*
X373577Y194573D01*
X372660Y194290D01*
X372122Y194232D01*
X371006Y195348D01*
X369857Y195824D01*
X363923D01*
X363683Y196183D01*
X362773Y196790D01*
X361700Y197004D01*
X360627Y196790D01*
X360585Y196763D01*
X359315Y197441D01*
Y203700D01*
X358871Y204771D01*
X357315Y206328D01*
Y218612D01*
X356871Y219684D01*
X354384Y222171D01*
X354197Y222788D01*
X354355Y223025D01*
X354549Y224000D01*
X354526Y224115D01*
X355493Y225385D01*
X356772D01*
X370785Y211372D01*
D02*
G37*
G36*
X242900Y156466D02*
Y155471D01*
X243281Y154552D01*
X243984Y153849D01*
X244903Y153468D01*
X245897D01*
X246816Y153849D01*
X247100Y154133D01*
X247384Y153849D01*
X248303Y153468D01*
X249297D01*
X250216Y153849D01*
X250440Y154073D01*
X250664Y153849D01*
X251583Y153468D01*
X252578D01*
X253496Y153849D01*
X253824Y154176D01*
X255527Y152473D01*
X255153Y151051D01*
X254835Y150919D01*
X254132Y150216D01*
X253751Y149297D01*
Y148303D01*
X254132Y147384D01*
X254835Y146681D01*
X255754Y146300D01*
X256748D01*
X257667Y146681D01*
X258076Y147089D01*
X258484Y146681D01*
X259403Y146300D01*
X260397D01*
X261316Y146681D01*
X261318Y146682D01*
X270000Y138000D01*
Y68000D01*
X266398Y64398D01*
X265639Y64712D01*
X264644D01*
X263725Y64332D01*
X263022Y63628D01*
X262642Y62709D01*
Y61715D01*
X262956Y60956D01*
X262000Y60000D01*
X248643D01*
X248391Y61270D01*
X248416Y61281D01*
X249119Y61984D01*
X249500Y62903D01*
Y63897D01*
X249119Y64816D01*
X248416Y65519D01*
X247497Y65900D01*
X246503D01*
X245584Y65519D01*
X244881Y64816D01*
X244500Y63897D01*
Y62903D01*
X244881Y61984D01*
X245584Y61281D01*
X245609Y61270D01*
X245357Y60000D01*
X186000D01*
X184499Y61501D01*
X184500Y61503D01*
Y62497D01*
X184119Y63416D01*
X183416Y64119D01*
X182497Y64500D01*
X181503D01*
X181501Y64499D01*
X159000Y87000D01*
Y88668D01*
X159517Y89008D01*
X160270Y89304D01*
X161003Y89000D01*
X161997D01*
X162916Y89381D01*
X163250Y89714D01*
X163584Y89381D01*
X164503Y89000D01*
X165497D01*
X166416Y89381D01*
X166625Y89590D01*
X166834Y89381D01*
X167753Y89000D01*
X168747D01*
X169666Y89381D01*
X170369Y90084D01*
X170750Y91003D01*
Y91997D01*
X170369Y92916D01*
X169785Y93500D01*
X170369Y94084D01*
X170750Y95003D01*
Y95997D01*
X170369Y96916D01*
X169923Y97362D01*
X169769Y98125D01*
X169923Y98888D01*
X170369Y99334D01*
X170750Y100253D01*
Y101247D01*
X170369Y102166D01*
X169666Y102869D01*
X168747Y103250D01*
X167753D01*
X166834Y102869D01*
X166625Y102661D01*
X166416Y102869D01*
X165497Y103250D01*
X164503D01*
X163584Y102869D01*
X163250Y102535D01*
X162916Y102869D01*
X161997Y103250D01*
X161003D01*
X160270Y102947D01*
X159517Y103242D01*
X159000Y103582D01*
X159000Y118235D01*
X159103Y118360D01*
X160270Y118979D01*
X160703Y118800D01*
X161697D01*
X162616Y119181D01*
X163075Y119640D01*
X163584Y119131D01*
X164503Y118750D01*
X165497D01*
X166416Y119131D01*
X167000Y119714D01*
X167584Y119131D01*
X168503Y118750D01*
X169497D01*
X170416Y119131D01*
X171119Y119834D01*
X171500Y120753D01*
Y121747D01*
X171119Y122666D01*
X170416Y123369D01*
X169509Y123745D01*
X169545Y123834D01*
Y124829D01*
X169165Y125747D01*
X168801Y126111D01*
X169116Y126426D01*
X169496Y127345D01*
Y128340D01*
X169116Y129258D01*
X168412Y129962D01*
X167494Y130342D01*
X166499D01*
X165580Y129962D01*
X164877Y129258D01*
X164496Y128340D01*
Y127345D01*
X164877Y126426D01*
X165241Y126062D01*
X164926Y125747D01*
X164545Y124829D01*
Y123834D01*
X164550Y123821D01*
X164503Y123750D01*
X163584Y123369D01*
X163125Y122910D01*
X162616Y123419D01*
X161697Y123800D01*
X160703D01*
X160270Y123621D01*
X159103Y124240D01*
X159000Y124365D01*
Y141206D01*
X174794Y157000D01*
X183164D01*
X183500Y156497D01*
Y155503D01*
X183881Y154584D01*
X184584Y153881D01*
X185503Y153500D01*
X186497D01*
X187416Y153881D01*
X188000Y154465D01*
X188584Y153881D01*
X189503Y153500D01*
X190497D01*
X191416Y153881D01*
X192000Y154465D01*
X192584Y153881D01*
X193503Y153500D01*
X194497D01*
X195416Y153881D01*
X196119Y154584D01*
X196500Y155503D01*
Y156497D01*
X196836Y157000D01*
X242543D01*
X242900Y156466D01*
D02*
G37*
%LPC*%
G36*
X210092Y144908D02*
X209098D01*
X208179Y144528D01*
X207476Y143824D01*
X207095Y142906D01*
Y141911D01*
X207476Y140992D01*
X208179Y140289D01*
X209098Y139908D01*
X210092D01*
X211011Y140289D01*
X211714Y140992D01*
X212095Y141911D01*
Y142906D01*
X211714Y143824D01*
X211011Y144528D01*
X210092Y144908D01*
D02*
G37*
G36*
X218997Y119000D02*
X218003D01*
X217084Y118619D01*
X216381Y117916D01*
X216000Y116997D01*
Y116003D01*
X216381Y115084D01*
X217084Y114381D01*
X218003Y114000D01*
X218997D01*
X219916Y114381D01*
X220619Y115084D01*
X221000Y116003D01*
Y116997D01*
X220619Y117916D01*
X219916Y118619D01*
X218997Y119000D01*
D02*
G37*
G36*
X202997D02*
X202003D01*
X201084Y118619D01*
X200381Y117916D01*
X200000Y116997D01*
Y116003D01*
X200381Y115084D01*
X201084Y114381D01*
X202003Y114000D01*
X202997D01*
X203916Y114381D01*
X204619Y115084D01*
X205000Y116003D01*
Y116997D01*
X204619Y117916D01*
X203916Y118619D01*
X202997Y119000D01*
D02*
G37*
G36*
X229997Y93000D02*
X229003D01*
X228084Y92619D01*
X227381Y91916D01*
X227000Y90997D01*
Y90003D01*
X227381Y89084D01*
X228084Y88381D01*
X229003Y88000D01*
X229997D01*
X230916Y88381D01*
X231619Y89084D01*
X232000Y90003D01*
Y90997D01*
X231619Y91916D01*
X230916Y92619D01*
X229997Y93000D01*
D02*
G37*
G36*
X213247Y86750D02*
X212253D01*
X211334Y86369D01*
X210631Y85666D01*
X210250Y84747D01*
Y83753D01*
X210631Y82834D01*
X211334Y82131D01*
X212253Y81750D01*
X213247D01*
X214166Y82131D01*
X214869Y82834D01*
X215250Y83753D01*
Y84747D01*
X214869Y85666D01*
X214166Y86369D01*
X213247Y86750D01*
D02*
G37*
G36*
X189297Y85294D02*
X188303D01*
X187384Y84913D01*
X186681Y84210D01*
X186300Y83291D01*
Y82297D01*
X186681Y81378D01*
X187384Y80675D01*
X188303Y80294D01*
X189297D01*
X190216Y80675D01*
X190919Y81378D01*
X191300Y82297D01*
Y83291D01*
X190919Y84210D01*
X190216Y84913D01*
X189297Y85294D01*
D02*
G37*
G36*
X188997Y74500D02*
X188003D01*
X187084Y74119D01*
X186381Y73416D01*
X186000Y72497D01*
Y71503D01*
X186381Y70584D01*
X187084Y69881D01*
X188003Y69500D01*
X188997D01*
X189916Y69881D01*
X190619Y70584D01*
X191000Y71503D01*
Y72497D01*
X190619Y73416D01*
X189916Y74119D01*
X188997Y74500D01*
D02*
G37*
G36*
X256747Y71500D02*
X255753D01*
X254834Y71119D01*
X254131Y70416D01*
X253750Y69497D01*
Y68503D01*
X254131Y67584D01*
X254834Y66881D01*
X255753Y66500D01*
X256747D01*
X257666Y66881D01*
X258369Y67584D01*
X258750Y68503D01*
Y69497D01*
X258369Y70416D01*
X257666Y71119D01*
X256747Y71500D01*
D02*
G37*
G36*
X235897Y70100D02*
X234903D01*
X233984Y69719D01*
X233281Y69016D01*
X232900Y68097D01*
Y67103D01*
X233281Y66184D01*
X233984Y65481D01*
X234903Y65100D01*
X235000D01*
Y64803D01*
X235381Y63884D01*
X236084Y63181D01*
X237003Y62800D01*
X237997D01*
X238916Y63181D01*
X239619Y63884D01*
X240000Y64803D01*
Y65797D01*
X239619Y66716D01*
X238916Y67419D01*
X237997Y67800D01*
X237900D01*
Y68097D01*
X237519Y69016D01*
X236816Y69719D01*
X235897Y70100D01*
D02*
G37*
%LPD*%
G36*
X118000Y77000D02*
Y68000D01*
X115000Y65000D01*
X104000D01*
X102000Y67000D01*
Y77000D01*
X104000Y79000D01*
X116000D01*
X118000Y77000D01*
D02*
G37*
%LPC*%
G36*
X18571Y237190D02*
X16069D01*
X13653Y236543D01*
X11487Y235292D01*
X9718Y233523D01*
X8467Y231357D01*
X7820Y228941D01*
Y226439D01*
X8467Y224023D01*
X9718Y221857D01*
X11487Y220088D01*
X13653Y218837D01*
X16069Y218190D01*
X18571D01*
X20987Y218837D01*
X23153Y220088D01*
X24922Y221857D01*
X26172Y224023D01*
X26820Y226439D01*
Y228941D01*
X26172Y231357D01*
X24922Y233523D01*
X23153Y235292D01*
X20987Y236543D01*
X18571Y237190D01*
D02*
G37*
G36*
X83497Y223177D02*
X82503D01*
X81584Y222797D01*
X80881Y222094D01*
X80500Y221175D01*
Y220180D01*
X80469Y220134D01*
X79907D01*
X78988Y219753D01*
X78285Y219050D01*
X77904Y218131D01*
Y217137D01*
X78285Y216218D01*
X78988Y215515D01*
X79907Y215134D01*
X80901D01*
X81820Y215515D01*
X82523Y216218D01*
X82904Y217137D01*
Y218131D01*
X82935Y218177D01*
X83497D01*
X84416Y218558D01*
X85119Y219261D01*
X85500Y220180D01*
Y221175D01*
X85119Y222094D01*
X84416Y222797D01*
X83497Y223177D01*
D02*
G37*
G36*
X81442Y211921D02*
X80447D01*
X79528Y211540D01*
X78825Y210837D01*
X78444Y209918D01*
Y208923D01*
X78825Y208005D01*
X79528Y207301D01*
X80447Y206921D01*
X81442D01*
X82360Y207301D01*
X83064Y208005D01*
X83444Y208923D01*
Y209918D01*
X83064Y210837D01*
X82360Y211540D01*
X81442Y211921D01*
D02*
G37*
G36*
X67300Y208318D02*
X56300D01*
X53959Y207852D01*
X51974Y206526D01*
X50648Y204541D01*
X50182Y202200D01*
X50648Y199859D01*
X51974Y197874D01*
X53959Y196548D01*
X56300Y196082D01*
X67300D01*
X69641Y196548D01*
X71626Y197874D01*
X72952Y199859D01*
X73418Y202200D01*
X72952Y204541D01*
X71626Y206526D01*
X69641Y207852D01*
X67300Y208318D01*
D02*
G37*
G36*
X24000D02*
X16000D01*
X13659Y207852D01*
X11674Y206526D01*
X10348Y204541D01*
X9883Y202200D01*
X10348Y199859D01*
X11674Y197874D01*
X13659Y196548D01*
X16000Y196082D01*
X24000D01*
X26341Y196548D01*
X28326Y197874D01*
X29652Y199859D01*
X30117Y202200D01*
X29652Y204541D01*
X28326Y206526D01*
X26341Y207852D01*
X24000Y208318D01*
D02*
G37*
G36*
X57844Y193150D02*
X55756D01*
X53826Y192351D01*
X52349Y190874D01*
X51550Y188944D01*
Y186856D01*
X52349Y184926D01*
X53826Y183449D01*
X55756Y182650D01*
X57844D01*
X59774Y183449D01*
X61251Y184926D01*
X62050Y186856D01*
Y188944D01*
X61251Y190874D01*
X59774Y192351D01*
X57844Y193150D01*
D02*
G37*
G36*
X27297Y168900D02*
X26303D01*
X25384Y168519D01*
X24681Y167816D01*
X24300Y166897D01*
Y165903D01*
X24681Y164984D01*
X24885Y164780D01*
X25242Y163950D01*
X24885Y163120D01*
X24681Y162916D01*
X24300Y161997D01*
Y161003D01*
X24681Y160084D01*
X24835Y159930D01*
X25245Y159100D01*
X24835Y158270D01*
X24681Y158116D01*
X24300Y157197D01*
Y156203D01*
X24681Y155284D01*
X25384Y154581D01*
X26303Y154200D01*
X27297D01*
X28216Y154581D01*
X28919Y155284D01*
X29300Y156203D01*
Y157197D01*
X28919Y158116D01*
X28765Y158270D01*
X28355Y159100D01*
X28765Y159930D01*
X28919Y160084D01*
X29300Y161003D01*
Y161997D01*
X28919Y162916D01*
X28715Y163120D01*
X28358Y163950D01*
X28715Y164780D01*
X28919Y164984D01*
X29300Y165903D01*
Y166897D01*
X28919Y167816D01*
X28216Y168519D01*
X27297Y168900D01*
D02*
G37*
G36*
Y149000D02*
X26303D01*
X25384Y148619D01*
X24681Y147916D01*
X24300Y146997D01*
Y146003D01*
X24681Y145084D01*
X24950Y144814D01*
X25246Y144000D01*
X24950Y143186D01*
X24681Y142916D01*
X24300Y141997D01*
Y141003D01*
X24681Y140084D01*
X25021Y139744D01*
X25256Y138950D01*
X25021Y138156D01*
X24681Y137816D01*
X24300Y136897D01*
Y135903D01*
X24681Y134984D01*
X25384Y134281D01*
X26303Y133900D01*
X27297D01*
X28216Y134281D01*
X28919Y134984D01*
X29300Y135903D01*
Y136897D01*
X28919Y137816D01*
X28579Y138156D01*
X28344Y138950D01*
X28579Y139744D01*
X28919Y140084D01*
X29300Y141003D01*
Y141997D01*
X28919Y142916D01*
X28650Y143186D01*
X28354Y144000D01*
X28650Y144814D01*
X28919Y145084D01*
X29300Y146003D01*
Y146997D01*
X28919Y147916D01*
X28216Y148619D01*
X27297Y149000D01*
D02*
G37*
%LPD*%
G36*
X69219Y206832D02*
X70845Y205745D01*
X71932Y204119D01*
X72314Y202200D01*
X71932Y200281D01*
X70845Y198655D01*
X69219Y197568D01*
X67193Y197165D01*
X56407D01*
X54381Y197568D01*
X52755Y198655D01*
X51668Y200281D01*
X51286Y202200D01*
X51668Y204119D01*
X52755Y205745D01*
X54381Y206832D01*
X56407Y207235D01*
X67193D01*
X69219Y206832D01*
D02*
G37*
%LPC*%
G36*
X213000Y28549D02*
X212025Y28355D01*
X211198Y27802D01*
X209954D01*
X209127Y28355D01*
X208151Y28549D01*
X207176Y28355D01*
X206349Y27802D01*
X205796Y26975D01*
X205602Y26000D01*
X205796Y25025D01*
X206349Y24198D01*
X207176Y23645D01*
X208151Y23451D01*
X209127Y23645D01*
X209954Y24198D01*
X211198D01*
X212025Y23645D01*
X213000Y23451D01*
X213975Y23645D01*
X214802Y24198D01*
X215355Y25025D01*
X215549Y26000D01*
X215355Y26975D01*
X214802Y27802D01*
X213975Y28355D01*
X213000Y28549D01*
D02*
G37*
G36*
X224000D02*
X223025Y28355D01*
X222198Y27802D01*
X221645Y26975D01*
X221451Y26000D01*
X221645Y25025D01*
X222198Y24198D01*
X223025Y23645D01*
X224000Y23451D01*
X224975Y23645D01*
X225802Y24198D01*
X226355Y25025D01*
X226549Y26000D01*
X226355Y26975D01*
X225802Y27802D01*
X224975Y28355D01*
X224000Y28549D01*
D02*
G37*
G36*
X184900Y28149D02*
X183925Y27955D01*
X183098Y27402D01*
X182545Y26575D01*
X182351Y25600D01*
X182545Y24625D01*
X183098Y23798D01*
X183925Y23245D01*
X184900Y23051D01*
X185875Y23245D01*
X186702Y23798D01*
X187255Y24625D01*
X187449Y25600D01*
X187255Y26575D01*
X186702Y27402D01*
X185875Y27955D01*
X184900Y28149D01*
D02*
G37*
G36*
X198682Y21991D02*
X197706Y21797D01*
X196879Y21244D01*
X196327Y20417D01*
X196133Y19442D01*
X196327Y18467D01*
X196879Y17639D01*
X197706Y17087D01*
X198682Y16893D01*
X199657Y17087D01*
X200484Y17639D01*
X201037Y18467D01*
X201231Y19442D01*
X201037Y20417D01*
X200484Y21244D01*
X199657Y21797D01*
X198682Y21991D01*
D02*
G37*
G36*
X179000Y21549D02*
X178025Y21355D01*
X177198Y20802D01*
X176645Y19975D01*
X176451Y19000D01*
X176645Y18025D01*
X177198Y17198D01*
X178025Y16645D01*
X179000Y16451D01*
X179975Y16645D01*
X180802Y17198D01*
X180968D01*
X181065Y17053D01*
X181892Y16500D01*
X182867Y16306D01*
X183843Y16500D01*
X184101Y16673D01*
X185238Y17029D01*
X186065Y16476D01*
X187040Y16282D01*
X188015Y16476D01*
X188843Y17029D01*
X188896Y17109D01*
X190423D01*
X190498Y16998D01*
X191325Y16445D01*
X192300Y16251D01*
X193275Y16445D01*
X194102Y16998D01*
X194655Y17825D01*
X194849Y18800D01*
X194655Y19775D01*
X194102Y20602D01*
X193275Y21155D01*
X192300Y21349D01*
X191325Y21155D01*
X190498Y20602D01*
X190444Y20522D01*
X188917D01*
X188843Y20634D01*
X188015Y21186D01*
X187040Y21380D01*
X186065Y21186D01*
X185912Y21084D01*
X184934Y20748D01*
X184017Y21093D01*
X183843Y21210D01*
X182867Y21404D01*
X181892Y21210D01*
X181065Y20657D01*
X180899D01*
X180802Y20802D01*
X179975Y21355D01*
X179000Y21549D01*
D02*
G37*
G36*
X88416Y29079D02*
X87441Y28886D01*
X86614Y28333D01*
X86061Y27506D01*
X85867Y26531D01*
X86061Y25555D01*
X86614Y24728D01*
X87441Y24176D01*
X88416Y23982D01*
X89392Y24176D01*
X90219Y24728D01*
X90771Y25555D01*
X90965Y26531D01*
X90771Y27506D01*
X90219Y28333D01*
X89392Y28886D01*
X88416Y29079D01*
D02*
G37*
%LPD*%
D11*
X476809Y87009D02*
X477000Y87200D01*
X461700Y82300D02*
X475828D01*
X460000Y80600D02*
X461700Y82300D01*
X460000Y77500D02*
Y80600D01*
X457300Y74800D02*
X460000Y77500D01*
X457300Y55428D02*
Y74800D01*
X453900Y52028D02*
X457300Y55428D01*
X453900Y45100D02*
Y52028D01*
X476809Y83280D02*
Y87009D01*
X475828Y82300D02*
X476809Y83280D01*
D14*
X128250Y159750D02*
X134750D01*
D15*
X508296Y74204D02*
Y79065D01*
X508796Y79565D01*
Y82421D02*
X508940Y82565D01*
X508796Y79565D02*
Y82421D01*
X512750Y62863D02*
Y69750D01*
X508296Y74204D02*
X512750Y69750D01*
X485750Y48750D02*
X489750Y52750D01*
X502637D01*
X485750Y42250D02*
Y48750D01*
X502637Y52750D02*
X512750Y62863D01*
X77750Y130000D02*
Y130250D01*
X75750Y132250D02*
Y141500D01*
Y132250D02*
X77750Y130250D01*
X51300Y176500D02*
X59500D01*
X87000Y204000D01*
X102200Y215200D02*
Y232700D01*
X85958Y198958D02*
X102200Y215200D01*
X84958Y198958D02*
X85958D01*
X87000Y204000D02*
X88172D01*
X100200Y216028D02*
Y235614D01*
X88172Y204000D02*
X100200Y216028D01*
X52878Y166878D02*
X84958Y198958D01*
X51778Y166878D02*
X52878D01*
X51300Y166400D02*
X51778Y166878D01*
X391600Y194600D02*
Y198400D01*
X402000Y208800D02*
Y219909D01*
X391600Y198400D02*
X402000Y208800D01*
X43000Y152000D02*
X48702Y146298D01*
X50702D01*
X43000Y152000D02*
Y205500D01*
X50702Y146298D02*
X51000Y146000D01*
X41000Y150000D02*
Y206328D01*
Y150000D02*
X49102Y141898D01*
X41000Y206328D02*
X56750Y222078D01*
X50902Y141898D02*
X51300Y141500D01*
X49102Y141898D02*
X50902D01*
X115571Y247100D02*
X117584Y245087D01*
X104029Y247100D02*
X115571D01*
X92329Y235400D02*
X104029Y247100D01*
X109000Y232213D02*
X115400Y238613D01*
X109000Y205000D02*
Y232213D01*
X71250Y220078D02*
X84572Y233400D01*
X93157D02*
X104757Y245000D01*
X84572Y233400D02*
X93157D01*
X83744Y235400D02*
X92329D01*
X70422Y222078D02*
X83744Y235400D01*
X57578Y220078D02*
X71250D01*
X402000Y219909D02*
X402046Y219954D01*
X386668Y189668D02*
X391600Y194600D01*
X374389Y189668D02*
X386668D01*
X369857Y194200D02*
X374389Y189668D01*
X361700Y194200D02*
X369857D01*
X100200Y235614D02*
X105286Y240700D01*
X102200Y232700D02*
X105300Y235800D01*
X105286Y240700D02*
X112400D01*
X117584Y236786D02*
Y245087D01*
Y236786D02*
X117700Y236670D01*
X115400Y238613D02*
Y244414D01*
X104757Y245000D02*
X114814D01*
X115400Y244414D01*
X56750Y222078D02*
X70422D01*
X43000Y205500D02*
X57578Y220078D01*
D24*
X363000Y19000D02*
D03*
X410020Y97505D02*
D03*
Y108755D02*
D03*
X276000Y120000D02*
D03*
Y110000D02*
D03*
Y100000D02*
D03*
X305000Y93000D02*
D03*
X309000Y165000D02*
D03*
Y192000D02*
D03*
X405767Y64133D02*
D03*
X406000Y75000D02*
D03*
X413000Y161000D02*
D03*
Y173000D02*
D03*
X372000Y137000D02*
D03*
X312000Y124000D02*
D03*
Y138000D02*
D03*
X305000Y77000D02*
D03*
X331000Y89000D02*
D03*
X329000Y39000D02*
D03*
X316000D02*
D03*
X293000D02*
D03*
X280000D02*
D03*
X340500Y11000D02*
D03*
X335500D02*
D03*
X330500D02*
D03*
X325500D02*
D03*
X429000Y194000D02*
D03*
X426000Y205000D02*
D03*
X427000Y8000D02*
D03*
Y15000D02*
D03*
X426000Y211000D02*
D03*
X338000Y237000D02*
D03*
X360000Y217000D02*
D03*
X392000D02*
D03*
X385000D02*
D03*
X421000Y254000D02*
D03*
X336000D02*
D03*
X35000Y94000D02*
D03*
X51000Y146000D02*
D03*
X326700Y169000D02*
D03*
X316250Y28000D02*
D03*
X453900Y45100D02*
D03*
X362457Y39250D02*
D03*
X396939Y41411D02*
D03*
X315500Y200250D02*
D03*
X372433Y37909D02*
D03*
X402012Y26025D02*
D03*
X400000Y22000D02*
D03*
X397000Y34000D02*
D03*
X407000D02*
D03*
X425689Y21427D02*
D03*
X311000Y32000D02*
D03*
X305500Y11000D02*
D03*
X300500D02*
D03*
X295500D02*
D03*
X275500D02*
D03*
X280500D02*
D03*
X285500D02*
D03*
X290500D02*
D03*
X35000Y74000D02*
D03*
Y78000D02*
D03*
Y82000D02*
D03*
Y86000D02*
D03*
Y90000D02*
D03*
X39000Y74000D02*
D03*
Y78000D02*
D03*
Y82000D02*
D03*
Y86000D02*
D03*
Y90000D02*
D03*
Y94000D02*
D03*
X320000Y225509D02*
D03*
X324548Y225461D02*
D03*
X344000Y227000D02*
D03*
X290200Y69900D02*
D03*
X281488Y69888D02*
D03*
X51300Y166400D02*
D03*
Y176500D02*
D03*
Y141500D02*
D03*
X380250Y41840D02*
D03*
X383400Y60000D02*
D03*
X340700Y231400D02*
D03*
X400500Y243300D02*
D03*
X368950Y35059D02*
D03*
X378156Y37345D02*
D03*
X312500Y66200D02*
D03*
X396200Y182000D02*
D03*
X333800Y194800D02*
D03*
X326273Y197873D02*
D03*
X330420Y187282D02*
D03*
X361700Y194200D02*
D03*
X310500Y240000D02*
D03*
X320250D02*
D03*
X315250D02*
D03*
X305750Y240250D02*
D03*
X300500Y240000D02*
D03*
X295250D02*
D03*
X395500Y243200D02*
D03*
X286300Y66800D02*
D03*
D72*
X510000Y52000D02*
D03*
X547000Y48000D02*
D03*
X544000Y55000D02*
D03*
X553000D02*
D03*
Y48000D02*
D03*
X559000Y55000D02*
D03*
Y48000D02*
D03*
X544000Y124000D02*
D03*
Y130000D02*
D03*
Y136000D02*
D03*
Y142000D02*
D03*
Y148000D02*
D03*
Y154000D02*
D03*
X540117Y108647D02*
D03*
X540000Y114000D02*
D03*
X530000Y138000D02*
D03*
X525000D02*
D03*
X559054Y84836D02*
D03*
X552450D02*
D03*
X545084Y84582D02*
D03*
X538226D02*
D03*
X565912Y87376D02*
D03*
Y83566D02*
D03*
Y79756D02*
D03*
Y36322D02*
D03*
Y40386D02*
D03*
Y44450D02*
D03*
X552450Y79756D02*
D03*
X545084D02*
D03*
X538226D02*
D03*
X535686Y69088D02*
D03*
X529082D02*
D03*
Y63500D02*
D03*
X502551Y42449D02*
D03*
X495026Y19446D02*
D03*
X496050Y14464D02*
D03*
X217170Y25908D02*
D03*
X496500Y87750D02*
D03*
X493000D02*
D03*
X508940Y82565D02*
D03*
X489442Y87710D02*
D03*
X421000Y67000D02*
D03*
X371064Y96844D02*
D03*
X324955Y81011D02*
D03*
X349267Y20501D02*
D03*
X336000Y22000D02*
D03*
X329000Y24000D02*
D03*
X363000Y27000D02*
D03*
X439506Y52488D02*
D03*
X437209Y46903D02*
D03*
X512600Y22600D02*
D03*
X476000Y53000D02*
D03*
X472000D02*
D03*
X480000D02*
D03*
X484000D02*
D03*
X485750Y42250D02*
D03*
X512000Y43000D02*
D03*
X517500Y40000D02*
D03*
X507000Y45000D02*
D03*
X520000Y60000D02*
D03*
X477000Y87200D02*
D03*
X510025Y5000D02*
D03*
X510000Y27000D02*
D03*
X522525Y10000D02*
D03*
X522500Y15000D02*
D03*
X371064Y113346D02*
D03*
X356700D02*
D03*
X364694Y96253D02*
D03*
X403064Y129346D02*
D03*
X411064Y143710D02*
D03*
X403064D02*
D03*
X305679Y25200D02*
D03*
X324000Y23000D02*
D03*
X77750Y130000D02*
D03*
X75750Y141500D02*
D03*
X103500Y151750D02*
D03*
X62992Y107442D02*
D03*
X250600Y216500D02*
D03*
X462000Y198000D02*
D03*
X506301Y197699D02*
D03*
X445436Y5564D02*
D03*
X445000Y12250D02*
D03*
X434750Y5750D02*
D03*
X438250Y12250D02*
D03*
Y9000D02*
D03*
X265142Y62212D02*
D03*
X433076Y163827D02*
D03*
X436072Y166600D02*
D03*
X435500Y157000D02*
D03*
Y198200D02*
D03*
X521000Y180000D02*
D03*
Y160000D02*
D03*
X352111Y218200D02*
D03*
X489000Y133000D02*
D03*
X492088Y138102D02*
D03*
X508000Y131000D02*
D03*
X420100Y187400D02*
D03*
X453000Y160000D02*
D03*
X156335Y249636D02*
D03*
X170600Y241715D02*
D03*
X176500Y231500D02*
D03*
X285300Y146700D02*
D03*
X453800Y251500D02*
D03*
X457600D02*
D03*
X450000D02*
D03*
X214200Y106900D02*
D03*
X348500Y192500D02*
D03*
X347021Y199593D02*
D03*
X437000Y208000D02*
D03*
X271000Y254000D02*
D03*
X267000D02*
D03*
X169000Y139000D02*
D03*
X165000D02*
D03*
X161000D02*
D03*
X218600Y107000D02*
D03*
X221000Y110000D02*
D03*
X216000D02*
D03*
X231000Y151000D02*
D03*
X226000D02*
D03*
X221000D02*
D03*
X552500Y200200D02*
D03*
X545900D02*
D03*
X16000Y90000D02*
D03*
X93000Y254000D02*
D03*
Y244000D02*
D03*
Y225000D02*
D03*
X5000Y211000D02*
D03*
Y241000D02*
D03*
X30000D02*
D03*
X49000Y221000D02*
D03*
X37000Y161000D02*
D03*
X33000Y157000D02*
D03*
X48000Y155000D02*
D03*
X29000Y211000D02*
D03*
X123753Y250100D02*
D03*
X112541D02*
D03*
X125000Y205230D02*
D03*
X109000Y205000D02*
D03*
X11200Y151500D02*
D03*
X523000Y22000D02*
D03*
Y37000D02*
D03*
X535432Y73406D02*
D03*
X565912Y48514D02*
D03*
X557022Y75946D02*
D03*
X561594D02*
D03*
X565912D02*
D03*
Y56642D02*
D03*
Y52578D02*
D03*
X490000Y108700D02*
D03*
X280000Y216800D02*
D03*
X451900Y184600D02*
D03*
X246800Y170400D02*
D03*
X247000Y180000D02*
D03*
X388300Y151400D02*
D03*
X93000Y220000D02*
D03*
X460000Y234000D02*
D03*
X186000Y38000D02*
D03*
Y41500D02*
D03*
X189500Y38000D02*
D03*
Y41500D02*
D03*
X203500Y34500D02*
D03*
X200000D02*
D03*
Y38000D02*
D03*
X196500Y34500D02*
D03*
Y38000D02*
D03*
Y41500D02*
D03*
X193000D02*
D03*
Y34500D02*
D03*
Y38000D02*
D03*
X424091Y60047D02*
D03*
X420741Y62233D02*
D03*
X513000Y174000D02*
D03*
X496000Y185000D02*
D03*
X488000Y152000D02*
D03*
X525000Y143000D02*
D03*
X485000Y132000D02*
D03*
X475000Y144000D02*
D03*
X463000Y176000D02*
D03*
X438250Y5750D02*
D03*
X403353Y43272D02*
D03*
X389000Y28500D02*
D03*
X383907Y25107D02*
D03*
X320000Y200000D02*
D03*
X365000Y200500D02*
D03*
X402046Y219954D02*
D03*
X402000Y224000D02*
D03*
X387011Y195005D02*
D03*
X379750Y192668D02*
D03*
X372532Y199763D02*
D03*
X565000Y215000D02*
D03*
X453000Y172000D02*
D03*
X512000Y131000D02*
D03*
X480000Y153000D02*
D03*
X480400Y131500D02*
D03*
X407500Y19750D02*
D03*
X225400Y165700D02*
D03*
X283000Y230000D02*
D03*
X63000Y101769D02*
D03*
X134714Y181575D02*
D03*
X134570Y177127D02*
D03*
X125160Y138015D02*
D03*
X113233Y123440D02*
D03*
X16000Y85000D02*
D03*
X254342Y13115D02*
D03*
X320777Y28254D02*
D03*
X168250Y100750D02*
D03*
X157187Y95507D02*
D03*
X193800Y170312D02*
D03*
X277000Y180000D02*
D03*
X87000Y110000D02*
D03*
X327800Y238900D02*
D03*
X334668Y240037D02*
D03*
X334215Y225000D02*
D03*
X250321Y180012D02*
D03*
X250300Y168100D02*
D03*
X264000Y148884D02*
D03*
X532500Y170000D02*
D03*
X117700Y236670D02*
D03*
X112400Y240700D02*
D03*
X105300Y235800D02*
D03*
X11200Y171400D02*
D03*
X191700Y249000D02*
D03*
X255400Y216500D02*
D03*
X273000Y180000D02*
D03*
X268000D02*
D03*
X216000Y230000D02*
D03*
X238500Y236500D02*
D03*
X234750D02*
D03*
X238500Y240000D02*
D03*
X234750D02*
D03*
X292000Y230000D02*
D03*
X272000Y207000D02*
D03*
X343360Y26450D02*
D03*
X347800D02*
D03*
X308700Y146500D02*
D03*
X271400Y148500D02*
D03*
X275400D02*
D03*
X348700Y159710D02*
D03*
X332000Y160400D02*
D03*
X340517Y159508D02*
D03*
X425000Y251200D02*
D03*
X424900Y248000D02*
D03*
X441500Y239600D02*
D03*
X477900Y222600D02*
D03*
X428500Y143250D02*
D03*
X363064Y153346D02*
D03*
X355700Y152200D02*
D03*
X331064Y137346D02*
D03*
X316200Y144300D02*
D03*
X348700Y151710D02*
D03*
X418598Y177500D02*
D03*
X473300Y222700D02*
D03*
X469200D02*
D03*
X465200D02*
D03*
X448800Y231500D02*
D03*
X452600Y199800D02*
D03*
X338782Y26101D02*
D03*
X363750Y79646D02*
D03*
X332700Y129400D02*
D03*
X340900Y105363D02*
D03*
X418500Y121900D02*
D03*
X371064Y121346D02*
D03*
X379064Y143710D02*
D03*
X371064Y151710D02*
D03*
X435750Y179000D02*
D03*
X362500Y87750D02*
D03*
X387064Y159710D02*
D03*
X395064Y166100D02*
D03*
X292820Y193000D02*
D03*
X333482Y184334D02*
D03*
X363571Y169951D02*
D03*
X379064Y175710D02*
D03*
X309250Y176400D02*
D03*
X403064Y159710D02*
D03*
X115900Y156750D02*
D03*
Y161750D02*
D03*
X393032Y80177D02*
D03*
X432750Y47000D02*
D03*
X403064Y150800D02*
D03*
X485000Y116000D02*
D03*
X261000Y140000D02*
D03*
X161200Y121300D02*
D03*
X168250Y95500D02*
D03*
Y91500D02*
D03*
X165000D02*
D03*
Y100750D02*
D03*
X161500D02*
D03*
Y91500D02*
D03*
X219035Y84298D02*
D03*
X300750Y104500D02*
D03*
X303882Y104528D02*
D03*
X387064Y129346D02*
D03*
X348700Y121346D02*
D03*
D98*
X496000Y242000D02*
D03*
X512000D02*
D03*
X106000Y69000D02*
D03*
X106043Y74940D02*
D03*
X117000Y108000D02*
D03*
X149000Y175200D02*
D03*
X101000Y35000D02*
D03*
X130000Y37000D02*
D03*
X105000Y60000D02*
D03*
X98000D02*
D03*
X128000Y50000D02*
D03*
X122000D02*
D03*
X83400Y51600D02*
D03*
X79000Y56000D02*
D03*
X116000Y50000D02*
D03*
X124000Y37000D02*
D03*
X118000D02*
D03*
X113000Y75000D02*
D03*
X112000Y60000D02*
D03*
X113000Y69000D02*
D03*
X123952Y108000D02*
D03*
X124000Y115000D02*
D03*
X117000D02*
D03*
X134750Y159750D02*
D03*
X128250D02*
D03*
D138*
X30820Y50940D02*
D03*
Y30940D02*
D03*
X15820D02*
D03*
Y50940D02*
D03*
D139*
X20000Y115800D02*
D03*
D140*
X61800D02*
D03*
Y202200D02*
D03*
D142*
X425852Y71899D02*
Y112148D01*
Y71899D02*
X426991Y70760D01*
Y58291D02*
Y70760D01*
X411100Y42400D02*
X426991Y58291D01*
X422200Y115800D02*
X425852Y112148D01*
X371064Y96844D02*
X374269Y93639D01*
Y68269D02*
Y93639D01*
X373000Y67000D02*
X374269Y68269D01*
X363000Y19000D02*
X373300D01*
X331199Y15801D02*
X354801D01*
X368801Y28700D02*
X372867D01*
X364201Y24100D02*
X368801Y28700D01*
X324000Y23000D02*
X331199Y15801D01*
X349267Y20501D02*
X355600Y26834D01*
Y92700D01*
X354055Y17601D02*
X360554Y24100D01*
X354801Y15801D02*
X361150Y22150D01*
X373807D01*
X348066Y17601D02*
X354055D01*
X360554Y24100D02*
X364201D01*
X346367Y19300D02*
X348066Y17601D01*
X353800Y28349D02*
Y106800D01*
X381159Y20407D02*
X388821D01*
X390007Y18607D02*
X400900Y29500D01*
X377350Y18607D02*
X390007D01*
X373807Y22150D02*
X377350Y18607D01*
X372867Y28700D02*
X381159Y20407D01*
X346367Y21702D02*
X348215Y23550D01*
X349001D01*
X353800Y28349D01*
X346367Y19300D02*
Y21702D01*
X355700Y152000D02*
Y152200D01*
Y152000D02*
X361200Y146500D01*
Y110100D02*
Y146500D01*
X359900Y108800D02*
X361200Y110100D01*
X359900Y97000D02*
Y108800D01*
X355600Y92700D02*
X359900Y97000D01*
X335882Y22118D02*
X336000Y22000D01*
X335882Y22118D02*
Y126218D01*
X441350Y56650D02*
X442072Y55928D01*
X443372Y60628D02*
X443872Y60128D01*
X443300Y72053D02*
X444000Y71353D01*
X428738Y95194D02*
X434150Y89782D01*
X441350Y56650D02*
Y99659D01*
X443300Y81363D02*
X444300Y82363D01*
X439550Y55904D02*
Y96639D01*
X443372Y68705D02*
X444000Y69333D01*
X443300Y72053D02*
Y81363D01*
X434150Y60350D02*
Y89782D01*
X444000Y69333D02*
Y71353D01*
X440289Y100721D02*
X441350Y99659D01*
X431113Y96406D02*
X435950Y91569D01*
X419700Y45900D02*
X434150Y60350D01*
X437750Y57071D02*
Y93932D01*
X439550Y55904D02*
X440133Y55321D01*
X434053Y97629D02*
X437750Y93932D01*
X432750Y54617D02*
X435950Y57817D01*
Y91569D01*
X443372Y60628D02*
Y68705D01*
X437275Y98914D02*
X439550Y96639D01*
X436606Y55927D02*
X437750Y57071D01*
X439927Y55115D02*
X440133Y55321D01*
X439506Y52488D02*
X439927Y52909D01*
Y55115D01*
X443872Y56552D02*
Y60128D01*
Y56552D02*
X445079Y55345D01*
X442072Y55029D02*
X443279Y53822D01*
X442072Y55029D02*
Y55928D01*
X437215Y46909D02*
Y50678D01*
X436606Y51287D02*
Y55927D01*
Y51287D02*
X437215Y50678D01*
X437209Y46903D02*
X437215Y46909D01*
X447500Y47954D02*
Y53400D01*
X404600Y14800D02*
X411800D01*
X437892Y43438D02*
X443279Y48824D01*
X411800Y14800D02*
X445079Y48079D01*
Y55345D01*
X411927Y12382D02*
X447500Y47954D01*
X403618Y12382D02*
X411927D01*
X443279Y48824D02*
Y53822D01*
X432238Y43438D02*
X437892D01*
X422300Y33500D02*
X432238Y43438D01*
X454300Y56900D02*
Y82700D01*
X447600Y84676D02*
X451800Y80476D01*
Y57700D02*
Y80476D01*
X417798Y65299D02*
Y105432D01*
X410600Y112630D02*
X417798Y105432D01*
X409670Y112630D02*
X410600D01*
X407100Y115200D02*
X409670Y112630D01*
X356700Y109700D02*
Y113346D01*
X353800Y106800D02*
X356700Y109700D01*
X351600Y57999D02*
Y118446D01*
X366600Y101810D02*
Y144700D01*
X371064Y113346D02*
X373500Y110910D01*
X344500Y66300D02*
Y132188D01*
X364694Y96253D02*
X364747Y96200D01*
X422200Y115800D02*
Y140574D01*
X425250Y116750D02*
X428738Y113262D01*
X425250Y116750D02*
Y165250D01*
X403064Y159710D02*
X422200Y140574D01*
X428738Y95194D02*
Y113262D01*
X431113Y96406D02*
Y115637D01*
X305679Y25200D02*
X306000Y25521D01*
Y34000D01*
X87058Y197058D02*
X163405D01*
X63500Y131300D02*
Y173500D01*
X87058Y197058D01*
X63500Y131300D02*
X72350Y122450D01*
X29000Y124000D02*
X41800Y111200D01*
X52597Y108000D02*
X57000D01*
X49397Y111200D02*
X52597Y108000D01*
X41800Y111200D02*
X49397D01*
X52051Y106000D02*
X54000D01*
X48651Y109400D02*
X52051Y106000D01*
X29349Y109400D02*
X48651D01*
X28599Y108650D02*
X29349Y109400D01*
X25050Y108650D02*
X28599D01*
X19100Y102700D02*
X25050Y108650D01*
X62996Y104669D02*
Y107442D01*
X250600Y216500D02*
X282400Y248300D01*
X447600Y84676D02*
Y180300D01*
X450100Y86900D02*
Y178699D01*
Y86900D02*
X454300Y82700D01*
X429600Y160500D02*
X432927Y163827D01*
X436072Y162572D02*
Y166600D01*
X432927Y163827D02*
X433076D01*
X435500Y149900D02*
Y157000D01*
Y191900D02*
Y198200D01*
X431750Y171750D02*
Y188150D01*
X435500Y191900D01*
X407100Y115200D02*
Y146764D01*
X355700Y189300D02*
X358900Y186100D01*
Y168350D02*
Y186100D01*
Y168350D02*
X363064Y164186D01*
X335000Y136000D02*
Y137700D01*
X331600Y157700D02*
Y160000D01*
X328300Y154400D02*
X331600Y157700D01*
Y160000D02*
X332000Y160400D01*
X328300Y144400D02*
Y154400D01*
X328800Y158600D02*
Y162700D01*
X326000Y155800D02*
X328800Y158600D01*
X326000Y143000D02*
Y155800D01*
X328300Y144400D02*
X335000Y137700D01*
X326000Y143000D02*
X331064Y137936D01*
X344731Y227000D02*
X346431Y228700D01*
X359800D01*
X342300Y223800D02*
X347699D01*
X350799Y226900D02*
X357400D01*
X342300Y221100D02*
X353312D01*
X347699Y223800D02*
X350799Y226900D01*
X352111Y205536D02*
X355700Y201947D01*
X359800Y228700D02*
X375700Y212800D01*
X344000Y227000D02*
X344731D01*
X330700Y232700D02*
X342300Y221100D01*
X352111Y205536D02*
Y218200D01*
X357400Y226900D02*
X372300Y212000D01*
X353312Y221100D02*
X355800Y218612D01*
X491898Y138102D02*
X492088D01*
X485890Y144110D02*
X491898Y138102D01*
X414200Y193300D02*
X420100Y187400D01*
X449825Y52425D02*
X454300Y56900D01*
X449825Y45563D02*
Y52425D01*
X447500Y53400D02*
X451800Y57700D01*
X376300Y16000D02*
X400000D01*
X373300Y19000D02*
X376300Y16000D01*
X438700Y125100D02*
X444300Y119500D01*
Y82363D02*
Y119500D01*
X440289Y100721D02*
Y120111D01*
X436072Y124328D02*
X440289Y120111D01*
X433469Y122031D02*
X437275Y118225D01*
Y98914D02*
Y118225D01*
X431669Y119081D02*
X434053Y116697D01*
Y97629D02*
Y116697D01*
X428500Y118250D02*
X431113Y115637D01*
X447600Y180300D02*
X451900Y184600D01*
X450100Y178699D02*
X454800Y183399D01*
X466500Y145400D02*
X480400Y131500D01*
X466500Y145400D02*
Y221131D01*
X476500Y156500D02*
X480000Y153000D01*
X476500Y156500D02*
Y221200D01*
X408500Y214500D02*
Y217601D01*
X402101Y224000D02*
X408500Y217601D01*
X348500Y192500D02*
Y192700D01*
X351400Y179790D02*
Y191375D01*
X344121Y197079D02*
X348500Y192700D01*
X353900Y193875D02*
Y201201D01*
X351400Y191375D02*
X353900Y193875D01*
X349500Y205601D02*
Y215800D01*
Y205601D02*
X353900Y201201D01*
X355700Y189300D02*
Y201947D01*
X347021Y199593D02*
X347079Y199651D01*
Y201528D01*
X284900Y246000D02*
X350000D01*
X360900Y235100D02*
X400564D01*
X350000Y246000D02*
X360900Y235100D01*
X362668Y237500D02*
X401300D01*
X282400Y248300D02*
X351868D01*
X362668Y237500D01*
X320000Y217000D02*
X340000Y197000D01*
Y179000D02*
Y197000D01*
X338000Y177000D02*
X340000Y179000D01*
X338000Y162025D02*
Y177000D01*
X351417Y162427D02*
Y171562D01*
X348700Y159710D02*
X351417Y162427D01*
X329300Y244000D02*
X331300Y242000D01*
X314500Y244000D02*
X329300D01*
X331300Y238700D02*
Y242000D01*
X437200Y234900D02*
X445400D01*
X432800Y239300D02*
X437200Y234900D01*
X399400Y239300D02*
X432800D01*
X400500Y243300D02*
X437800D01*
X441500Y239600D01*
X401300Y237500D02*
X417500Y221300D01*
Y196200D02*
Y221300D01*
Y196200D02*
X423900Y189800D01*
Y182802D02*
Y189800D01*
X465200Y222431D02*
Y222700D01*
Y222431D02*
X466500Y221131D01*
X376000Y66000D02*
X377900Y67900D01*
X373500Y99011D02*
X377900Y94611D01*
Y67900D02*
Y94611D01*
X375300Y101110D02*
X380250Y96160D01*
Y41840D02*
Y96160D01*
X411100Y32616D02*
Y42400D01*
X407984Y29500D02*
X411100Y32616D01*
X419700Y27800D02*
Y45900D01*
X422300Y27854D02*
Y33500D01*
X411650Y19750D02*
X419700Y27800D01*
X407500Y19750D02*
X411650D01*
X406299Y16850D02*
X411296D01*
X422300Y27854D01*
X425689Y21427D02*
X449825Y45563D01*
X417798Y65299D02*
X420741Y62356D01*
X362457Y68135D02*
X366100Y71778D01*
X362457Y39250D02*
Y68135D01*
X368950Y67154D02*
X370789Y68993D01*
X368950Y35059D02*
Y67154D01*
X372949Y39677D02*
X373000Y39727D01*
Y67000D01*
X372433Y37909D02*
X372949Y38425D01*
Y39677D01*
X376000Y39500D02*
X378156Y37345D01*
X376000Y39500D02*
Y66000D01*
X375300Y101110D02*
Y117110D01*
X371064Y121346D02*
X375300Y117110D01*
X342688Y134000D02*
X344500Y132188D01*
X337000Y134000D02*
X342688D01*
X335000Y136000D02*
X337000Y134000D01*
X331064Y137346D02*
Y137936D01*
X16000Y85000D02*
X19100Y88100D01*
Y102700D01*
X16000Y90000D02*
Y102948D01*
X10900Y124000D02*
X29000D01*
X9100Y122200D02*
X10900Y124000D01*
X9100Y109848D02*
Y122200D01*
Y109848D02*
X16000Y102948D01*
X63000Y101969D02*
X90171D01*
X54000Y106000D02*
X58231Y101769D01*
X63000D01*
X60331Y104669D02*
X62996D01*
X57000Y108000D02*
X60331Y104669D01*
X163405Y197058D02*
X175000Y208654D01*
Y221000D02*
X181000Y227000D01*
X175000Y208654D02*
Y221000D01*
X181000Y243000D02*
X187000Y249000D01*
X181000Y227000D02*
Y243000D01*
X187000Y249000D02*
X191700D01*
X414200Y193300D02*
Y221464D01*
X326700Y164800D02*
Y169000D01*
Y164800D02*
X328800Y162700D01*
X452600Y199800D02*
X454800Y197600D01*
Y183399D02*
Y197600D01*
X388300Y151400D02*
X391200Y154300D01*
Y169000D01*
X310050Y28000D02*
X316250D01*
X420741Y62233D02*
Y62356D01*
X479390Y137610D02*
X485000Y132000D01*
X469200Y145699D02*
Y222700D01*
Y145699D02*
X477289Y137610D01*
X479390D01*
X396939Y41411D02*
X397031Y41504D01*
Y81000D01*
X374414Y30500D02*
X382706Y22207D01*
X383907Y25107D02*
Y25126D01*
X386100Y27318D01*
X391900Y28900D02*
X397000Y34000D01*
X391900Y27299D02*
Y28900D01*
X368923Y30500D02*
X374414D01*
X382706Y22207D02*
X386809D01*
X391900Y27299D01*
X388821Y20407D02*
X402414Y34000D01*
X300400Y223745D02*
X326273Y197873D01*
X300400Y223745D02*
Y239900D01*
X344121Y197079D02*
Y199879D01*
X327750Y216250D02*
X344121Y199879D01*
X346804Y201802D02*
X347079Y201528D01*
X320000Y217000D02*
Y225509D01*
X324500Y216500D02*
X342100Y198900D01*
X346804Y201802D02*
Y201833D01*
X342100Y171900D02*
Y198900D01*
X338343Y210295D02*
X346804Y201833D01*
X342100Y171900D02*
X343882Y170118D01*
X355800Y205700D02*
X357800Y203700D01*
X355800Y205700D02*
Y218612D01*
X357800Y190900D02*
Y203700D01*
X402000Y224000D02*
X402101D01*
X400564Y235100D02*
X414200Y221464D01*
X405600Y211600D02*
X408500Y214500D01*
X387011Y195005D02*
Y195090D01*
X378908Y203194D02*
X387011Y195090D01*
X375700Y197601D02*
X378700Y194601D01*
X379750Y192668D02*
Y193263D01*
X378908Y203194D02*
Y213992D01*
X378700Y194314D02*
Y194601D01*
Y194314D02*
X379750Y193263D01*
X372300Y199995D02*
X372532Y199763D01*
X372300Y199995D02*
Y212000D01*
X375700Y197601D02*
Y212800D01*
X315500Y200250D02*
X327075Y188675D01*
X428500Y118250D02*
Y143250D01*
X330000Y217311D02*
Y228413D01*
X327813Y230600D02*
X330000Y228413D01*
Y217311D02*
X337016Y210295D01*
X327750Y216250D02*
Y227500D01*
X324500Y216500D02*
Y225413D01*
X311000Y32000D02*
Y38100D01*
X290200Y58900D02*
X311000Y38100D01*
X320646Y28384D02*
Y58054D01*
X312500Y66200D02*
X320646Y58054D01*
X432750Y47000D02*
Y54617D01*
X480289Y144110D02*
X485890D01*
X473300Y151100D02*
X480289Y144110D01*
X473300Y151100D02*
Y222700D01*
X400000Y16000D02*
X403618Y12382D01*
X365800Y33623D02*
X368923Y30500D01*
X400350Y19050D02*
X404600Y14800D01*
X400000Y22000D02*
X400350Y21650D01*
X402012Y25569D02*
X403877Y23705D01*
X400350Y19050D02*
Y21650D01*
X402012Y25569D02*
Y26025D01*
X403877Y19272D02*
X406299Y16850D01*
X400900Y29500D02*
X407984D01*
X403877Y19272D02*
Y23705D01*
X402414Y34000D02*
X407000D01*
X62996Y104669D02*
X88025D01*
X142779Y141777D02*
Y173510D01*
X134714Y181575D02*
X142779Y173510D01*
X134570Y177127D02*
X140461Y171236D01*
Y143602D02*
Y171236D01*
X130941Y129939D02*
X142779Y141777D01*
X116509Y129939D02*
X130941D01*
X113699Y132748D02*
X116509Y129939D01*
X101566Y132748D02*
X113699D01*
X99422Y130605D02*
X101566Y132748D01*
X99422Y111220D02*
Y130605D01*
X90171Y101969D02*
X99422Y111220D01*
X129456Y132597D02*
X140461Y143602D01*
X117479Y132597D02*
X129456D01*
X114676Y135400D02*
X117479Y132597D01*
X100430Y135400D02*
X114676D01*
X96656Y131626D02*
X100430Y135400D01*
X96656Y113301D02*
Y131626D01*
X88025Y104669D02*
X96656Y113301D01*
X320646Y28384D02*
X320777Y28254D01*
X307850Y30200D02*
X310050Y28000D01*
X286300Y58800D02*
X307850Y37250D01*
Y30200D02*
Y37250D01*
X87000Y110000D02*
Y114100D01*
X78650Y122450D02*
X87000Y114100D01*
X315116Y239866D02*
X315250Y240000D01*
X315116Y237562D02*
Y239866D01*
X313700Y236147D02*
X315116Y237562D01*
X313700Y233253D02*
X318153Y228800D01*
X313700Y233253D02*
Y236147D01*
X324700Y233199D02*
X327299Y230600D01*
X320250Y240000D02*
X324700Y235550D01*
Y233199D02*
Y235550D01*
X327299Y230600D02*
X327813D01*
X318153Y228800D02*
X326450D01*
X327750Y227500D01*
X330700Y232700D02*
Y236300D01*
X328100Y238900D02*
X330700Y236300D01*
X333100Y233000D02*
X342300Y223800D01*
X333100Y233000D02*
Y236900D01*
X331300Y238700D02*
X333100Y236900D01*
X327800Y238900D02*
X328100D01*
X324500Y225413D02*
X324548Y225461D01*
X255400Y216500D02*
X284900Y246000D01*
X310500Y240000D02*
X314500Y244000D01*
X334215Y221485D02*
Y225000D01*
X290200Y58900D02*
Y69900D01*
X281488Y58512D02*
X306000Y34000D01*
X281488Y58512D02*
Y69888D01*
X292600Y193220D02*
Y222600D01*
X295250Y225250D02*
Y240000D01*
X292600Y222600D02*
X295250Y225250D01*
X341200Y28800D02*
X343360Y26640D01*
X347800Y26450D02*
Y54199D01*
X343360Y26450D02*
Y26640D01*
X341200Y63000D02*
X344500Y66300D01*
X338000Y162025D02*
X340517Y159508D01*
X343882Y156528D02*
X348700Y151710D01*
X343882Y156528D02*
Y170118D01*
X445400Y234900D02*
X448800Y231500D01*
X72350Y122450D02*
X78650D01*
X476500Y221200D02*
X477900Y222600D01*
X427400Y148841D02*
X431669Y144571D01*
X432100Y149232D02*
Y158600D01*
X429600Y149186D02*
X433469Y145317D01*
X432100Y149232D02*
X436072Y145260D01*
X427400Y148841D02*
Y162900D01*
X429600Y149186D02*
Y160500D01*
X436072Y124328D02*
Y145260D01*
X433469Y122031D02*
Y145317D01*
X431669Y119081D02*
Y144571D01*
X403064Y150800D02*
X407100Y146764D01*
X386100Y27318D02*
Y36900D01*
X383400Y39600D02*
X386100Y36900D01*
X383400Y39600D02*
Y60000D01*
X347800Y54199D02*
X351600Y57999D01*
X348700Y121346D02*
X351600Y118446D01*
X341000Y231700D02*
X361200D01*
X340700Y231400D02*
X341000Y231700D01*
X337000Y218700D02*
X346600D01*
X349500Y215800D01*
X334215Y221485D02*
X337000Y218700D01*
X337016Y210295D02*
X338343D01*
X357800Y190900D02*
X359300Y189400D01*
X365374D01*
X379064Y175710D01*
X361200Y231700D02*
X378908Y213992D01*
X363064Y153346D02*
Y164186D01*
X395500Y243200D02*
X399400Y239300D01*
X418598Y177500D02*
X423900Y182802D01*
X399900Y193700D02*
X405600Y199400D01*
Y211600D01*
X399900Y178900D02*
Y193700D01*
X398700Y177700D02*
X399900Y178900D01*
X398700Y169736D02*
Y177700D01*
X395064Y166100D02*
X398700Y169736D01*
X391200Y169000D02*
X396200Y174000D01*
Y182000D01*
X338425Y26458D02*
X338782Y26101D01*
X338425Y26458D02*
Y98255D01*
X332700Y129400D02*
X335882Y126218D01*
X365800Y33623D02*
Y67549D01*
X368250Y69999D01*
Y81278D01*
X366100Y71778D02*
Y77296D01*
X363750Y79646D02*
X366100Y77296D01*
X365700Y83828D02*
Y92600D01*
Y83828D02*
X368250Y81278D01*
X367882Y85593D02*
Y100528D01*
Y85593D02*
X370789Y82686D01*
Y68993D02*
Y82686D01*
X338425Y98255D02*
X340900Y100730D01*
Y105363D01*
X366600Y144700D02*
X370910Y149010D01*
X366600Y101810D02*
X367882Y100528D01*
X373500Y99011D02*
Y110910D01*
X379064Y143710D02*
X390900Y131874D01*
X370910Y151556D02*
X371064Y151710D01*
X370910Y149010D02*
Y151556D01*
X364747Y93553D02*
X365700Y92600D01*
X364747Y93553D02*
Y96200D01*
X397000Y81000D02*
X397031D01*
X390900Y87100D02*
X397000Y81000D01*
X390900Y87100D02*
Y131874D01*
X435750Y171250D02*
Y179000D01*
X341200Y28800D02*
Y63000D01*
X438700Y125100D02*
Y146700D01*
X435500Y149900D02*
X438700Y146700D01*
X432100Y158600D02*
X436072Y162572D01*
X427400Y162900D02*
X435750Y171250D01*
X425250Y165250D02*
X431750Y171750D01*
X292600Y193220D02*
X292820Y193000D01*
X305750Y222850D02*
X333800Y194800D01*
X305750Y222850D02*
Y240250D01*
X328296Y188675D02*
X329689Y187282D01*
X327075Y188675D02*
X328296D01*
X329689Y187282D02*
X330420D01*
X351000Y179390D02*
X351400Y179790D01*
X351000Y171980D02*
X351417Y171562D01*
X351000Y171980D02*
Y179390D01*
X300400Y239900D02*
X300500Y240000D01*
X286300Y58800D02*
Y66800D01*
D145*
X93000Y92000D02*
X113000Y112000D01*
X57000Y92000D02*
X93000D01*
X46000Y103000D02*
X57000Y92000D01*
X26000Y97000D02*
X32000Y103000D01*
X46000D01*
X26000Y78000D02*
Y97000D01*
X16203Y68203D02*
X26000Y78000D01*
X16203Y51323D02*
Y68203D01*
X15820Y50940D02*
X16203Y51323D01*
X166500Y38000D02*
X235297D01*
X248720Y24578D01*
X161043Y43457D02*
X166500Y38000D01*
X46000Y13436D02*
Y35760D01*
X30820Y50940D02*
X46000Y35760D01*
X51858Y7578D02*
X81895D01*
X46000Y13436D02*
X51858Y7578D01*
X254330Y11080D02*
X268739Y10999D01*
X237923Y11172D02*
X254330Y11080D01*
X134888Y26479D02*
X155836D01*
X173549Y8767D02*
X235517D01*
X81895Y7578D02*
X91467Y17150D01*
X155836Y26479D02*
X173549Y8767D01*
X235517D02*
X237923Y11172D01*
X293325Y24578D02*
X294354Y23549D01*
X248720Y24578D02*
X293325D01*
X91467Y17150D02*
X125560D01*
X134888Y26479D01*
X129038Y43457D02*
X161043D01*
M02*
