G04*
G04 #@! TF.GenerationSoftware,Altium Limited,Altium Designer,25.1.2 (22)*
G04*
G04 Layer_Color=16711935*
%FSLAX44Y44*%
%MOMM*%
G71*
G04*
G04 #@! TF.SameCoordinates,2BCE8437-4B4B-493D-AEBF-8C89570F1AAD*
G04*
G04*
G04 #@! TF.FilePolarity,Positive*
G04*
G01*
G75*
%ADD211C,0.0100*%
D211*
X545244Y180D02*
G03*
X569642Y24544I0J24398D01*
G01*
X569642Y234578D02*
G03*
X545277Y258976I-24398J0D01*
G01*
X4975Y248777D02*
G03*
X-25Y243777I0J-5000D01*
G01*
X28173Y248777D02*
G03*
X33173Y253777I0J5000D01*
G01*
X38175Y259147D02*
G03*
X33173Y254147I-2J-5000D01*
G01*
Y5009D02*
G03*
X38175Y9I5000J0D01*
G01*
X33173Y5379D02*
G03*
X28173Y10379I-5000J0D01*
G01*
X-25Y15379D02*
G03*
X4975Y10379I5000J0D01*
G01*
X569642Y24544D02*
Y234578D01*
X475500Y255450D02*
X479058Y259008D01*
Y258998D02*
X545277Y258976D01*
X443945Y258995D02*
X447490Y255450D01*
X38175Y259147D02*
X443945Y259010D01*
X447500Y255450D02*
X475500D01*
X135941Y41D02*
X139500Y3600D01*
X167500D01*
X236726Y76D02*
X240250Y3600D01*
X268250D01*
X606295Y185005D02*
X606300Y185000D01*
X171055Y54D02*
X236726Y76D01*
X271770Y88D02*
X545244Y180D01*
X268260Y3600D02*
X271770Y90D01*
X167510Y3600D02*
X171055Y55D01*
X38175Y9D02*
X135941Y42D01*
X4975Y248777D02*
X28173D01*
X33173Y253777D02*
Y254147D01*
Y5009D02*
Y5379D01*
X4975Y10379D02*
X28173D01*
X-25Y15379D02*
Y243777D01*
M02*
