G04*
G04 #@! TF.GenerationSoftware,Altium Limited,Altium Designer,25.1.2 (22)*
G04*
G04 Layer_Color=2752767*
%FSLAX44Y44*%
%MOMM*%
G71*
G04*
G04 #@! TF.SameCoordinates,2BCE8437-4B4B-493D-AEBF-8C89570F1AAD*
G04*
G04*
G04 #@! TF.FilePolarity,Positive*
G04*
G01*
G75*
%ADD212C,0.0508*%
D212*
X395788Y94496D02*
X396805Y96528D01*
X395788Y98560D01*
X397821Y97544D01*
X399852Y98560D01*
X398837Y96528D01*
X399852Y94496D01*
X397821Y95512D01*
X395788Y94496D01*
X517984Y85984D02*
Y84968D01*
X520016D01*
Y85984D01*
X521032D01*
Y88016D01*
X520016D01*
Y89032D01*
X517984D01*
Y88016D01*
X516968D01*
Y85984D01*
X517984D01*
X403135Y94907D02*
X404151Y96939D01*
X403135Y98971D01*
X405167Y97955D01*
X407199Y98971D01*
X406183Y96939D01*
X407199Y94907D01*
X405167Y95923D01*
X403135Y94907D01*
X330340Y90193D02*
X331356Y92225D01*
X330340Y94257D01*
X332372Y93241D01*
X334404Y94257D01*
X333388Y92225D01*
X334404Y90193D01*
X332372Y91209D01*
X330340Y90193D01*
X315380Y80026D02*
X316396Y82058D01*
X315380Y84090D01*
X317412Y83074D01*
X319444Y84090D01*
X318428Y82058D01*
X319444Y80026D01*
X317412Y81042D01*
X315380Y80026D01*
X353468Y8968D02*
X354484Y11000D01*
X353468Y13032D01*
X355500Y12016D01*
X357532Y13032D01*
X356516Y11000D01*
X357532Y8968D01*
X355500Y9984D01*
X353468Y8968D01*
X470234Y12484D02*
Y11468D01*
X472266D01*
Y12484D01*
X473282D01*
Y14516D01*
X472266D01*
Y15532D01*
X470234D01*
Y14516D01*
X469218D01*
Y12484D01*
X470234D01*
X484484D02*
Y11468D01*
X486516D01*
Y12484D01*
X487532D01*
Y14516D01*
X486516D01*
Y15532D01*
X484484D01*
Y14516D01*
X483468D01*
Y12484D01*
X484484D01*
X417249Y147985D02*
X418265Y150017D01*
X417249Y152049D01*
X419281Y151033D01*
X421313Y152049D01*
X420297Y150017D01*
X421313Y147985D01*
X419281Y149001D01*
X417249Y147985D01*
X426868Y103968D02*
X427884Y106000D01*
X426868Y108032D01*
X428900Y107016D01*
X430932Y108032D01*
X429916Y106000D01*
X430932Y103968D01*
X428900Y104984D01*
X426868Y103968D01*
X420168Y91468D02*
X421184Y93500D01*
X420168Y95532D01*
X422200Y94516D01*
X424232Y95532D01*
X423216Y93500D01*
X424232Y91468D01*
X422200Y92484D01*
X420168Y91468D01*
X417032Y87314D02*
X418048Y89346D01*
X417032Y91378D01*
X419064Y90362D01*
X421096Y91378D01*
X420080Y89346D01*
X421096Y87314D01*
X419064Y88330D01*
X417032Y87314D01*
X426868Y99284D02*
X427884Y101316D01*
X426868Y103348D01*
X428900Y102332D01*
X430932Y103348D01*
X429916Y101316D01*
X430932Y99284D01*
X428900Y100300D01*
X426868Y99284D01*
X426828Y91184D02*
X427844Y93216D01*
X426828Y95248D01*
X428860Y94232D01*
X430892Y95248D01*
X429876Y93216D01*
X430892Y91184D01*
X428860Y92200D01*
X426828Y91184D01*
X126224Y24719D02*
X127240Y26751D01*
X126224Y28783D01*
X128256Y27767D01*
X130288Y28783D01*
X129272Y26751D01*
X130288Y24719D01*
X128256Y25735D01*
X126224Y24719D01*
X99468Y153968D02*
X100484Y156000D01*
X99468Y158032D01*
X101500Y157016D01*
X103532Y158032D01*
X102516Y156000D01*
X103532Y153968D01*
X101500Y154984D01*
X99468Y153968D01*
X99218Y160718D02*
X100234Y162750D01*
X99218Y164782D01*
X101250Y163766D01*
X103282Y164782D01*
X102266Y162750D01*
X103282Y160718D01*
X101250Y161734D01*
X99218Y160718D01*
X294750Y92731D02*
X295766Y94763D01*
X294750Y96795D01*
X296782Y95779D01*
X298814Y96795D01*
X297798Y94763D01*
X298814Y92731D01*
X296782Y93747D01*
X294750Y92731D01*
X169968Y43968D02*
X170984Y46000D01*
X169968Y48032D01*
X172000Y47016D01*
X174032Y48032D01*
X173016Y46000D01*
X174032Y43968D01*
X172000Y44984D01*
X169968Y43968D01*
X112208Y24600D02*
X113224Y26632D01*
X112208Y28664D01*
X114240Y27648D01*
X116272Y28664D01*
X115256Y26632D01*
X116272Y24600D01*
X114240Y25616D01*
X112208Y24600D01*
X236023Y210134D02*
X237039Y212166D01*
X236023Y214198D01*
X238055Y213182D01*
X240087Y214198D01*
X239071Y212166D01*
X240087Y210134D01*
X238055Y211150D01*
X236023Y210134D01*
X311768Y225018D02*
X312784Y227050D01*
X311768Y229082D01*
X313800Y228066D01*
X315832Y229082D01*
X314816Y227050D01*
X315832Y225018D01*
X313800Y226034D01*
X311768Y225018D01*
X367768Y205268D02*
X368784Y207300D01*
X367768Y209332D01*
X369800Y208316D01*
X371832Y209332D01*
X370816Y207300D01*
X371832Y205268D01*
X369800Y206284D01*
X367768Y205268D01*
X504342Y132894D02*
X505358Y134927D01*
X504342Y136959D01*
X506373Y135942D01*
X508405Y136959D01*
X507389Y134927D01*
X508405Y132894D01*
X506373Y133911D01*
X504342Y132894D01*
X231368Y130768D02*
X232384Y132800D01*
X231368Y134832D01*
X233400Y133816D01*
X235432Y134832D01*
X234416Y132800D01*
X235432Y130768D01*
X233400Y131784D01*
X231368Y130768D01*
X240518Y210343D02*
X241534Y212375D01*
X240518Y214407D01*
X242550Y213391D01*
X244582Y214407D01*
X243566Y212375D01*
X244582Y210343D01*
X242550Y211359D01*
X240518Y210343D01*
X163038Y226512D02*
X164054Y228544D01*
X163038Y230576D01*
X165070Y229560D01*
X167102Y230576D01*
X166086Y228544D01*
X167102Y226512D01*
X165070Y227528D01*
X163038Y226512D01*
X154368Y240468D02*
X155384Y242500D01*
X154368Y244532D01*
X156400Y243516D01*
X158432Y244532D01*
X157416Y242500D01*
X158432Y240468D01*
X156400Y241484D01*
X154368Y240468D01*
X150678Y233401D02*
X151694Y235433D01*
X150678Y237465D01*
X152710Y236449D01*
X154742Y237465D01*
X153726Y235433D01*
X154742Y233401D01*
X152710Y234417D01*
X150678Y233401D01*
X146183Y233198D02*
X147199Y235230D01*
X146183Y237262D01*
X148215Y236246D01*
X150247Y237262D01*
X149231Y235230D01*
X150247Y233198D01*
X148215Y234214D01*
X146183Y233198D01*
X157781Y235158D02*
X158797Y237190D01*
X157781Y239222D01*
X159813Y238206D01*
X161845Y239222D01*
X160829Y237190D01*
X161845Y235158D01*
X159813Y236174D01*
X157781Y235158D01*
X142288Y239818D02*
X143304Y241850D01*
X142288Y243882D01*
X144320Y242866D01*
X146352Y243882D01*
X145336Y241850D01*
X146352Y239818D01*
X144320Y240834D01*
X142288Y239818D01*
X175368Y234468D02*
X176384Y236500D01*
X175368Y238532D01*
X177400Y237516D01*
X179432Y238532D01*
X178416Y236500D01*
X179432Y234468D01*
X177400Y235484D01*
X175368Y234468D01*
X167968Y33968D02*
X168984Y36000D01*
X167968Y38032D01*
X170000Y37016D01*
X172032Y38032D01*
X171016Y36000D01*
X172032Y33968D01*
X170000Y34984D01*
X167968Y33968D01*
X245422Y75118D02*
X246437Y77150D01*
X245422Y79182D01*
X247453Y78166D01*
X249485Y79182D01*
X248470Y77150D01*
X249485Y75118D01*
X247453Y76134D01*
X245422Y75118D01*
X227768Y74068D02*
X228784Y76100D01*
X227768Y78132D01*
X229800Y77116D01*
X231832Y78132D01*
X230816Y76100D01*
X231832Y74068D01*
X229800Y75084D01*
X227768Y74068D01*
X237668Y74879D02*
X238684Y76911D01*
X237668Y78943D01*
X239700Y77927D01*
X241732Y78943D01*
X240716Y76911D01*
X241732Y74879D01*
X239700Y75895D01*
X237668Y74879D01*
X339557Y229718D02*
X340573Y231750D01*
X339557Y233782D01*
X341589Y232766D01*
X343621Y233782D01*
X342605Y231750D01*
X343621Y229718D01*
X341589Y230734D01*
X339557Y229718D01*
X350175Y229488D02*
X351191Y231520D01*
X350175Y233552D01*
X352207Y232536D01*
X354239Y233552D01*
X353223Y231520D01*
X354239Y229488D01*
X352207Y230504D01*
X350175Y229488D01*
X364968Y223968D02*
X365984Y226000D01*
X364968Y228032D01*
X367000Y227016D01*
X369032Y228032D01*
X368016Y226000D01*
X369032Y223968D01*
X367000Y224984D01*
X364968Y223968D01*
X374968D02*
X375984Y226000D01*
X374968Y228032D01*
X377000Y227016D01*
X379032Y228032D01*
X378016Y226000D01*
X379032Y223968D01*
X377000Y224984D01*
X374968Y223968D01*
X369968D02*
X370984Y226000D01*
X369968Y228032D01*
X372000Y227016D01*
X374032Y228032D01*
X373016Y226000D01*
X374032Y223968D01*
X372000Y224984D01*
X369968Y223968D01*
X422968Y222968D02*
X423984Y225000D01*
X422968Y227032D01*
X425000Y226016D01*
X427032Y227032D01*
X426016Y225000D01*
X427032Y222968D01*
X425000Y223984D01*
X422968Y222968D01*
X428968D02*
X429984Y225000D01*
X428968Y227032D01*
X431000Y226016D01*
X433032Y227032D01*
X432016Y225000D01*
X433032Y222968D01*
X431000Y223984D01*
X428968Y222968D01*
Y217968D02*
X429984Y220000D01*
X428968Y222032D01*
X431000Y221016D01*
X433032Y222032D01*
X432016Y220000D01*
X433032Y217968D01*
X431000Y218984D01*
X428968Y217968D01*
Y212968D02*
X429984Y215000D01*
X428968Y217032D01*
X431000Y216016D01*
X433032Y217032D01*
X432016Y215000D01*
X433032Y212968D01*
X431000Y213984D01*
X428968Y212968D01*
X422968D02*
X423984Y215000D01*
X422968Y217032D01*
X425000Y216016D01*
X427032Y217032D01*
X426016Y215000D01*
X427032Y212968D01*
X425000Y213984D01*
X422968Y212968D01*
X416968D02*
X417984Y215000D01*
X416968Y217032D01*
X419000Y216016D01*
X421032Y217032D01*
X420016Y215000D01*
X421032Y212968D01*
X419000Y213984D01*
X416968Y212968D01*
Y217968D02*
X417984Y220000D01*
X416968Y222032D01*
X419000Y221016D01*
X421032Y222032D01*
X420016Y220000D01*
X421032Y217968D01*
X419000Y218984D01*
X416968Y217968D01*
Y222968D02*
X417984Y225000D01*
X416968Y227032D01*
X419000Y226016D01*
X421032Y227032D01*
X420016Y225000D01*
X421032Y222968D01*
X419000Y223984D01*
X416968Y222968D01*
X278468Y9218D02*
X279484Y11250D01*
X278468Y13282D01*
X280500Y12266D01*
X282532Y13282D01*
X281516Y11250D01*
X282532Y9218D01*
X280500Y10234D01*
X278468Y9218D01*
X181968Y7218D02*
X182984Y9250D01*
X181968Y11282D01*
X184000Y10266D01*
X186032Y11282D01*
X185016Y9250D01*
X186032Y7218D01*
X184000Y8234D01*
X181968Y7218D01*
X369768Y173855D02*
X370784Y175887D01*
X369768Y177919D01*
X371800Y176903D01*
X373832Y177919D01*
X372816Y175887D01*
X373832Y173855D01*
X371800Y174871D01*
X369768Y173855D01*
X320968Y166368D02*
X321984Y168400D01*
X320968Y170432D01*
X323000Y169416D01*
X325032Y170432D01*
X324016Y168400D01*
X325032Y166368D01*
X323000Y167384D01*
X320968Y166368D01*
X85611Y241448D02*
X86627Y243480D01*
X85611Y245512D01*
X87643Y244496D01*
X89675Y245512D01*
X88659Y243480D01*
X89675Y241448D01*
X87643Y242464D01*
X85611Y241448D01*
X98468Y247167D02*
X99484Y249200D01*
X98468Y251231D01*
X100500Y250215D01*
X102532Y251231D01*
X101516Y249200D01*
X102532Y247167D01*
X100500Y248183D01*
X98468Y247167D01*
X85968Y35218D02*
X86984Y37250D01*
X85968Y39282D01*
X88000Y38266D01*
X90032Y39282D01*
X89016Y37250D01*
X90032Y35218D01*
X88000Y36234D01*
X85968Y35218D01*
X82166D02*
X83182Y37250D01*
X82166Y39282D01*
X84198Y38266D01*
X86230Y39282D01*
X85214Y37250D01*
X86230Y35218D01*
X84198Y36234D01*
X82166Y35218D01*
X337968Y189168D02*
X338984Y191200D01*
X337968Y193232D01*
X340000Y192216D01*
X342032Y193232D01*
X341016Y191200D01*
X342032Y189168D01*
X340000Y190184D01*
X337968Y189168D01*
X338468Y181468D02*
X339484Y183500D01*
X338468Y185532D01*
X340500Y184516D01*
X342532Y185532D01*
X341516Y183500D01*
X342532Y181468D01*
X340500Y182484D01*
X338468Y181468D01*
X455611Y228432D02*
X456627Y230464D01*
X455611Y232496D01*
X457643Y231480D01*
X459674Y232496D01*
X458658Y230464D01*
X459674Y228432D01*
X457643Y229448D01*
X455611Y228432D01*
X5788Y216908D02*
X6804Y218940D01*
X5788Y220972D01*
X7820Y219956D01*
X9852Y220972D01*
X8836Y218940D01*
X9852Y216908D01*
X7820Y217924D01*
X5788Y216908D01*
Y234408D02*
X6804Y236440D01*
X5788Y238472D01*
X7820Y237456D01*
X9852Y238472D01*
X8836Y236440D01*
X9852Y234408D01*
X7820Y235424D01*
X5788Y234408D01*
X24788D02*
X25804Y236440D01*
X24788Y238472D01*
X26820Y237456D01*
X28852Y238472D01*
X27836Y236440D01*
X28852Y234408D01*
X26820Y235424D01*
X24788Y234408D01*
Y216908D02*
X25804Y218940D01*
X24788Y220972D01*
X26820Y219956D01*
X28852Y220972D01*
X27836Y218940D01*
X28852Y216908D01*
X26820Y217924D01*
X24788Y216908D01*
X169084Y213718D02*
X170100Y215750D01*
X169084Y217782D01*
X171116Y216766D01*
X173148Y217782D01*
X172132Y215750D01*
X173148Y213718D01*
X171116Y214734D01*
X169084Y213718D01*
X193768Y25268D02*
X194784Y27300D01*
X193768Y29332D01*
X195800Y28316D01*
X197832Y29332D01*
X196816Y27300D01*
X197832Y25268D01*
X195800Y26284D01*
X193768Y25268D01*
X220516Y52316D02*
X221532Y54348D01*
X220516Y56380D01*
X222548Y55364D01*
X224580Y56380D01*
X223564Y54348D01*
X224580Y52316D01*
X222548Y53332D01*
X220516Y52316D01*
X453297Y26992D02*
X454313Y29024D01*
X453297Y31056D01*
X455329Y30040D01*
X457361Y31056D01*
X456345Y29024D01*
X457361Y26992D01*
X455329Y28008D01*
X453297Y26992D01*
X452168Y18268D02*
X453184Y20300D01*
X452168Y22332D01*
X454200Y21316D01*
X456232Y22332D01*
X455216Y20300D01*
X456232Y18268D01*
X454200Y19284D01*
X452168Y18268D01*
X400968Y32968D02*
X401984Y35000D01*
X400968Y37032D01*
X403000Y36016D01*
X405032Y37032D01*
X404016Y35000D01*
X405032Y32968D01*
X403000Y33984D01*
X400968Y32968D01*
X317968Y189762D02*
X318984Y191794D01*
X317968Y193826D01*
X320000Y192810D01*
X322032Y193826D01*
X321016Y191794D01*
X322032Y189762D01*
X320000Y190778D01*
X317968Y189762D01*
X385961Y188836D02*
X386977Y190868D01*
X385961Y192900D01*
X387993Y191884D01*
X390025Y192900D01*
X389009Y190868D01*
X390025Y188836D01*
X387993Y189852D01*
X385961Y188836D01*
X435968Y17968D02*
X436984Y20000D01*
X435968Y22032D01*
X438000Y21016D01*
X440032Y22032D01*
X439016Y20000D01*
X440032Y17968D01*
X438000Y18984D01*
X435968Y17968D01*
X375968Y11968D02*
X376984Y14000D01*
X375968Y16032D01*
X378000Y15016D01*
X380032Y16032D01*
X379016Y14000D01*
X380032Y11968D01*
X378000Y12984D01*
X375968Y11968D01*
X468968Y158468D02*
X469984Y160500D01*
X468968Y162532D01*
X471000Y161516D01*
X473032Y162532D01*
X472016Y160500D01*
X473032Y158468D01*
X471000Y159484D01*
X468968Y158468D01*
X464168Y158668D02*
X465184Y160700D01*
X464168Y162732D01*
X466200Y161716D01*
X468232Y162732D01*
X467216Y160700D01*
X468232Y158668D01*
X466200Y159684D01*
X464168Y158668D01*
X483568Y160753D02*
X484584Y162785D01*
X483568Y164817D01*
X485600Y163801D01*
X487632Y164817D01*
X486616Y162785D01*
X487632Y160753D01*
X485600Y161769D01*
X483568Y160753D01*
X495968Y164968D02*
X496984Y167000D01*
X495968Y169032D01*
X498000Y168016D01*
X500032Y169032D01*
X499016Y167000D01*
X500032Y164968D01*
X498000Y165984D01*
X495968Y164968D01*
X207968Y42968D02*
X208984Y45000D01*
X207968Y47032D01*
X210000Y46016D01*
X212032Y47032D01*
X211016Y45000D01*
X212032Y42968D01*
X210000Y43984D01*
X207968Y42968D01*
X214274Y51511D02*
X215290Y53543D01*
X214274Y55575D01*
X216306Y54559D01*
X218338Y55575D01*
X217322Y53543D01*
X218338Y51511D01*
X216306Y52527D01*
X214274Y51511D01*
X237968Y163968D02*
X238984Y166000D01*
X237968Y168032D01*
X240000Y167016D01*
X242032Y168032D01*
X241016Y166000D01*
X242032Y163968D01*
X240000Y164984D01*
X237968Y163968D01*
X227968Y160968D02*
X228984Y163000D01*
X227968Y165032D01*
X230000Y164016D01*
X232032Y165032D01*
X231016Y163000D01*
X232032Y160968D01*
X230000Y161984D01*
X227968Y160968D01*
X232968Y161968D02*
X233984Y164000D01*
X232968Y166032D01*
X235000Y165016D01*
X237032Y166032D01*
X236016Y164000D01*
X237032Y161968D01*
X235000Y162984D01*
X232968Y161968D01*
X164263Y167311D02*
X165279Y169343D01*
X164263Y171375D01*
X166295Y170359D01*
X168327Y171375D01*
X167311Y169343D01*
X168327Y167311D01*
X166295Y168327D01*
X164263Y167311D01*
X8968Y73968D02*
X9984Y76000D01*
X8968Y78032D01*
X11000Y77016D01*
X13032Y78032D01*
X12016Y76000D01*
X13032Y73968D01*
X11000Y74984D01*
X8968Y73968D01*
X5968Y77968D02*
X6984Y80000D01*
X5968Y82032D01*
X8000Y81016D01*
X10032Y82032D01*
X9016Y80000D01*
X10032Y77968D01*
X8000Y78984D01*
X5968Y77968D01*
X7968Y109968D02*
X8984Y112000D01*
X7968Y114032D01*
X10000Y113016D01*
X12032Y114032D01*
X11016Y112000D01*
X12032Y109968D01*
X10000Y110984D01*
X7968Y109968D01*
Y101968D02*
X8984Y104000D01*
X7968Y106032D01*
X10000Y105016D01*
X12032Y106032D01*
X11016Y104000D01*
X12032Y101968D01*
X10000Y102984D01*
X7968Y101968D01*
Y97968D02*
X8984Y100000D01*
X7968Y102032D01*
X10000Y101016D01*
X12032Y102032D01*
X11016Y100000D01*
X12032Y97968D01*
X10000Y98984D01*
X7968Y97968D01*
Y105968D02*
X8984Y108000D01*
X7968Y110032D01*
X10000Y109016D01*
X12032Y110032D01*
X11016Y108000D01*
X12032Y105968D01*
X10000Y106984D01*
X7968Y105968D01*
X29968Y96968D02*
X30984Y99000D01*
X29968Y101032D01*
X32000Y100016D01*
X34032Y101032D01*
X33016Y99000D01*
X34032Y96968D01*
X32000Y97984D01*
X29968Y96968D01*
X25968D02*
X26984Y99000D01*
X25968Y101032D01*
X28000Y100016D01*
X30032Y101032D01*
X29016Y99000D01*
X30032Y96968D01*
X28000Y97984D01*
X25968Y96968D01*
X29968Y100968D02*
X30984Y103000D01*
X29968Y105032D01*
X32000Y104016D01*
X34032Y105032D01*
X33016Y103000D01*
X34032Y100968D01*
X32000Y101984D01*
X29968Y100968D01*
X25968D02*
X26984Y103000D01*
X25968Y105032D01*
X28000Y104016D01*
X30032Y105032D01*
X29016Y103000D01*
X30032Y100968D01*
X28000Y101984D01*
X25968Y100968D01*
Y104968D02*
X26984Y107000D01*
X25968Y109032D01*
X28000Y108016D01*
X30032Y109032D01*
X29016Y107000D01*
X30032Y104968D01*
X28000Y105984D01*
X25968Y104968D01*
X29968D02*
X30984Y107000D01*
X29968Y109032D01*
X32000Y108016D01*
X34032Y109032D01*
X33016Y107000D01*
X34032Y104968D01*
X32000Y105984D01*
X29968Y104968D01*
X172984Y11984D02*
Y10968D01*
X175016D01*
Y11984D01*
X176032D01*
Y14016D01*
X175016D01*
Y15032D01*
X172984D01*
Y14016D01*
X171968D01*
Y11984D01*
X172984D01*
X234187Y23968D02*
X235203Y26000D01*
X234187Y28032D01*
X236219Y27016D01*
X238251Y28032D01*
X237235Y26000D01*
X238251Y23968D01*
X236219Y24984D01*
X234187Y23968D01*
X142968Y14968D02*
X143984Y17000D01*
X142968Y19032D01*
X145000Y18016D01*
X147032Y19032D01*
X146016Y17000D01*
X147032Y14968D01*
X145000Y15984D01*
X142968Y14968D01*
X165968Y156168D02*
X166984Y158200D01*
X165968Y160232D01*
X168000Y159216D01*
X170032Y160232D01*
X169016Y158200D01*
X170032Y156168D01*
X168000Y157184D01*
X165968Y156168D01*
X135968Y96968D02*
X136984Y99000D01*
X135968Y101032D01*
X138000Y100016D01*
X140032Y101032D01*
X139016Y99000D01*
X140032Y96968D01*
X138000Y97984D01*
X135968Y96968D01*
X136158Y48020D02*
X137174Y50052D01*
X136158Y52084D01*
X138190Y51068D01*
X140222Y52084D01*
X139206Y50052D01*
X140222Y48020D01*
X138190Y49036D01*
X136158Y48020D01*
X100695Y24514D02*
X101711Y26546D01*
X100695Y28578D01*
X102726Y27562D01*
X104759Y28578D01*
X103743Y26546D01*
X104759Y24514D01*
X102726Y25530D01*
X100695Y24514D01*
X195438Y178718D02*
X196454Y180750D01*
X195438Y182782D01*
X197470Y181766D01*
X199502Y182782D01*
X198486Y180750D01*
X199502Y178718D01*
X197470Y179734D01*
X195438Y178718D01*
X220835Y175279D02*
X221851Y177311D01*
X220835Y179343D01*
X222867Y178327D01*
X224899Y179343D01*
X223883Y177311D01*
X224899Y175279D01*
X222867Y176295D01*
X220835Y175279D01*
X236968Y151859D02*
X237984Y153891D01*
X236968Y155923D01*
X239000Y154907D01*
X241032Y155923D01*
X240016Y153891D01*
X241032Y151859D01*
X239000Y152875D01*
X236968Y151859D01*
X206968Y162968D02*
X207984Y165000D01*
X206968Y167032D01*
X209000Y166016D01*
X211032Y167032D01*
X210016Y165000D01*
X211032Y162968D01*
X209000Y163984D01*
X206968Y162968D01*
X78568Y39468D02*
X79584Y41500D01*
X78568Y43532D01*
X80600Y42516D01*
X82632Y43532D01*
X81616Y41500D01*
X82632Y39468D01*
X80600Y40484D01*
X78568Y39468D01*
X49968Y67968D02*
X50984Y70000D01*
X49968Y72032D01*
X52000Y71016D01*
X54032Y72032D01*
X53016Y70000D01*
X54032Y67968D01*
X52000Y68984D01*
X49968Y67968D01*
Y72968D02*
X50984Y75000D01*
X49968Y77032D01*
X52000Y76016D01*
X54032Y77032D01*
X53016Y75000D01*
X54032Y72968D01*
X52000Y73984D01*
X49968Y72968D01*
X135968Y55968D02*
X136984Y58000D01*
X135968Y60032D01*
X138000Y59016D01*
X140032Y60032D01*
X139016Y58000D01*
X140032Y55968D01*
X138000Y56984D01*
X135968Y55968D01*
X131968Y96968D02*
X132984Y99000D01*
X131968Y101032D01*
X134000Y100016D01*
X136032Y101032D01*
X135016Y99000D01*
X136032Y96968D01*
X134000Y97984D01*
X131968Y96968D01*
X135968Y92968D02*
X136984Y95000D01*
X135968Y97032D01*
X138000Y96016D01*
X140032Y97032D01*
X139016Y95000D01*
X140032Y92968D01*
X138000Y93984D01*
X135968Y92968D01*
X131968D02*
X132984Y95000D01*
X131968Y97032D01*
X134000Y96016D01*
X136032Y97032D01*
X135016Y95000D01*
X136032Y92968D01*
X134000Y93984D01*
X131968Y92968D01*
X135968Y88968D02*
X136984Y91000D01*
X135968Y93032D01*
X138000Y92016D01*
X140032Y93032D01*
X139016Y91000D01*
X140032Y88968D01*
X138000Y89984D01*
X135968Y88968D01*
X131968D02*
X132984Y91000D01*
X131968Y93032D01*
X134000Y92016D01*
X136032Y93032D01*
X135016Y91000D01*
X136032Y88968D01*
X134000Y89984D01*
X131968Y88968D01*
Y55968D02*
X132984Y58000D01*
X131968Y60032D01*
X134000Y59016D01*
X136032Y60032D01*
X135016Y58000D01*
X136032Y55968D01*
X134000Y56984D01*
X131968Y55968D01*
X135968Y59968D02*
X136984Y62000D01*
X135968Y64032D01*
X138000Y63016D01*
X140032Y64032D01*
X139016Y62000D01*
X140032Y59968D01*
X138000Y60984D01*
X135968Y59968D01*
X131968D02*
X132984Y62000D01*
X131968Y64032D01*
X134000Y63016D01*
X136032Y64032D01*
X135016Y62000D01*
X136032Y59968D01*
X134000Y60984D01*
X131968Y59968D01*
X135968Y72968D02*
X136984Y75000D01*
X135968Y77032D01*
X138000Y76016D01*
X140032Y77032D01*
X139016Y75000D01*
X140032Y72968D01*
X138000Y73984D01*
X135968Y72968D01*
X131968D02*
X132984Y75000D01*
X131968Y77032D01*
X134000Y76016D01*
X136032Y77032D01*
X135016Y75000D01*
X136032Y72968D01*
X134000Y73984D01*
X131968Y72968D01*
X135968Y84968D02*
X136984Y87000D01*
X135968Y89032D01*
X138000Y88016D01*
X140032Y89032D01*
X139016Y87000D01*
X140032Y84968D01*
X138000Y85984D01*
X135968Y84968D01*
X131968D02*
X132984Y87000D01*
X131968Y89032D01*
X134000Y88016D01*
X136032Y89032D01*
X135016Y87000D01*
X136032Y84968D01*
X134000Y85984D01*
X131968Y84968D01*
X66968D02*
X67984Y87000D01*
X66968Y89032D01*
X69000Y88016D01*
X71032Y89032D01*
X70016Y87000D01*
X71032Y84968D01*
X69000Y85984D01*
X66968Y84968D01*
X71968D02*
X72984Y87000D01*
X71968Y89032D01*
X74000Y88016D01*
X76032Y89032D01*
X75016Y87000D01*
X76032Y84968D01*
X74000Y85984D01*
X71968Y84968D01*
X76968D02*
X77984Y87000D01*
X76968Y89032D01*
X79000Y88016D01*
X81032Y89032D01*
X80016Y87000D01*
X81032Y84968D01*
X79000Y85984D01*
X76968Y84968D01*
X81968D02*
X82984Y87000D01*
X81968Y89032D01*
X84000Y88016D01*
X86032Y89032D01*
X85016Y87000D01*
X86032Y84968D01*
X84000Y85984D01*
X81968Y84968D01*
X86968D02*
X87984Y87000D01*
X86968Y89032D01*
X89000Y88016D01*
X91032Y89032D01*
X90016Y87000D01*
X91032Y84968D01*
X89000Y85984D01*
X86968Y84968D01*
Y79968D02*
X87984Y82000D01*
X86968Y84032D01*
X89000Y83016D01*
X91032Y84032D01*
X90016Y82000D01*
X91032Y79968D01*
X89000Y80984D01*
X86968Y79968D01*
X81968D02*
X82984Y82000D01*
X81968Y84032D01*
X84000Y83016D01*
X86032Y84032D01*
X85016Y82000D01*
X86032Y79968D01*
X84000Y80984D01*
X81968Y79968D01*
X76968D02*
X77984Y82000D01*
X76968Y84032D01*
X79000Y83016D01*
X81032Y84032D01*
X80016Y82000D01*
X81032Y79968D01*
X79000Y80984D01*
X76968Y79968D01*
X71968D02*
X72984Y82000D01*
X71968Y84032D01*
X74000Y83016D01*
X76032Y84032D01*
X75016Y82000D01*
X76032Y79968D01*
X74000Y80984D01*
X71968Y79968D01*
X66968D02*
X67984Y82000D01*
X66968Y84032D01*
X69000Y83016D01*
X71032Y84032D01*
X70016Y82000D01*
X71032Y79968D01*
X69000Y80984D01*
X66968Y79968D01*
Y74968D02*
X67984Y77000D01*
X66968Y79032D01*
X69000Y78016D01*
X71032Y79032D01*
X70016Y77000D01*
X71032Y74968D01*
X69000Y75984D01*
X66968Y74968D01*
X71968D02*
X72984Y77000D01*
X71968Y79032D01*
X74000Y78016D01*
X76032Y79032D01*
X75016Y77000D01*
X76032Y74968D01*
X74000Y75984D01*
X71968Y74968D01*
X76968D02*
X77984Y77000D01*
X76968Y79032D01*
X79000Y78016D01*
X81032Y79032D01*
X80016Y77000D01*
X81032Y74968D01*
X79000Y75984D01*
X76968Y74968D01*
X81968D02*
X82984Y77000D01*
X81968Y79032D01*
X84000Y78016D01*
X86032Y79032D01*
X85016Y77000D01*
X86032Y74968D01*
X84000Y75984D01*
X81968Y74968D01*
X86968D02*
X87984Y77000D01*
X86968Y79032D01*
X89000Y78016D01*
X91032Y79032D01*
X90016Y77000D01*
X91032Y74968D01*
X89000Y75984D01*
X86968Y74968D01*
Y69968D02*
X87984Y72000D01*
X86968Y74032D01*
X89000Y73016D01*
X91032Y74032D01*
X90016Y72000D01*
X91032Y69968D01*
X89000Y70984D01*
X86968Y69968D01*
X81968D02*
X82984Y72000D01*
X81968Y74032D01*
X84000Y73016D01*
X86032Y74032D01*
X85016Y72000D01*
X86032Y69968D01*
X84000Y70984D01*
X81968Y69968D01*
X76968D02*
X77984Y72000D01*
X76968Y74032D01*
X79000Y73016D01*
X81032Y74032D01*
X80016Y72000D01*
X81032Y69968D01*
X79000Y70984D01*
X76968Y69968D01*
X71968D02*
X72984Y72000D01*
X71968Y74032D01*
X74000Y73016D01*
X76032Y74032D01*
X75016Y72000D01*
X76032Y69968D01*
X74000Y70984D01*
X71968Y69968D01*
X66968D02*
X67984Y72000D01*
X66968Y74032D01*
X69000Y73016D01*
X71032Y74032D01*
X70016Y72000D01*
X71032Y69968D01*
X69000Y70984D01*
X66968Y69968D01*
X85968Y38968D02*
X86984Y41000D01*
X85968Y43032D01*
X88000Y42016D01*
X90032Y43032D01*
X89016Y41000D01*
X90032Y38968D01*
X88000Y39984D01*
X85968Y38968D01*
X81968D02*
X82984Y41000D01*
X81968Y43032D01*
X84000Y42016D01*
X86032Y43032D01*
X85016Y41000D01*
X86032Y38968D01*
X84000Y39984D01*
X81968Y38968D01*
X77968Y42968D02*
X78984Y45000D01*
X77968Y47032D01*
X80000Y46016D01*
X82032Y47032D01*
X81016Y45000D01*
X82032Y42968D01*
X80000Y43984D01*
X77968Y42968D01*
X73968D02*
X74984Y45000D01*
X73968Y47032D01*
X76000Y46016D01*
X78032Y47032D01*
X77016Y45000D01*
X78032Y42968D01*
X76000Y43984D01*
X73968Y42968D01*
Y46968D02*
X74984Y49000D01*
X73968Y51032D01*
X76000Y50016D01*
X78032Y51032D01*
X77016Y49000D01*
X78032Y46968D01*
X76000Y47984D01*
X73968Y46968D01*
X69968D02*
X70984Y49000D01*
X69968Y51032D01*
X72000Y50016D01*
X74032Y51032D01*
X73016Y49000D01*
X74032Y46968D01*
X72000Y47984D01*
X69968Y46968D01*
Y50968D02*
X70984Y53000D01*
X69968Y55032D01*
X72000Y54016D01*
X74032Y55032D01*
X73016Y53000D01*
X74032Y50968D01*
X72000Y51984D01*
X69968Y50968D01*
X246968Y24168D02*
X247984Y26200D01*
X246968Y28232D01*
X249000Y27216D01*
X251032Y28232D01*
X250016Y26200D01*
X251032Y24168D01*
X249000Y25184D01*
X246968Y24168D01*
X281168Y174668D02*
X282184Y176700D01*
X281168Y178732D01*
X283200Y177716D01*
X285232Y178732D01*
X284216Y176700D01*
X285232Y174668D01*
X283200Y175684D01*
X281168Y174668D01*
X289438Y114618D02*
X290454Y116650D01*
X289438Y118682D01*
X291470Y117666D01*
X293502Y118682D01*
X292486Y116650D01*
X293502Y114618D01*
X291470Y115634D01*
X289438Y114618D01*
X285084Y115755D02*
X286100Y117787D01*
X285084Y119819D01*
X287116Y118803D01*
X289148Y119819D01*
X288132Y117787D01*
X289148Y115755D01*
X287116Y116771D01*
X285084Y115755D01*
X97968Y198268D02*
X98984Y200300D01*
X97968Y202332D01*
X100000Y201316D01*
X102032Y202332D01*
X101016Y200300D01*
X102032Y198268D01*
X100000Y199284D01*
X97968Y198268D01*
X87580Y208636D02*
X88596Y210668D01*
X87580Y212700D01*
X89612Y211684D01*
X91644Y212700D01*
X90628Y210668D01*
X91644Y208636D01*
X89612Y209652D01*
X87580Y208636D01*
X40963Y244659D02*
X41979Y246691D01*
X40963Y248723D01*
X42995Y247707D01*
X45027Y248723D01*
X44011Y246691D01*
X45027Y244659D01*
X42995Y245675D01*
X40963Y244659D01*
X42168Y218968D02*
X43184Y221000D01*
X42168Y223032D01*
X44200Y222016D01*
X46232Y223032D01*
X45216Y221000D01*
X46232Y218968D01*
X44200Y219984D01*
X42168Y218968D01*
X34639Y219968D02*
X35654Y222000D01*
X34639Y224032D01*
X36670Y223016D01*
X38702Y224032D01*
X37687Y222000D01*
X38702Y219968D01*
X36670Y220984D01*
X34639Y219968D01*
X81551Y247068D02*
X82567Y249100D01*
X81551Y251132D01*
X83583Y250116D01*
X85615Y251132D01*
X84599Y249100D01*
X85615Y247068D01*
X83583Y248084D01*
X81551Y247068D01*
X154558Y223850D02*
X155574Y225882D01*
X154558Y227914D01*
X156590Y226898D01*
X158622Y227914D01*
X157606Y225882D01*
X158622Y223850D01*
X156590Y224866D01*
X154558Y223850D01*
X129934Y243908D02*
X130950Y245940D01*
X129934Y247972D01*
X131966Y246956D01*
X133998Y247972D01*
X132982Y245940D01*
X133998Y243908D01*
X131966Y244924D01*
X129934Y243908D01*
X164307Y235458D02*
X165323Y237490D01*
X164307Y239522D01*
X166339Y238506D01*
X168371Y239522D01*
X167355Y237490D01*
X168371Y235458D01*
X166339Y236474D01*
X164307Y235458D01*
X120042Y243951D02*
X121058Y245983D01*
X120042Y248015D01*
X122074Y246999D01*
X124106Y248015D01*
X123090Y245983D01*
X124106Y243951D01*
X122074Y244967D01*
X120042Y243951D01*
X110468Y5968D02*
X111484Y8000D01*
X110468Y10032D01*
X112500Y9016D01*
X114532Y10032D01*
X113516Y8000D01*
X114532Y5968D01*
X112500Y6984D01*
X110468Y5968D01*
X129468D02*
X130484Y8000D01*
X129468Y10032D01*
X131500Y9016D01*
X133532Y10032D01*
X132516Y8000D01*
X133532Y5968D01*
X131500Y6984D01*
X129468Y5968D01*
X91468D02*
X92484Y8000D01*
X91468Y10032D01*
X93500Y9016D01*
X95532Y10032D01*
X94516Y8000D01*
X95532Y5968D01*
X93500Y6984D01*
X91468Y5968D01*
X202218Y236435D02*
X203234Y238467D01*
X202218Y240499D01*
X204250Y239483D01*
X206282Y240499D01*
X205266Y238467D01*
X206282Y236435D01*
X204250Y237451D01*
X202218Y236435D01*
X200218Y240568D02*
X201234Y242600D01*
X200218Y244632D01*
X202250Y243616D01*
X204282Y244632D01*
X203266Y242600D01*
X204282Y240568D01*
X202250Y241584D01*
X200218Y240568D01*
X197368Y244468D02*
X198384Y246500D01*
X197368Y248532D01*
X199400Y247516D01*
X201432Y248532D01*
X200416Y246500D01*
X201432Y244468D01*
X199400Y245484D01*
X197368Y244468D01*
X255968Y247518D02*
X256984Y249550D01*
X255968Y251582D01*
X258000Y250566D01*
X260032Y251582D01*
X259016Y249550D01*
X260032Y247518D01*
X258000Y248534D01*
X255968Y247518D01*
X215993Y202968D02*
X217009Y205000D01*
X215993Y207032D01*
X218025Y206016D01*
X220057Y207032D01*
X219041Y205000D01*
X220057Y202968D01*
X218025Y203984D01*
X215993Y202968D01*
X215968Y207968D02*
X216984Y210000D01*
X215968Y212032D01*
X218000Y211016D01*
X220032Y212032D01*
X219016Y210000D01*
X220032Y207968D01*
X218000Y208984D01*
X215968Y207968D01*
X219968D02*
X220984Y210000D01*
X219968Y212032D01*
X222000Y211016D01*
X224032Y212032D01*
X223016Y210000D01*
X224032Y207968D01*
X222000Y208984D01*
X219968Y207968D01*
Y202968D02*
X220984Y205000D01*
X219968Y207032D01*
X222000Y206016D01*
X224032Y207032D01*
X223016Y205000D01*
X224032Y202968D01*
X222000Y203984D01*
X219968Y202968D01*
X202963Y52536D02*
X203979Y54568D01*
X202963Y56600D01*
X204995Y55584D01*
X207027Y56600D01*
X206011Y54568D01*
X207027Y52536D01*
X204995Y53552D01*
X202963Y52536D01*
X212468Y55768D02*
X213484Y57800D01*
X212468Y59832D01*
X214500Y58816D01*
X216532Y59832D01*
X215516Y57800D01*
X216532Y55768D01*
X214500Y56784D01*
X212468Y55768D01*
X195368Y61068D02*
X196384Y63100D01*
X195368Y65132D01*
X197400Y64116D01*
X199432Y65132D01*
X198416Y63100D01*
X199432Y61068D01*
X197400Y62084D01*
X195368Y61068D01*
X194568Y54768D02*
X195584Y56800D01*
X194568Y58832D01*
X196600Y57816D01*
X198632Y58832D01*
X197616Y56800D01*
X198632Y54768D01*
X196600Y55784D01*
X194568Y54768D01*
X199009Y55491D02*
X200026Y57523D01*
X199009Y59555D01*
X201042Y58539D01*
X203074Y59555D01*
X202057Y57523D01*
X203074Y55491D01*
X201042Y56507D01*
X199009Y55491D01*
X208568Y63368D02*
X209584Y65400D01*
X208568Y67432D01*
X210600Y66416D01*
X212632Y67432D01*
X211616Y65400D01*
X212632Y63368D01*
X210600Y64384D01*
X208568Y63368D01*
X131894Y203118D02*
X132910Y205150D01*
X131894Y207182D01*
X133926Y206166D01*
X135958Y207182D01*
X134942Y205150D01*
X135958Y203118D01*
X133926Y204134D01*
X131894Y203118D01*
X136389Y203339D02*
X137405Y205371D01*
X136389Y207403D01*
X138421Y206387D01*
X140453Y207403D01*
X139437Y205371D01*
X140453Y203339D01*
X138421Y204355D01*
X136389Y203339D01*
X143418Y203118D02*
X144434Y205150D01*
X143418Y207182D01*
X145450Y206166D01*
X147482Y207182D01*
X146466Y205150D01*
X147482Y203118D01*
X145450Y204134D01*
X143418Y203118D01*
X127394D02*
X128410Y205150D01*
X127394Y207182D01*
X129426Y206166D01*
X131458Y207182D01*
X130442Y205150D01*
X131458Y203118D01*
X129426Y204134D01*
X127394Y203118D01*
X140042Y206094D02*
X141058Y208126D01*
X140042Y210158D01*
X142074Y209142D01*
X144106Y210158D01*
X143090Y208126D01*
X144106Y206094D01*
X142074Y207110D01*
X140042Y206094D01*
X147183Y205583D02*
X148199Y207615D01*
X147183Y209647D01*
X149215Y208631D01*
X151247Y209647D01*
X150231Y207615D01*
X151247Y205583D01*
X149215Y206599D01*
X147183Y205583D01*
X314668Y165678D02*
X315684Y167710D01*
X314668Y169742D01*
X316700Y168726D01*
X318732Y169742D01*
X317716Y167710D01*
X318732Y165678D01*
X316700Y166694D01*
X314668Y165678D01*
X239418Y216975D02*
X240434Y219007D01*
X239418Y221039D01*
X241450Y220023D01*
X243482Y221039D01*
X242466Y219007D01*
X243482Y216975D01*
X241450Y217991D01*
X239418Y216975D01*
X420468Y230468D02*
X421484Y232500D01*
X420468Y234532D01*
X422500Y233516D01*
X424532Y234532D01*
X423516Y232500D01*
X424532Y230468D01*
X422500Y231484D01*
X420468Y230468D01*
X412218Y12718D02*
X413234Y14750D01*
X412218Y16782D01*
X414250Y15766D01*
X416282Y16782D01*
X415266Y14750D01*
X416282Y12718D01*
X414250Y13734D01*
X412218Y12718D01*
X47568Y88368D02*
X48584Y90400D01*
X47568Y92432D01*
X49600Y91416D01*
X51632Y92432D01*
X50616Y90400D01*
X51632Y88368D01*
X49600Y89384D01*
X47568Y88368D01*
X204383Y230283D02*
X205399Y232315D01*
X204383Y234347D01*
X206415Y233331D01*
X208447Y234347D01*
X207431Y232315D01*
X208447Y230283D01*
X206415Y231299D01*
X204383Y230283D01*
X369032Y165678D02*
X370048Y167710D01*
X369032Y169742D01*
X371064Y168726D01*
X373096Y169742D01*
X372080Y167710D01*
X373096Y165678D01*
X371064Y166694D01*
X369032Y165678D01*
X338668Y149678D02*
X339684Y151710D01*
X338668Y153742D01*
X340700Y152726D01*
X342732Y153742D01*
X341716Y151710D01*
X342732Y149678D01*
X340700Y150694D01*
X338668Y149678D01*
X361032Y143314D02*
X362048Y145346D01*
X361032Y147378D01*
X363064Y146362D01*
X365096Y147378D01*
X364080Y145346D01*
X365096Y143314D01*
X363064Y144330D01*
X361032Y143314D01*
X271468Y228018D02*
X272484Y230050D01*
X271468Y232082D01*
X273500Y231066D01*
X275532Y232082D01*
X274516Y230050D01*
X275532Y228018D01*
X273500Y229034D01*
X271468Y228018D01*
X193718Y227168D02*
X194734Y229200D01*
X193718Y231232D01*
X195750Y230216D01*
X197782Y231232D01*
X196766Y229200D01*
X197782Y227168D01*
X195750Y228184D01*
X193718Y227168D01*
X412368Y49818D02*
X413384Y51850D01*
X412368Y53882D01*
X414400Y52866D01*
X416432Y53882D01*
X415416Y51850D01*
X416432Y49818D01*
X414400Y50834D01*
X412368Y49818D01*
X393738Y172323D02*
X394754Y174355D01*
X393738Y176387D01*
X395770Y175371D01*
X397802Y176387D01*
X396786Y174355D01*
X397802Y172323D01*
X395770Y173339D01*
X393738Y172323D01*
X307668Y228268D02*
X308684Y230300D01*
X307668Y232332D01*
X309700Y231316D01*
X311732Y232332D01*
X310716Y230300D01*
X311732Y228268D01*
X309700Y229284D01*
X307668Y228268D01*
X337688Y239086D02*
X338704Y241118D01*
X337688Y243150D01*
X339720Y242134D01*
X341752Y243150D01*
X340736Y241118D01*
X341752Y239086D01*
X339720Y240102D01*
X337688Y239086D01*
X369032Y141678D02*
X370048Y143710D01*
X369032Y145742D01*
X371064Y144726D01*
X373096Y145742D01*
X372080Y143710D01*
X373096Y141678D01*
X371064Y142694D01*
X369032Y141678D01*
X410266Y174270D02*
X411282Y176302D01*
X410266Y178334D01*
X412298Y177318D01*
X414330Y178334D01*
X413314Y176302D01*
X414330Y174270D01*
X412298Y175286D01*
X410266Y174270D01*
X384768Y173668D02*
X385784Y175700D01*
X384768Y177732D01*
X386800Y176716D01*
X388832Y177732D01*
X387816Y175700D01*
X388832Y173668D01*
X386800Y174684D01*
X384768Y173668D01*
X412218Y205968D02*
X413234Y208000D01*
X412218Y210032D01*
X414250Y209016D01*
X416282Y210032D01*
X415266Y208000D01*
X416282Y205968D01*
X414250Y206984D01*
X412218Y205968D01*
X398668Y192768D02*
X399684Y194800D01*
X398668Y196832D01*
X400700Y195816D01*
X402732Y196832D01*
X401716Y194800D01*
X402732Y192768D01*
X400700Y193784D01*
X398668Y192768D01*
X440290Y178368D02*
X441306Y180400D01*
X440290Y182432D01*
X442322Y181416D01*
X444354Y182432D01*
X443338Y180400D01*
X444354Y178368D01*
X442322Y179384D01*
X440290Y178368D01*
X395068Y189868D02*
X396084Y191900D01*
X395068Y193932D01*
X397100Y192916D01*
X399132Y193932D01*
X398116Y191900D01*
X399132Y189868D01*
X397100Y190884D01*
X395068Y189868D01*
X409032Y111314D02*
X410048Y113346D01*
X409032Y115378D01*
X411064Y114362D01*
X413096Y115378D01*
X412080Y113346D01*
X413096Y111314D01*
X411064Y112330D01*
X409032Y111314D01*
X377032Y119314D02*
X378048Y121346D01*
X377032Y123378D01*
X379064Y122362D01*
X381096Y123378D01*
X380080Y121346D01*
X381096Y119314D01*
X379064Y120330D01*
X377032Y119314D01*
X401032D02*
X402048Y121346D01*
X401032Y123378D01*
X403064Y122362D01*
X405096Y123378D01*
X404080Y121346D01*
X405096Y119314D01*
X403064Y120330D01*
X401032Y119314D01*
Y111314D02*
X402048Y113346D01*
X401032Y115378D01*
X403064Y114362D01*
X405096Y115378D01*
X404080Y113346D01*
X405096Y111314D01*
X403064Y112330D01*
X401032Y111314D01*
X393032Y119314D02*
X394048Y121346D01*
X393032Y123378D01*
X395064Y122362D01*
X397096Y123378D01*
X396080Y121346D01*
X397096Y119314D01*
X395064Y120330D01*
X393032Y119314D01*
X408450Y159696D02*
X409466Y161728D01*
X408450Y163760D01*
X410482Y162744D01*
X412514Y163760D01*
X411498Y161728D01*
X412514Y159696D01*
X410482Y160712D01*
X408450Y159696D01*
Y167696D02*
X409466Y169728D01*
X408450Y171760D01*
X410482Y170744D01*
X412514Y171760D01*
X411498Y169728D01*
X412514Y167696D01*
X410482Y168712D01*
X408450Y167696D01*
X417068Y167968D02*
X418084Y170000D01*
X417068Y172032D01*
X419100Y171016D01*
X421132Y172032D01*
X420116Y170000D01*
X421132Y167968D01*
X419100Y168984D01*
X417068Y167968D01*
X324870Y196470D02*
X325886Y198502D01*
X324870Y200534D01*
X326902Y199518D01*
X328934Y200534D01*
X327918Y198502D01*
X328934Y196470D01*
X326902Y197486D01*
X324870Y196470D01*
X359468Y206529D02*
X360484Y208561D01*
X359468Y210593D01*
X361500Y209577D01*
X363532Y210593D01*
X362516Y208561D01*
X363532Y206529D01*
X361500Y207545D01*
X359468Y206529D01*
X123968Y212718D02*
X124984Y214750D01*
X123968Y216782D01*
X126000Y215766D01*
X128032Y216782D01*
X127016Y214750D01*
X128032Y212718D01*
X126000Y213734D01*
X123968Y212718D01*
X389366Y191866D02*
X390382Y193898D01*
X389366Y195930D01*
X391398Y194914D01*
X393430Y195930D01*
X392414Y193898D01*
X393430Y191866D01*
X391398Y192882D01*
X389366Y191866D01*
X377032Y149678D02*
X378048Y151710D01*
X377032Y153742D01*
X379064Y152726D01*
X381096Y153742D01*
X380080Y151710D01*
X381096Y149678D01*
X379064Y150694D01*
X377032Y149678D01*
X346668Y141678D02*
X347684Y143710D01*
X346668Y145742D01*
X348700Y144726D01*
X350732Y145742D01*
X349716Y143710D01*
X350732Y141678D01*
X348700Y142694D01*
X346668Y141678D01*
X330718Y175468D02*
X331734Y177500D01*
X330718Y179532D01*
X332750Y178516D01*
X334782Y179532D01*
X333766Y177500D01*
X334782Y175468D01*
X332750Y176484D01*
X330718Y175468D01*
X266218Y197125D02*
X267234Y199158D01*
X266218Y201189D01*
X268250Y200173D01*
X270282Y201189D01*
X269266Y199158D01*
X270282Y197125D01*
X268250Y198141D01*
X266218Y197125D01*
X271218Y196968D02*
X272234Y199000D01*
X271218Y201032D01*
X273250Y200016D01*
X275282Y201032D01*
X274266Y199000D01*
X275282Y196968D01*
X273250Y197984D01*
X271218Y196968D01*
X337032Y173678D02*
X338048Y175710D01*
X337032Y177742D01*
X339064Y176726D01*
X341096Y177742D01*
X340080Y175710D01*
X341096Y173678D01*
X339064Y174694D01*
X337032Y173678D01*
X379826Y78948D02*
X380842Y80980D01*
X379826Y83012D01*
X381858Y81996D01*
X383890Y83012D01*
X382874Y80980D01*
X383890Y78948D01*
X381858Y79964D01*
X379826Y78948D01*
X377032Y165678D02*
X378048Y167710D01*
X377032Y169742D01*
X379064Y168726D01*
X381096Y169742D01*
X380080Y167710D01*
X381096Y165678D01*
X379064Y166694D01*
X377032Y165678D01*
X322668Y181678D02*
X323684Y183710D01*
X322668Y185742D01*
X324700Y184726D01*
X326732Y185742D01*
X325716Y183710D01*
X326732Y181678D01*
X324700Y182694D01*
X322668Y181678D01*
Y173678D02*
X323684Y175710D01*
X322668Y177742D01*
X324700Y176726D01*
X326732Y177742D01*
X325716Y175710D01*
X326732Y173678D01*
X324700Y174694D01*
X322668Y173678D01*
X356237Y210468D02*
X357253Y212500D01*
X356237Y214532D01*
X358269Y213516D01*
X360301Y214532D01*
X359285Y212500D01*
X360301Y210468D01*
X358269Y211484D01*
X356237Y210468D01*
X408968D02*
X409984Y212500D01*
X408968Y214532D01*
X411000Y213516D01*
X413032Y214532D01*
X412016Y212500D01*
X413032Y210468D01*
X411000Y211484D01*
X408968Y210468D01*
X420368Y205568D02*
X421384Y207600D01*
X420368Y209632D01*
X422400Y208616D01*
X424432Y209632D01*
X423416Y207600D01*
X424432Y205568D01*
X422400Y206584D01*
X420368Y205568D01*
X367737Y233718D02*
X368753Y235750D01*
X367737Y237782D01*
X369769Y236766D01*
X371801Y237782D01*
X370785Y235750D01*
X371801Y233718D01*
X369769Y234734D01*
X367737Y233718D01*
X504093Y166044D02*
X505109Y168076D01*
X504093Y170108D01*
X506125Y169092D01*
X508157Y170108D01*
X507141Y168076D01*
X508157Y166044D01*
X506125Y167060D01*
X504093Y166044D01*
X393032Y149678D02*
X394048Y151710D01*
X393032Y153742D01*
X395064Y152726D01*
X397096Y153742D01*
X396080Y151710D01*
X397096Y149678D01*
X395064Y150694D01*
X393032Y149678D01*
X330668Y165678D02*
X331684Y167710D01*
X330668Y169742D01*
X332700Y168726D01*
X334732Y169742D01*
X333716Y167710D01*
X334732Y165678D01*
X332700Y166694D01*
X330668Y165678D01*
X293968Y111218D02*
X294984Y113250D01*
X293968Y115282D01*
X296000Y114266D01*
X298032Y115282D01*
X297016Y113250D01*
X298032Y111218D01*
X296000Y112234D01*
X293968Y111218D01*
X190068Y123668D02*
X191084Y125700D01*
X190068Y127732D01*
X192100Y126716D01*
X194132Y127732D01*
X193116Y125700D01*
X194132Y123668D01*
X192100Y124684D01*
X190068Y123668D01*
X306367Y64953D02*
X307383Y66985D01*
X306367Y69017D01*
X308399Y68001D01*
X310431Y69017D01*
X309415Y66985D01*
X310431Y64953D01*
X308399Y65969D01*
X306367Y64953D01*
X293032Y65678D02*
X294048Y67710D01*
X293032Y69742D01*
X295064Y68726D01*
X297096Y69742D01*
X296080Y67710D01*
X297096Y65678D01*
X295064Y66694D01*
X293032Y65678D01*
X297868Y65068D02*
X298884Y67100D01*
X297868Y69132D01*
X299900Y68116D01*
X301932Y69132D01*
X300916Y67100D01*
X301932Y65068D01*
X299900Y66084D01*
X297868Y65068D01*
X315068Y87368D02*
X316084Y89400D01*
X315068Y91432D01*
X317100Y90416D01*
X319132Y91432D01*
X318116Y89400D01*
X319132Y87368D01*
X317100Y88384D01*
X315068Y87368D01*
X262168Y107518D02*
X263184Y109550D01*
X262168Y111582D01*
X264200Y110566D01*
X266232Y111582D01*
X265216Y109550D01*
X266232Y107518D01*
X264200Y108534D01*
X262168Y107518D01*
X265968Y75968D02*
X266984Y78000D01*
X265968Y80032D01*
X268000Y79016D01*
X270032Y80032D01*
X269016Y78000D01*
X270032Y75968D01*
X268000Y76984D01*
X265968Y75968D01*
X260068Y85968D02*
X261084Y88000D01*
X260068Y90032D01*
X262100Y89016D01*
X264132Y90032D01*
X263116Y88000D01*
X264132Y85968D01*
X262100Y86984D01*
X260068Y85968D01*
X281768Y95068D02*
X282784Y97100D01*
X281768Y99132D01*
X283800Y98116D01*
X285832Y99132D01*
X284816Y97100D01*
X285832Y95068D01*
X283800Y96084D01*
X281768Y95068D01*
X274868Y105518D02*
X275884Y107550D01*
X274868Y109582D01*
X276900Y108566D01*
X278932Y109582D01*
X277916Y107550D01*
X278932Y105518D01*
X276900Y106534D01*
X274868Y105518D01*
X204118Y81468D02*
X205134Y83500D01*
X204118Y85532D01*
X206150Y84516D01*
X208182Y85532D01*
X207166Y83500D01*
X208182Y81468D01*
X206150Y82484D01*
X204118Y81468D01*
X228689Y83190D02*
X229705Y85222D01*
X228689Y87254D01*
X230721Y86238D01*
X232753Y87254D01*
X231737Y85222D01*
X232753Y83190D01*
X230721Y84206D01*
X228689Y83190D01*
X206068Y123668D02*
X207084Y125700D01*
X206068Y127732D01*
X208100Y126716D01*
X210132Y127732D01*
X209116Y125700D01*
X210132Y123668D01*
X208100Y124684D01*
X206068Y123668D01*
X214568Y123368D02*
X215584Y125400D01*
X214568Y127432D01*
X216600Y126416D01*
X218632Y127432D01*
X217616Y125400D01*
X218632Y123368D01*
X216600Y124384D01*
X214568Y123368D01*
X198068Y123668D02*
X199084Y125700D01*
X198068Y127732D01*
X200100Y126716D01*
X202132Y127732D01*
X201116Y125700D01*
X202132Y123668D01*
X200100Y124684D01*
X198068Y123668D01*
X251628Y73728D02*
X252644Y75760D01*
X251628Y77792D01*
X253660Y76776D01*
X255692Y77792D01*
X254676Y75760D01*
X255692Y73728D01*
X253660Y74744D01*
X251628Y73728D01*
X238355Y130754D02*
X239371Y132786D01*
X238355Y134818D01*
X240387Y133802D01*
X242419Y134818D01*
X241403Y132786D01*
X242419Y130754D01*
X240387Y131770D01*
X238355Y130754D01*
X387368Y61968D02*
X388384Y64000D01*
X387368Y66032D01*
X389400Y65016D01*
X391432Y66032D01*
X390416Y64000D01*
X391432Y61968D01*
X389400Y62984D01*
X387368Y61968D01*
X382568Y62268D02*
X383584Y64300D01*
X382568Y66332D01*
X384600Y65316D01*
X386632Y66332D01*
X385616Y64300D01*
X386632Y62268D01*
X384600Y63284D01*
X382568Y62268D01*
X245968Y120768D02*
X246984Y122800D01*
X245968Y124832D01*
X248000Y123816D01*
X250032Y124832D01*
X249016Y122800D01*
X250032Y120768D01*
X248000Y121784D01*
X245968Y120768D01*
X252568Y122168D02*
X253584Y124200D01*
X252568Y126232D01*
X254600Y125216D01*
X256632Y126232D01*
X255616Y124200D01*
X256632Y122168D01*
X254600Y123184D01*
X252568Y122168D01*
X280868Y101968D02*
X281884Y104000D01*
X280868Y106032D01*
X282900Y105016D01*
X284932Y106032D01*
X283916Y104000D01*
X284932Y101968D01*
X282900Y102984D01*
X280868Y101968D01*
X254968Y103518D02*
X255984Y105550D01*
X254968Y107582D01*
X257000Y106566D01*
X259032Y107582D01*
X258016Y105550D01*
X259032Y103518D01*
X257000Y104534D01*
X254968Y103518D01*
X249234Y100192D02*
X250250Y102224D01*
X249234Y104256D01*
X251266Y103240D01*
X253298Y104256D01*
X252282Y102224D01*
X253298Y100192D01*
X251266Y101208D01*
X249234Y100192D01*
X252468Y92968D02*
X253484Y95000D01*
X252468Y97032D01*
X254500Y96016D01*
X256532Y97032D01*
X255516Y95000D01*
X256532Y92968D01*
X254500Y93984D01*
X252468Y92968D01*
X197968Y131568D02*
X198984Y133600D01*
X197968Y135632D01*
X200000Y134616D01*
X202032Y135632D01*
X201016Y133600D01*
X202032Y131568D01*
X200000Y132584D01*
X197968Y131568D01*
X222068Y123668D02*
X223084Y125700D01*
X222068Y127732D01*
X224100Y126716D01*
X226132Y127732D01*
X225116Y125700D01*
X226132Y123668D01*
X224100Y124684D01*
X222068Y123668D01*
X205968Y131668D02*
X206984Y133700D01*
X205968Y135732D01*
X208000Y134716D01*
X210032Y135732D01*
X209016Y133700D01*
X210032Y131668D01*
X208000Y132684D01*
X205968Y131668D01*
X214068D02*
X215084Y133700D01*
X214068Y135732D01*
X216100Y134716D01*
X218132Y135732D01*
X217116Y133700D01*
X218132Y131668D01*
X216100Y132684D01*
X214068Y131668D01*
X222068D02*
X223084Y133700D01*
X222068Y135732D01*
X224100Y134716D01*
X226132Y135732D01*
X225116Y133700D01*
X226132Y131668D01*
X224100Y132684D01*
X222068Y131668D01*
X237968Y123568D02*
X238984Y125600D01*
X237968Y127632D01*
X240000Y126616D01*
X242032Y127632D01*
X241016Y125600D01*
X242032Y123568D01*
X240000Y124584D01*
X237968Y123568D01*
X245468Y132168D02*
X246484Y134200D01*
X245468Y136232D01*
X247500Y135216D01*
X249532Y136232D01*
X248516Y134200D01*
X249532Y132168D01*
X247500Y133184D01*
X245468Y132168D01*
X258968Y123568D02*
X259984Y125600D01*
X258968Y127632D01*
X261000Y126616D01*
X263032Y127632D01*
X262016Y125600D01*
X263032Y123568D01*
X261000Y124584D01*
X258968Y123568D01*
X238718Y105218D02*
X239734Y107250D01*
X238718Y109282D01*
X240750Y108266D01*
X242782Y109282D01*
X241766Y107250D01*
X242782Y105218D01*
X240750Y106234D01*
X238718Y105218D01*
X260568Y117868D02*
X261584Y119900D01*
X260568Y121932D01*
X262600Y120916D01*
X264632Y121932D01*
X263616Y119900D01*
X264632Y117868D01*
X262600Y118884D01*
X260568Y117868D01*
X290261Y104918D02*
X291277Y106950D01*
X290261Y108982D01*
X292293Y107966D01*
X294325Y108982D01*
X293309Y106950D01*
X294325Y104918D01*
X292293Y105934D01*
X290261Y104918D01*
X289661Y98618D02*
X290677Y100650D01*
X289661Y102682D01*
X291693Y101666D01*
X293725Y102682D01*
X292709Y100650D01*
X293725Y98618D01*
X291693Y99634D01*
X289661Y98618D01*
X228768Y137168D02*
X229784Y139200D01*
X228768Y141232D01*
X230800Y140216D01*
X232832Y141232D01*
X231816Y139200D01*
X232832Y137168D01*
X230800Y138184D01*
X228768Y137168D01*
X235868Y140418D02*
X236884Y142450D01*
X235868Y144482D01*
X237900Y143466D01*
X239932Y144482D01*
X238916Y142450D01*
X239932Y140418D01*
X237900Y141434D01*
X235868Y140418D01*
X234418Y106718D02*
X235434Y108750D01*
X234418Y110782D01*
X236450Y109766D01*
X238482Y110782D01*
X237466Y108750D01*
X238482Y106718D01*
X236450Y107734D01*
X234418Y106718D01*
X379000Y69818D02*
X380016Y71850D01*
X379000Y73882D01*
X381032Y72866D01*
X383064Y73882D01*
X382048Y71850D01*
X383064Y69818D01*
X381032Y70834D01*
X379000Y69818D01*
X347179Y95814D02*
X348195Y97846D01*
X347179Y99878D01*
X349212Y98862D01*
X351244Y99878D01*
X350228Y97846D01*
X351244Y95814D01*
X349212Y96830D01*
X347179Y95814D01*
X315180Y119814D02*
X316196Y121846D01*
X315180Y123878D01*
X317211Y122862D01*
X319244Y123878D01*
X318228Y121846D01*
X319244Y119814D01*
X317211Y120830D01*
X315180Y119814D01*
X323180D02*
X324196Y121846D01*
X323180Y123878D01*
X325211Y122862D01*
X327243Y123878D01*
X326227Y121846D01*
X327243Y119814D01*
X325211Y120830D01*
X323180Y119814D01*
X384555Y95814D02*
X385571Y97846D01*
X384555Y99878D01*
X386587Y98862D01*
X388619Y99878D01*
X387603Y97846D01*
X388619Y95814D01*
X386587Y96830D01*
X384555Y95814D01*
X376555D02*
X377571Y97846D01*
X376555Y99878D01*
X378587Y98862D01*
X380619Y99878D01*
X379603Y97846D01*
X380619Y95814D01*
X378587Y96830D01*
X376555Y95814D01*
X331168Y71791D02*
X332184Y73823D01*
X331168Y75855D01*
X333200Y74839D01*
X335232Y75855D01*
X334216Y73823D01*
X335232Y71791D01*
X333200Y72807D01*
X331168Y71791D01*
Y79791D02*
X332184Y81823D01*
X331168Y83855D01*
X333200Y82839D01*
X335232Y83855D01*
X334216Y81823D01*
X335232Y79791D01*
X333200Y80807D01*
X331168Y79791D01*
X339168Y95791D02*
X340184Y97823D01*
X339168Y99855D01*
X341200Y98839D01*
X343232Y99855D01*
X342216Y97823D01*
X343232Y95791D01*
X341200Y96807D01*
X339168Y95791D01*
X323168Y87791D02*
X324184Y89823D01*
X323168Y91855D01*
X325200Y90839D01*
X327232Y91855D01*
X326216Y89823D01*
X327232Y87791D01*
X325200Y88807D01*
X323168Y87791D01*
X331168Y95791D02*
X332184Y97823D01*
X331168Y99855D01*
X333200Y98839D01*
X335232Y99855D01*
X334216Y97823D01*
X335232Y95791D01*
X333200Y96807D01*
X331168Y95791D01*
X323168D02*
X324184Y97823D01*
X323168Y99855D01*
X325200Y98839D01*
X327232Y99855D01*
X326216Y97823D01*
X327232Y95791D01*
X325200Y96807D01*
X323168Y95791D01*
X315168Y103791D02*
X316184Y105823D01*
X315168Y107855D01*
X317200Y106839D01*
X319232Y107855D01*
X318216Y105823D01*
X319232Y103791D01*
X317200Y104807D01*
X315168Y103791D01*
X323168D02*
X324184Y105823D01*
X323168Y107855D01*
X325200Y106839D01*
X327232Y107855D01*
X326216Y105823D01*
X327232Y103791D01*
X325200Y104807D01*
X323168Y103791D01*
X315168Y111791D02*
X316184Y113823D01*
X315168Y115855D01*
X317200Y114839D01*
X319232Y115855D01*
X318216Y113823D01*
X319232Y111791D01*
X317200Y112807D01*
X315168Y111791D01*
X323168D02*
X324184Y113823D01*
X323168Y115855D01*
X325200Y114839D01*
X327232Y115855D01*
X326216Y113823D01*
X327232Y111791D01*
X325200Y112807D01*
X323168Y111791D01*
X401032Y103314D02*
X402048Y105346D01*
X401032Y107378D01*
X403064Y106362D01*
X405096Y107378D01*
X404080Y105346D01*
X405096Y103314D01*
X403064Y104330D01*
X401032Y103314D01*
X393032D02*
X394048Y105346D01*
X393032Y107378D01*
X395064Y106362D01*
X397096Y107378D01*
X396080Y105346D01*
X397096Y103314D01*
X395064Y104330D01*
X393032Y103314D01*
M02*
