G04*
G04 #@! TF.GenerationSoftware,Altium Limited,Altium Designer,25.1.2 (22)*
G04*
G04 Layer_Physical_Order=4*
G04 Layer_Color=128*
%FSLAX44Y44*%
%MOMM*%
G71*
G04*
G04 #@! TF.SameCoordinates,2BCE8437-4B4B-493D-AEBF-8C89570F1AAD*
G04*
G04*
G04 #@! TF.FilePolarity,Negative*
G04*
G01*
G75*
%ADD11C,0.2000*%
%ADD18C,0.4000*%
%ADD98C,0.6000*%
%ADD146C,1.0160*%
%ADD147C,1.8000*%
%ADD148C,1.1000*%
%ADD151C,0.9500*%
%ADD152C,2.3000*%
G36*
X570000Y102500D02*
Y102500D01*
X555000D01*
X550000Y107500D01*
Y107500D01*
Y195000D01*
D01*
Y195000D01*
X555000Y200000D01*
X570000D01*
Y102500D01*
D02*
G37*
D11*
X166086Y203086D02*
Y253000D01*
X157000Y194000D02*
X166086Y203086D01*
X120000Y194000D02*
X157000D01*
X114000Y188000D02*
X120000Y194000D01*
X114000Y186810D02*
Y188000D01*
X491500Y65100D02*
X515000Y88600D01*
X491500Y52300D02*
Y65100D01*
X454800Y0D02*
X476000Y21200D01*
Y36800D01*
X251000Y54222D02*
Y60000D01*
X263000Y72000D01*
X359000D01*
X394000Y37000D01*
X409000D01*
X437000Y65000D01*
Y120000D01*
X452000Y135000D01*
X461000D01*
X467000Y141000D01*
X509000D01*
X519000Y131000D01*
X533000Y117000D01*
X549000D01*
X550000Y118000D01*
Y126000D01*
X546000Y130000D02*
X550000Y126000D01*
X546000Y130000D02*
Y163000D01*
X532000Y177000D02*
X546000Y163000D01*
X506000Y177000D02*
X532000D01*
X430000Y253000D02*
X506000Y177000D01*
X166086Y253000D02*
X430000Y253000D01*
X114000Y92000D02*
Y187749D01*
Y92000D02*
X149000Y57000D01*
Y38000D02*
Y57000D01*
X125000Y14000D02*
X149000Y38000D01*
X125000Y0D02*
Y14000D01*
X208000Y5000D02*
X212000Y1000D01*
X208000Y5000D02*
Y17000D01*
X182000Y35000D02*
X193500Y23500D01*
X201500D01*
X182000Y46771D02*
X189228Y54000D01*
X182000Y35000D02*
Y46771D01*
X189228Y54000D02*
X272000D01*
X294000Y32000D01*
X321000D01*
X422800D01*
X451500Y60700D01*
Y111500D01*
X466000Y126000D01*
X507000D01*
X515000Y118000D01*
Y88600D02*
Y118000D01*
X476000Y36800D02*
X491500Y52300D01*
X272000Y0D02*
X454800D01*
X268000Y4000D02*
X272000Y0D01*
X239000Y4000D02*
X268000D01*
X236000Y1000D02*
X239000Y4000D01*
X212000Y1000D02*
X236000D01*
X201500Y23500D02*
X208000Y17000D01*
D18*
X544000Y124000D02*
D03*
Y130000D02*
D03*
Y136000D02*
D03*
Y142000D02*
D03*
Y148000D02*
D03*
Y154000D02*
D03*
X530000Y138000D02*
D03*
X525000D02*
D03*
X565912Y87376D02*
D03*
Y83566D02*
D03*
Y79756D02*
D03*
Y36322D02*
D03*
Y40386D02*
D03*
Y44450D02*
D03*
X564388Y67310D02*
D03*
X560832D02*
D03*
X564311Y63388D02*
D03*
X531347Y50091D02*
D03*
X546354Y103124D02*
D03*
X538988D02*
D03*
X524510Y71120D02*
D03*
X208151Y26000D02*
D03*
X213000D02*
D03*
X217170Y25908D02*
D03*
X198682Y19442D02*
D03*
X231140Y19812D02*
D03*
X428752Y73100D02*
D03*
X496500Y87750D02*
D03*
X493000D02*
D03*
X491026Y81729D02*
D03*
X504963Y82142D02*
D03*
X508940Y82565D02*
D03*
X495250Y79750D02*
D03*
X489442Y87710D02*
D03*
X515000Y84365D02*
D03*
X421000Y67000D02*
D03*
X446522Y67753D02*
D03*
X371064Y96844D02*
D03*
X379064Y105696D02*
D03*
X387064D02*
D03*
X324955Y81011D02*
D03*
X349267Y20501D02*
D03*
X336000Y22000D02*
D03*
X329000Y24000D02*
D03*
X363000Y27000D02*
D03*
X348300Y58800D02*
D03*
X446272Y63003D02*
D03*
X439506Y52488D02*
D03*
X437209Y46903D02*
D03*
X476000Y53000D02*
D03*
X472000D02*
D03*
X480000D02*
D03*
X484000D02*
D03*
X498500Y56250D02*
D03*
X498876Y61711D02*
D03*
X501789Y58527D02*
D03*
X477000Y87200D02*
D03*
X480440D02*
D03*
X418500Y113746D02*
D03*
X356700Y105346D02*
D03*
X348700D02*
D03*
X387064Y113346D02*
D03*
X371064D02*
D03*
X356700Y129346D02*
D03*
X370600Y105346D02*
D03*
X356700Y113346D02*
D03*
X348700D02*
D03*
X364694Y96253D02*
D03*
X356700Y121346D02*
D03*
X403064Y129346D02*
D03*
X411064Y143710D02*
D03*
X403064D02*
D03*
X395064D02*
D03*
X387064D02*
D03*
X356700D02*
D03*
X310500Y18000D02*
D03*
X305679Y25200D02*
D03*
X324000Y23000D02*
D03*
X136222Y11816D02*
D03*
X77750Y130000D02*
D03*
X75750Y141500D02*
D03*
X62992Y107442D02*
D03*
X255100Y203600D02*
D03*
X250600Y216500D02*
D03*
X251900Y206800D02*
D03*
X255100Y210000D02*
D03*
Y206800D02*
D03*
X251900Y203600D02*
D03*
X462000Y198000D02*
D03*
X532250Y215250D02*
D03*
X526000D02*
D03*
X512750D02*
D03*
X519500Y199750D02*
D03*
X445436Y5564D02*
D03*
X445000Y12250D02*
D03*
X434750Y5750D02*
D03*
X438250Y12250D02*
D03*
Y9000D02*
D03*
X433076Y163827D02*
D03*
X436072Y166600D02*
D03*
X435500Y157000D02*
D03*
Y198200D02*
D03*
X521000Y160000D02*
D03*
X352111Y218200D02*
D03*
X492088Y138102D02*
D03*
X429400Y89000D02*
D03*
X410800Y89400D02*
D03*
X201779Y184167D02*
D03*
X420100Y187400D02*
D03*
X453000Y160000D02*
D03*
X411109Y184109D02*
D03*
X156335Y249636D02*
D03*
X170600Y241715D02*
D03*
X176500Y231500D02*
D03*
X285300Y146700D02*
D03*
X289199Y143399D02*
D03*
X453800Y251500D02*
D03*
X457600D02*
D03*
X450000D02*
D03*
X214200Y106900D02*
D03*
X348500Y192500D02*
D03*
X351000Y200000D02*
D03*
X347021Y199593D02*
D03*
X437000Y208000D02*
D03*
X473049Y102849D02*
D03*
X271000Y254000D02*
D03*
X267000D02*
D03*
X437250Y239600D02*
D03*
X436200Y248900D02*
D03*
X440500Y248800D02*
D03*
X333300Y151900D02*
D03*
X169000Y139000D02*
D03*
X165000D02*
D03*
X161000D02*
D03*
X218600Y107000D02*
D03*
X221000Y110000D02*
D03*
X216000D02*
D03*
X231000Y151000D02*
D03*
X226000D02*
D03*
X221000D02*
D03*
X539200Y200100D02*
D03*
X16000Y90000D02*
D03*
X93000Y254000D02*
D03*
Y244000D02*
D03*
Y225000D02*
D03*
X5000Y211000D02*
D03*
Y241000D02*
D03*
X30000D02*
D03*
X49000Y221000D02*
D03*
X37000Y161000D02*
D03*
X33000Y157000D02*
D03*
X48000Y155000D02*
D03*
X29000Y211000D02*
D03*
X123753Y250100D02*
D03*
X112541D02*
D03*
X125000Y205230D02*
D03*
X109000Y205000D02*
D03*
X100000Y206000D02*
D03*
X11200Y151500D02*
D03*
X565912Y48514D02*
D03*
Y75946D02*
D03*
Y56642D02*
D03*
Y52578D02*
D03*
X416400Y29400D02*
D03*
X490000Y108700D02*
D03*
X280000Y216800D02*
D03*
X105950Y90075D02*
D03*
X451900Y184600D02*
D03*
X246800Y170400D02*
D03*
X247000Y180000D02*
D03*
X388300Y151400D02*
D03*
X83000Y220677D02*
D03*
X89000Y229833D02*
D03*
X93000Y220000D02*
D03*
X80404Y217634D02*
D03*
X453700Y228500D02*
D03*
X26800Y161500D02*
D03*
Y146500D02*
D03*
Y156700D02*
D03*
X105320Y229100D02*
D03*
X454000Y132000D02*
D03*
Y129000D02*
D03*
Y126000D02*
D03*
Y123000D02*
D03*
X184900Y25600D02*
D03*
X424091Y60047D02*
D03*
X416741Y62200D02*
D03*
X420741Y62233D02*
D03*
X458427Y87357D02*
D03*
X473680Y87200D02*
D03*
X469000Y87000D02*
D03*
X513000Y174000D02*
D03*
X496000Y185000D02*
D03*
X488000Y152000D02*
D03*
X525000Y143000D02*
D03*
X485000Y132000D02*
D03*
X475000Y144000D02*
D03*
X463000Y176000D02*
D03*
X438250Y5750D02*
D03*
X403353Y43272D02*
D03*
X389000Y28500D02*
D03*
X383907Y25107D02*
D03*
X320000Y200000D02*
D03*
X365000Y200500D02*
D03*
X405000Y216500D02*
D03*
X402046Y219954D02*
D03*
X402000Y224000D02*
D03*
X387011Y195005D02*
D03*
X387008Y201005D02*
D03*
X379750Y192668D02*
D03*
X383000Y195000D02*
D03*
X372532Y199763D02*
D03*
X379000Y198500D02*
D03*
X375800Y193400D02*
D03*
X345500Y215500D02*
D03*
X310500Y200000D02*
D03*
X453000Y172000D02*
D03*
X480000Y153000D02*
D03*
X480400Y131500D02*
D03*
X182000Y62000D02*
D03*
X370533Y25800D02*
D03*
X407500Y19750D02*
D03*
X225400Y165700D02*
D03*
X233000Y177000D02*
D03*
X193000Y186000D02*
D03*
X233000Y181000D02*
D03*
X229000D02*
D03*
Y177000D02*
D03*
X283000Y230000D02*
D03*
X63000Y101769D02*
D03*
X134714Y181575D02*
D03*
X115551Y184848D02*
D03*
X134570Y177127D02*
D03*
X137814Y186033D02*
D03*
X120293Y138040D02*
D03*
X125160Y138015D02*
D03*
X113233Y123440D02*
D03*
X108000Y128000D02*
D03*
X16000Y85000D02*
D03*
X254342Y13115D02*
D03*
X236405Y19750D02*
D03*
X320777Y28254D02*
D03*
X202500Y116500D02*
D03*
X168250Y100750D02*
D03*
X224000Y26000D02*
D03*
X156278Y153108D02*
D03*
X157187Y95507D02*
D03*
X88416Y26531D02*
D03*
X209595Y142408D02*
D03*
X193800Y170312D02*
D03*
X277000Y180000D02*
D03*
X106044Y81876D02*
D03*
X106019Y86000D02*
D03*
X87000Y110000D02*
D03*
X320500Y234600D02*
D03*
X317000Y234500D02*
D03*
X327800Y234200D02*
D03*
Y238900D02*
D03*
X334668Y240037D02*
D03*
X334215Y225000D02*
D03*
X256250Y69000D02*
D03*
X250321Y180012D02*
D03*
X250300Y168100D02*
D03*
X299400Y150900D02*
D03*
X294600Y154900D02*
D03*
X291800Y158100D02*
D03*
X285347Y121652D02*
D03*
X290821Y125179D02*
D03*
X264000Y148884D02*
D03*
X532500Y170000D02*
D03*
X149200Y181000D02*
D03*
X80944Y209421D02*
D03*
X105445Y220000D02*
D03*
X117700Y236670D02*
D03*
X112400Y240700D02*
D03*
X105300Y235800D02*
D03*
X11200Y171400D02*
D03*
X191700Y249000D02*
D03*
X26800Y136400D02*
D03*
Y141500D02*
D03*
Y166400D02*
D03*
X195727Y236600D02*
D03*
X255400Y216500D02*
D03*
X273000Y180000D02*
D03*
X268000D02*
D03*
X226000Y239000D02*
D03*
X216000Y230000D02*
D03*
X238500Y236500D02*
D03*
X234750D02*
D03*
X230000Y235000D02*
D03*
Y239000D02*
D03*
X226000Y235000D02*
D03*
X238500Y240000D02*
D03*
X234750D02*
D03*
X226000Y231000D02*
D03*
X292000Y230000D02*
D03*
X272000Y207000D02*
D03*
X343360Y26450D02*
D03*
X347800D02*
D03*
X188800Y82794D02*
D03*
X192300Y18800D02*
D03*
X316700Y153700D02*
D03*
X340942Y144720D02*
D03*
X315064Y161346D02*
D03*
X325800Y160505D02*
D03*
X308700Y146500D02*
D03*
X271400Y148500D02*
D03*
X275400D02*
D03*
X281000Y199043D02*
D03*
X348700Y159710D02*
D03*
X332000Y160400D02*
D03*
X340517Y159508D02*
D03*
X425000Y251200D02*
D03*
X479000Y247800D02*
D03*
X424900Y248000D02*
D03*
X441500Y239600D02*
D03*
X477900Y222600D02*
D03*
X428500Y143250D02*
D03*
X335569Y215844D02*
D03*
X363064Y153346D02*
D03*
X355700Y152200D02*
D03*
X339064Y139000D02*
D03*
X331064Y137346D02*
D03*
X316200Y144300D02*
D03*
X348700Y151710D02*
D03*
X418598Y177500D02*
D03*
X473300Y222700D02*
D03*
X469200D02*
D03*
X465200D02*
D03*
X177000Y184750D02*
D03*
X403064Y166100D02*
D03*
X403200Y174200D02*
D03*
X448800Y231500D02*
D03*
X454500Y221750D02*
D03*
X452600Y199800D02*
D03*
X338782Y26101D02*
D03*
X363750Y79646D02*
D03*
X324700Y129696D02*
D03*
X332700Y129400D02*
D03*
X340700Y121346D02*
D03*
X332700D02*
D03*
X340900Y105363D02*
D03*
X332700Y105346D02*
D03*
X418500Y121900D02*
D03*
X316700Y129346D02*
D03*
X340700D02*
D03*
X371064D02*
D03*
Y121346D02*
D03*
X379064Y143710D02*
D03*
Y159660D02*
D03*
X371064Y151710D02*
D03*
X370300Y159200D02*
D03*
X362800Y73600D02*
D03*
X348700Y89346D02*
D03*
X371182Y88000D02*
D03*
X363064Y103710D02*
D03*
X435750Y179000D02*
D03*
X400600Y201050D02*
D03*
X344100Y58800D02*
D03*
X340700Y113346D02*
D03*
X362500Y87750D02*
D03*
X387064Y159710D02*
D03*
X395064D02*
D03*
Y166100D02*
D03*
X299200Y191366D02*
D03*
X298000Y200011D02*
D03*
X292820Y193000D02*
D03*
X305500Y200000D02*
D03*
X340500Y215500D02*
D03*
X333482Y184334D02*
D03*
X355750Y184400D02*
D03*
X363571Y169951D02*
D03*
X379064Y175710D02*
D03*
X396000Y198250D02*
D03*
X450000Y219000D02*
D03*
X449500Y224000D02*
D03*
X348500Y186000D02*
D03*
X354250Y176500D02*
D03*
X340900Y167710D02*
D03*
X309250Y176400D02*
D03*
X403064Y159710D02*
D03*
X285000Y199000D02*
D03*
X121500Y161750D02*
D03*
X115900Y156750D02*
D03*
Y161750D02*
D03*
X393032Y80177D02*
D03*
X386769Y89504D02*
D03*
X432750Y47000D02*
D03*
X348517Y167508D02*
D03*
X403064Y150800D02*
D03*
X398500Y216900D02*
D03*
X397300Y226200D02*
D03*
X394000Y230000D02*
D03*
X398400Y221600D02*
D03*
X388600Y232200D02*
D03*
X383700D02*
D03*
X370600Y240500D02*
D03*
X375500D02*
D03*
X485000Y116000D02*
D03*
X496500Y103700D02*
D03*
X501400D02*
D03*
X512700Y103800D02*
D03*
X506100D02*
D03*
X486304Y104836D02*
D03*
X261000Y140000D02*
D03*
X307100Y119000D02*
D03*
X161200Y121300D02*
D03*
X165000Y121250D02*
D03*
X169000D02*
D03*
X218500Y116500D02*
D03*
X167045Y124331D02*
D03*
X166996Y127842D02*
D03*
X168250Y95500D02*
D03*
Y91500D02*
D03*
X165000D02*
D03*
Y100750D02*
D03*
X161500D02*
D03*
Y91500D02*
D03*
X188500Y72000D02*
D03*
X229500Y90500D02*
D03*
X212750Y84250D02*
D03*
X219035Y84298D02*
D03*
X300750Y104500D02*
D03*
X303882Y104528D02*
D03*
X323064Y137346D02*
D03*
X395064Y113346D02*
D03*
Y129346D02*
D03*
X332700Y113346D02*
D03*
X387064Y129346D02*
D03*
X379064Y113346D02*
D03*
Y129346D02*
D03*
X348700Y121346D02*
D03*
Y129346D02*
D03*
D98*
X488000Y227000D02*
D03*
X496000D02*
D03*
X504000D02*
D03*
X512000D02*
D03*
X520000D02*
D03*
X106000Y69000D02*
D03*
X106043Y74940D02*
D03*
X117000Y108000D02*
D03*
X162495Y182127D02*
D03*
X149000Y175200D02*
D03*
X275346Y174755D02*
D03*
X130000Y37000D02*
D03*
X128000Y50000D02*
D03*
X122000D02*
D03*
X83400Y51600D02*
D03*
X79000Y56000D02*
D03*
X116000Y50000D02*
D03*
X124000Y37000D02*
D03*
X118000D02*
D03*
X113000Y75000D02*
D03*
Y69000D02*
D03*
X123952Y108000D02*
D03*
X124000Y115000D02*
D03*
X117000D02*
D03*
X456500Y178000D02*
D03*
X134750Y159750D02*
D03*
X128250D02*
D03*
D146*
X33173Y5009D02*
G03*
X38175Y9I5000J-0D01*
G01*
X545244Y180D02*
G03*
X569642Y24544I0J24398D01*
G01*
X569642Y234578D02*
G03*
X545277Y258976I-24398J-0D01*
G01*
X38175Y259147D02*
G03*
X33173Y254147I-2J-5000D01*
G01*
X28173Y248777D02*
G03*
X33173Y253777I0J5000D01*
G01*
X4975Y248777D02*
G03*
X-25Y243777I0J-5000D01*
G01*
X-25Y15379D02*
G03*
X4975Y10379I5000J0D01*
G01*
X33173Y5379D02*
G03*
X28173Y10379I-5000J0D01*
G01*
X38175Y9D02*
X135941Y41D01*
X139500Y3600D01*
X167510D02*
X171055Y54D01*
X236726Y76D01*
X240250Y3600D01*
X268260D02*
X271770Y88D01*
X545244Y180D01*
X569642Y24544D02*
X569642Y234578D01*
X479058Y258998D02*
X545277Y258976D01*
X38175Y259147D02*
X443945Y259010D01*
X33173Y253777D02*
X33173Y254147D01*
X4975Y248777D02*
X28173D01*
X-25Y243777D02*
X-25Y15379D01*
X4975Y10379D02*
X28173D01*
X443945Y258995D02*
Y259010D01*
Y258995D02*
X447490Y255450D01*
X475500D01*
X479058Y259008D01*
Y258998D02*
Y259008D01*
X240250Y3600D02*
X268260D01*
X139500D02*
X167510D01*
X33173Y5379D02*
X33173Y5009D01*
D147*
X17320Y227690D02*
D03*
D148*
X30820Y50940D02*
D03*
X15820D02*
D03*
D151*
X56800Y187900D02*
D03*
Y130100D02*
D03*
D152*
X545244Y234578D02*
D03*
Y24578D02*
D03*
X65244D02*
D03*
Y234578D02*
D03*
M02*
