G04*
G04 #@! TF.GenerationSoftware,Altium Limited,Altium Designer,25.1.2 (22)*
G04*
G04 Layer_Physical_Order=2*
G04 Layer_Color=36540*
%FSLAX44Y44*%
%MOMM*%
G71*
G04*
G04 #@! TF.SameCoordinates,2BCE8437-4B4B-493D-AEBF-8C89570F1AAD*
G04*
G04*
G04 #@! TF.FilePolarity,Positive*
G04*
G01*
G75*
%ADD11C,0.2000*%
%ADD13C,0.1500*%
%ADD14C,0.3000*%
%ADD15C,0.1000*%
%ADD24C,0.3500*%
%ADD72C,0.3000*%
%ADD98C,0.6000*%
%ADD134C,0.5000*%
%ADD138C,1.2000*%
%ADD139O,1.8000X1.0000*%
%ADD140O,2.1000X1.0000*%
%ADD142C,0.0800*%
%ADD143C,0.6000*%
%ADD144C,0.0843*%
%ADD145C,1.0000*%
G36*
X324297Y257001D02*
X324500Y255815D01*
X323428Y255371D01*
X321872Y253815D01*
X303400D01*
X302328Y253372D01*
X300022Y251065D01*
X278804D01*
X277733Y250621D01*
X277727Y250615D01*
X260535D01*
X260331Y251108D01*
X259558Y251881D01*
X258547Y252300D01*
X257453D01*
X256442Y251881D01*
X255669Y251108D01*
X255312Y250247D01*
X254659Y249951D01*
X253980Y249784D01*
X248947Y254817D01*
X247875Y255261D01*
X196445D01*
X195374Y254817D01*
X192057Y251500D01*
X191203D01*
X190284Y251119D01*
X189581Y250416D01*
X189200Y249497D01*
Y248503D01*
X189581Y247584D01*
X190284Y246881D01*
X191203Y246500D01*
X192197D01*
X193116Y246881D01*
X193819Y247584D01*
X194200Y248503D01*
Y249357D01*
X197073Y252230D01*
X201191D01*
X201717Y250960D01*
X199989Y249232D01*
X199947Y249250D01*
X198853D01*
X197842Y248831D01*
X197069Y248058D01*
X196650Y247047D01*
Y245953D01*
X197069Y244942D01*
X197842Y244169D01*
X198445Y243919D01*
X199500Y243147D01*
Y242053D01*
X199919Y241042D01*
X200692Y240269D01*
X201500Y239014D01*
Y237920D01*
X201919Y236909D01*
X202692Y236136D01*
X203703Y235717D01*
X203726D01*
X204301Y235569D01*
X204617Y234406D01*
X204084Y233873D01*
X203665Y232862D01*
Y232601D01*
X202395Y232075D01*
X198227Y236243D01*
Y237097D01*
X197846Y238016D01*
X197143Y238719D01*
X196224Y239100D01*
X195229D01*
X194310Y238719D01*
X193607Y238016D01*
X193227Y237097D01*
Y236103D01*
X193607Y235184D01*
X194310Y234481D01*
X195229Y234100D01*
X196084D01*
X197256Y232927D01*
X196537Y231851D01*
X196297Y231950D01*
X195203D01*
X194192Y231531D01*
X193419Y230758D01*
X193000Y229747D01*
Y228653D01*
X193419Y227642D01*
X194192Y226869D01*
X194876Y226585D01*
X194624Y225315D01*
X190884D01*
X189828Y226371D01*
X188757Y226815D01*
X181707D01*
X181181Y228085D01*
X182948Y229852D01*
X183424Y231000D01*
Y240100D01*
X182948Y241248D01*
X177435Y246761D01*
X176287Y247236D01*
X167454D01*
X167414Y247278D01*
X166955Y248208D01*
X166928Y248506D01*
X167000Y248578D01*
Y248793D01*
X167082Y248992D01*
Y255790D01*
X168328Y257060D01*
X324297Y257001D01*
D02*
G37*
G36*
X38174Y257108D02*
X165940Y257061D01*
X166000Y257000D01*
Y248992D01*
X164730Y248466D01*
X158948Y254248D01*
X157800Y254724D01*
X103900D01*
X102752Y254248D01*
X100453Y251950D01*
X99953D01*
X98942Y251531D01*
X98168Y250757D01*
X97750Y249746D01*
Y248652D01*
X98168Y247642D01*
X98942Y246868D01*
X99953Y246450D01*
X101047D01*
X102058Y246868D01*
X102831Y247642D01*
X103250Y248652D01*
Y249746D01*
X103131Y250034D01*
X104572Y251476D01*
X130796D01*
X131282Y250303D01*
X129442Y248463D01*
X128669Y247306D01*
X128397Y245940D01*
X128617Y244834D01*
X128004Y243696D01*
X126757Y243596D01*
X124824Y245529D01*
Y246530D01*
X124405Y247540D01*
X123632Y248314D01*
X122621Y248733D01*
X121527D01*
X120516Y248314D01*
X119743Y247540D01*
X119324Y246530D01*
Y245436D01*
X119743Y244425D01*
X120516Y243651D01*
X121527Y243233D01*
X122528D01*
X124969Y240792D01*
X126117Y240316D01*
X135472D01*
X136620Y240792D01*
X139305Y243476D01*
X140642D01*
X141570Y242397D01*
Y241446D01*
X132647Y232524D01*
X122000D01*
X120852Y232048D01*
X114628Y225824D01*
X104943D01*
X99819Y230948D01*
X98671Y231424D01*
X90944D01*
X90416Y231952D01*
X89497Y232333D01*
X88503D01*
X87584Y231952D01*
X86881Y231249D01*
X86500Y230330D01*
Y229335D01*
X86881Y228417D01*
X87584Y227713D01*
X88503Y227333D01*
X89497D01*
X90416Y227713D01*
X90879Y228176D01*
X97998D01*
X103123Y223052D01*
X103168Y223033D01*
X103451Y221541D01*
X103326Y221416D01*
X102945Y220497D01*
Y219503D01*
X103326Y218584D01*
X104029Y217881D01*
X104948Y217500D01*
X105942D01*
X106861Y217881D01*
X107357Y218376D01*
X109456D01*
X109982Y217106D01*
X103628Y210752D01*
X102886D01*
X101738Y210277D01*
X99961Y208500D01*
X99502D01*
X98584Y208119D01*
X97880Y207416D01*
X97500Y206497D01*
Y205502D01*
X97880Y204583D01*
X98584Y203880D01*
X99502Y203500D01*
X100453D01*
X100497Y203499D01*
X101626Y202593D01*
Y199626D01*
X100674Y198674D01*
X98967D01*
X91235Y206406D01*
Y208403D01*
X91943Y209111D01*
X92362Y210121D01*
Y211215D01*
X91943Y212226D01*
X91235Y212934D01*
Y220788D01*
X90760Y221936D01*
X83524Y229172D01*
Y242700D01*
X83048Y243848D01*
X81634Y245262D01*
X81655Y245945D01*
X82035Y246657D01*
X82261Y246671D01*
X83036Y246350D01*
X84130D01*
X85233Y245432D01*
X85311Y245037D01*
X84893Y244027D01*
Y242933D01*
X85311Y241922D01*
X86085Y241148D01*
X87096Y240730D01*
X88190D01*
X89200Y241148D01*
X89974Y241922D01*
X90393Y242933D01*
Y244027D01*
X89974Y245037D01*
X89324Y245688D01*
Y249579D01*
X88848Y250727D01*
X85917Y253658D01*
X84769Y254134D01*
X44218D01*
X43070Y253658D01*
X35522Y246111D01*
X35047Y244963D01*
Y224265D01*
X34339Y223558D01*
X33921Y222547D01*
Y221453D01*
X33960Y221357D01*
X32595Y219991D01*
X32119Y218843D01*
Y174015D01*
X27004Y168900D01*
X26303D01*
X25384Y168519D01*
X24681Y167816D01*
X24300Y166897D01*
Y165903D01*
X24681Y164984D01*
X24885Y164780D01*
X25242Y163950D01*
X24885Y163120D01*
X24681Y162916D01*
X24300Y161997D01*
Y161003D01*
X24681Y160084D01*
X24835Y159930D01*
X25245Y159100D01*
X24835Y158270D01*
X24681Y158116D01*
X24300Y157197D01*
Y156203D01*
X24681Y155284D01*
X25371Y154594D01*
X25370Y154518D01*
X25100Y153324D01*
X21500D01*
X20352Y152848D01*
X18852Y151348D01*
X18376Y150200D01*
Y138300D01*
X18852Y137152D01*
X20752Y135252D01*
X21900Y134776D01*
X24888D01*
X25384Y134281D01*
X26303Y133900D01*
X27297D01*
X28216Y134281D01*
X28919Y134984D01*
X29300Y135903D01*
Y136897D01*
X28919Y137816D01*
X28579Y138156D01*
X28344Y138950D01*
X28579Y139744D01*
X28919Y140084D01*
X29300Y141003D01*
Y141997D01*
X28919Y142916D01*
X28650Y143186D01*
X28459Y143711D01*
X29143Y144876D01*
X33557D01*
X34705Y145352D01*
X48148Y158795D01*
X48624Y159943D01*
Y206327D01*
X50972Y208676D01*
X52907D01*
X53292Y207406D01*
X51974Y206526D01*
X50648Y204541D01*
X50182Y202200D01*
X50648Y199859D01*
X51974Y197874D01*
X53959Y196548D01*
X56300Y196082D01*
X67300D01*
X69641Y196548D01*
X71626Y197874D01*
X72952Y199859D01*
X73418Y202200D01*
X72952Y204541D01*
X71626Y206526D01*
X70308Y207406D01*
X70693Y208676D01*
X78547D01*
X78825Y208005D01*
X79528Y207301D01*
X80447Y206921D01*
X81442D01*
X82360Y207301D01*
X83064Y208005D01*
X83444Y208923D01*
Y209918D01*
X83064Y210837D01*
X82360Y211540D01*
X81442Y211921D01*
X80447D01*
X79989Y211731D01*
X79524Y211924D01*
X78649D01*
X78163Y213097D01*
X80200Y215134D01*
X80901D01*
X81820Y215515D01*
X82523Y216218D01*
X82904Y217137D01*
Y218131D01*
X82935Y218177D01*
X83497D01*
X84416Y218558D01*
X85119Y219261D01*
X85500Y220180D01*
Y220808D01*
X86599Y221414D01*
X86673Y221431D01*
X87988Y220116D01*
Y212934D01*
X87280Y212226D01*
X86862Y211215D01*
Y210121D01*
X87280Y209111D01*
X87988Y208403D01*
Y205733D01*
X88464Y204585D01*
X97147Y195902D01*
X98295Y195426D01*
X101346D01*
X102494Y195902D01*
X104398Y197806D01*
X104874Y198954D01*
Y202820D01*
X105844Y203790D01*
X106881Y203584D01*
X107584Y202881D01*
X108503Y202500D01*
X109497D01*
X110416Y202881D01*
X111119Y203584D01*
X111500Y204503D01*
Y205497D01*
X111119Y206416D01*
X110693Y206843D01*
X110435Y208382D01*
X112730Y210676D01*
X117100D01*
X118248Y211152D01*
X121980Y214884D01*
X123250Y214358D01*
Y214203D01*
X123669Y213192D01*
X124442Y212419D01*
X125453Y212000D01*
X126547D01*
X127558Y212419D01*
X128331Y213192D01*
X128349Y213235D01*
X132046D01*
X132449Y212677D01*
X132668Y212061D01*
X131778Y211171D01*
X131335Y210100D01*
Y209583D01*
X129652Y207900D01*
X128879D01*
X127868Y207481D01*
X127095Y206708D01*
X126676Y205697D01*
Y204603D01*
X125767Y203478D01*
X115200D01*
X115200Y203478D01*
X113639Y203168D01*
X112316Y202284D01*
X112316Y202284D01*
X104032Y194000D01*
X75000D01*
X66000Y185000D01*
X66000D01*
Y136000D01*
X62593Y132593D01*
X61347Y132841D01*
X61251Y133074D01*
X59774Y134551D01*
X57844Y135350D01*
X55756D01*
X53826Y134551D01*
X52349Y133074D01*
X51550Y131144D01*
Y130000D01*
X2014D01*
Y243777D01*
Y244366D01*
X2465Y245454D01*
X3297Y246287D01*
X4386Y246738D01*
X4975Y246738D01*
X28173D01*
X28272Y246758D01*
X28373Y246748D01*
X29348Y246844D01*
X29635Y246931D01*
X29929Y246989D01*
X31731Y247736D01*
X32392Y248178D01*
X33772Y249557D01*
X34214Y250219D01*
X34961Y252021D01*
X35019Y252315D01*
X35106Y252602D01*
X35202Y253577D01*
X35192Y253678D01*
X35212Y253777D01*
X35212Y254147D01*
X35212Y254147D01*
X35212Y254147D01*
Y254736D01*
X35663Y255825D01*
X36496Y256658D01*
X37585Y257109D01*
X38174Y257108D01*
D02*
G37*
G36*
X443100Y256957D02*
X446048Y254008D01*
X446048Y254008D01*
X446710Y253566D01*
X447490Y253411D01*
X447490Y253411D01*
X475500D01*
X475892Y253489D01*
X476278Y253565D01*
X476279Y253566D01*
X476280Y253566D01*
X476617Y253791D01*
X476940Y254006D01*
X476942Y254008D01*
X476942Y254008D01*
X476942Y254008D01*
X479901Y256959D01*
X545275Y256937D01*
X547475Y256934D01*
X551790Y256070D01*
X555854Y254382D01*
X559510Y251934D01*
X562620Y248820D01*
X565063Y245160D01*
X566745Y241094D01*
X567603Y236778D01*
X567603Y234578D01*
Y200000D01*
X555000D01*
X550000Y195000D01*
Y107500D01*
X555000Y102500D01*
X567603D01*
X567603Y72118D01*
X566333Y71375D01*
X565283Y71810D01*
X563493D01*
X562610Y71444D01*
X561727Y71810D01*
X559937D01*
X558283Y71125D01*
X557017Y69859D01*
X556332Y68205D01*
Y66415D01*
X557017Y64761D01*
X558283Y63495D01*
X559811Y62862D01*
Y62493D01*
X560496Y60839D01*
X561762Y59573D01*
X563416Y58888D01*
X565206D01*
X566333Y59355D01*
X567603Y58657D01*
Y24547D01*
X567600Y22347D01*
X566736Y18032D01*
X565048Y13968D01*
X562600Y10311D01*
X559487Y7202D01*
X555826Y4759D01*
X551760Y3076D01*
X547444Y2219D01*
X545244D01*
X545244Y2219D01*
X545243Y2219D01*
X348111Y2152D01*
X348000Y3376D01*
X349148Y3852D01*
X350672Y5376D01*
X415000D01*
X416148Y5852D01*
X425211Y14915D01*
X439249D01*
X440397Y15391D01*
X443683Y18676D01*
X451935D01*
X452642Y17969D01*
X453653Y17550D01*
X454747D01*
X455758Y17969D01*
X456531Y18742D01*
X456950Y19753D01*
Y20847D01*
X456531Y21858D01*
X455758Y22631D01*
X454747Y23050D01*
X453653D01*
X453068Y22808D01*
X452453Y23852D01*
X454875Y26274D01*
X455876D01*
X456886Y26692D01*
X457660Y27466D01*
X458079Y28477D01*
Y29571D01*
X457660Y30581D01*
X456886Y31355D01*
X455876Y31774D01*
X454782D01*
X453771Y31355D01*
X452997Y30581D01*
X452579Y29571D01*
Y28570D01*
X450633Y26624D01*
X413672D01*
X405750Y34546D01*
Y35547D01*
X405331Y36558D01*
X404587Y37302D01*
X405119Y37834D01*
X405500Y38753D01*
Y39747D01*
X405119Y40666D01*
X404416Y41369D01*
X403497Y41750D01*
X402503D01*
X401584Y41369D01*
X400881Y40666D01*
X400500Y39747D01*
Y38753D01*
X400881Y37834D01*
X401413Y37302D01*
X400669Y36558D01*
X400250Y35547D01*
Y34453D01*
X400669Y33442D01*
X401442Y32669D01*
X402453Y32250D01*
X403454D01*
X411852Y23852D01*
X413000Y23376D01*
X435085D01*
X435683Y22106D01*
X435195Y21515D01*
X413200D01*
X412128Y21072D01*
X411270Y20213D01*
X410878Y20224D01*
X409856Y20595D01*
X409619Y21166D01*
X408916Y21869D01*
X407997Y22250D01*
X407003D01*
X406084Y21869D01*
X405381Y21166D01*
X405000Y20247D01*
Y19253D01*
X405381Y18334D01*
X406084Y17631D01*
X406655Y17394D01*
X407026Y16372D01*
X407037Y15980D01*
X406072Y15015D01*
X380556D01*
X380331Y15558D01*
X379558Y16331D01*
X379213Y16474D01*
X378866Y17923D01*
X383550Y22607D01*
X384405D01*
X385323Y22988D01*
X386027Y23691D01*
X386407Y24610D01*
Y25605D01*
X386027Y26523D01*
X385323Y27227D01*
X385126Y28683D01*
X403628Y47185D01*
X418000D01*
X419072Y47628D01*
X423128Y51685D01*
X434065D01*
X435509Y50241D01*
X435412Y49585D01*
X434213Y49075D01*
X434198Y49087D01*
X434166Y49119D01*
X433247Y49500D01*
X432253D01*
X431334Y49119D01*
X430631Y48416D01*
X430250Y47497D01*
Y46503D01*
X430631Y45584D01*
X431334Y44881D01*
X432253Y44500D01*
X433247D01*
X434166Y44881D01*
X435029Y45447D01*
X435761Y44816D01*
X435793Y44784D01*
X436712Y44403D01*
X437707D01*
X438625Y44784D01*
X439329Y45487D01*
X439709Y46406D01*
Y47400D01*
X440159Y48073D01*
X441447D01*
X442519Y48517D01*
X443934Y49932D01*
X454420D01*
X455492Y50376D01*
X462322Y57206D01*
X462765Y58277D01*
Y68794D01*
X464206Y70235D01*
X496432D01*
X496918Y69061D01*
X493928Y66072D01*
X493485Y65000D01*
Y59750D01*
X493928Y58678D01*
X496000Y56607D01*
Y55753D01*
X496381Y54834D01*
X496985Y54230D01*
Y49878D01*
X470178Y23071D01*
X469735Y22000D01*
Y15520D01*
X469131Y14916D01*
X468750Y13997D01*
Y13003D01*
X469131Y12084D01*
X469834Y11381D01*
X470753Y11000D01*
X471747D01*
X472666Y11381D01*
X473369Y12084D01*
X473750Y13003D01*
Y13997D01*
X473369Y14916D01*
X472765Y15520D01*
Y21372D01*
X482561Y31168D01*
X483735Y30682D01*
Y15270D01*
X483381Y14916D01*
X483000Y13997D01*
Y13003D01*
X483381Y12084D01*
X484084Y11381D01*
X485003Y11000D01*
X485997D01*
X486916Y11381D01*
X487619Y12084D01*
X488000Y13003D01*
Y13997D01*
X487619Y14916D01*
X486916Y15619D01*
X486765Y15682D01*
Y31872D01*
X502860Y47967D01*
X503304Y49039D01*
Y56507D01*
X503908Y57111D01*
X504289Y58030D01*
Y59024D01*
X503908Y59943D01*
X503291Y60560D01*
Y66057D01*
X511784Y74550D01*
X522165D01*
X523237Y74994D01*
X531572Y83329D01*
X532015Y84400D01*
Y113100D01*
X531572Y114171D01*
X519565Y126178D01*
Y133451D01*
X519121Y134522D01*
X503572Y150071D01*
X502500Y150515D01*
X482847D01*
X482516Y151001D01*
X482203Y151785D01*
X482500Y152503D01*
Y153497D01*
X482119Y154416D01*
X481486Y155050D01*
X481513Y155395D01*
X481837Y156320D01*
X489835D01*
X490906Y156763D01*
X494276Y160133D01*
X499697D01*
X500768Y160576D01*
X505536Y165344D01*
X505578Y165326D01*
X506672D01*
X507683Y165745D01*
X508456Y166518D01*
X508875Y167529D01*
Y168623D01*
X508456Y169634D01*
X507812Y170279D01*
X507669Y170572D01*
X507567Y171830D01*
X534322Y198585D01*
X537180D01*
X537784Y197981D01*
X538703Y197600D01*
X539697D01*
X540616Y197981D01*
X541319Y198684D01*
X541700Y199603D01*
Y200597D01*
X541319Y201516D01*
X540616Y202219D01*
X539697Y202600D01*
X538703D01*
X537784Y202219D01*
X537180Y201615D01*
X533694D01*
X532622Y201171D01*
X501903Y170452D01*
X501460Y169381D01*
Y169089D01*
X500855Y168804D01*
X500190Y168699D01*
X499558Y169331D01*
X498547Y169750D01*
X497453D01*
X497411Y169732D01*
X483072Y184072D01*
X482000Y184515D01*
X466810D01*
X463714Y187611D01*
X464289Y188832D01*
X465246Y189228D01*
X467253Y191235D01*
X512500D01*
X513572Y191679D01*
X519143Y197250D01*
X519997D01*
X520916Y197631D01*
X521619Y198334D01*
X522000Y199253D01*
Y200247D01*
X521619Y201166D01*
X521071Y201715D01*
X521197Y202444D01*
X521460Y202985D01*
X521500D01*
X522571Y203428D01*
X531893Y212750D01*
X532747D01*
X533666Y213131D01*
X534369Y213834D01*
X534750Y214753D01*
Y215747D01*
X534369Y216666D01*
X533666Y217369D01*
X532747Y217750D01*
X531753D01*
X530834Y217369D01*
X530131Y216666D01*
X529750Y215747D01*
X528500D01*
X528119Y216666D01*
X527416Y217369D01*
X526497Y217750D01*
X525503D01*
X524584Y217369D01*
X523881Y216666D01*
X523500Y215747D01*
Y214893D01*
X511622Y203015D01*
X504500D01*
X504422Y202983D01*
X503703Y204060D01*
X512393Y212750D01*
X513247D01*
X514166Y213131D01*
X514869Y213834D01*
X515250Y214753D01*
Y215747D01*
X514869Y216666D01*
X514166Y217369D01*
X513247Y217750D01*
X512253D01*
X511334Y217369D01*
X510631Y216666D01*
X510250Y215747D01*
Y214893D01*
X498122Y202765D01*
X460244D01*
X459172Y202321D01*
X456370Y199519D01*
X455100Y200045D01*
Y200297D01*
X454719Y201216D01*
X454016Y201919D01*
X453097Y202300D01*
X452243D01*
X450271Y204272D01*
X449200Y204715D01*
X431800D01*
X430728Y204272D01*
X427572Y201115D01*
X405500D01*
X404428Y200672D01*
X404370Y200613D01*
X403100Y201139D01*
Y201547D01*
X402719Y202466D01*
X402016Y203169D01*
X401097Y203550D01*
X400103D01*
X399184Y203169D01*
X398481Y202466D01*
X398100Y201547D01*
Y201356D01*
X398087Y201337D01*
X396830Y200612D01*
X396497Y200750D01*
X395503D01*
X394584Y200369D01*
X394285Y200071D01*
X393015Y200597D01*
Y202500D01*
X392571Y203571D01*
X391628Y204515D01*
X392154Y205785D01*
X406561D01*
X408568Y203778D01*
X409639Y203335D01*
X419650D01*
X420722Y203778D01*
X421811Y204868D01*
X421853Y204850D01*
X422947D01*
X423958Y205269D01*
X424731Y206042D01*
X425150Y207053D01*
Y208147D01*
X424731Y209158D01*
X423958Y209931D01*
X422947Y210350D01*
X421853D01*
X420842Y209931D01*
X420069Y209158D01*
X419650Y208147D01*
Y207053D01*
X418653Y206365D01*
X417924D01*
X417000Y207453D01*
Y208547D01*
X416581Y209558D01*
X415808Y210331D01*
X414797Y210750D01*
X414626D01*
X413750Y211953D01*
Y213047D01*
X413331Y214058D01*
X412558Y214831D01*
X411547Y215250D01*
X410589D01*
X410447Y215256D01*
X409415Y216195D01*
Y218201D01*
X408971Y219273D01*
X404718Y223526D01*
X404741Y224158D01*
X404895Y224851D01*
X405682Y225177D01*
X406385Y225880D01*
X406766Y226799D01*
X407090Y227015D01*
X407164Y226985D01*
X447153D01*
X447679Y225715D01*
X447381Y225416D01*
X447000Y224497D01*
Y223503D01*
X447381Y222584D01*
X447871Y222094D01*
X448079Y221808D01*
X448004Y220539D01*
X447881Y220416D01*
X447500Y219497D01*
Y218503D01*
X447881Y217584D01*
X448584Y216881D01*
X449503Y216500D01*
X450497D01*
X451416Y216881D01*
X452119Y217584D01*
X452500Y218503D01*
Y218555D01*
X453770Y219346D01*
X454003Y219250D01*
X454997D01*
X455916Y219631D01*
X456619Y220334D01*
X457000Y221253D01*
Y222247D01*
X456619Y223166D01*
X455916Y223869D01*
X454997Y224250D01*
X454003D01*
X453404Y224002D01*
X452183Y224518D01*
X452026Y224939D01*
X451993Y225158D01*
X453062Y226058D01*
X453203Y226000D01*
X454197D01*
X455116Y226381D01*
X455819Y227084D01*
X456200Y228003D01*
X456276Y228053D01*
X457095Y227714D01*
X458190D01*
X459200Y228132D01*
X459974Y228906D01*
X460392Y229917D01*
Y231011D01*
X459974Y232022D01*
X459200Y232795D01*
X458190Y233214D01*
X457429D01*
X456232Y234411D01*
X456718Y235585D01*
X460373D01*
X463685Y232274D01*
Y224720D01*
X463081Y224116D01*
X462700Y223197D01*
Y222203D01*
X463081Y221284D01*
X463784Y220581D01*
X464703Y220200D01*
X465697D01*
X466616Y220581D01*
X467200Y221164D01*
X467784Y220581D01*
X468703Y220200D01*
X469697D01*
X470616Y220581D01*
X471250Y221215D01*
X471884Y220581D01*
X472803Y220200D01*
X473797D01*
X474716Y220581D01*
X474720Y220585D01*
X475655Y221113D01*
X476380Y220585D01*
X476484Y220481D01*
X477403Y220100D01*
X478397D01*
X479316Y220481D01*
X480019Y221184D01*
X480400Y222103D01*
Y223097D01*
X480019Y224016D01*
X479415Y224620D01*
Y227838D01*
X478971Y228909D01*
X462866Y245015D01*
X463392Y246285D01*
X476980D01*
X477584Y245681D01*
X478503Y245300D01*
X479497D01*
X480416Y245681D01*
X481119Y246384D01*
X481500Y247303D01*
Y248297D01*
X481119Y249216D01*
X480416Y249919D01*
X479497Y250300D01*
X478503D01*
X477584Y249919D01*
X476980Y249315D01*
X447828D01*
X443971Y253172D01*
X442900Y253615D01*
X429728D01*
X427971Y255371D01*
X427197Y255693D01*
X427449Y256962D01*
X443100Y256957D01*
D02*
G37*
G36*
X336970Y241665D02*
Y240571D01*
X337295Y239785D01*
X336956Y238959D01*
X336638Y238515D01*
X335400D01*
X334328Y238071D01*
X326572Y230315D01*
X318675D01*
X318363Y230719D01*
X318512Y231827D01*
X318731Y232267D01*
X319178Y232442D01*
X320003Y232100D01*
X320997D01*
X321916Y232481D01*
X322619Y233184D01*
X323000Y234103D01*
Y235097D01*
X322619Y236016D01*
X321916Y236719D01*
X320997Y237100D01*
X320003D01*
X319084Y236719D01*
X318700Y236336D01*
X318416Y236619D01*
X317497Y237000D01*
X316503D01*
X315584Y236619D01*
X314881Y235916D01*
X314500Y234997D01*
Y234003D01*
X314881Y233084D01*
X314353Y231815D01*
X312049D01*
X312031Y231858D01*
X311258Y232631D01*
X310247Y233050D01*
X309153D01*
X308142Y232631D01*
X307369Y231858D01*
X306950Y230847D01*
Y229753D01*
X306047Y228615D01*
X277078D01*
X276232Y229461D01*
X276250Y229503D01*
Y230597D01*
X275831Y231608D01*
X275058Y232381D01*
X274047Y232800D01*
X272953D01*
X271942Y232381D01*
X271169Y231608D01*
X270750Y230597D01*
Y229503D01*
X271169Y228492D01*
X271942Y227719D01*
X272953Y227300D01*
X274047D01*
X274089Y227318D01*
X274922Y226485D01*
X274396Y225215D01*
X268728D01*
X266772Y227171D01*
X265700Y227615D01*
X227680D01*
X227421Y228857D01*
X227421Y228885D01*
X228119Y229584D01*
X228500Y230503D01*
Y231497D01*
X228478Y231550D01*
X229450Y232522D01*
X229503Y232500D01*
X230497D01*
X231416Y232881D01*
X232119Y233584D01*
X232500Y234503D01*
Y235497D01*
X232119Y236416D01*
X231535Y237000D01*
X232119Y237584D01*
X232500Y238503D01*
Y239497D01*
X232119Y240416D01*
X231834Y240702D01*
X232360Y241972D01*
X241091D01*
X246734Y236329D01*
X247805Y235885D01*
X308800D01*
X309872Y236329D01*
X313028Y239485D01*
X325014D01*
X325300Y239199D01*
Y238403D01*
X325681Y237484D01*
X326384Y236781D01*
X327303Y236400D01*
X328297D01*
X329216Y236781D01*
X329919Y237484D01*
X330300Y238403D01*
Y239397D01*
X329919Y240316D01*
X329216Y241019D01*
X329575Y242245D01*
X330023Y242753D01*
X336046D01*
X336970Y241665D01*
D02*
G37*
G36*
X80276Y242027D02*
Y228500D01*
X80752Y227352D01*
X83753Y224351D01*
X83737Y224277D01*
X83131Y223177D01*
X82503D01*
X81584Y222797D01*
X81095Y222307D01*
X78884D01*
X77736Y221832D01*
X72028Y216124D01*
X47500D01*
X46352Y215648D01*
X41852Y211148D01*
X41376Y210000D01*
Y162272D01*
X32427Y153324D01*
X28500D01*
X28230Y154518D01*
X28229Y154594D01*
X28919Y155284D01*
X29300Y156203D01*
Y156904D01*
X38891Y166495D01*
X39366Y167643D01*
Y213870D01*
X43746Y218250D01*
X44747D01*
X45758Y218669D01*
X46531Y219442D01*
X46950Y220453D01*
Y221547D01*
X46531Y222558D01*
X45824Y223265D01*
Y242628D01*
X50083Y246887D01*
X60153D01*
X60195Y246783D01*
X60364Y245617D01*
X57876Y244180D01*
X55642Y241946D01*
X54062Y239210D01*
X53244Y236158D01*
Y232998D01*
X54062Y229946D01*
X55642Y227210D01*
X57876Y224976D01*
X60612Y223396D01*
X63664Y222578D01*
X66824D01*
X69876Y223396D01*
X72612Y224976D01*
X74846Y227210D01*
X76426Y229946D01*
X77244Y232998D01*
Y236158D01*
X76426Y239210D01*
X74846Y241946D01*
X72612Y244180D01*
X70124Y245617D01*
X70293Y246783D01*
X70335Y246887D01*
X75417D01*
X80276Y242027D01*
D02*
G37*
G36*
X366729Y231129D02*
X367800Y230685D01*
X378468D01*
X379540Y231129D01*
X379984Y231572D01*
X380120Y231587D01*
X381408Y231201D01*
X381581Y230784D01*
X382284Y230081D01*
X383203Y229700D01*
X384197D01*
X385116Y230081D01*
X385320Y230285D01*
X386150Y230642D01*
X386980Y230285D01*
X387184Y230081D01*
X388103Y229700D01*
X389097D01*
X390016Y230081D01*
X390230Y230294D01*
X391500Y229768D01*
Y229503D01*
X391881Y228584D01*
X392584Y227881D01*
X393503Y227500D01*
X393758D01*
X394681Y226789D01*
X394800Y226327D01*
Y225703D01*
X395181Y224784D01*
X395884Y224081D01*
X396281Y223016D01*
X395900Y222097D01*
Y221103D01*
X396281Y220184D01*
X396435Y220030D01*
X396898Y219308D01*
X396435Y218370D01*
X396381Y218316D01*
X396000Y217397D01*
X395629Y216444D01*
X381099D01*
X379672Y217871D01*
X378600Y218315D01*
X361022D01*
X357165Y222171D01*
X356094Y222615D01*
X355093D01*
X354500Y223503D01*
Y224497D01*
X354119Y225416D01*
X353416Y226119D01*
X352497Y226500D01*
X351503D01*
X350584Y226119D01*
X349881Y225416D01*
X349500Y224497D01*
Y223503D01*
X349417Y223379D01*
X347907Y223172D01*
X346836Y223615D01*
X337308D01*
X336715Y224503D01*
Y225497D01*
X336334Y226416D01*
X335631Y227119D01*
X334712Y227500D01*
X333718D01*
X332799Y227119D01*
X332096Y226416D01*
X331715Y225497D01*
Y224503D01*
X331122Y223615D01*
X329528D01*
X328372Y224771D01*
X327300Y225215D01*
X317391D01*
X316543Y226485D01*
X316550Y226503D01*
X317500Y227285D01*
X327200D01*
X328271Y227729D01*
X336028Y235485D01*
X362372D01*
X366729Y231129D01*
D02*
G37*
G36*
X259499Y219559D02*
X260570Y219115D01*
X323992D01*
X339478Y203629D01*
X339767Y203509D01*
X339514Y202239D01*
X335745D01*
X332742Y205242D01*
X332080Y205684D01*
X331300Y205839D01*
X300200D01*
X300200Y205839D01*
X299420Y205684D01*
X298758Y205242D01*
X296749Y203233D01*
X296307Y202572D01*
X296152Y201791D01*
X296168Y201714D01*
X295881Y201427D01*
X295804Y201243D01*
X294327Y200925D01*
X282050Y213201D01*
X280963Y213652D01*
X269113D01*
X268025Y213201D01*
X259069Y204245D01*
X257771Y204459D01*
X257697Y204583D01*
X257309Y205601D01*
X257600Y206303D01*
Y207297D01*
X257219Y208216D01*
X257036Y208400D01*
X257219Y208584D01*
X257600Y209503D01*
Y210497D01*
X257219Y211416D01*
X256516Y212119D01*
X256386Y212173D01*
X255740Y213649D01*
X255747Y213708D01*
X255897Y214000D01*
X256816Y214381D01*
X257519Y215084D01*
X257900Y216003D01*
Y216997D01*
X257519Y217916D01*
X256816Y218619D01*
X255897Y219000D01*
X254903D01*
X253984Y218619D01*
X253830Y218465D01*
X253000Y218055D01*
X252170Y218465D01*
X252016Y218619D01*
X251097Y219000D01*
X250103D01*
X249184Y218619D01*
X248481Y217916D01*
X248100Y216997D01*
Y216003D01*
X248481Y215084D01*
X248506Y215058D01*
Y213449D01*
X246473Y211416D01*
X245878Y211625D01*
X245300Y212039D01*
Y212922D01*
X244881Y213933D01*
X244108Y214707D01*
X243097Y215125D01*
X242933D01*
X242870Y215262D01*
X243008Y216675D01*
X243781Y217449D01*
X244200Y218460D01*
Y219554D01*
X243781Y220564D01*
X243331Y221015D01*
X243788Y222285D01*
X256772D01*
X259499Y219559D01*
D02*
G37*
G36*
X232000Y207718D02*
Y203000D01*
X231117Y202117D01*
X209883D01*
X209000Y203000D01*
X208789Y208042D01*
X213232Y212485D01*
X227234D01*
X232000Y207718D01*
D02*
G37*
G36*
X69272Y207721D02*
X69296Y207480D01*
X69288Y207406D01*
X69246Y207195D01*
X69337Y207059D01*
X69353Y206896D01*
X69559Y206728D01*
X69706Y206506D01*
X70845Y205745D01*
X71932Y204119D01*
X72314Y202200D01*
X71932Y200281D01*
X70845Y198655D01*
X69219Y197568D01*
X67193Y197165D01*
X56407D01*
X54381Y197568D01*
X52755Y198655D01*
X51668Y200281D01*
X51286Y202200D01*
X51668Y204119D01*
X52755Y205745D01*
X53894Y206506D01*
X54041Y206728D01*
X54247Y206896D01*
X54263Y207059D01*
X54354Y207195D01*
X54312Y207406D01*
X54304Y207480D01*
X54328Y207721D01*
X55037Y208676D01*
X68563D01*
X69272Y207721D01*
D02*
G37*
G36*
X334948Y185236D02*
X336036Y184785D01*
X336723D01*
X337750Y184047D01*
Y182953D01*
X337901Y182589D01*
X337418Y181203D01*
X337267Y181054D01*
X337069Y180972D01*
X336001Y179904D01*
X334308Y179831D01*
X333297Y180250D01*
X332203D01*
X331192Y179831D01*
X330419Y179058D01*
X330000Y178047D01*
Y176953D01*
X330419Y175942D01*
X331192Y175169D01*
X332203Y174750D01*
X333297D01*
X334308Y175169D01*
X335044Y175905D01*
X335913Y175869D01*
X336314Y175601D01*
Y175163D01*
X336733Y174152D01*
X336850Y174035D01*
X336324Y172765D01*
X336240D01*
X335599Y172500D01*
X327175D01*
X326649Y173770D01*
X327031Y174152D01*
X327450Y175163D01*
Y176257D01*
X327031Y177268D01*
X326258Y178041D01*
X325247Y178460D01*
X324153D01*
X323142Y178041D01*
X323122Y178021D01*
X320217Y180926D01*
X320744Y182195D01*
X322351D01*
X322369Y182152D01*
X323142Y181379D01*
X324153Y180960D01*
X325247D01*
X326258Y181379D01*
X327031Y182152D01*
X327450Y183163D01*
Y184257D01*
X327031Y185268D01*
X326258Y186041D01*
X325247Y186460D01*
X324153D01*
X323142Y186041D01*
X322369Y185268D01*
X322351Y185226D01*
X320847D01*
X318801Y187271D01*
X317729Y187715D01*
X317068D01*
X316582Y188889D01*
X317678Y189985D01*
X317920D01*
X318442Y189463D01*
X319453Y189044D01*
X320547D01*
X321558Y189463D01*
X322331Y190236D01*
X322750Y191247D01*
Y191253D01*
X323192Y191548D01*
X328636D01*
X334948Y185236D01*
D02*
G37*
G36*
X199660Y182751D02*
X200363Y182048D01*
X201282Y181667D01*
X202276D01*
X203195Y182048D01*
X203575Y182428D01*
X234572D01*
X235000Y182000D01*
Y176000D01*
X234515Y175515D01*
X189653D01*
X188581Y175072D01*
X188510Y175000D01*
X179000D01*
Y177000D01*
X185000Y183000D01*
X185000D01*
X185000Y183000D01*
X185000Y183000D01*
X199557D01*
X199660Y182751D01*
D02*
G37*
G36*
X465111Y181929D02*
X466182Y181485D01*
X477706D01*
X478299Y180597D01*
Y179603D01*
X478679Y178684D01*
X479383Y177981D01*
X480302Y177600D01*
X481296D01*
X482215Y177981D01*
X482918Y178684D01*
X483965Y178892D01*
X495268Y167589D01*
X495250Y167547D01*
Y166453D01*
X495341Y166233D01*
X494492Y164963D01*
X491448D01*
X490376Y164519D01*
X489523Y163666D01*
X488070Y164009D01*
X487931Y164343D01*
X487158Y165116D01*
X486147Y165535D01*
X485053D01*
X484809Y165434D01*
X480071Y170172D01*
X479000Y170615D01*
X446712D01*
X442630Y174697D01*
X441559Y175141D01*
X427260D01*
X426186Y176215D01*
X426712Y177485D01*
X433730D01*
X434334Y176881D01*
X435253Y176500D01*
X436247D01*
X437166Y176881D01*
X437869Y177584D01*
X438250Y178503D01*
Y178840D01*
X439284Y179834D01*
X439423Y179880D01*
X439588Y179813D01*
X439990Y178842D01*
X440764Y178069D01*
X441775Y177650D01*
X442869D01*
X443879Y178069D01*
X444653Y178842D01*
X445072Y179853D01*
Y180947D01*
X444712Y181815D01*
X444955Y182467D01*
X445322Y183085D01*
X449880D01*
X450484Y182481D01*
X451403Y182100D01*
X452397D01*
X453316Y182481D01*
X454019Y183184D01*
X454400Y184103D01*
Y185097D01*
X454144Y185715D01*
X454561Y186650D01*
X454847Y186985D01*
X460055D01*
X465111Y181929D01*
D02*
G37*
G36*
X101777Y191744D02*
X92116Y182084D01*
X91232Y180761D01*
X90922Y179200D01*
X90922Y179200D01*
Y127000D01*
X90922Y127000D01*
X91232Y125439D01*
X92116Y124116D01*
X101918Y114315D01*
Y103000D01*
X102235Y102235D01*
X105235Y99235D01*
X106000Y98918D01*
X125000D01*
X125000Y98918D01*
X125765Y99235D01*
X125765Y99235D01*
X128765Y102235D01*
X129082Y103000D01*
X129082Y115850D01*
X128765Y116615D01*
X128765Y116615D01*
X125615Y119765D01*
X124850Y120082D01*
X107685D01*
X99078Y128689D01*
Y152757D01*
X99286Y152976D01*
X100348Y153500D01*
X100953Y153250D01*
X102047D01*
X103058Y153669D01*
X103831Y154442D01*
X104250Y155453D01*
Y156547D01*
X105423Y156780D01*
X108371D01*
X109459Y157231D01*
X113201Y160973D01*
X113652Y162061D01*
Y181554D01*
X114922Y182402D01*
X115054Y182348D01*
X116048D01*
X116967Y182728D01*
X117571Y183332D01*
X125848D01*
X126919Y183776D01*
X130628Y187485D01*
X134334D01*
X135314Y186531D01*
Y185536D01*
X135431Y185254D01*
X134577Y184075D01*
X134217D01*
X133298Y183694D01*
X132595Y182991D01*
X132214Y182072D01*
Y181078D01*
X132595Y180159D01*
X133134Y179279D01*
X132501Y178594D01*
X132450Y178543D01*
X132070Y177624D01*
Y176630D01*
X132450Y175711D01*
X133153Y175008D01*
X134072Y174627D01*
X135067D01*
X135986Y175008D01*
X136689Y175711D01*
X137070Y176630D01*
Y177624D01*
X136689Y178543D01*
X136150Y179424D01*
X136783Y180109D01*
X136833Y180159D01*
X137214Y181078D01*
Y182072D01*
X137097Y182354D01*
X137950Y183533D01*
X138311D01*
X139230Y183914D01*
X139834Y184518D01*
X147842D01*
X148095Y183248D01*
X147784Y183119D01*
X147081Y182416D01*
X146700Y181497D01*
Y180503D01*
X147081Y179584D01*
X147784Y178881D01*
X148703Y178500D01*
X149697D01*
X150616Y178881D01*
X151220Y179485D01*
X152800D01*
X153871Y179928D01*
X157321Y183378D01*
X158054Y183093D01*
X158495Y182755D01*
Y181331D01*
X159103Y179861D01*
X159419Y179546D01*
X159452Y178017D01*
X158837Y177425D01*
X158378Y177516D01*
X156037Y177050D01*
X154053Y175724D01*
X144225Y165896D01*
X142899Y163911D01*
X142433Y161570D01*
Y142741D01*
X142535Y142226D01*
Y45392D01*
X140261Y43117D01*
X135082D01*
Y50000D01*
X135083Y50000D01*
X134765Y50765D01*
X134765Y50766D01*
X131765Y53765D01*
X131000Y54082D01*
X115000D01*
X115000Y54082D01*
X114235Y53765D01*
X114235Y53765D01*
X113949Y53480D01*
X113734Y53391D01*
X112609Y52266D01*
X112000Y50796D01*
Y49204D01*
X112609Y47734D01*
X112918Y47426D01*
Y35000D01*
X113235Y34235D01*
X114484Y32985D01*
X113958Y31715D01*
X106380D01*
X105309Y31272D01*
X103316Y29279D01*
X103273Y29296D01*
X102179D01*
X101169Y28877D01*
X100395Y28104D01*
X100276Y27816D01*
X98803Y27493D01*
X92148Y34148D01*
X91000Y34624D01*
X82273D01*
X72748Y44148D01*
X71600Y44624D01*
X58672D01*
X52624Y50672D01*
Y62327D01*
X57148Y66852D01*
X57624Y68000D01*
Y75596D01*
X57148Y76744D01*
X51224Y82669D01*
Y88134D01*
X51931Y88842D01*
X52350Y89853D01*
Y90947D01*
X51931Y91958D01*
X51158Y92731D01*
X50147Y93150D01*
X49053D01*
X48042Y92731D01*
X47269Y91958D01*
X46850Y90947D01*
Y89853D01*
X47269Y88842D01*
X47976Y88134D01*
Y81996D01*
X48452Y80848D01*
X50550Y78750D01*
X50442Y77331D01*
X49669Y76558D01*
X49250Y75547D01*
Y74546D01*
X43852Y69148D01*
X43376Y68000D01*
Y23000D01*
X43852Y21852D01*
X56852Y8852D01*
X58000Y8376D01*
X88000D01*
X89148Y8852D01*
X89752Y9456D01*
X90828Y8736D01*
X90750Y8547D01*
Y7453D01*
X91169Y6442D01*
X91942Y5669D01*
X92953Y5250D01*
X94047D01*
X95058Y5669D01*
X95765Y6376D01*
X110235D01*
X110942Y5669D01*
X111953Y5250D01*
X113047D01*
X114058Y5669D01*
X114766Y6376D01*
X129235D01*
X129942Y5669D01*
X130953Y5250D01*
X132047D01*
X133058Y5669D01*
X133177Y5788D01*
X134050Y6300D01*
X134837Y5788D01*
X134927Y5698D01*
X135845Y5318D01*
X136538D01*
X137081Y4435D01*
X137161Y4144D01*
X135097Y2080D01*
X38174Y2048D01*
X37585Y2047D01*
X36496Y2498D01*
X35663Y3331D01*
X35212Y4419D01*
X35212Y5009D01*
X35212Y5009D01*
X35212Y5009D01*
X35212Y5379D01*
X35192Y5478D01*
X35202Y5579D01*
X35106Y6554D01*
X35019Y6841D01*
X34961Y7135D01*
X34214Y8937D01*
X33772Y9599D01*
X32393Y10978D01*
X32392Y10978D01*
X31731Y11420D01*
X29929Y12167D01*
X29635Y12225D01*
X29348Y12312D01*
X28373Y12408D01*
X28272Y12398D01*
X28173Y12418D01*
X4386D01*
X3297Y12869D01*
X2465Y13701D01*
X2014Y14790D01*
X2014Y15379D01*
Y128918D01*
X51550D01*
X51599Y128938D01*
X52349Y127126D01*
X53826Y125649D01*
X55756Y124850D01*
X57844D01*
X59774Y125649D01*
X61251Y127126D01*
X62050Y129056D01*
Y130302D01*
X62087Y130439D01*
X62528Y131374D01*
X63194Y131693D01*
X63256Y131785D01*
X63358Y131828D01*
X66765Y135235D01*
X67082Y136000D01*
Y184552D01*
X75448Y192918D01*
X101291D01*
X101777Y191744D01*
D02*
G37*
G36*
X159594Y151263D02*
X168184Y142673D01*
X167889Y141442D01*
X166712Y140823D01*
X166416Y141119D01*
X165497Y141500D01*
X164503D01*
X163584Y141119D01*
X163000Y140535D01*
X162416Y141119D01*
X161497Y141500D01*
X160503D01*
X159584Y141119D01*
X158881Y140416D01*
X158500Y139497D01*
Y138503D01*
X158881Y137584D01*
X159584Y136881D01*
X160503Y136500D01*
X161497D01*
X162416Y136881D01*
X163000Y137465D01*
X163584Y136881D01*
X164503Y136500D01*
X165497D01*
X166416Y136881D01*
X167000Y137465D01*
X167584Y136881D01*
X168503Y136500D01*
X169497D01*
X170416Y136881D01*
X171119Y137584D01*
X172397Y137572D01*
X173068Y137021D01*
Y91250D01*
X165855Y84036D01*
X165411Y82965D01*
Y52154D01*
X155988Y42731D01*
X154770Y43310D01*
Y50035D01*
X155286Y50290D01*
X156040Y50424D01*
X156584Y49881D01*
X157503Y49500D01*
X158497D01*
X159416Y49881D01*
X160119Y50584D01*
X160500Y51503D01*
Y52497D01*
X160119Y53416D01*
X159416Y54119D01*
X158497Y54500D01*
X157503D01*
X156584Y54119D01*
X156040Y53576D01*
X155286Y53710D01*
X154770Y53965D01*
Y142639D01*
X154668Y143153D01*
Y149694D01*
X155781Y150608D01*
X156775D01*
X157694Y150989D01*
X157933Y151228D01*
X159409Y151329D01*
X159594Y151263D01*
D02*
G37*
G36*
X477270Y144311D02*
X457460Y124502D01*
X456383Y125221D01*
X456500Y125503D01*
Y126497D01*
X456119Y127416D01*
X456035Y127500D01*
X456119Y127584D01*
X456500Y128503D01*
Y129497D01*
X456119Y130416D01*
X456035Y130500D01*
X456119Y130584D01*
X456500Y131503D01*
Y132497D01*
X456119Y133416D01*
X455416Y134119D01*
X454497Y134500D01*
X453503D01*
X452584Y134119D01*
X451881Y133416D01*
X451500Y132497D01*
Y131503D01*
X451881Y130584D01*
X451964Y130500D01*
X451881Y130416D01*
X451500Y129497D01*
Y128503D01*
X451881Y127584D01*
X451964Y127500D01*
X451881Y127416D01*
X451500Y126497D01*
Y125503D01*
X451881Y124584D01*
X451964Y124500D01*
X451881Y124416D01*
X451500Y123497D01*
Y122503D01*
X450907Y121615D01*
X437902D01*
X436831Y121172D01*
X434539Y118880D01*
X434330Y118891D01*
X433862Y120112D01*
X433888Y120245D01*
X452522Y138879D01*
X453321Y138554D01*
X453696Y138257D01*
Y137407D01*
X454076Y136488D01*
X454780Y135785D01*
X455698Y135404D01*
X456693D01*
X457612Y135785D01*
X458315Y136488D01*
X458696Y137407D01*
Y138402D01*
X458315Y139320D01*
X457612Y140024D01*
X456693Y140404D01*
X455844D01*
X455546Y140779D01*
X455221Y141578D01*
X459128Y145485D01*
X476783D01*
X477270Y144311D01*
D02*
G37*
G36*
X477900Y131061D02*
Y131003D01*
X478281Y130084D01*
X478984Y129381D01*
X479903Y129000D01*
X480897D01*
X481816Y129381D01*
X482519Y130084D01*
X483777Y129801D01*
X484503Y129500D01*
X485375D01*
X486047Y128828D01*
X487118Y128385D01*
X492772D01*
X503387Y117770D01*
X502861Y116500D01*
X502503D01*
X501612Y116131D01*
X501584Y116119D01*
X500119Y116416D01*
X500102Y116433D01*
X499416Y117119D01*
X498497Y117500D01*
X497503D01*
X496584Y117119D01*
X495881Y116416D01*
X495500Y115497D01*
Y114503D01*
X495822Y113726D01*
X495549Y113079D01*
X495168Y112500D01*
X495043Y112500D01*
X494871Y112671D01*
X493800Y113115D01*
X483328D01*
X482371Y114072D01*
X481300Y114515D01*
X476466D01*
X475500Y115503D01*
Y116497D01*
X475119Y117416D01*
X474416Y118119D01*
X473497Y118500D01*
X472503D01*
X471584Y118119D01*
X471256Y117792D01*
X470929Y118119D01*
X470010Y118500D01*
X469015D01*
X468096Y118119D01*
X467906Y117929D01*
X467716Y118119D01*
X466797Y118500D01*
X465803D01*
X464884Y118119D01*
X464113Y119070D01*
X476630Y131587D01*
X477900Y131061D01*
D02*
G37*
G36*
X128000Y115850D02*
X128000Y103000D01*
X125000Y100000D01*
X106000D01*
X103000Y103000D01*
Y115000D01*
X107000Y119000D01*
X124850D01*
X128000Y115850D01*
D02*
G37*
G36*
X470930Y101433D02*
X471633Y100730D01*
X472552Y100349D01*
X473547D01*
X474465Y100730D01*
X475169Y101433D01*
X476216Y101642D01*
X479972Y97885D01*
X479446Y96615D01*
X456977D01*
X455906Y96172D01*
X447350Y87615D01*
X426728D01*
X424296Y90047D01*
X424244Y90155D01*
X424261Y91660D01*
X424277Y91688D01*
X424531Y91942D01*
X424772Y92523D01*
X424869Y92688D01*
X425984Y92670D01*
X426123Y92637D01*
X426529Y91658D01*
X427303Y90884D01*
X428313Y90466D01*
X429407D01*
X430418Y90884D01*
X431191Y91658D01*
X431209Y91700D01*
X444715D01*
X445787Y92144D01*
X455328Y101685D01*
X470826D01*
X470930Y101433D01*
D02*
G37*
G36*
X404179Y74928D02*
X405250Y74485D01*
X459556D01*
X460042Y73311D01*
X458178Y71448D01*
X457735Y70376D01*
Y60373D01*
X452225Y54863D01*
X444381D01*
X442651Y56593D01*
X441580Y57036D01*
X404276D01*
X403750Y58306D01*
X406128Y60685D01*
X414721D01*
X415325Y60080D01*
X416244Y59700D01*
X417239D01*
X418157Y60080D01*
X418758Y60681D01*
X419325Y60114D01*
X420244Y59733D01*
X421238D01*
X422157Y60114D01*
X422860Y60817D01*
X423241Y61736D01*
Y62730D01*
X422860Y63649D01*
X422157Y64352D01*
X421238Y64733D01*
X420244D01*
X419325Y64352D01*
X418724Y63752D01*
X418157Y64319D01*
X417239Y64700D01*
X416244D01*
X415325Y64319D01*
X414721Y63715D01*
X405500D01*
X404428Y63271D01*
X378672Y37515D01*
X337700D01*
X336628Y37071D01*
X332226Y32669D01*
X314081D01*
X313009Y32225D01*
X310399Y29615D01*
X251272D01*
X250200Y29172D01*
X249852Y28823D01*
X249547Y28950D01*
X248453D01*
X247442Y28531D01*
X246669Y27758D01*
X246526Y27413D01*
X245077Y27066D01*
X241370Y30773D01*
X240298Y31217D01*
X231803D01*
X230732Y30773D01*
X227385Y27427D01*
X225849Y27687D01*
X225515Y28020D01*
Y30572D01*
X244428Y49485D01*
X283000D01*
X284072Y49928D01*
X291643Y57500D01*
X341932Y57500D01*
X341981Y57384D01*
X342684Y56681D01*
X343603Y56300D01*
X344597D01*
X345516Y56681D01*
X346200Y57365D01*
X346884Y56681D01*
X347803Y56300D01*
X348797D01*
X349716Y56681D01*
X350419Y57384D01*
X350467Y57500D01*
X379762D01*
X383882Y61621D01*
X384053Y61550D01*
X385147D01*
X386158Y61969D01*
X387069Y62442D01*
X387842Y61669D01*
X388853Y61250D01*
X389947D01*
X390958Y61669D01*
X391731Y62442D01*
X392150Y63453D01*
Y64547D01*
X391731Y65558D01*
X390958Y66331D01*
X390915Y66349D01*
Y68654D01*
X400684Y78423D01*
X404179Y74928D01*
D02*
G37*
G36*
X134000Y50000D02*
Y34000D01*
X134000D01*
X133000Y33000D01*
X116000D01*
X114000Y35000D01*
Y52000D01*
X115000Y53000D01*
X131000D01*
X134000Y50000D01*
D02*
G37*
G36*
X381468Y29311D02*
X374572Y22415D01*
X372214D01*
X371954Y23657D01*
X371954Y23685D01*
X372653Y24384D01*
X373033Y25303D01*
Y26297D01*
X372653Y27216D01*
X371949Y27919D01*
X371031Y28300D01*
X370036D01*
X369117Y27919D01*
X368414Y27216D01*
X368033Y26297D01*
Y25303D01*
X368070Y25213D01*
X367072Y24215D01*
X352468D01*
X350300Y26383D01*
Y26947D01*
X349919Y27866D01*
X349216Y28569D01*
X348297Y28950D01*
X347303D01*
X346384Y28569D01*
X345699Y29555D01*
X346628Y30485D01*
X380982D01*
X381468Y29311D01*
D02*
G37*
%LPC*%
G36*
X181497Y252500D02*
X180503D01*
X179584Y252119D01*
X178881Y251416D01*
X178500Y250497D01*
Y249503D01*
X178881Y248584D01*
X179584Y247881D01*
X180503Y247500D01*
X181497D01*
X182416Y247881D01*
X183119Y248584D01*
X183500Y249503D01*
Y250497D01*
X183119Y251416D01*
X182416Y252119D01*
X181497Y252500D01*
D02*
G37*
G36*
X112897Y243200D02*
X111903D01*
X110984Y242819D01*
X110281Y242116D01*
X109900Y241197D01*
Y240203D01*
X110281Y239284D01*
X110984Y238581D01*
X111903Y238200D01*
X112897D01*
X113816Y238581D01*
X114519Y239284D01*
X114900Y240203D01*
Y241197D01*
X114519Y242116D01*
X113816Y242819D01*
X112897Y243200D01*
D02*
G37*
G36*
X118197Y239170D02*
X117203D01*
X116284Y238789D01*
X115581Y238086D01*
X115200Y237167D01*
Y236173D01*
X115581Y235254D01*
X116284Y234551D01*
X117203Y234170D01*
X118197D01*
X119116Y234551D01*
X119819Y235254D01*
X120200Y236173D01*
Y237167D01*
X119819Y238086D01*
X119116Y238789D01*
X118197Y239170D01*
D02*
G37*
G36*
X105797Y238300D02*
X104803D01*
X103884Y237919D01*
X103181Y237216D01*
X102800Y236297D01*
Y235303D01*
X103181Y234384D01*
X103884Y233681D01*
X104803Y233300D01*
X105797D01*
X106716Y233681D01*
X107419Y234384D01*
X107800Y235303D01*
Y236297D01*
X107419Y237216D01*
X106716Y237919D01*
X105797Y238300D01*
D02*
G37*
G36*
X18571Y237190D02*
X16069D01*
X13653Y236543D01*
X11487Y235292D01*
X9718Y233523D01*
X8467Y231357D01*
X7820Y228941D01*
Y226439D01*
X8467Y224023D01*
X9718Y221857D01*
X11487Y220088D01*
X13653Y218837D01*
X16069Y218190D01*
X18571D01*
X20987Y218837D01*
X23153Y220088D01*
X24922Y221857D01*
X26172Y224023D01*
X26820Y226439D01*
Y228941D01*
X26172Y231357D01*
X24922Y233523D01*
X23153Y235292D01*
X20987Y236543D01*
X18571Y237190D01*
D02*
G37*
G36*
X24000Y208318D02*
X16000D01*
X13659Y207852D01*
X11674Y206526D01*
X10348Y204541D01*
X9883Y202200D01*
X10348Y199859D01*
X11674Y197874D01*
X13659Y196548D01*
X16000Y196082D01*
X24000D01*
X26341Y196548D01*
X28326Y197874D01*
X29652Y199859D01*
X30117Y202200D01*
X29652Y204541D01*
X28326Y206526D01*
X26341Y207852D01*
X24000Y208318D01*
D02*
G37*
G36*
X57844Y193150D02*
X55756D01*
X53826Y192351D01*
X52349Y190874D01*
X51550Y188944D01*
Y186856D01*
X52349Y184926D01*
X53826Y183449D01*
X55756Y182650D01*
X57844D01*
X59774Y183449D01*
X61251Y184926D01*
X62050Y186856D01*
Y188944D01*
X61251Y190874D01*
X59774Y192351D01*
X57844Y193150D01*
D02*
G37*
G36*
X512895Y246500D02*
X512750D01*
Y242750D01*
X516500D01*
Y242895D01*
X515815Y244549D01*
X514549Y245815D01*
X512895Y246500D01*
D02*
G37*
G36*
X511250D02*
X511105D01*
X509451Y245815D01*
X508185Y244549D01*
X507500Y242895D01*
Y242750D01*
X511250D01*
Y246500D01*
D02*
G37*
G36*
X496895D02*
X496750D01*
Y242750D01*
X500500D01*
Y242895D01*
X499815Y244549D01*
X498549Y245815D01*
X496895Y246500D01*
D02*
G37*
G36*
X495250D02*
X495105D01*
X493451Y245815D01*
X492185Y244549D01*
X491500Y242895D01*
Y242750D01*
X495250D01*
Y246500D01*
D02*
G37*
G36*
X516500Y241250D02*
X512750D01*
Y237500D01*
X512895D01*
X514549Y238185D01*
X515815Y239451D01*
X516500Y241105D01*
Y241250D01*
D02*
G37*
G36*
X511250D02*
X507500D01*
Y241105D01*
X508185Y239451D01*
X509451Y238185D01*
X511105Y237500D01*
X511250D01*
Y241250D01*
D02*
G37*
G36*
X500500D02*
X496750D01*
Y237500D01*
X496895D01*
X498549Y238185D01*
X499815Y239451D01*
X500500Y241105D01*
Y241250D01*
D02*
G37*
G36*
X495250D02*
X491500D01*
Y241105D01*
X492185Y239451D01*
X493451Y238185D01*
X495105Y237500D01*
X495250D01*
Y241250D01*
D02*
G37*
G36*
X520796Y231000D02*
X519204D01*
X517734Y230391D01*
X516720Y229377D01*
X516000Y229317D01*
X515280Y229377D01*
X514266Y230391D01*
X512796Y231000D01*
X511204D01*
X509734Y230391D01*
X508720Y229377D01*
X508000Y229317D01*
X507280Y229377D01*
X506266Y230391D01*
X504796Y231000D01*
X503204D01*
X501734Y230391D01*
X500720Y229377D01*
X500000Y229317D01*
X499280Y229377D01*
X498266Y230391D01*
X496796Y231000D01*
X495204D01*
X493734Y230391D01*
X492720Y229377D01*
X492000Y229317D01*
X491280Y229377D01*
X490266Y230391D01*
X488796Y231000D01*
X487204D01*
X485734Y230391D01*
X484609Y229266D01*
X484000Y227796D01*
Y226204D01*
X484609Y224734D01*
X485734Y223609D01*
X487204Y223000D01*
X488796D01*
X490266Y223609D01*
X491280Y224623D01*
X492000Y224683D01*
X492720Y224623D01*
X493734Y223609D01*
X495204Y223000D01*
X496796D01*
X498266Y223609D01*
X499280Y224623D01*
X500000Y224683D01*
X500720Y224623D01*
X501734Y223609D01*
X503204Y223000D01*
X504796D01*
X506266Y223609D01*
X507280Y224623D01*
X508000Y224683D01*
X508720Y224623D01*
X509734Y223609D01*
X511204Y223000D01*
X512796D01*
X514266Y223609D01*
X515280Y224623D01*
X516000Y224683D01*
X516720Y224623D01*
X517734Y223609D01*
X519204Y223000D01*
X520796D01*
X522266Y223609D01*
X523391Y224734D01*
X524000Y226204D01*
Y227796D01*
X523391Y229266D01*
X522266Y230391D01*
X520796Y231000D01*
D02*
G37*
G36*
X546824Y246578D02*
X543664D01*
X540612Y245760D01*
X537876Y244180D01*
X535642Y241946D01*
X534062Y239210D01*
X533244Y236158D01*
Y232998D01*
X534062Y229946D01*
X535642Y227210D01*
X537876Y224976D01*
X540612Y223396D01*
X543664Y222578D01*
X546824D01*
X549876Y223396D01*
X552612Y224976D01*
X554846Y227210D01*
X556426Y229946D01*
X557244Y232998D01*
Y236158D01*
X556426Y239210D01*
X554846Y241946D01*
X552612Y244180D01*
X549876Y245760D01*
X546824Y246578D01*
D02*
G37*
G36*
X542497Y162500D02*
X541503D01*
X540584Y162119D01*
X539881Y161416D01*
X539500Y160497D01*
Y159503D01*
X539881Y158584D01*
X540584Y157881D01*
X541503Y157500D01*
X542497D01*
X543416Y157881D01*
X544119Y158584D01*
X544500Y159503D01*
Y160497D01*
X544119Y161416D01*
X543416Y162119D01*
X542497Y162500D01*
D02*
G37*
G36*
X529897D02*
X528903D01*
X527984Y162119D01*
X527281Y161416D01*
X526900Y160497D01*
Y159503D01*
X527281Y158584D01*
X527984Y157881D01*
X528903Y157500D01*
X529897D01*
X530816Y157881D01*
X531519Y158584D01*
X531900Y159503D01*
Y160497D01*
X531519Y161416D01*
X530816Y162119D01*
X529897Y162500D01*
D02*
G37*
G36*
X530171Y152400D02*
X529177D01*
X528258Y152019D01*
X527555Y151316D01*
X527174Y150397D01*
Y149403D01*
X527555Y148484D01*
X528258Y147781D01*
X529177Y147400D01*
X530171D01*
X531090Y147781D01*
X531793Y148484D01*
X532174Y149403D01*
Y150397D01*
X531793Y151316D01*
X531090Y152019D01*
X530171Y152400D01*
D02*
G37*
G36*
X535997Y140250D02*
X535003D01*
X534084Y139869D01*
X533381Y139166D01*
X533000Y138247D01*
Y137253D01*
X533381Y136334D01*
X534084Y135631D01*
X535003Y135250D01*
X535997D01*
X536916Y135631D01*
X537619Y136334D01*
X538000Y137253D01*
Y138247D01*
X537619Y139166D01*
X536916Y139869D01*
X535997Y140250D01*
D02*
G37*
G36*
X546851Y105624D02*
X545857D01*
X544938Y105243D01*
X544235Y104540D01*
X543854Y103621D01*
Y102627D01*
X544235Y101708D01*
X544938Y101005D01*
X545857Y100624D01*
X546851D01*
X547770Y101005D01*
X548473Y101708D01*
X548854Y102627D01*
Y103621D01*
X548473Y104540D01*
X547770Y105243D01*
X546851Y105624D01*
D02*
G37*
G36*
X539485D02*
X538491D01*
X537572Y105243D01*
X536869Y104540D01*
X536488Y103621D01*
Y102627D01*
X536869Y101708D01*
X537572Y101005D01*
X538491Y100624D01*
X539485D01*
X540404Y101005D01*
X541107Y101708D01*
X541488Y102627D01*
Y103621D01*
X541107Y104540D01*
X540404Y105243D01*
X539485Y105624D01*
D02*
G37*
G36*
X525007Y73620D02*
X524013D01*
X523094Y73239D01*
X522391Y72536D01*
X522010Y71617D01*
Y70623D01*
X522391Y69704D01*
X523094Y69001D01*
X524013Y68620D01*
X525007D01*
X525926Y69001D01*
X526629Y69704D01*
X527010Y70623D01*
Y71617D01*
X526629Y72536D01*
X525926Y73239D01*
X525007Y73620D01*
D02*
G37*
G36*
X531844Y52591D02*
X530850D01*
X529931Y52210D01*
X529228Y51507D01*
X528847Y50588D01*
Y49593D01*
X529228Y48675D01*
X529931Y47971D01*
X530850Y47591D01*
X531844D01*
X532763Y47971D01*
X533466Y48675D01*
X533847Y49593D01*
Y50588D01*
X533466Y51507D01*
X532763Y52210D01*
X531844Y52591D01*
D02*
G37*
G36*
X546824Y36578D02*
X543664D01*
X540612Y35760D01*
X537876Y34180D01*
X535642Y31946D01*
X534062Y29210D01*
X533244Y26158D01*
Y22998D01*
X534062Y19946D01*
X535642Y17210D01*
X537876Y14976D01*
X540612Y13396D01*
X543664Y12578D01*
X546824D01*
X549876Y13396D01*
X552612Y14976D01*
X554846Y17210D01*
X556426Y19946D01*
X557244Y22998D01*
Y26158D01*
X556426Y29210D01*
X554846Y31946D01*
X552612Y34180D01*
X549876Y35760D01*
X546824Y36578D01*
D02*
G37*
G36*
X457296Y182000D02*
X455704D01*
X454234Y181391D01*
X453109Y180266D01*
X452500Y178796D01*
Y177204D01*
X453109Y175734D01*
X454234Y174609D01*
X455704Y174000D01*
X457296D01*
X458766Y174609D01*
X459891Y175734D01*
X460500Y177204D01*
Y178796D01*
X459891Y180266D01*
X458766Y181391D01*
X457296Y182000D01*
D02*
G37*
G36*
X124456Y180500D02*
X123462D01*
X122543Y180119D01*
X121840Y179416D01*
X121459Y178497D01*
Y177503D01*
X121840Y176584D01*
X122543Y175881D01*
X123462Y175500D01*
X124456D01*
X125375Y175881D01*
X126078Y176584D01*
X126459Y177503D01*
Y178497D01*
X126078Y179416D01*
X125375Y180119D01*
X124456Y180500D01*
D02*
G37*
G36*
X121997Y164250D02*
X121003D01*
X120084Y163869D01*
X119381Y163166D01*
X119000Y162247D01*
Y161253D01*
X119381Y160334D01*
X119985Y159730D01*
Y156128D01*
X117372Y153515D01*
X110250D01*
X109178Y153071D01*
X106928Y150821D01*
X106484Y149750D01*
Y130020D01*
X105880Y129416D01*
X105500Y128497D01*
Y127502D01*
X105880Y126584D01*
X106584Y125880D01*
X107502Y125500D01*
X108497D01*
X109416Y125880D01*
X110119Y126584D01*
X110500Y127502D01*
Y128497D01*
X110119Y129416D01*
X109515Y130020D01*
Y149122D01*
X110878Y150485D01*
X118000D01*
X119072Y150928D01*
X122571Y154429D01*
X123015Y155500D01*
Y158869D01*
X124250Y158954D01*
X124859Y157484D01*
X125984Y156359D01*
X127454Y155750D01*
X129046D01*
X130516Y156359D01*
X131500Y157343D01*
X132484Y156359D01*
X133954Y155750D01*
X135546D01*
X137016Y156359D01*
X138141Y157484D01*
X138750Y158954D01*
Y160546D01*
X138141Y162016D01*
X137016Y163141D01*
X135546Y163750D01*
X133954D01*
X132484Y163141D01*
X131500Y162157D01*
X130516Y163141D01*
X129046Y163750D01*
X127454D01*
X125984Y163141D01*
X125217Y162374D01*
X125053Y162357D01*
X123884Y162619D01*
X123833Y162649D01*
X123619Y163166D01*
X122916Y163869D01*
X121997Y164250D01*
D02*
G37*
G36*
X76247Y144000D02*
X75253D01*
X74334Y143619D01*
X73631Y142916D01*
X73250Y141997D01*
Y141003D01*
X73631Y140084D01*
X74334Y139381D01*
X75253Y139000D01*
X76247D01*
X77166Y139381D01*
X77869Y140084D01*
X78250Y141003D01*
Y141997D01*
X77869Y142916D01*
X77166Y143619D01*
X76247Y144000D01*
D02*
G37*
G36*
X120791Y140540D02*
X119796D01*
X118877Y140160D01*
X118174Y139457D01*
X117793Y138538D01*
Y137543D01*
X118174Y136624D01*
X118877Y135921D01*
X119796Y135540D01*
X120791D01*
X121709Y135921D01*
X122413Y136624D01*
X122793Y137543D01*
Y138538D01*
X122413Y139457D01*
X121709Y140160D01*
X120791Y140540D01*
D02*
G37*
G36*
X78247Y132500D02*
X77253D01*
X76334Y132119D01*
X75631Y131416D01*
X75250Y130497D01*
Y129503D01*
X75631Y128584D01*
X76334Y127881D01*
X77253Y127500D01*
X78247D01*
X79166Y127881D01*
X79869Y128584D01*
X80250Y129503D01*
Y130497D01*
X79869Y131416D01*
X79166Y132119D01*
X78247Y132500D01*
D02*
G37*
G36*
X32547Y109750D02*
X31453D01*
X30442Y109331D01*
X30000Y108889D01*
X29558Y109331D01*
X28547Y109750D01*
X27453D01*
X26442Y109331D01*
X25669Y108558D01*
X25250Y107547D01*
Y106453D01*
X25632Y105530D01*
X25168Y104835D01*
X24702Y102494D01*
Y54344D01*
X24297Y53642D01*
X23977Y52449D01*
X22663D01*
X22343Y53642D01*
X21421Y55238D01*
X20118Y56541D01*
X18522Y57463D01*
X16742Y57940D01*
X14898D01*
X13118Y57463D01*
X11522Y56541D01*
X10219Y55238D01*
X9297Y53642D01*
X8820Y51862D01*
Y50018D01*
X9297Y48238D01*
X10219Y46642D01*
X11522Y45339D01*
X13118Y44417D01*
X14898Y43940D01*
X16742D01*
X18522Y44417D01*
X20118Y45339D01*
X21421Y46642D01*
X22343Y48238D01*
X22663Y49431D01*
X23977D01*
X24297Y48238D01*
X25219Y46642D01*
X26522Y45339D01*
X28118Y44417D01*
X29898Y43940D01*
X31741D01*
X33522Y44417D01*
X35118Y45339D01*
X36421Y46642D01*
X37343Y48238D01*
X37820Y50018D01*
Y51862D01*
X37343Y53642D01*
X36937Y54344D01*
Y102494D01*
X36472Y104835D01*
X35146Y106820D01*
X34750Y107084D01*
Y107547D01*
X34331Y108558D01*
X33558Y109331D01*
X32547Y109750D01*
D02*
G37*
G36*
X87497Y112500D02*
X86503D01*
X85584Y112119D01*
X84880Y111416D01*
X84500Y110497D01*
Y109502D01*
X84880Y108584D01*
X85584Y107880D01*
X86503Y107500D01*
X87497D01*
X88416Y107880D01*
X89119Y108584D01*
X89500Y109502D01*
Y110497D01*
X89119Y111416D01*
X88416Y112119D01*
X87497Y112500D01*
D02*
G37*
G36*
X63489Y109942D02*
X62495D01*
X61576Y109561D01*
X60873Y108858D01*
X60492Y107939D01*
Y106945D01*
X60873Y106026D01*
X61576Y105323D01*
X61652Y105291D01*
Y103917D01*
X61584Y103889D01*
X60881Y103186D01*
X60500Y102267D01*
Y101272D01*
X60881Y100353D01*
X61584Y99650D01*
X62503Y99269D01*
X63498D01*
X64416Y99650D01*
X65120Y100353D01*
X65500Y101272D01*
Y102267D01*
X65120Y103186D01*
X64416Y103889D01*
X64341Y103920D01*
Y105295D01*
X64408Y105323D01*
X65111Y106026D01*
X65492Y106945D01*
Y107939D01*
X65111Y108858D01*
X64408Y109561D01*
X63489Y109942D01*
D02*
G37*
G36*
X16497Y92500D02*
X15503D01*
X14584Y92119D01*
X13881Y91416D01*
X13500Y90497D01*
Y89503D01*
X13881Y88584D01*
X14150Y88314D01*
X14446Y87500D01*
X14150Y86686D01*
X13881Y86416D01*
X13500Y85497D01*
Y84503D01*
X13881Y83584D01*
X14584Y82881D01*
X15503Y82500D01*
X16497D01*
X17416Y82881D01*
X18119Y83584D01*
X18500Y84503D01*
Y85497D01*
X18119Y86416D01*
X17850Y86686D01*
X17554Y87500D01*
X17850Y88314D01*
X18119Y88584D01*
X18500Y89503D01*
Y90497D01*
X18119Y91416D01*
X17416Y92119D01*
X16497Y92500D01*
D02*
G37*
G36*
X106447Y92575D02*
X105453D01*
X104534Y92195D01*
X103831Y91491D01*
X103450Y90573D01*
Y89578D01*
X103831Y88659D01*
X104487Y88003D01*
X103900Y87416D01*
X103519Y86497D01*
Y85503D01*
X103900Y84584D01*
X104558Y83926D01*
X103924Y83293D01*
X103544Y82374D01*
Y81379D01*
X103924Y80460D01*
X104415Y79970D01*
X104398Y78982D01*
X104265Y78533D01*
X103777Y78331D01*
X102652Y77205D01*
X102043Y75735D01*
Y74144D01*
X102652Y72674D01*
X103334Y71991D01*
X102609Y71266D01*
X102000Y69796D01*
Y68204D01*
X102609Y66734D01*
X103734Y65609D01*
X105204Y65000D01*
X106796D01*
X108266Y65609D01*
X108670Y66013D01*
X109500Y66651D01*
X110330Y66013D01*
X110734Y65609D01*
X112204Y65000D01*
X113796D01*
X115266Y65609D01*
X116391Y66734D01*
X117000Y68204D01*
Y69796D01*
X116391Y71266D01*
X115657Y72000D01*
X116391Y72734D01*
X117000Y74204D01*
Y75796D01*
X116391Y77266D01*
X115266Y78391D01*
X113796Y79000D01*
X112204D01*
X110734Y78391D01*
X110321Y77978D01*
X109552Y77309D01*
X108661Y77978D01*
X108308Y78331D01*
X107822Y78532D01*
X107689Y78983D01*
X107672Y79969D01*
X108163Y80460D01*
X108544Y81379D01*
Y82374D01*
X108163Y83293D01*
X107505Y83951D01*
X108138Y84584D01*
X108519Y85503D01*
Y86497D01*
X108138Y87416D01*
X107482Y88072D01*
X108069Y88659D01*
X108450Y89578D01*
Y90573D01*
X108069Y91491D01*
X107366Y92195D01*
X106447Y92575D01*
D02*
G37*
G36*
X79796Y60000D02*
X78204D01*
X76734Y59391D01*
X75609Y58266D01*
X75000Y56796D01*
Y55204D01*
X75609Y53734D01*
X76734Y52609D01*
X78204Y52000D01*
X79400D01*
Y50804D01*
X80009Y49334D01*
X81134Y48209D01*
X82604Y47600D01*
X84196D01*
X85666Y48209D01*
X86791Y49334D01*
X87400Y50804D01*
Y52396D01*
X86791Y53866D01*
X85666Y54991D01*
X84196Y55600D01*
X83000D01*
Y56796D01*
X82391Y58266D01*
X81266Y59391D01*
X79796Y60000D01*
D02*
G37*
G36*
X447019Y70253D02*
X446025D01*
X445106Y69873D01*
X444402Y69169D01*
X444022Y68251D01*
Y67256D01*
X444402Y66337D01*
X444422Y66318D01*
X444815Y65234D01*
X444407Y64674D01*
X444152Y64419D01*
X443772Y63500D01*
Y62506D01*
X444152Y61587D01*
X444856Y60884D01*
X445774Y60503D01*
X446769D01*
X447688Y60884D01*
X448391Y61587D01*
X448772Y62506D01*
Y63500D01*
X448391Y64419D01*
X448372Y64439D01*
X447979Y65522D01*
X448387Y66083D01*
X448641Y66337D01*
X449022Y67256D01*
Y68251D01*
X448641Y69169D01*
X447938Y69873D01*
X447019Y70253D01*
D02*
G37*
G36*
X431747Y67975D02*
X430752D01*
X429833Y67595D01*
X429130Y66892D01*
X428750Y65973D01*
Y64978D01*
X428928Y64546D01*
X429030Y63214D01*
X428327Y62510D01*
X427947Y61592D01*
Y60597D01*
X428327Y59678D01*
X429031Y58975D01*
X429949Y58594D01*
X430944D01*
X431863Y58975D01*
X432566Y59678D01*
X432947Y60597D01*
Y61592D01*
X432768Y62024D01*
X432666Y63356D01*
X433369Y64059D01*
X433750Y64978D01*
Y65973D01*
X433369Y66892D01*
X432666Y67595D01*
X431747Y67975D01*
D02*
G37*
%LPD*%
D11*
X341300Y200200D02*
X345500Y196000D01*
X356547D01*
X357346Y195200D01*
X334900Y200200D02*
X341300D01*
X331300Y203800D02*
X334900Y200200D01*
X300200Y203800D02*
X331300D01*
X298191Y201791D02*
X300200Y203800D01*
X357346Y195200D02*
X369600D01*
X371300Y193500D01*
X375700D02*
X375800Y193400D01*
X371300Y193500D02*
X375700D01*
D13*
X138095Y50147D02*
X138190Y50052D01*
X138095Y50147D02*
Y57905D01*
X138000Y58000D02*
X138095Y57905D01*
D14*
X410699Y232500D02*
X422500D01*
X399574Y238300D02*
X404778Y233096D01*
X410103D01*
X410699Y232500D01*
X222732Y177311D02*
X222867D01*
X378957Y238300D02*
X399574D01*
X376407Y235750D02*
X378957Y238300D01*
X339720Y241118D02*
X364325D01*
X369693Y235750D01*
X369769D01*
X376407D01*
D15*
X113932Y11816D02*
X136222D01*
X103200Y20800D02*
X154800D01*
X100390Y18800D02*
X138200D01*
X33557Y146500D02*
X47000Y159943D01*
Y207000D02*
X50300Y210300D01*
X47000Y159943D02*
Y207000D01*
X33928Y149700D02*
X45000Y160772D01*
Y209000D02*
X48500Y212500D01*
X45000Y160772D02*
Y209000D01*
X33100Y151700D02*
X43000Y161600D01*
Y210000D01*
X47500Y214500D01*
X50300Y210300D02*
X79524D01*
X48500Y212500D02*
X75270D01*
X47500Y214500D02*
X72700D01*
X176287Y245613D02*
X181800Y240100D01*
X157800Y253100D02*
X165287Y245613D01*
X176287D01*
X103900Y253100D02*
X157800D01*
X181800Y231000D02*
Y240100D01*
X147639Y245100D02*
X156622Y236118D01*
X138632Y245100D02*
X147639D01*
X154756Y222100D02*
X157404D01*
X153456Y223400D02*
X154756Y222100D01*
X128200Y223400D02*
X153456D01*
X117100Y212300D02*
X128200Y223400D01*
X112057Y212300D02*
X117100D01*
X103250Y203493D02*
X112057Y212300D01*
X126800Y226200D02*
X135047D01*
X111936Y216764D02*
X117364D01*
X126800Y226200D01*
X122000Y230900D02*
X133320D01*
X144270Y241850D01*
X115300Y224200D02*
X122000Y230900D01*
X123400Y228200D02*
X134219D01*
X144499Y238480D01*
X135047Y226200D02*
X144077Y235230D01*
X89612Y205733D02*
Y220788D01*
X81900Y228500D02*
X89612Y220788D01*
X81900Y228500D02*
Y242700D01*
X76090Y248510D02*
X81900Y242700D01*
X79524Y210300D02*
X80403Y209421D01*
X80944D01*
X72700Y214500D02*
X78884Y220684D01*
X82994D01*
X75270Y212500D02*
X80404Y217634D01*
X176000Y17000D02*
X178700Y14300D01*
X145000Y17000D02*
X176000D01*
X154800Y20800D02*
X170000Y36000D01*
X172740Y228544D02*
X172785Y228500D01*
X165070Y228544D02*
X172740D01*
X172785Y228500D02*
X179300D01*
X149664Y238480D02*
X152710Y235433D01*
X156622Y225914D02*
Y236118D01*
X144077Y235230D02*
X148215D01*
X144499Y238480D02*
X149664D01*
X159840Y224536D02*
Y237162D01*
X159813Y237190D02*
X159840Y237162D01*
X144270Y241850D02*
X144320D01*
X135472Y241940D02*
X138632Y245100D01*
X126117Y241940D02*
X135472D01*
X122074Y245983D02*
X126117Y241940D01*
X100500Y249700D02*
X103900Y253100D01*
X179300Y228500D02*
X181800Y231000D01*
X49600Y81996D02*
Y90400D01*
Y81996D02*
X56000Y75596D01*
Y68000D02*
Y75596D01*
X51000Y63000D02*
X56000Y68000D01*
X51000Y50000D02*
Y63000D01*
Y50000D02*
X58000Y43000D01*
X71600D01*
X81600Y33000D01*
X91000D01*
X103200Y20800D01*
X327300Y151900D02*
X333300D01*
X89612Y205733D02*
X98295Y197050D01*
X103250Y198954D02*
Y203493D01*
X98295Y197050D02*
X101346D01*
X103250Y198954D01*
X100000Y206000D02*
Y206242D01*
X102886Y209128D01*
X279884Y11250D02*
X280500D01*
X278019Y13115D02*
X279884Y11250D01*
X254342Y13115D02*
X278019D01*
X184000Y9000D02*
Y9250D01*
Y9000D02*
X186562Y6438D01*
X178700Y14300D02*
X205238D01*
X206423Y13115D01*
X87700Y243537D02*
Y249579D01*
X87643Y243480D02*
X87700Y243537D01*
X84769Y252510D02*
X87700Y249579D01*
X44218Y252510D02*
X84769D01*
X36670Y244963D02*
X44218Y252510D01*
X36670Y222000D02*
Y244963D01*
X82994Y220684D02*
X83000Y220677D01*
X100500Y249200D02*
Y249700D01*
X78428Y249000D02*
X83483D01*
X83583Y249100D01*
X76918Y250510D02*
X78428Y249000D01*
X47114Y250510D02*
X76918D01*
X43145Y246541D02*
X47114Y250510D01*
X89033Y229800D02*
X98671D01*
X89000Y229833D02*
X89033Y229800D01*
X54658Y41000D02*
X69900D01*
X79900Y31000D01*
X88190D01*
X26800Y161500D02*
X35743Y170443D01*
X24100Y149700D02*
X33928D01*
X22800Y142086D02*
Y148400D01*
X24100Y149700D01*
X21500Y151700D02*
X33100D01*
X26800Y156700D02*
X37743Y167643D01*
X20000Y138300D02*
Y150200D01*
X21500Y151700D01*
X26800Y146500D02*
X33557D01*
X439249Y16539D02*
X443010Y20300D01*
X415000Y7000D02*
X424539Y16539D01*
X439249D01*
X443010Y20300D02*
X454200D01*
X451305Y25000D02*
X455329Y29024D01*
X413000Y25000D02*
X451305D01*
X403000Y35000D02*
X413000Y25000D01*
X206423Y13115D02*
X254342D01*
X186562Y6438D02*
X277562D01*
X350000Y7000D02*
X415000D01*
X348000Y5000D02*
X350000Y7000D01*
X279000Y5000D02*
X348000D01*
X277562Y6438D02*
X279000Y5000D01*
X144000Y13000D02*
X174000D01*
X138200Y18800D02*
X144000Y13000D01*
X112748D02*
X113932Y11816D01*
X91000Y13000D02*
X112748D01*
X88190Y31000D02*
X100390Y18800D01*
X48000Y47658D02*
X54658Y41000D01*
X58000Y10000D02*
X88000D01*
X91000Y13000D01*
X45000Y23000D02*
X58000Y10000D01*
X45000Y23000D02*
Y68000D01*
X48000Y47658D02*
Y66000D01*
X45000Y68000D02*
X52000Y75000D01*
X48000Y66000D02*
X52000Y70000D01*
X102886Y209128D02*
X104300D01*
X98671Y229800D02*
X104271Y224200D01*
X39920Y243317D02*
X42995Y246391D01*
Y246691D01*
X44200Y243300D02*
X49410Y248510D01*
X44200Y221000D02*
Y243300D01*
X49410Y248510D02*
X76090D01*
X35743Y215371D02*
X39920Y219549D01*
X37743Y214543D02*
X44200Y221000D01*
X35743Y170443D02*
Y215371D01*
X39920Y219549D02*
Y243317D01*
X37743Y167643D02*
Y214543D01*
X33743Y218843D02*
X36670Y221770D01*
Y222000D01*
X33743Y173343D02*
Y218843D01*
X26800Y166400D02*
X33743Y173343D01*
X115200Y220000D02*
X123400Y228200D01*
X104300Y209128D02*
X111936Y216764D01*
X156590Y225882D02*
X156622Y225914D01*
X105445Y220000D02*
X115200D01*
X104271Y224200D02*
X115300D01*
X112500Y8000D02*
X131500D01*
X93500D02*
X112500D01*
X23386Y141500D02*
X26800D01*
X22800Y142086D02*
X23386Y141500D01*
X21900Y136400D02*
X26800D01*
X20000Y138300D02*
X21900Y136400D01*
X157404Y222100D02*
X159840Y224536D01*
D24*
X397821Y96528D02*
D03*
X405167Y96939D02*
D03*
X332372Y92225D02*
D03*
X317412Y82058D02*
D03*
X355500Y11000D02*
D03*
X419281Y150017D02*
D03*
X428900Y106000D02*
D03*
X422200Y93500D02*
D03*
X419064Y89346D02*
D03*
X428900Y101316D02*
D03*
X428860Y93216D02*
D03*
X128256Y26751D02*
D03*
X101500Y156000D02*
D03*
X101250Y162750D02*
D03*
X296782Y94763D02*
D03*
X172000Y46000D02*
D03*
X114240Y26632D02*
D03*
X238055Y212166D02*
D03*
X313800Y227050D02*
D03*
X369800Y207300D02*
D03*
X506373Y134927D02*
D03*
X233400Y132800D02*
D03*
X242550Y212375D02*
D03*
X165070Y228544D02*
D03*
X156400Y242500D02*
D03*
X152710Y235433D02*
D03*
X148215Y235230D02*
D03*
X159813Y237190D02*
D03*
X144320Y241850D02*
D03*
X177400Y236500D02*
D03*
X170000Y36000D02*
D03*
X247453Y77150D02*
D03*
X229800Y76100D02*
D03*
X239700Y76911D02*
D03*
X341589Y231750D02*
D03*
X352207Y231520D02*
D03*
X367000Y226000D02*
D03*
X377000D02*
D03*
X372000D02*
D03*
X425000Y225000D02*
D03*
X431000D02*
D03*
Y220000D02*
D03*
Y215000D02*
D03*
X425000D02*
D03*
X419000D02*
D03*
Y220000D02*
D03*
Y225000D02*
D03*
X280500Y11250D02*
D03*
X184000Y9250D02*
D03*
X371800Y175887D02*
D03*
X323000Y168400D02*
D03*
X87643Y243480D02*
D03*
X100500Y249200D02*
D03*
X88000Y37250D02*
D03*
X84198D02*
D03*
X340000Y191200D02*
D03*
X340500Y183500D02*
D03*
X457643Y230464D02*
D03*
X7820Y218940D02*
D03*
Y236440D02*
D03*
X26820D02*
D03*
Y218940D02*
D03*
X171116Y215750D02*
D03*
X195800Y27300D02*
D03*
X222548Y54348D02*
D03*
X455329Y29024D02*
D03*
X454200Y20300D02*
D03*
X403000Y35000D02*
D03*
X320000Y191794D02*
D03*
X387993Y190868D02*
D03*
X438000Y20000D02*
D03*
X378000Y14000D02*
D03*
X471000Y160500D02*
D03*
X466200Y160700D02*
D03*
X485600Y162785D02*
D03*
X498000Y167000D02*
D03*
X210000Y45000D02*
D03*
X216306Y53543D02*
D03*
X240000Y166000D02*
D03*
X230000Y163000D02*
D03*
X235000Y164000D02*
D03*
X166295Y169343D02*
D03*
X11000Y76000D02*
D03*
X8000Y80000D02*
D03*
X10000Y112000D02*
D03*
Y104000D02*
D03*
Y100000D02*
D03*
Y108000D02*
D03*
X32000Y99000D02*
D03*
X28000D02*
D03*
X32000Y103000D02*
D03*
X28000D02*
D03*
Y107000D02*
D03*
X32000D02*
D03*
X236219Y26000D02*
D03*
X145000Y17000D02*
D03*
X168000Y158200D02*
D03*
X138000Y99000D02*
D03*
X138190Y50052D02*
D03*
X102726Y26546D02*
D03*
X197470Y180750D02*
D03*
X222867Y177311D02*
D03*
X239000Y153891D02*
D03*
X209000Y165000D02*
D03*
X80600Y41500D02*
D03*
X52000Y70000D02*
D03*
Y75000D02*
D03*
X138000Y58000D02*
D03*
X134000Y99000D02*
D03*
X138000Y95000D02*
D03*
X134000D02*
D03*
X138000Y91000D02*
D03*
X134000D02*
D03*
Y58000D02*
D03*
X138000Y62000D02*
D03*
X134000D02*
D03*
X138000Y75000D02*
D03*
X134000D02*
D03*
X138000Y87000D02*
D03*
X134000D02*
D03*
X69000D02*
D03*
X74000D02*
D03*
X79000D02*
D03*
X84000D02*
D03*
X89000D02*
D03*
Y82000D02*
D03*
X84000D02*
D03*
X79000D02*
D03*
X74000D02*
D03*
X69000D02*
D03*
Y77000D02*
D03*
X74000D02*
D03*
X79000D02*
D03*
X84000D02*
D03*
X89000D02*
D03*
Y72000D02*
D03*
X84000D02*
D03*
X79000D02*
D03*
X74000D02*
D03*
X69000D02*
D03*
X88000Y41000D02*
D03*
X84000D02*
D03*
X80000Y45000D02*
D03*
X76000D02*
D03*
Y49000D02*
D03*
X72000D02*
D03*
Y53000D02*
D03*
X249000Y26200D02*
D03*
X283200Y176700D02*
D03*
X291470Y116650D02*
D03*
X287116Y117787D02*
D03*
X100000Y200300D02*
D03*
X89612Y210668D02*
D03*
X42995Y246691D02*
D03*
X44200Y221000D02*
D03*
X36670Y222000D02*
D03*
X83583Y249100D02*
D03*
X156590Y225882D02*
D03*
X131966Y245940D02*
D03*
X166339Y237490D02*
D03*
X122074Y245983D02*
D03*
X112500Y8000D02*
D03*
X131500D02*
D03*
X93500D02*
D03*
X204250Y238467D02*
D03*
X202250Y242600D02*
D03*
X199400Y246500D02*
D03*
X258000Y249550D02*
D03*
X218025Y205000D02*
D03*
X218000Y210000D02*
D03*
X222000D02*
D03*
Y205000D02*
D03*
X204995Y54568D02*
D03*
X214500Y57800D02*
D03*
X197400Y63100D02*
D03*
X196600Y56800D02*
D03*
X201042Y57523D02*
D03*
X210600Y65400D02*
D03*
X133926Y205150D02*
D03*
X138421Y205371D02*
D03*
X145450Y205150D02*
D03*
X129426D02*
D03*
X142074Y208126D02*
D03*
X149215Y207615D02*
D03*
X316700Y167710D02*
D03*
X241450Y219007D02*
D03*
X422500Y232500D02*
D03*
X414250Y14750D02*
D03*
X49600Y90400D02*
D03*
X206415Y232315D02*
D03*
X371064Y167710D02*
D03*
X340700Y151710D02*
D03*
X363064Y145346D02*
D03*
X273500Y230050D02*
D03*
X195750Y229200D02*
D03*
X414400Y51850D02*
D03*
X395770Y174355D02*
D03*
X309700Y230300D02*
D03*
X339720Y241118D02*
D03*
X371064Y143710D02*
D03*
X412298Y176302D02*
D03*
X386800Y175700D02*
D03*
X414250Y208000D02*
D03*
X400700Y194800D02*
D03*
X442322Y180400D02*
D03*
X397100Y191900D02*
D03*
X411064Y113346D02*
D03*
X379064Y121346D02*
D03*
X403064D02*
D03*
Y113346D02*
D03*
X395064Y121346D02*
D03*
X410482Y161728D02*
D03*
Y169728D02*
D03*
X419100Y170000D02*
D03*
X326902Y198502D02*
D03*
X361500Y208561D02*
D03*
X126000Y214750D02*
D03*
X391398Y193898D02*
D03*
X379064Y151710D02*
D03*
X348700Y143710D02*
D03*
X332750Y177500D02*
D03*
X268250Y199158D02*
D03*
X273250Y199000D02*
D03*
X339064Y175710D02*
D03*
X381858Y80980D02*
D03*
X379064Y167710D02*
D03*
X324700Y183710D02*
D03*
Y175710D02*
D03*
X358269Y212500D02*
D03*
X411000D02*
D03*
X422400Y207600D02*
D03*
X369769Y235750D02*
D03*
X506125Y168076D02*
D03*
X395064Y151710D02*
D03*
X332700Y167710D02*
D03*
X296000Y113250D02*
D03*
X192100Y125700D02*
D03*
X308399Y66985D02*
D03*
X295064Y67710D02*
D03*
X299900Y67100D02*
D03*
X317100Y89400D02*
D03*
X264200Y109550D02*
D03*
X268000Y78000D02*
D03*
X262100Y88000D02*
D03*
X283800Y97100D02*
D03*
X276900Y107550D02*
D03*
X206150Y83500D02*
D03*
X230721Y85222D02*
D03*
X208100Y125700D02*
D03*
X216600Y125400D02*
D03*
X200100Y125700D02*
D03*
X253660Y75760D02*
D03*
X240387Y132786D02*
D03*
X389400Y64000D02*
D03*
X384600Y64300D02*
D03*
X248000Y122800D02*
D03*
X254600Y124200D02*
D03*
X282900Y104000D02*
D03*
X257000Y105550D02*
D03*
X251266Y102224D02*
D03*
X254500Y95000D02*
D03*
X200000Y133600D02*
D03*
X224100Y125700D02*
D03*
X208000Y133700D02*
D03*
X216100D02*
D03*
X224100D02*
D03*
X240000Y125600D02*
D03*
X247500Y134200D02*
D03*
X261000Y125600D02*
D03*
X240750Y107250D02*
D03*
X262600Y119900D02*
D03*
X292293Y106950D02*
D03*
X291693Y100650D02*
D03*
X230800Y139200D02*
D03*
X237900Y142450D02*
D03*
X236450Y108750D02*
D03*
X381032Y71850D02*
D03*
X349212Y97846D02*
D03*
X317211Y121846D02*
D03*
X325211D02*
D03*
X386587Y97846D02*
D03*
X378587D02*
D03*
X333200Y73823D02*
D03*
Y81823D02*
D03*
X341200Y97823D02*
D03*
X325200Y89823D02*
D03*
X333200Y97823D02*
D03*
X325200D02*
D03*
X317200Y105823D02*
D03*
X325200D02*
D03*
X317200Y113823D02*
D03*
X325200D02*
D03*
X403064Y105346D02*
D03*
X395064D02*
D03*
D72*
X510000Y52000D02*
D03*
X547000Y48000D02*
D03*
X544000Y55000D02*
D03*
X553000D02*
D03*
Y48000D02*
D03*
X559000Y55000D02*
D03*
Y48000D02*
D03*
X544000Y124000D02*
D03*
Y130000D02*
D03*
Y136000D02*
D03*
Y142000D02*
D03*
Y148000D02*
D03*
Y154000D02*
D03*
X540117Y108647D02*
D03*
X540000Y114000D02*
D03*
X530000Y138000D02*
D03*
X525000D02*
D03*
X559054Y84836D02*
D03*
X552450D02*
D03*
X545084Y84582D02*
D03*
X538226D02*
D03*
X565912Y87376D02*
D03*
Y83566D02*
D03*
Y79756D02*
D03*
Y36322D02*
D03*
Y40386D02*
D03*
Y44450D02*
D03*
X552450Y79756D02*
D03*
X545084D02*
D03*
X538226D02*
D03*
X535686Y69088D02*
D03*
X529082D02*
D03*
Y63500D02*
D03*
X502551Y42449D02*
D03*
X495026Y19446D02*
D03*
X496050Y14464D02*
D03*
X208151Y26000D02*
D03*
X213000D02*
D03*
X231140Y19812D02*
D03*
X428752Y73100D02*
D03*
X491026Y81729D02*
D03*
X504963Y82142D02*
D03*
X508940Y82565D02*
D03*
X495250Y79750D02*
D03*
X519000Y87000D02*
D03*
X515000Y84365D02*
D03*
X421000Y67000D02*
D03*
X336000Y22000D02*
D03*
X363000Y27000D02*
D03*
X447140Y58233D02*
D03*
X512600Y22600D02*
D03*
X471250Y13500D02*
D03*
X485500D02*
D03*
X476000Y53000D02*
D03*
X472000D02*
D03*
X480000D02*
D03*
X484000D02*
D03*
X498500Y56250D02*
D03*
X498876Y61711D02*
D03*
X501789Y58527D02*
D03*
X512000Y43000D02*
D03*
X517500Y40000D02*
D03*
X507000Y45000D02*
D03*
X520000Y60000D02*
D03*
X510025Y5000D02*
D03*
X510000Y27000D02*
D03*
X522525Y10000D02*
D03*
X522500Y15000D02*
D03*
X356700Y105346D02*
D03*
X348700Y113346D02*
D03*
X324000Y23000D02*
D03*
X136222Y11816D02*
D03*
X103500Y151750D02*
D03*
X250600Y216500D02*
D03*
X532250Y215250D02*
D03*
X526000D02*
D03*
X512750D02*
D03*
X519500Y199750D02*
D03*
X445436Y5564D02*
D03*
X445000Y12250D02*
D03*
X434750Y5750D02*
D03*
X438250Y12250D02*
D03*
Y9000D02*
D03*
X433076Y163827D02*
D03*
X436072Y166600D02*
D03*
X435500Y198200D02*
D03*
X521000Y180000D02*
D03*
Y160000D02*
D03*
X492088Y138102D02*
D03*
X429400Y89000D02*
D03*
X201779Y184167D02*
D03*
X420100Y187400D02*
D03*
X453800Y251500D02*
D03*
X457600D02*
D03*
X450000D02*
D03*
X348500Y192500D02*
D03*
X347021Y199593D02*
D03*
X437000Y208000D02*
D03*
X473049Y102849D02*
D03*
X271000Y254000D02*
D03*
X267000D02*
D03*
X333300Y151900D02*
D03*
X552500Y200200D02*
D03*
X545900D02*
D03*
X539200Y200100D02*
D03*
X93000Y254000D02*
D03*
Y244000D02*
D03*
Y225000D02*
D03*
X5000Y211000D02*
D03*
Y241000D02*
D03*
X30000D02*
D03*
X49000Y221000D02*
D03*
X37000Y161000D02*
D03*
X33000Y157000D02*
D03*
X48000Y155000D02*
D03*
X29000Y211000D02*
D03*
X123753Y250100D02*
D03*
X112541D02*
D03*
X125000Y205230D02*
D03*
X100000Y206000D02*
D03*
X11200Y151500D02*
D03*
X523000Y22000D02*
D03*
Y37000D02*
D03*
X535432Y73406D02*
D03*
X565912Y48514D02*
D03*
X557022Y75946D02*
D03*
X561594D02*
D03*
X565912D02*
D03*
Y56642D02*
D03*
Y52578D02*
D03*
X416400Y34900D02*
D03*
Y39800D02*
D03*
Y29400D02*
D03*
X280000Y216800D02*
D03*
X451900Y184600D02*
D03*
X83000Y220677D02*
D03*
X89000Y229833D02*
D03*
X93000Y220000D02*
D03*
X80404Y217634D02*
D03*
X460000Y234000D02*
D03*
X453700Y228500D02*
D03*
X26800Y161500D02*
D03*
Y146500D02*
D03*
Y156700D02*
D03*
X105320Y229100D02*
D03*
X184900Y25600D02*
D03*
X424091Y60047D02*
D03*
X416741Y62200D02*
D03*
X513000Y174000D02*
D03*
X496000Y185000D02*
D03*
X488000Y152000D02*
D03*
X525000Y143000D02*
D03*
X485000Y132000D02*
D03*
X475000Y144000D02*
D03*
X463000Y176000D02*
D03*
X438250Y5750D02*
D03*
X403353Y43272D02*
D03*
X389000Y28500D02*
D03*
X383907Y25107D02*
D03*
X402000Y224000D02*
D03*
X375800Y193400D02*
D03*
X345500Y215500D02*
D03*
X565000Y215000D02*
D03*
X453000Y172000D02*
D03*
X480000Y153000D02*
D03*
X480400Y131500D02*
D03*
X182000Y62000D02*
D03*
X370533Y25800D02*
D03*
X233000Y177000D02*
D03*
X193000Y186000D02*
D03*
X233000Y181000D02*
D03*
X229000D02*
D03*
Y177000D02*
D03*
X283000Y230000D02*
D03*
X115551Y184848D02*
D03*
X137814Y186033D02*
D03*
X125160Y138015D02*
D03*
X113233Y123440D02*
D03*
X108000Y128000D02*
D03*
X174000Y13000D02*
D03*
X254342Y13115D02*
D03*
X236405Y19750D02*
D03*
X320777Y28254D02*
D03*
X168250Y100750D02*
D03*
X224000Y26000D02*
D03*
X157187Y95507D02*
D03*
X88416Y26531D02*
D03*
X209595Y142408D02*
D03*
X327800Y234200D02*
D03*
Y238900D02*
D03*
X334668Y240037D02*
D03*
X532500Y170000D02*
D03*
X149200Y181000D02*
D03*
X80944Y209421D02*
D03*
X105445Y220000D02*
D03*
X11200Y171400D02*
D03*
X191700Y249000D02*
D03*
X26800Y136400D02*
D03*
Y141500D02*
D03*
Y166400D02*
D03*
X195727Y236600D02*
D03*
X255400Y216500D02*
D03*
X238500Y236500D02*
D03*
X234750D02*
D03*
X238500Y240000D02*
D03*
X234750D02*
D03*
X292000Y230000D02*
D03*
X343360Y26450D02*
D03*
X347800D02*
D03*
X316700Y153700D02*
D03*
X340942Y144720D02*
D03*
X281000Y199043D02*
D03*
X479000Y247800D02*
D03*
X477900Y222600D02*
D03*
X428500Y143250D02*
D03*
X335569Y215844D02*
D03*
X355700Y152200D02*
D03*
X418598Y177500D02*
D03*
X473300Y222700D02*
D03*
X469200D02*
D03*
X465200D02*
D03*
X177000Y184750D02*
D03*
X452600Y199800D02*
D03*
X338782Y26101D02*
D03*
X316700Y129346D02*
D03*
X340700D02*
D03*
X363064Y103710D02*
D03*
X435750Y179000D02*
D03*
X298000Y200011D02*
D03*
X340500Y215500D02*
D03*
X333482Y184334D02*
D03*
X285000Y199000D02*
D03*
X121500Y161750D02*
D03*
X115900Y156750D02*
D03*
Y161750D02*
D03*
X485000Y116000D02*
D03*
X496500Y103700D02*
D03*
X501400D02*
D03*
X512700Y103800D02*
D03*
X506100D02*
D03*
X486304Y104836D02*
D03*
X161200Y121300D02*
D03*
X165000Y121250D02*
D03*
X169000D02*
D03*
X167045Y124331D02*
D03*
X166996Y127842D02*
D03*
X168250Y95500D02*
D03*
Y91500D02*
D03*
X165000D02*
D03*
Y100750D02*
D03*
X161500D02*
D03*
Y91500D02*
D03*
X379064Y129346D02*
D03*
X348700D02*
D03*
D98*
X496000Y242000D02*
D03*
X512000D02*
D03*
X117000Y108000D02*
D03*
X149000Y175200D02*
D03*
X101000Y35000D02*
D03*
X130000Y37000D02*
D03*
X105000Y60000D02*
D03*
X98000D02*
D03*
X128000Y50000D02*
D03*
X122000D02*
D03*
X116000D02*
D03*
X124000Y37000D02*
D03*
X118000D02*
D03*
X112000Y60000D02*
D03*
X123952Y108000D02*
D03*
X124000Y115000D02*
D03*
X117000D02*
D03*
D134*
X166339Y237490D02*
X167329Y236500D01*
X165063Y238766D02*
X166339Y237490D01*
X156400Y242500D02*
X156460Y242440D01*
X149800Y249100D02*
X156400Y242500D01*
X135126Y249100D02*
X149800D01*
X156460Y242440D02*
X161987D01*
X165063Y239365D01*
Y238766D02*
Y239365D01*
X131966Y245940D02*
X135126Y249100D01*
X167329Y236500D02*
X177400D01*
D138*
X30820Y50940D02*
D03*
Y30940D02*
D03*
X15820D02*
D03*
D139*
X20000Y115800D02*
D03*
D140*
X61800D02*
D03*
Y202200D02*
D03*
D142*
X276750Y95500D02*
G03*
X275250Y97000I-1500J0D01*
G01*
X276750Y99000D02*
G03*
X277500Y98250I750J0D01*
G01*
X280250Y97250D02*
G03*
X279250Y98250I-1000J0D01*
G01*
X280250Y95750D02*
G03*
X282500Y93500I2250J0D01*
G01*
X285500Y92750D02*
G03*
X284750Y93500I-750J0D01*
G01*
X285500Y92750D02*
G03*
X286500Y91750I1000J0D01*
G01*
X288250D02*
G03*
X289500Y93000I0J1250D01*
G01*
X291250Y95000D02*
G03*
X289500Y93250I0J-1750D01*
G01*
X293500D02*
G03*
X291750Y95000I-1750J0D01*
G01*
X293500Y93250D02*
G03*
X295234Y91516I1734J0D01*
G01*
X279000Y103000D02*
G03*
X278000Y104000I-1000J0D01*
G01*
X277500Y100750D02*
G03*
X279000Y102250I0J1500D01*
G01*
X277500Y100750D02*
G03*
X276750Y100000I0J-750D01*
G01*
X273494Y105250D02*
G03*
X274744Y104000I1250J0D01*
G01*
X275000Y92750D02*
G03*
X276750Y94500I0J1750D01*
G01*
X270489Y101000D02*
G03*
X271694Y102205I0J1205D01*
G01*
X269500Y101000D02*
G03*
X268000Y99500I0J-1500D01*
G01*
Y99250D02*
G03*
X270250Y97000I2250J0D01*
G01*
X272500Y92750D02*
G03*
X271250Y91500I0J-1250D01*
G01*
Y90750D02*
G03*
X272600Y89400I1350J0D01*
G01*
X286100Y127687D02*
G03*
X286100Y125000I1344J-1344D01*
G01*
X291635Y133221D02*
G03*
X291635Y135908I-1344J1344D01*
G01*
D02*
G03*
X288948Y135908I-1344J-1344D01*
G01*
X280633Y130281D02*
G03*
X283320Y130281I1344J1344D01*
G01*
X280633Y132968D02*
G03*
X280633Y130281I1344J-1344D01*
G01*
X286261Y138595D02*
G03*
X286261Y141282I-1344J1344D01*
G01*
X286261Y141282D02*
G03*
X283574Y141282I-1344J-1344D01*
G01*
X275259Y135654D02*
G03*
X277946Y135654I1344J1344D01*
G01*
X275259Y138342D02*
G03*
X275259Y135654I1344J-1344D01*
G01*
X280565Y143647D02*
G03*
X280565Y146334I-1344J1344D01*
G01*
X280565Y146334D02*
G03*
X277878Y146334I-1344J-1344D01*
G01*
X269978Y141122D02*
G03*
X272665Y141122I1344J1344D01*
G01*
X276528Y81215D02*
G03*
X279215Y81215I1344J1344D01*
G01*
X269280Y88462D02*
G03*
X266593Y88462I-1344J-1344D01*
G01*
X266593Y88462D02*
G03*
X266593Y85775I1344J-1344D01*
G01*
X273841Y75841D02*
G03*
X273841Y78528I-1344J1344D01*
G01*
X345450Y70085D02*
G03*
X341650Y70085I-1900J0D01*
G01*
X345450Y66500D02*
G03*
X349250Y66500I1900J0D01*
G01*
X353050Y70085D02*
G03*
X349250Y70085I-1900J0D01*
G01*
X353050Y66500D02*
G03*
X356850Y66500I1900J0D01*
G01*
X360650Y70085D02*
G03*
X356850Y70085I-1900J0D01*
G01*
X360650Y66500D02*
G03*
X364450Y66500I1900J0D01*
G01*
X368250Y70085D02*
G03*
X364450Y70085I-1900J0D01*
G01*
X368250Y66500D02*
G03*
X370150Y64600I1900J0D01*
G01*
X278632Y118954D02*
G03*
X278632Y116267I1344J-1344D01*
G01*
X282807Y123129D02*
G03*
X282807Y125816I-1344J1344D01*
G01*
D02*
G03*
X280120Y125816I-1344J-1344D01*
G01*
X270559Y118942D02*
G03*
X273246Y118942I1344J1344D01*
G01*
X270559Y121629D02*
G03*
X270559Y118942I1344J-1344D01*
G01*
X277315Y128385D02*
G03*
X277315Y131072I-1344J1344D01*
G01*
X277315Y131072D02*
G03*
X274628Y131072I-1344J-1344D01*
G01*
X265494Y124625D02*
G03*
X268181Y124625I1344J1344D01*
G01*
X265494Y127312D02*
G03*
X265494Y124625I1344J-1344D01*
G01*
X271941Y133759D02*
G03*
X271941Y136446I-1344J1344D01*
G01*
X271941Y136446D02*
G03*
X269254Y136446I-1344J-1344D01*
G01*
X262510Y132389D02*
G03*
X265198Y132389I1344J1344D01*
G01*
X238400Y56400D02*
X278900D01*
X208151Y26000D02*
Y26151D01*
X238400Y56400D01*
X241000Y54000D02*
X281500D01*
X213000Y26000D02*
X241000Y54000D01*
X207153Y20200D02*
X224847D01*
X195800Y27300D02*
X200053D01*
X206770Y18000D02*
X225906D01*
X200053Y27300D02*
X207153Y20200D01*
X199875Y22350D02*
X206275Y15949D01*
X200620Y24150D02*
X206770Y18000D01*
X206275Y15949D02*
X232604D01*
X194495Y24150D02*
X200620D01*
X193081Y22350D02*
X199875D01*
X225906Y18000D02*
X227718Y19812D01*
X224847Y20200D02*
X227359Y22712D01*
X241288D02*
X244980Y19020D01*
X227359Y22712D02*
X241288D01*
X227718Y19812D02*
X231140D01*
X463074Y74200D02*
X498054D01*
X459250Y59745D02*
Y70376D01*
X463074Y74200D01*
X497308Y76000D02*
X498566Y77258D01*
X405250Y76000D02*
X497308D01*
X498054Y74200D02*
X500366Y76513D01*
X398000Y83250D02*
X405250Y76000D01*
X461250Y69422D02*
X463578Y71750D01*
X498149D02*
X504963Y78564D01*
X463578Y71750D02*
X498149D01*
X388193Y100695D02*
X390652Y98236D01*
Y92894D02*
Y98236D01*
Y92894D02*
X398000Y85546D01*
X394670Y95223D02*
Y100580D01*
X397821Y96528D02*
X411848Y82500D01*
X397821Y96528D02*
Y96528D01*
X392870Y94478D02*
X408519Y78829D01*
X394670Y95223D02*
X409194Y80700D01*
X392870Y94478D02*
Y98563D01*
X388637Y102796D02*
X392870Y98563D01*
X391750Y103500D02*
X394670Y100580D01*
X391750Y103500D02*
Y107350D01*
X390200Y108900D02*
X391750Y107350D01*
X488375Y82150D02*
X490605D01*
X408519Y78829D02*
X492227D01*
X487925Y82600D02*
X488375Y82150D01*
X490605D02*
X491026Y81729D01*
X453400Y82600D02*
X487925D01*
X492227Y78829D02*
X492726Y79329D01*
X500366Y76513D02*
Y82366D01*
X503465Y85465D01*
X498566Y77258D02*
Y83112D01*
X502720Y87265D01*
X508940Y82565D02*
X512699D01*
X504963Y78564D02*
Y82142D01*
X494829Y79329D02*
X495250Y79750D01*
X492726Y79329D02*
X494829D01*
X502720Y87265D02*
X518735D01*
X519000Y87000D01*
X513799Y81465D02*
X519811D01*
X522165Y76065D02*
X530500Y84400D01*
X521302Y77865D02*
X527700Y84263D01*
X501776Y66685D02*
X511157Y76065D01*
X509665Y79665D02*
X520556D01*
X495000Y65000D02*
X509665Y79665D01*
X511157Y76065D02*
X522165D01*
X510284Y85465D02*
X511384Y84365D01*
X520556Y79665D02*
X525000Y84109D01*
X498455Y65910D02*
X510411Y77865D01*
X521302D01*
X503465Y85465D02*
X510284D01*
X512699Y82565D02*
X513799Y81465D01*
X511384Y84365D02*
X515000D01*
X519811Y81465D02*
X523200Y84854D01*
X501776Y58540D02*
Y66685D01*
X495000Y59750D02*
Y65000D01*
X498455Y62132D02*
Y65910D01*
X461250Y58277D02*
Y69422D01*
X409194Y80700D02*
X451500D01*
X405574Y97346D02*
X424954D01*
X411848Y82500D02*
X449468D01*
X405167Y96939D02*
X405574Y97346D01*
X398000Y83250D02*
Y85546D01*
X424954Y97346D02*
X425934Y96366D01*
X388193Y100695D02*
X388193D01*
X376537Y102796D02*
X388637D01*
X387892Y100996D02*
X388193Y100695D01*
X377282Y100996D02*
X387892D01*
X376030Y99744D02*
X377282Y100996D01*
X363064Y103710D02*
X368135D01*
X369399Y102446D02*
X376186D01*
X368135Y103710D02*
X369399Y102446D01*
X376186D02*
X376537Y102796D01*
X352666Y99744D02*
X376030D01*
X347000Y101750D02*
X350660D01*
X352666Y99744D01*
X345000Y99750D02*
X347000Y101750D01*
X345000Y96698D02*
Y99750D01*
X343882Y95580D02*
X345000Y96698D01*
X345800Y94434D02*
X349212Y97846D01*
X345800Y81968D02*
Y94434D01*
X338867Y86000D02*
X343882Y91014D01*
Y95580D01*
X334012Y70180D02*
X345800Y81968D01*
X329875Y86000D02*
X338867D01*
X320104Y84750D02*
X328625D01*
X329875Y86000D01*
X341200Y94450D02*
Y97823D01*
X335250Y88500D02*
X341200Y94450D01*
X329924Y94673D02*
X332372Y92225D01*
X296873Y94673D02*
X329924D01*
X327550Y86550D02*
X329500Y88500D01*
X335250D01*
X318705Y86550D02*
X327550D01*
X296782Y94763D02*
X296873Y94673D01*
X318155Y86000D02*
X318705Y86550D01*
X284802Y86000D02*
X318155D01*
X317412Y82058D02*
X320104Y84750D01*
X310500Y80000D02*
X316677Y73823D01*
X310500Y77000D02*
X317320Y70180D01*
X333200Y81092D02*
Y81823D01*
X316677Y73823D02*
X333200D01*
X331730Y77960D02*
Y79622D01*
X316500Y77000D02*
X330770D01*
X331730Y77960D01*
X317320Y70180D02*
X334012D01*
X331730Y79622D02*
X333200Y81092D01*
X310500Y83000D02*
X316500Y77000D01*
X286000Y83000D02*
X310500D01*
X287000Y80000D02*
X310500D01*
X287000Y77000D02*
X310500D01*
X316250Y68000D02*
X334000D01*
X287600Y74600D02*
X309650D01*
X316250Y68000D01*
X316000Y65000D02*
X333396D01*
X288800Y72800D02*
X308200D01*
X316000Y65000D01*
X350800Y11000D02*
X355500D01*
X348090Y26450D02*
X351840Y22700D01*
X367700D02*
X370533Y25533D01*
X375200Y20900D02*
X403000Y48700D01*
X370533Y25533D02*
Y25800D01*
X350468Y17601D02*
X353767Y20900D01*
X375200D01*
X340399Y17601D02*
X350468D01*
X351840Y22700D02*
X367700D01*
X347800Y26450D02*
X348090D01*
X303400Y15100D02*
X350513D01*
X302654Y13300D02*
X351258D01*
X352108Y14150D02*
X371293D01*
X350513Y15100D02*
X351363Y15950D01*
X371293Y14150D02*
X375243Y10200D01*
X351363Y15950D02*
X374750D01*
X351258Y13300D02*
X352108Y14150D01*
X336000Y22000D02*
X340399Y17601D01*
X244149Y16586D02*
X299369D01*
X375243Y10200D02*
X409700D01*
X299480Y19020D02*
X303400Y15100D01*
X299369Y16586D02*
X302654Y13300D01*
X374750Y15950D02*
X383907Y25107D01*
X335796Y62600D02*
X376237D01*
X434693Y53200D02*
X438305Y49588D01*
X441447D01*
X443306Y51447D01*
X422500Y53200D02*
X434693D01*
X471250Y13500D02*
Y22000D01*
X498500Y49250D01*
X485250Y13750D02*
X485500Y13500D01*
X485250Y13750D02*
Y32500D01*
X501789Y49039D01*
Y58527D01*
X498500Y49250D02*
Y56250D01*
X450553Y51447D02*
X454420D01*
X461250Y58277D01*
X452953Y53447D02*
X459250Y59745D01*
X443754Y53347D02*
X452653D01*
X452753Y53447D02*
X452953D01*
X452653Y53347D02*
X452753Y53447D01*
X441580Y55521D02*
X443754Y53347D01*
X443306Y51447D02*
X450553D01*
X501776Y58540D02*
X501789Y58527D01*
X498455Y62132D02*
X498876Y61711D01*
X495000Y59750D02*
X498500Y56250D01*
X458469Y91500D02*
X511600D01*
X457723Y93300D02*
X510300D01*
X456977Y95100D02*
X509000D01*
X451500Y80700D02*
X453400Y82600D01*
X449468Y82500D02*
X458469Y91500D01*
X448723Y84300D02*
X457723Y93300D01*
X424110Y84300D02*
X448723D01*
X447977Y86100D02*
X456977Y95100D01*
X426100Y86100D02*
X447977D01*
X419846Y110846D02*
X423300Y114300D01*
X413564Y110846D02*
X419846D01*
X420900Y108900D02*
X424000Y112000D01*
X407510Y108900D02*
X420900D01*
X356700Y105346D02*
X357295D01*
X360600Y117000D02*
X369000Y125400D01*
X361854Y134500D02*
X371064Y143710D01*
X344750Y134500D02*
X361854D01*
X346128Y132528D02*
X375882D01*
X348700Y113346D02*
X352054Y116700D01*
X356500Y137250D02*
X359750Y140500D01*
X344500Y137250D02*
X356500D01*
X399000Y128700D02*
Y131600D01*
X395700Y125400D02*
X399000Y128700D01*
X404365Y117500D02*
X405219Y116646D01*
X385000Y117500D02*
X404365D01*
X422000Y120400D02*
X431900D01*
X420046Y118446D02*
X422000Y120400D01*
X405964Y118446D02*
X420046D01*
X405219Y116646D02*
X434448D01*
X423300Y114300D02*
X436700D01*
X424000Y112000D02*
X438100D01*
X419281Y150017D02*
X450217D01*
X427200Y109500D02*
X440300D01*
X423046Y105346D02*
X427200Y109500D01*
X403064Y105346D02*
X423046D01*
X428900Y106000D02*
X441200D01*
X424245Y101400D02*
X427480Y98166D01*
X399010Y101400D02*
X424245D01*
X422200Y90000D02*
Y93500D01*
X419064Y89346D02*
X424110Y84300D01*
X428900Y101316D02*
X429016Y101200D01*
X427480Y98166D02*
X441366D01*
X428860Y93216D02*
X444715D01*
X425934Y96366D02*
X443666D01*
X368000Y147500D02*
X414750D01*
X359750Y140500D02*
Y148000D01*
X307103Y21250D02*
X310353Y24500D01*
X302844Y22984D02*
X304577Y21250D01*
X307103D01*
X245963Y21037D02*
X301463D01*
X303500Y19000D02*
X307399D01*
X301463Y21037D02*
X303500Y19000D01*
X244980Y19020D02*
X299480D01*
X307399Y19000D02*
X309299Y20900D01*
X322431Y24500D02*
X323931Y23000D01*
X324000D01*
X310353Y24500D02*
X322431D01*
X309299Y20900D02*
X314100D01*
X317000Y18000D02*
X328631D01*
X314100Y20900D02*
X317000Y18000D01*
X328631D02*
X332000Y21369D01*
X311027Y28100D02*
X314081Y31154D01*
X249000Y26200D02*
X249372D01*
X251272Y28100D01*
X332000Y21369D02*
Y23000D01*
X251272Y28100D02*
X311027D01*
X128256Y26751D02*
X144697D01*
X168727Y50781D01*
X98047Y16900D02*
X135787D01*
X250600Y213400D02*
Y216500D01*
X245500Y208300D02*
X250600Y213400D01*
X460244Y201250D02*
X498750D01*
X455494Y196500D02*
X460244Y201250D01*
X498750D02*
X512750Y215250D01*
X465170Y196750D02*
X499750D01*
X504500Y201500D02*
X512250D01*
X499750Y196750D02*
X504500Y201500D01*
X518750Y204500D02*
X521500D01*
X532250Y215250D01*
X512250Y201500D02*
X526000Y215250D01*
X465750Y194750D02*
X509000D01*
X518750Y204500D01*
X512500Y192750D02*
X519500Y199750D01*
X466625Y192750D02*
X512500D01*
X276750Y99000D02*
Y100000D01*
X277500Y98250D02*
X279250D01*
X270250Y97000D02*
X275250D01*
X276750Y94500D02*
Y95500D01*
X282500Y93500D02*
X284750D01*
X286500Y91750D02*
X288250D01*
X289500Y93000D02*
Y93250D01*
X291250Y95000D02*
X291750D01*
X279000Y102250D02*
Y103000D01*
X280250Y95750D02*
Y97250D01*
X273494Y105250D02*
Y113461D01*
X274744Y104000D02*
X278000D01*
X269500Y101000D02*
X270489D01*
X268000Y99250D02*
Y99500D01*
X272500Y92750D02*
X275000D01*
X271250Y90750D02*
Y91500D01*
X272600Y89400D02*
X317100D01*
X294664Y97100D02*
X295478Y97913D01*
X283800Y97100D02*
X294664D01*
X295478Y97913D02*
X325110D01*
X325200Y97823D01*
X298803Y99800D02*
X318177D01*
X297349Y103800D02*
X299549Y101600D01*
X317432D01*
X297953Y100650D02*
X298803Y99800D01*
X431264Y162610D02*
X432481Y163827D01*
X430111Y166727D02*
X435945D01*
X429038Y167800D02*
X430111Y166727D01*
X435945D02*
X436072Y166600D01*
X432481Y163827D02*
X433076D01*
X395064Y151710D02*
X397454Y154100D01*
X451200D01*
X453700Y156600D01*
X431800Y203200D02*
X449200D01*
X433000Y195700D02*
X435500Y198200D01*
X449200Y203200D02*
X452600Y199800D01*
X428200Y199600D02*
X431800Y203200D01*
X446400Y201200D02*
X451100Y196500D01*
X429800Y197700D02*
X433300Y201200D01*
X446400D01*
X477900Y222600D02*
Y227838D01*
X461038Y244700D02*
X477900Y227838D01*
X379064Y167710D02*
X381489Y170135D01*
X393350Y171935D02*
X395770Y174355D01*
X367750Y169250D02*
X370435Y171935D01*
X403935Y170135D02*
X406952Y173152D01*
X370435Y171935D02*
X393350D01*
X381489Y170135D02*
X403935D01*
X518049Y125551D02*
Y133451D01*
X457400Y149000D02*
X502500D01*
X518049Y133451D01*
Y125551D02*
X530500Y113100D01*
Y84400D02*
Y113100D01*
X500400Y147000D02*
X515579Y131821D01*
Y124921D02*
Y131821D01*
Y124921D02*
X527700Y112800D01*
Y84263D02*
Y112800D01*
X176150Y181250D02*
X179250D01*
X170873Y186527D02*
X176150Y181250D01*
X158327Y186527D02*
X170873D01*
X143415Y22924D02*
X170527Y50035D01*
X123190Y22924D02*
X143415D01*
X106380Y30200D02*
X145600D01*
X170527Y50035D02*
Y81474D01*
X166926Y51526D02*
Y82965D01*
X168727Y50781D02*
Y82219D01*
X145600Y30200D02*
X166926Y51526D01*
X173100Y47819D02*
Y79300D01*
X172000Y46000D02*
Y46719D01*
X173100Y47819D01*
X102726Y26546D02*
X106380Y30200D01*
X114240Y26632D02*
X119482D01*
X235561Y206300D02*
X247078D01*
X252400Y211623D01*
X227861Y214000D02*
X235561Y206300D01*
X236700Y208300D02*
X245500D01*
X229000Y216000D02*
X236700Y208300D01*
X188766Y220200D02*
X234725D01*
X239051Y215875D02*
X239051D01*
X234725Y220200D02*
X239051Y215875D01*
X239051D02*
X242550Y212375D01*
X231317Y218400D02*
X237551Y212166D01*
X211000Y216000D02*
X229000D01*
X237551Y212166D02*
X238055D01*
X238457Y222000D02*
X241450Y219007D01*
X189511Y222000D02*
X238457D01*
X257400Y223800D02*
X260570Y220630D01*
X190257Y223800D02*
X257400D01*
X328900Y222100D02*
X346836D01*
X327300Y223700D02*
X328900Y222100D01*
X268100Y223700D02*
X327300D01*
X265700Y226100D02*
X268100Y223700D01*
X313750Y227100D02*
X313800Y227050D01*
X276450Y227100D02*
X313750D01*
X260570Y220630D02*
X324620D01*
X340550Y204700D01*
X335569Y215331D02*
Y215844D01*
X340550Y204700D02*
X357652D01*
X344400Y206500D02*
X358398D01*
X335569Y215331D02*
X344400Y206500D01*
X347836Y221100D02*
X356094D01*
X395629Y214929D02*
X396958Y213600D01*
X356094Y221100D02*
X360394Y216800D01*
X378600D01*
X346210Y220000D02*
X353710Y212500D01*
X342500Y220000D02*
X346210D01*
X346836Y222100D02*
X347836Y221100D01*
X353710Y212500D02*
X358269D01*
X378600Y216800D02*
X380471Y214929D01*
X395629D01*
X379300Y211800D02*
X406947D01*
X377500Y213600D02*
X379300Y211800D01*
X362400Y213600D02*
X377500D01*
X361531Y208531D02*
X363800Y210800D01*
X376000Y210000D02*
X407561D01*
X363800Y210800D02*
X375200D01*
X376000Y210000D01*
X361300Y212500D02*
X362400Y213600D01*
X358269Y212500D02*
X361300D01*
X369405Y207300D02*
X407189D01*
X409639Y204850D01*
X396958Y213600D02*
X406201D01*
X505100Y129400D02*
X506929Y127571D01*
X525000Y84109D02*
Y111900D01*
X506929Y127571D02*
X509329D01*
X525000Y111900D01*
X458500Y147000D02*
X500400D01*
X485018Y132000D02*
X487118Y129900D01*
X493400D02*
X516600Y106700D01*
X487118Y129900D02*
X493400D01*
X480559Y133559D02*
X482900Y135900D01*
X482654Y143000D02*
X493845D01*
X483902Y141002D02*
X493297D01*
X459200Y116300D02*
X483902Y141002D01*
X492088Y138102D02*
X492398D01*
X482900Y135900D02*
X490201D01*
X492398Y138102D02*
X501341Y129159D01*
X518400Y101400D02*
Y107701D01*
X490201Y135900D02*
X518400Y107701D01*
X493845Y143000D02*
X505100Y131745D01*
X493297Y141002D02*
X503300Y131000D01*
Y128300D02*
X523200Y108400D01*
Y84854D02*
Y108400D01*
X503300Y128300D02*
Y131000D01*
X505100Y129400D02*
Y131745D01*
X520200Y100100D02*
Y108800D01*
X501341Y127659D02*
X520200Y108800D01*
X501341Y127659D02*
Y129159D01*
X516600Y102700D02*
Y106700D01*
X496300Y145000D02*
X506374Y134927D01*
X493800Y111600D02*
X495200Y110200D01*
X506300D02*
X512700Y103800D01*
X482700Y111600D02*
X493800D01*
X495200Y110200D02*
X506300D01*
X454700Y103200D02*
X472699D01*
X444715Y93216D02*
X454700Y103200D01*
X453100Y105800D02*
X474200D01*
X443666Y96366D02*
X453100Y105800D01*
X450800Y107600D02*
X475771D01*
X441366Y98166D02*
X450800Y107600D01*
X448400Y109400D02*
X477700D01*
X440200Y101200D02*
X448400Y109400D01*
X429016Y101200D02*
X440200D01*
X446400Y111200D02*
X479850D01*
X441200Y106000D02*
X446400Y111200D01*
X440300Y109500D02*
X443800Y113000D01*
X481300D01*
X442400Y116300D02*
X459200D01*
X438100Y112000D02*
X442400Y116300D01*
X440700Y118300D02*
X457954D01*
X436700Y114300D02*
X440700Y118300D01*
X450217Y150017D02*
X455000Y154800D01*
X474733D01*
X453700Y156600D02*
X473600D01*
X431900Y120400D02*
X458500Y147000D01*
X433600Y125200D02*
X457400Y149000D01*
X398918Y125200D02*
X433600D01*
X434448Y116646D02*
X437902Y120100D01*
X455201D01*
X422200Y90000D02*
X426100Y86100D01*
X378500Y13500D02*
X406700D01*
X413200Y20000D02*
X438000D01*
X406700Y13500D02*
X413200Y20000D01*
X409700Y10200D02*
X414250Y14750D01*
X236405Y19750D02*
X240985D01*
X244149Y16586D01*
X232604Y15949D02*
X236405Y19750D01*
X182000Y35200D02*
X184900Y32300D01*
X182000Y35200D02*
Y62000D01*
X198849Y31100D02*
X207949Y22000D01*
X190500Y31100D02*
X198849D01*
X88416Y26531D02*
X98047Y16900D01*
X202003Y183944D02*
X240418D01*
X201779Y184167D02*
X202003Y183944D01*
X227900Y126928D02*
X233400Y132428D01*
Y132800D01*
X420100Y187400D02*
X440139D01*
X216287Y245287D02*
X242464D01*
X212870Y247087D02*
X243260D01*
X204250Y238467D02*
X212870Y247087D01*
X214966Y240966D02*
X217487Y243487D01*
X206415Y235415D02*
X216287Y245287D01*
X241718Y243487D02*
X247805Y237400D01*
X243260Y247087D02*
X249348Y241000D01*
X242464Y245287D02*
X248551Y239200D01*
X217487Y243487D02*
X241718D01*
X163500Y214800D02*
X168600Y219900D01*
X166989Y221700D02*
X187266D01*
X159600Y220200D02*
X164700Y225300D01*
X188757D01*
X168600Y219900D02*
X186520D01*
X161889Y216600D02*
X166989Y221700D01*
X186520Y219900D02*
X188020Y218400D01*
X160900D02*
X166000Y223500D01*
X188011D01*
X188757Y225300D02*
X190257Y223800D01*
X188011Y223500D02*
X189511Y222000D01*
X187266Y221700D02*
X188766Y220200D01*
X179250Y181250D02*
X186900Y188900D01*
X282700D01*
X168000Y158200D02*
X181600Y144600D01*
Y87800D02*
Y144600D01*
X173100Y79300D02*
X181600Y87800D01*
X286800Y156000D02*
X301348Y141452D01*
X256804Y156000D02*
X286800D01*
X253873Y153068D02*
X256804Y156000D01*
X208300Y110209D02*
X213050Y114959D01*
X208300Y91338D02*
Y110209D01*
X203000Y86038D02*
X208300Y91338D01*
X209850Y83049D02*
Y87996D01*
X211000Y110363D02*
X215000Y114363D01*
X209850Y87996D02*
X211000Y89145D01*
Y110363D01*
X203000Y78400D02*
Y86038D01*
X215000Y114363D02*
Y117937D01*
X216600Y119537D02*
Y125400D01*
X215000Y117937D02*
X216600Y119537D01*
X199363Y95463D02*
Y120363D01*
X197134Y74466D02*
Y93234D01*
X199363Y95463D01*
X195334Y65772D02*
Y116034D01*
X197050Y117750D02*
Y122650D01*
X195334Y116034D02*
X197050Y117750D01*
X193534Y62511D02*
Y89267D01*
X192400Y118491D02*
X195250Y121341D01*
X192400Y90401D02*
X193534Y89267D01*
X192400Y90401D02*
Y118491D01*
X190300Y88110D02*
Y123328D01*
Y88110D02*
X191734Y86676D01*
X190300Y123328D02*
X192100Y125128D01*
X187000Y128700D02*
X212300Y154000D01*
X178000Y76634D02*
X187000Y85634D01*
Y128700D01*
X191734Y58866D02*
Y86676D01*
X192100Y125128D02*
Y125700D01*
X199363Y120363D02*
X204234Y125234D01*
X198934Y75566D02*
Y91364D01*
X202700Y112100D02*
X208100Y117500D01*
X202700Y95130D02*
Y112100D01*
X198934Y91364D02*
X202700Y95130D01*
X200734Y77166D02*
Y88425D01*
X205500Y111400D02*
X211250Y117150D01*
X200734Y88425D02*
X205500Y93191D01*
Y111400D01*
X211250Y117150D02*
Y128850D01*
X208100Y117500D02*
Y125700D01*
X201200Y61967D02*
X205317Y57850D01*
X197134Y74466D02*
X201200Y70400D01*
Y61967D02*
Y70400D01*
X203000Y62713D02*
Y71500D01*
X198934Y75566D02*
X203000Y71500D01*
Y62713D02*
X208925Y56788D01*
X205100Y63158D02*
X210725Y57534D01*
X200734Y77166D02*
X205100Y72800D01*
Y63158D02*
Y72800D01*
X203000Y78400D02*
X207300Y74100D01*
Y64245D02*
Y74100D01*
Y64245D02*
X209295Y62250D01*
X210600Y65400D02*
Y75300D01*
X212400Y68600D02*
Y80499D01*
X206200Y79700D02*
Y83450D01*
Y79700D02*
X210600Y75300D01*
X212400Y68600D02*
X222548Y58452D01*
X209850Y83049D02*
X212400Y80499D01*
X222548Y54348D02*
Y58452D01*
X347400Y189300D02*
X360200D01*
X339300Y197400D02*
X347400Y189300D01*
X334300Y197400D02*
X339300D01*
X348700Y192700D02*
X360700D01*
X348500Y192500D02*
X348700Y192700D01*
X347021Y199593D02*
Y200122D01*
X349799Y202900D01*
X333198Y198502D02*
X334300Y197400D01*
X326902Y198502D02*
X333198D01*
X370051Y175370D02*
X371283D01*
X363600Y175300D02*
X369981D01*
X371283Y175370D02*
X371800Y175887D01*
X359400Y171100D02*
X363600Y175300D01*
X369981D02*
X370051Y175370D01*
X353101Y171250D02*
X363401Y181550D01*
X401903D01*
X352750Y168353D02*
X364147Y179750D01*
X402649D01*
X360700Y192700D02*
X363632Y189768D01*
X382356D01*
X383455Y190868D01*
X360200Y189300D02*
X361782Y187718D01*
X400318D01*
X410300Y197700D01*
X358600Y187500D02*
X360600Y185500D01*
X400700D01*
X410900Y195700D01*
X354101Y187500D02*
X358600D01*
X451100Y196500D02*
X455494D01*
X405500Y199600D02*
X428200D01*
X400700Y194800D02*
X405500Y199600D01*
X410300Y197700D02*
X429800D01*
X410900Y195700D02*
X433000D01*
X360550Y183350D02*
X401150D01*
X402649Y179750D02*
X413199Y190300D01*
X401903Y181550D02*
X412453Y192100D01*
X413199Y190300D02*
X464175D01*
X411700Y193900D02*
X462320D01*
X401150Y183350D02*
X411700Y193900D01*
X412453Y192100D02*
X463100D01*
X415900Y184500D02*
X433342D01*
X393961Y177761D02*
X409161D01*
X415900Y184500D01*
X178000Y35700D02*
X183400Y30300D01*
X178000Y35700D02*
Y76634D01*
X176000Y34300D02*
X181800Y28500D01*
X176000Y77443D02*
X184400Y85843D01*
X176000Y34300D02*
Y77443D01*
X291800Y188300D02*
X313850D01*
X317050Y191500D01*
X320219Y183710D02*
X324700D01*
X317729Y186200D02*
X320219Y183710D01*
X291200Y186200D02*
X317729D01*
X314800Y184200D02*
X322773Y176227D01*
X290100Y184200D02*
X314800D01*
X324183Y176227D02*
X324700Y175710D01*
X322773Y176227D02*
X324183D01*
X312381Y182300D02*
X321070Y173611D01*
Y170642D02*
Y173611D01*
X289300Y182300D02*
X312381D01*
X288400Y180100D02*
X310900D01*
X316800Y167810D02*
Y174200D01*
X310900Y180100D02*
X316800Y174200D01*
X238092Y74100D02*
X239992Y72200D01*
X275200D01*
X250800Y70000D02*
X254700Y66100D01*
X237347Y72300D02*
X239647Y70000D01*
X250800D01*
X275200Y72200D02*
X286000Y83000D01*
X232950Y74115D02*
X236565Y70500D01*
X234750Y74861D02*
X237311Y72300D01*
X226534Y66866D02*
X234700Y58700D01*
X236601Y70500D02*
X240060Y67042D01*
X234750Y74861D02*
Y93150D01*
X238056Y74100D02*
X238092D01*
X230721Y85222D02*
X232950Y82993D01*
X236550Y75606D02*
Y94850D01*
X226534Y66866D02*
Y78318D01*
X230000Y101400D02*
X236550Y94850D01*
X239700Y76911D02*
Y95046D01*
X236565Y70500D02*
X236601D01*
X223000Y81852D02*
X226534Y78318D01*
X232950Y74115D02*
Y82993D01*
X237311Y72300D02*
X237347D01*
X229800Y66600D02*
Y76100D01*
X247453Y77150D02*
Y87954D01*
X236550Y75606D02*
X238056Y74100D01*
X249131Y67042D02*
X251873Y64300D01*
X240060Y67042D02*
X249131D01*
X251873Y64300D02*
X259550D01*
X483235Y100136D02*
X488835D01*
X475771Y107600D02*
X483235Y100136D01*
X481664Y98336D02*
X491136D01*
X472699Y103200D02*
X473049Y102849D01*
X474200Y105800D02*
X481664Y98336D01*
X485103Y101936D02*
X488089D01*
X481400Y105639D02*
X485103Y101936D01*
X477700Y109400D02*
X481400Y105700D01*
Y105639D02*
Y105700D01*
X444383Y236700D02*
X447383Y239700D01*
X427589Y240500D02*
X431389Y236700D01*
X444383D01*
X407900Y250400D02*
X415400Y242900D01*
X460292D01*
X410193Y252500D02*
X417993Y244700D01*
X461038D01*
X159973Y153027D02*
X174584Y138416D01*
X159973Y153027D02*
Y161210D01*
X174584Y90622D02*
Y138416D01*
X162000Y154000D02*
Y160561D01*
Y154000D02*
X176384Y139616D01*
Y89876D02*
Y139616D01*
X178184Y89131D02*
Y140816D01*
X164000Y155000D02*
Y160000D01*
Y155000D02*
X178184Y140816D01*
X533694Y200100D02*
X539200D01*
X502975Y169381D02*
X533694Y200100D01*
X502975Y167520D02*
Y169381D01*
X204451Y12400D02*
X207151Y9700D01*
X175201Y10100D02*
X177501Y12400D01*
X204451D01*
X381000Y34000D02*
X402521Y55521D01*
X441580D01*
X481300Y113000D02*
X482700Y111600D01*
X433442Y184600D02*
X451900D01*
X441239Y188500D02*
X460682D01*
X440139Y187400D02*
X441239Y188500D01*
X433342Y184500D02*
X433442Y184600D01*
X321070Y170642D02*
X323000Y168712D01*
Y168400D02*
Y168712D01*
X315200Y164300D02*
X334600D01*
X337200Y161700D01*
X312679Y166821D02*
X315200Y164300D01*
X453200Y235300D02*
X457643Y230858D01*
Y230464D02*
Y230858D01*
X447328Y237100D02*
X461001D01*
X465200Y222700D02*
Y232901D01*
X469200Y222700D02*
Y231447D01*
X461001Y237100D02*
X465200Y232901D01*
X460292Y242900D02*
X473300Y229892D01*
X447383Y239700D02*
X460947D01*
X469200Y231447D01*
X473300Y222700D02*
Y229892D01*
X407164Y228500D02*
X453700D01*
X448074Y235300D02*
X453200D01*
X444428Y234200D02*
X447328Y237100D01*
X444674Y231900D02*
X448074Y235300D01*
X442900Y252100D02*
X447200Y247800D01*
X479000D01*
X429100Y252100D02*
X442900D01*
X455201Y120100D02*
X480101Y145000D01*
X479850Y111200D02*
X486214Y104836D01*
X498447Y108400D02*
X498447Y108400D01*
X488089Y101936D02*
X494553Y108400D01*
X498447D01*
X498447Y108400D02*
X501500D01*
X506100Y103800D01*
X500805Y103700D02*
X501400D01*
X497905Y106600D02*
X500805Y103700D01*
X495299Y106600D02*
X497905D01*
X181800Y28500D02*
X186931D01*
X184700Y25800D02*
X184900Y25600D01*
X170666Y216200D02*
X171116Y215750D01*
X167900Y216200D02*
X170666D01*
X189200Y26231D02*
X193081Y22350D01*
X189300Y32300D02*
X190500Y31100D01*
X188345Y30300D02*
X194495Y24150D01*
X183400Y30300D02*
X188345D01*
X189200Y26231D02*
Y26231D01*
X186931Y28500D02*
X189200Y26231D01*
X184900Y32300D02*
X189300D01*
X239055Y153945D02*
X241732Y151268D01*
X207949Y22000D02*
X224101D01*
X236450Y98296D02*
X239700Y95046D01*
X227900Y100000D02*
X234750Y93150D01*
X235900Y60500D02*
X259250D01*
X229800Y66600D02*
X235900Y60500D01*
X234700Y58700D02*
X274700D01*
X259250Y60500D02*
X263862Y65112D01*
X274700Y58700D02*
X288800Y72800D01*
X254700Y66100D02*
X258350D01*
X263862Y65112D02*
X278112D01*
X287600Y74600D01*
X261966Y69715D02*
X276715D01*
X277250Y67250D02*
X287000Y77000D01*
X259550Y64300D02*
X262500Y67250D01*
X276715Y69715D02*
X287000Y80000D01*
X262500Y67250D02*
X277250D01*
X258350Y66100D02*
X261966Y69715D01*
X416741Y62200D02*
X416741Y62200D01*
X405500Y62200D02*
X416741D01*
X511600Y91500D02*
X520200Y100100D01*
X510300Y93300D02*
X518400Y101400D01*
X509000Y95100D02*
X516600Y102700D01*
X491136Y98336D02*
X496500Y103700D01*
X488835Y100136D02*
X493600Y104901D01*
X485000Y132000D02*
X485018D01*
X480101Y145000D02*
X496300D01*
X319706Y191500D02*
X320000Y191794D01*
X317050Y191500D02*
X319706D01*
X355120Y202900D02*
X360420Y197600D01*
X359487Y205411D02*
X367517D01*
X357652Y204700D02*
X358741Y203611D01*
X349799Y202900D02*
X355120D01*
X358741Y203611D02*
X371861D01*
X358398Y206500D02*
X359487Y205411D01*
X371861Y203611D02*
X372750Y204500D01*
X370594Y197600D02*
X371694Y196500D01*
X360420Y197600D02*
X370594D01*
X371694Y196500D02*
X374699D01*
X407900Y215299D02*
Y218201D01*
X406201Y213600D02*
X407900Y215299D01*
X407561Y210000D02*
X409561Y208000D01*
X406947Y211800D02*
X407647Y212500D01*
X402101Y224000D02*
X407900Y218201D01*
X407647Y212500D02*
X411000D01*
X402000Y224000D02*
X402101D01*
X405467Y230196D02*
X407164Y228500D01*
X397305Y235200D02*
X402309Y230196D01*
X405467D01*
X384400Y198100D02*
X388018D01*
X389911Y196115D02*
X391398Y194628D01*
X388018Y198100D02*
X389911Y196207D01*
Y196115D02*
Y196207D01*
X383455Y190868D02*
X387993D01*
X374699Y196500D02*
X375750Y197551D01*
Y200250D01*
X377221Y201721D02*
X380779D01*
X384400Y198100D01*
X391398Y193898D02*
Y194628D01*
X345500Y215500D02*
X352500Y208500D01*
X361439D01*
X205600Y168600D02*
X238145D01*
X199000Y162000D02*
X205600Y168600D01*
X166000Y162000D02*
X199000D01*
X202400Y170400D02*
X237400D01*
X196393Y164393D02*
X202400Y170400D01*
X165832Y164393D02*
X196393D01*
X178500Y192500D02*
X284900D01*
X157077Y188327D02*
X174327D01*
X178500Y192500D01*
X154783Y186033D02*
X157077Y188327D01*
X137814Y186033D02*
X154783D01*
X115551Y184848D02*
X125848D01*
X130000Y189000D01*
X333649Y28000D02*
X339649Y34000D01*
X320777Y28254D02*
X321031Y28000D01*
X333649D01*
X332000Y23000D02*
X335101Y26101D01*
X338782D01*
X135787Y16900D02*
X142587Y10100D01*
X175201D01*
X207151Y9700D02*
X277263D01*
X279663Y7300D01*
X347100D01*
X332854Y31154D02*
X337700Y36000D01*
X314081Y31154D02*
X332854D01*
X378000Y14000D02*
X378500Y13500D01*
X382831Y32000D02*
X402431Y51600D01*
X343360Y26450D02*
Y29360D01*
X339649Y34000D02*
X381000D01*
X343360Y29360D02*
X346000Y32000D01*
X382831D01*
X337700Y36000D02*
X379300D01*
X405500Y62200D01*
X463100Y192100D02*
X465750Y194750D01*
X464175Y190300D02*
X466625Y192750D01*
X462320Y193900D02*
X465170Y196750D01*
X446084Y169100D02*
X479000D01*
X467100Y167300D02*
X470950Y163450D01*
X441559Y173625D02*
X446084Y169100D01*
X441917Y170000D02*
X444617Y167300D01*
X467100D01*
X479000Y169100D02*
X485315Y162785D01*
X446700Y160700D02*
X451000Y165000D01*
X461900D02*
X466200Y160700D01*
X451000Y165000D02*
X461900D01*
X433400Y160700D02*
X446700D01*
X480400Y131500D02*
X480559Y131659D01*
Y133559D01*
X457954Y118300D02*
X482654Y143000D01*
X474733Y154800D02*
X477768Y157835D01*
X437500Y133300D02*
X457200Y153000D01*
X480000D01*
X473600Y156600D02*
X476635Y159635D01*
X470950Y160550D02*
Y163450D01*
Y160550D02*
X471000Y160500D01*
X489835Y157835D02*
X493648Y161648D01*
X477768Y157835D02*
X489835D01*
X487635Y159635D02*
X491448Y163448D01*
X485315Y162785D02*
X485600D01*
X476635Y159635D02*
X487635D01*
X499697Y161648D02*
X506125Y168076D01*
X491448Y163448D02*
X498903D01*
X502975Y167520D01*
X493648Y161648D02*
X499697D01*
X466182Y183000D02*
X482000D01*
X498000Y167000D01*
X208925Y51797D02*
Y56788D01*
X216179Y53417D02*
X216306Y53543D01*
X208925Y51797D02*
X210000Y50722D01*
Y45000D02*
Y50722D01*
X242822Y165483D02*
X243522Y164784D01*
X240000Y166000D02*
X240517Y165483D01*
X242822D01*
X241354Y176900D02*
X264521D01*
X200200Y172200D02*
X236654D01*
X241354Y176900D01*
X237400Y170400D02*
X242100Y175100D01*
X238145Y168600D02*
X242845Y173300D01*
X242100Y175100D02*
X263775D01*
X189653Y174000D02*
X235909D01*
X242845Y173300D02*
X263030D01*
X235909Y174000D02*
X244821Y182912D01*
X278189D01*
X243522Y164784D02*
X296816D01*
X232359Y160641D02*
X243426D01*
X230000Y163000D02*
X232359Y160641D01*
X235731Y164000D02*
X237290Y162441D01*
X241188D01*
X235000Y164000D02*
X235731D01*
X185182Y169529D02*
X189653Y174000D01*
X194193Y166193D02*
X200200Y172200D01*
X195421Y186421D02*
X196100Y187100D01*
X193421Y186421D02*
X195421D01*
X176800Y194300D02*
X285800D01*
X172627Y190127D02*
X176800Y194300D01*
X193000Y186000D02*
X193421Y186421D01*
X182950Y190700D02*
X283600D01*
X177000Y184750D02*
X182950Y190700D01*
X240418Y183944D02*
X241774Y185300D01*
X153851Y189000D02*
X154978Y190127D01*
X130000Y189000D02*
X153851D01*
X108000Y128000D02*
Y149750D01*
X152800Y181000D02*
X158327Y186527D01*
X154978Y190127D02*
X172627D01*
X166295Y169343D02*
X166481Y169529D01*
X185182D01*
X162000Y160561D02*
X165832Y164393D01*
X164956Y166193D02*
X194193D01*
X159973Y161210D02*
X164956Y166193D01*
X247016Y22984D02*
X302844D01*
X236219Y26000D02*
X241000D01*
X231803Y29702D02*
X240298D01*
X247016Y22984D01*
X241000Y26000D02*
X245963Y21037D01*
X224000Y26000D02*
Y31200D01*
X224101Y22000D02*
X231803Y29702D01*
X196100Y187100D02*
X281400D01*
X164000Y160000D02*
X166000Y162000D01*
X209595Y142408D02*
X213087Y145900D01*
X265117D01*
X119482Y26632D02*
X123190Y22924D01*
X168727Y82219D02*
X176384Y89876D01*
X170527Y81474D02*
X178184Y89131D01*
X166926Y82965D02*
X174584Y90622D01*
X184400Y85843D02*
Y129800D01*
X241774Y185300D02*
X280100D01*
X269746Y166584D02*
X297716D01*
X271237Y170184D02*
X299516D01*
X263775Y175100D02*
X270491Y168384D01*
X264521Y176900D02*
X271237Y170184D01*
X263030Y173300D02*
X269746Y166584D01*
X270491Y168384D02*
X298716D01*
X241544Y162797D02*
X263673D01*
X213232Y165000D02*
X219391Y158841D01*
X264778Y161000D02*
X295200D01*
X219391Y158841D02*
X244171D01*
X244199Y158868D02*
X286531D01*
X244171Y158841D02*
X244199Y158868D01*
X240332Y157041D02*
X242252Y155121D01*
X264774Y160997D02*
X264778Y161000D01*
X286531Y158868D02*
X301899Y143500D01*
X212300Y154000D02*
X238891D01*
X243782Y160997D02*
X264774D01*
X295200Y161000D02*
X306800Y149400D01*
X238891Y154000D02*
X239000Y153891D01*
X243426Y160641D02*
X243782Y160997D01*
X184400Y129800D02*
X211641Y157041D01*
X241188Y162441D02*
X241544Y162797D01*
X211641Y157041D02*
X240332D01*
X263673Y162797D02*
X263676Y162800D01*
X296200D02*
X307800Y151200D01*
X263676Y162800D02*
X296200D01*
X209000Y165000D02*
X213232D01*
X241732Y151268D02*
X254618D01*
X244199Y153068D02*
X253873D01*
X242252Y155015D02*
X244199Y153068D01*
X242252Y155015D02*
Y155121D01*
X254618Y151268D02*
X255129Y151779D01*
X298716Y168384D02*
X310500Y156600D01*
X299516Y170184D02*
X311300Y158400D01*
X296816Y164784D02*
X308600Y153000D01*
X297716Y166584D02*
X309500Y154800D01*
X278189Y182912D02*
X280442Y180659D01*
X108000Y149750D02*
X110250Y152000D01*
X317500Y228800D02*
X327200D01*
X309700Y230300D02*
X316000D01*
X317500Y228800D01*
X335400Y237000D02*
X363000D01*
X327200Y228800D02*
X335400Y237000D01*
X325642Y241000D02*
X327742Y238900D01*
X327800D01*
X322500Y252300D02*
X324500Y254300D01*
X426900D01*
X303400Y252300D02*
X322500D01*
X323300Y250500D02*
X325300Y252500D01*
X304500Y250500D02*
X323300D01*
X325300Y252500D02*
X410193D01*
X300650Y249550D02*
X303400Y252300D01*
X301750Y247750D02*
X304500Y250500D01*
X278900Y56400D02*
X289400Y66900D01*
X243800Y51000D02*
X283000D01*
X224000Y31200D02*
X243800Y51000D01*
X283000D02*
X293200Y61200D01*
X280442Y179458D02*
X283200Y176700D01*
X294000Y177800D02*
X298500Y173300D01*
X287600Y177800D02*
X294000D01*
X281400Y187100D02*
X288400Y180100D01*
X298500Y173300D02*
X310400D01*
X262794Y151779D02*
X264215Y153200D01*
X255129Y151779D02*
X262794D01*
X286464Y153200D02*
X300212Y139452D01*
X264215Y153200D02*
X286464D01*
X280100Y185300D02*
X287600Y177800D01*
X280442Y179458D02*
Y180659D01*
X301899Y143500D02*
X312300D01*
X301348Y141452D02*
X311803D01*
X289272Y119213D02*
X289446D01*
X287116Y117787D02*
X287847D01*
X291470Y116650D02*
X303479D01*
X287847Y117787D02*
X289272Y119213D01*
X302300Y136600D02*
X304700Y134200D01*
Y129200D02*
X307900Y126000D01*
X304700Y129200D02*
Y134200D01*
X270199Y151400D02*
X285300D01*
X300100Y136600D01*
X302300D01*
X265117Y145900D02*
X267700Y148483D01*
Y148901D02*
X270199Y151400D01*
X267700Y148483D02*
Y148901D01*
X381468Y235200D02*
X397305D01*
X149200Y181000D02*
X152800D01*
X206200Y211200D02*
X211000Y216000D01*
X164700Y213000D02*
X167900Y216200D01*
X207400Y209400D02*
X212000Y214000D01*
X137700Y220200D02*
X159600D01*
X141150Y218400D02*
X160900D01*
X143548Y216600D02*
X161889D01*
X148345Y211200D02*
X206200D01*
X151602Y209400D02*
X207400D01*
X132850Y210100D02*
X141150Y218400D01*
X144294Y214800D02*
X163500D01*
X142074Y208126D02*
X146949Y213000D01*
X132250Y214750D02*
X137700Y220200D01*
X149215Y207615D02*
X149817D01*
X138924Y209430D02*
X144294Y214800D01*
X145850Y208705D02*
X148345Y211200D01*
X137124Y210176D02*
X143548Y216600D01*
X146949Y213000D02*
X164700D01*
X149817Y207615D02*
X151602Y209400D01*
X138924Y205874D02*
Y209430D01*
X137124Y208529D02*
Y210176D01*
X188020Y218400D02*
X231317D01*
X191700Y249000D02*
X196445Y253745D01*
X247875D01*
X203827Y228500D02*
X208500D01*
X195727Y236600D02*
X203827Y228500D01*
X252400Y213500D02*
X255400Y216500D01*
X252400Y211623D02*
Y213500D01*
X214966Y234966D02*
Y240966D01*
X208500Y228500D02*
X214966Y234966D01*
X206415Y232315D02*
Y235415D01*
X202250Y242600D02*
X208650Y249000D01*
X246611Y251000D02*
X253011Y244600D01*
X199400Y246500D02*
X203900Y251000D01*
X246611D01*
X208650Y249000D02*
X244786D01*
X250986Y242800D01*
X198850Y226100D02*
X265700D01*
X195750Y229200D02*
X198850Y226100D01*
X247805Y237400D02*
X308800D01*
X248551Y239200D02*
X305700D01*
X249348Y241000D02*
X304900D01*
X250986Y242800D02*
X304154D01*
X253011Y244600D02*
X303356D01*
X255221Y246400D02*
X278200D01*
X247875Y253745D02*
X255221Y246400D01*
X304900Y241000D02*
X309000Y245100D01*
X304154Y242800D02*
X308254Y246900D01*
X305700Y239200D02*
X309700Y243200D01*
X303356Y244600D02*
X307456Y248700D01*
X308800Y237400D02*
X312400Y241000D01*
X258450Y249100D02*
X278354D01*
X258000Y249550D02*
X258450Y249100D01*
X278354D02*
X278804Y249550D01*
X278200Y246400D02*
X279550Y247750D01*
X278804Y249550D02*
X300650D01*
X212000Y214000D02*
X227861D01*
X205317Y54890D02*
Y57850D01*
X204995Y54568D02*
X205317Y54890D01*
X210725Y55842D02*
X213150Y53417D01*
X216179D01*
X210050Y62250D02*
X214500Y57800D01*
X209295Y62250D02*
X210050D01*
X191734Y58866D02*
X193650Y56950D01*
X196450D01*
X195334Y65772D02*
X197400Y63706D01*
Y63100D02*
Y63706D01*
X193534Y62511D02*
X196095Y59950D01*
X196450Y56950D02*
X196600Y56800D01*
X198615Y59950D02*
X201042Y57523D01*
X196095Y59950D02*
X198615D01*
X210725Y55842D02*
Y57534D01*
X206150Y83500D02*
X206200Y83450D01*
X289400Y66900D02*
X291556D01*
X145850Y205550D02*
Y208705D01*
X133926Y205331D02*
X137124Y208529D01*
X138421Y205371D02*
X138924Y205874D01*
X129426Y205531D02*
X132850Y208955D01*
X129426Y205150D02*
Y205531D01*
X145450Y205150D02*
X145850Y205550D01*
X132850Y208955D02*
Y210100D01*
X133926Y205150D02*
Y205331D01*
X325700Y151900D02*
X327300D01*
X311300Y158400D02*
X319200D01*
X325700Y151900D01*
X314000Y154009D02*
X316391D01*
X316700Y153700D01*
X309500Y154800D02*
X313209D01*
X314000Y154009D01*
X333300Y148900D02*
X337480Y144720D01*
X340942D01*
X329000Y148700D02*
X329200Y148900D01*
X333300D01*
X310500Y156600D02*
X318100D01*
X326000Y148700D01*
X329000D01*
X308600Y153000D02*
X312463D01*
X314663Y150800D01*
X320450D01*
X328950Y142300D01*
X307800Y151200D02*
X311718D01*
X313918Y149000D01*
X319500D01*
X328000Y140500D01*
X306800Y149400D02*
X310972D01*
X313172Y147200D01*
X318050D01*
X326000Y139250D01*
Y137500D02*
Y139250D01*
X316700Y167710D02*
X316800Y167810D01*
X312679Y166821D02*
Y171021D01*
X311803Y141452D02*
X320613Y132641D01*
X300212Y139452D02*
X310048D01*
X316700Y132800D01*
X312300Y143500D02*
X323100Y132700D01*
X284900Y192500D02*
X291200Y186200D01*
X283600Y190700D02*
X290100Y184200D01*
X285800Y194300D02*
X291800Y188300D01*
X282700Y188900D02*
X289300Y182300D01*
X310400Y173300D02*
X312679Y171021D01*
X337200Y149500D02*
Y161700D01*
X343790Y161920D02*
X345120Y163250D01*
X350500D01*
X343790Y154800D02*
Y161920D01*
X338700Y148000D02*
X344410D01*
X337200Y149500D02*
X338700Y148000D01*
X340700Y151710D02*
X343790Y154800D01*
X279550Y247750D02*
X301750D01*
X325863Y246900D02*
X327563Y248600D01*
X405600Y246800D02*
X413800Y238600D01*
X328322Y244268D02*
X403032D01*
X327563Y248600D02*
X406500D01*
X328308Y246800D02*
X405600D01*
X326817Y250400D02*
X407900D01*
X406500Y248600D02*
X414600Y240500D01*
X403032Y244268D02*
X411500Y235800D01*
X325117Y248700D02*
X326817Y250400D01*
X326608Y245100D02*
X328308Y246800D01*
X327254Y243200D02*
X328322Y244268D01*
X414600Y240500D02*
X427589D01*
X426900Y254300D02*
X429100Y252100D01*
X431343Y234200D02*
X444428D01*
X430396Y231900D02*
X444674D01*
X426943Y238600D02*
X431343Y234200D01*
X413800Y238600D02*
X426943D01*
X411500Y235800D02*
X426496D01*
X430396Y231900D01*
X419000Y143250D02*
X428500D01*
X366014Y145514D02*
X368000Y147500D01*
X414750D02*
X419000Y143250D01*
X399000Y131600D02*
X400700Y133300D01*
X437500D01*
X395064Y121346D02*
X398918Y125200D01*
X369000Y125400D02*
X395700D01*
X353500Y117000D02*
X360600D01*
X353200Y116700D02*
X353500Y117000D01*
X352054Y116700D02*
X353200D01*
X322062Y118696D02*
X325211Y121846D01*
X315217Y118696D02*
X322062D01*
X312013Y121900D02*
X315217Y118696D01*
X279450Y110100D02*
X321477D01*
X325200Y113823D01*
X276900Y107550D02*
X279450Y110100D01*
X347100Y7300D02*
X350800Y11000D01*
X418000Y48700D02*
X422500Y53200D01*
X403000Y48700D02*
X418000D01*
X312400Y241000D02*
X325642D01*
X309700Y243200D02*
X327254D01*
X367750Y162750D02*
Y169250D01*
X371064Y167710D02*
X376214Y162560D01*
X359700Y154700D02*
X367750Y162750D01*
X356121Y154621D02*
X359400Y157900D01*
X359700Y151000D02*
Y154700D01*
X356121Y152621D02*
Y154621D01*
X355700Y152200D02*
X356121Y152621D01*
X359400Y157900D02*
Y171100D01*
X352500Y141250D02*
Y143800D01*
X361000Y149250D02*
X363710D01*
X359750Y148000D02*
X361000Y149250D01*
X352500Y143800D02*
X359700Y151000D01*
X335469Y136100D02*
X343350D01*
X344500Y137250D01*
X334600Y141900D02*
X340265D01*
X335000Y136569D02*
X335469Y136100D01*
X340265Y141900D02*
X342665Y139500D01*
X329946Y134500D02*
X330146Y134300D01*
X375882Y132528D02*
X379064Y129346D01*
X344410Y148000D02*
X348700Y143710D01*
X329200Y132700D02*
X329400Y132500D01*
X346100D01*
X330146Y134300D02*
X344550D01*
X328950Y142300D02*
X334200D01*
X346100Y132500D02*
X346128Y132528D01*
X334200Y142300D02*
X334600Y141900D01*
X344550Y134300D02*
X344750Y134500D01*
X329000Y134500D02*
X329946D01*
X326000Y137500D02*
X329000Y134500D01*
X323100Y132700D02*
X329200D01*
X328000Y140500D02*
X333000D01*
X335000Y138500D01*
Y136569D02*
Y138500D01*
X320613Y127265D02*
Y132641D01*
X316700Y129346D02*
Y132800D01*
X363064Y145346D02*
X363232Y145514D01*
X366014D01*
X376214Y162560D02*
X385813D01*
X357450Y180250D02*
X360550Y183350D01*
X273500Y230050D02*
X276450Y227100D01*
X309000Y245100D02*
X326608D01*
X308254Y246900D02*
X325863D01*
X307456Y248700D02*
X325117D01*
X350750Y139500D02*
X352500Y141250D01*
X342665Y139500D02*
X350750D01*
X363710Y149250D02*
X369710Y155250D01*
X344054Y124700D02*
X348700Y129346D01*
X328298Y124700D02*
X344054D01*
X381000Y90000D02*
Y95433D01*
Y90000D02*
X385008Y85992D01*
Y79992D02*
Y85992D01*
Y79992D02*
X385982Y79018D01*
Y69800D02*
Y79018D01*
X390250Y87250D02*
X396250Y81250D01*
Y78750D02*
Y81250D01*
X389400Y71900D02*
X396250Y78750D01*
X389400Y64000D02*
Y71900D01*
X384182Y70545D02*
Y78273D01*
X340700Y215700D02*
Y218200D01*
X342500Y220000D01*
X340500Y215500D02*
X340700Y215700D01*
X402431Y51600D02*
X414150D01*
X414400Y51850D01*
X393200Y177000D02*
X393961Y177761D01*
X390500Y177000D02*
X393200D01*
X389678Y176178D02*
X390500Y177000D01*
X363000Y237000D02*
X367800Y232200D01*
X378468D01*
X381468Y235200D01*
X409639Y204850D02*
X419650D01*
X432200Y159500D02*
X433400Y160700D01*
X431000Y159500D02*
X432200D01*
X430900Y159600D02*
X431000Y159500D01*
X415400Y159600D02*
X430900D01*
X413432Y161568D02*
X415400Y159600D01*
X410482Y161728D02*
X410642Y161568D01*
X413432D01*
X237900Y142450D02*
X250449D01*
X230800Y139200D02*
X255700D01*
X262227Y132673D01*
X250899Y142900D02*
X268200D01*
X250449Y142450D02*
X250899Y142900D01*
X307900Y126000D02*
X317500D01*
X318600Y124900D02*
X323700D01*
X317500Y126000D02*
X318600Y124900D01*
X320613Y127265D02*
X321082Y126796D01*
X337854Y126500D02*
X340700Y129346D01*
X329320Y126796D02*
X329616Y126500D01*
X337854D01*
X321082Y126796D02*
X329320D01*
X323700Y124900D02*
X323796Y124996D01*
X328002D02*
X328298Y124700D01*
X323796Y124996D02*
X328002D01*
X359800Y106800D02*
X361900Y108900D01*
X390200D01*
X358749Y106800D02*
X359800D01*
X357295Y105346D02*
X358749Y106800D01*
X375524Y155250D02*
X379064Y151710D01*
X369710Y155250D02*
X375524D01*
X417293Y180650D02*
X424150D01*
X413648Y179550D02*
X416698Y182600D01*
X439700D01*
X418598Y177500D02*
X422757D01*
X415448Y178805D02*
X417293Y180650D01*
X415448Y174997D02*
Y178805D01*
X413648Y178382D02*
Y179550D01*
X412298Y176302D02*
Y177033D01*
X413648Y178382D01*
X406952Y173152D02*
X413603D01*
X415448Y174997D01*
X387278Y176178D02*
X389678D01*
X386800Y175700D02*
X387278Y176178D01*
X460682Y188500D02*
X466182Y183000D01*
X439700Y182600D02*
X441900Y180400D01*
X424150Y180650D02*
X425800Y179000D01*
X435750D01*
X419650Y204850D02*
X422400Y207600D01*
X409561Y208000D02*
X414250D01*
X441900Y180400D02*
X442322D01*
X423800Y167800D02*
X429038D01*
X416900Y166100D02*
X422100D01*
X423800Y167800D01*
X422757Y177500D02*
X426632Y173625D01*
X441559D01*
X413699Y169301D02*
X413699D01*
X413272Y169728D02*
X413699Y169301D01*
X413699D02*
X416900Y166100D01*
X410482Y169728D02*
X413272D01*
X394548Y194452D02*
Y195202D01*
Y194452D02*
X397100Y191900D01*
X391500Y198250D02*
X394548Y195202D01*
X411064Y113346D02*
X413564Y110846D01*
X403064Y113346D02*
X407510Y108900D01*
X403064Y121346D02*
X405964Y118446D01*
X384900Y117600D02*
X385000Y117500D01*
X382810Y117600D02*
X384900D01*
X379064Y121346D02*
X382810Y117600D01*
X416290Y162610D02*
X431264D01*
X385863D02*
X405310D01*
X413400Y165500D02*
X416290Y162610D01*
X408200Y165500D02*
X413400D01*
X405310Y162610D02*
X408200Y165500D01*
X419100Y170000D02*
X441917D01*
X349701Y183100D02*
X354101Y187500D01*
X335740Y177500D02*
X338141Y179901D01*
X343605D01*
X346804Y183100D01*
X367517Y205411D02*
X369405Y207300D01*
X361439Y208500D02*
X361500Y208561D01*
X352750Y165500D02*
Y168353D01*
X126000Y214750D02*
X132250D01*
X372750Y204500D02*
X389500D01*
X391500Y202500D01*
Y198250D02*
Y202500D01*
X375750Y200250D02*
X377221Y201721D01*
X346804Y183100D02*
X349701D01*
X346500Y180250D02*
X357450D01*
X341960Y175710D02*
X346500Y180250D01*
X339064Y175710D02*
X341960D01*
X332750Y177500D02*
X335740D01*
X336240Y171250D02*
X353101D01*
X385813Y162560D02*
X385863Y162610D01*
X121500Y155500D02*
Y161750D01*
X118000Y152000D02*
X121500Y155500D01*
X110250Y152000D02*
X118000D01*
X350500Y163250D02*
X352750Y165500D01*
X332700Y167710D02*
X336240Y171250D01*
X390250Y87250D02*
Y90750D01*
X386587Y94413D02*
X390250Y90750D01*
X386587Y94413D02*
Y97846D01*
X381858Y80596D02*
Y80980D01*
X384600Y68418D02*
X385982Y69800D01*
X381858Y80596D02*
X384182Y78273D01*
X384600Y64300D02*
Y68418D01*
X376237Y62600D02*
X384182Y70545D01*
X378587Y97846D02*
X381000Y95433D01*
X333396Y65000D02*
X335796Y62600D01*
X493600Y104901D02*
X495299Y106600D01*
X493600Y104901D02*
Y104901D01*
X486214Y104836D02*
X486304D01*
X395064Y105346D02*
X399010Y101400D01*
X291556Y66900D02*
X292064Y67408D01*
X294762D02*
X295064Y67710D01*
X292064Y67408D02*
X294762D01*
X281650Y113250D02*
X296000D01*
X281012Y113888D02*
X281650Y113250D01*
X299973Y119800D02*
X302073Y121900D01*
X301269Y123700D02*
X314893D01*
X290810Y121846D02*
X299415D01*
X302073Y121900D02*
X312013D01*
X299415Y121846D02*
X301269Y123700D01*
X290033Y119800D02*
X299973D01*
X289254Y121846D02*
X290810D01*
X286100Y125000D02*
X289254Y121846D01*
X286100Y127687D02*
X291635Y133221D01*
X288948Y135908D02*
X288948D01*
X283320Y130281D02*
X288948Y135908D01*
X283320Y130281D02*
Y130281D01*
X280633D02*
X280633Y130281D01*
Y132968D02*
X286261Y138595D01*
Y138595D02*
Y138595D01*
X286261Y141282D02*
X286261Y141282D01*
X286261Y141282D01*
X286261Y141282D02*
X286261Y141282D01*
X277946Y135654D02*
X283574Y141282D01*
X277946Y135654D02*
Y135654D01*
X275259Y138342D02*
X280565Y143647D01*
Y143647D02*
Y143647D01*
X280564Y146334D02*
X280565Y146334D01*
X280565Y146334D01*
X280565Y146334D02*
X280565Y146334D01*
X272665Y141122D02*
X277878Y146334D01*
X269978Y141122D02*
X269978Y141122D01*
X269978Y141122D02*
X269978Y141122D01*
X269695Y141405D02*
X269978Y141122D01*
X316747Y121846D02*
X317211D01*
X304029Y116100D02*
X314923D01*
X314893Y123700D02*
X316747Y121846D01*
X314923Y116100D02*
X317200Y113823D01*
X303479Y116650D02*
X304029Y116100D01*
X195250Y121341D02*
Y128850D01*
X200000Y133600D01*
X293200Y61200D02*
X302614D01*
X308399Y66985D01*
X281500Y54000D02*
X291600Y64100D01*
X296900D01*
X299900Y67100D01*
X279215Y81215D02*
X281339Y83339D01*
X276528Y81215D02*
X276528Y81215D01*
X269280Y88462D02*
X276528Y81215D01*
X266593Y88462D02*
X266593Y88462D01*
Y85775D02*
X273841Y78528D01*
X273558Y75558D02*
X273841Y75841D01*
X334000Y68000D02*
X337000Y65000D01*
X340150D01*
X341650Y66500D01*
X281339Y83339D02*
X281645Y83645D01*
X272000Y74000D02*
X273558Y75558D01*
X284000Y86000D02*
X284802D01*
X281645Y83645D02*
X284000Y86000D01*
X266925Y74000D02*
X272000D01*
X295234Y91516D02*
X302819D01*
X271694Y102205D02*
Y110806D01*
X302819Y91516D02*
X303853Y92550D01*
X322473D01*
X254600Y119150D02*
X264200Y109550D01*
X262100Y83900D02*
X268000Y78000D01*
X262100Y83900D02*
Y88000D01*
X265165Y75760D02*
X266925Y74000D01*
X289446Y119213D02*
X290033Y119800D01*
X268200Y142900D02*
X269695Y141405D01*
X253660Y75760D02*
X265165D01*
X223000Y99100D02*
X224100Y100200D01*
X223000Y81852D02*
Y99100D01*
X204234Y125234D02*
Y129934D01*
X197050Y122650D02*
X200100Y125700D01*
X213050Y114959D02*
Y126305D01*
X215931Y129186D01*
X219586D01*
X224100Y100200D02*
Y125700D01*
X227900Y100000D02*
Y126928D01*
X230000Y101400D02*
Y122399D01*
X341650Y66500D02*
Y70085D01*
X345450Y66500D02*
Y70085D01*
X349250Y66500D02*
Y70085D01*
X353050Y66500D02*
Y70085D01*
X356850Y66500D02*
Y70085D01*
X360650Y66500D02*
Y70085D01*
X364450Y66500D02*
Y70085D01*
X368250Y66500D02*
Y70085D01*
X370150Y64600D02*
X373782D01*
X381000Y71818D01*
X230000Y122399D02*
X240387Y132786D01*
X280730Y114171D02*
X281012Y113888D01*
X278632Y116267D02*
X280730Y114171D01*
X278632Y116267D02*
X278632Y116267D01*
Y118954D02*
X282807Y123129D01*
X280120Y125816D02*
X280120D01*
X273246Y118942D02*
X280120Y125816D01*
X270559Y118942D02*
X270559Y118942D01*
X270559Y121629D02*
X270559D01*
X277315Y128385D01*
X277315Y131072D02*
X277315Y131072D01*
X277315Y131072D01*
X277315Y131072D02*
X277315Y131072D01*
X274628D02*
X274628D01*
X268181Y124625D02*
X274628Y131072D01*
X265494Y127312D02*
X265494D01*
X271941Y133759D01*
Y133759D02*
Y133759D01*
X271941Y136446D02*
X271941Y136446D01*
X271941Y136446D01*
X271941Y136446D02*
X271941Y136446D01*
X265198Y132389D02*
X269254Y136446D01*
X262510Y132389D02*
X262510Y132389D01*
X262510Y132390D02*
X262510Y132389D01*
X262227Y132673D02*
X262510Y132390D01*
X381000Y71818D02*
X381032Y71850D01*
X248000Y105490D02*
Y122800D01*
X254600Y119150D02*
Y124200D01*
X251450Y111100D02*
X257000Y105550D01*
X247500Y134200D02*
X251450Y130250D01*
Y111100D02*
Y130250D01*
X248000Y105490D02*
X251266Y102224D01*
X247453Y87954D02*
X254500Y95000D01*
X261000Y125600D02*
X261355D01*
X282900Y104000D02*
X283100Y103800D01*
X211250Y128850D02*
X216100Y133700D01*
X219586Y129186D02*
X224100Y133700D01*
X216100Y133700D02*
Y133700D01*
X204234Y129934D02*
X208000Y133700D01*
X240375Y107625D02*
X240750Y107250D01*
X240375Y107625D02*
Y125225D01*
X240000Y125600D02*
X240375Y125225D01*
X261355Y125600D02*
X273494Y113461D01*
X262600Y119900D02*
X271694Y110806D01*
X322473Y92550D02*
X325200Y89823D01*
X283100Y103800D02*
X297349D01*
X292293Y106950D02*
X292771Y107428D01*
X314864D01*
X316469Y105823D01*
X317200D01*
X291693Y100650D02*
X297953D01*
X236450Y98296D02*
Y108750D01*
X319350Y100973D02*
X330050D01*
X318177Y99800D02*
X319350Y100973D01*
X317432Y101600D02*
X321655Y105823D01*
X325200D01*
X330050Y100973D02*
X333200Y97823D01*
D143*
X95000Y127000D02*
X111200Y110800D01*
X95000Y179200D02*
X115200Y199400D01*
X95000Y127000D02*
Y179200D01*
X181347Y175093D02*
X184127Y177873D01*
X159591Y171398D02*
X163285Y175093D01*
X181347D01*
X115200Y199400D02*
X150400D01*
X156000Y205000D01*
X222000D01*
X158378Y171398D02*
X159591D01*
D144*
X101500Y156000D02*
Y156125D01*
X103694Y158319D01*
X101375Y162750D02*
X103694Y160431D01*
X101250Y162750D02*
X101375D01*
X108371Y158319D02*
X112113Y162061D01*
X103694Y160431D02*
X107495D01*
X100781Y156000D02*
X101500D01*
X103694Y158319D02*
X108371D01*
X269988Y210000D02*
X280087D01*
X269113Y212113D02*
X280963D01*
X258454Y198465D02*
X269988Y210000D01*
X174216Y198465D02*
X258454D01*
X173340Y200578D02*
X257579D01*
X269113Y212113D01*
X168571Y192822D02*
X174216Y198465D01*
X167696Y194935D02*
X173340Y200578D01*
X316945Y197078D02*
X322189D01*
X324067Y195200D01*
X316266Y196400D02*
X316945Y197078D01*
X324067Y195200D02*
X330148D01*
X296675Y196400D02*
X316266D01*
X280963Y212113D02*
X296675Y196400D01*
X117684Y194935D02*
X167696D01*
X337904Y188437D02*
X340000Y190533D01*
Y191200D01*
X330148Y195200D02*
X336912Y188437D01*
X337904D01*
X110000Y187250D02*
X117684Y194935D01*
X110000Y162936D02*
Y187250D01*
X107495Y160431D02*
X110000Y162936D01*
X317913Y194965D02*
X321314D01*
X317234Y194287D02*
X317913Y194965D01*
X280087Y210000D02*
X295800Y194287D01*
X321314Y194965D02*
X323192Y193087D01*
X329273D01*
X295800Y194287D02*
X317234D01*
X118560Y192822D02*
X168571D01*
X340500Y183500D02*
Y183728D01*
X337904Y186324D02*
X340500Y183728D01*
X329273Y193087D02*
X336036Y186324D01*
X112113Y162061D02*
Y186375D01*
X118560Y192822D01*
X336036Y186324D02*
X337904D01*
X279790Y196122D02*
X282210D01*
X278075Y197836D02*
X279790Y196122D01*
X278075Y197836D02*
Y198438D01*
X273390Y199140D02*
Y201437D01*
X268250Y199285D02*
X273009Y204044D01*
X274582Y201931D02*
X278075Y198438D01*
X268250Y199158D02*
Y199285D01*
X273250Y199000D02*
X273390Y199140D01*
X273009Y204044D02*
X275457D01*
X273390Y201437D02*
X273884Y201931D01*
X274582D01*
X280458Y199043D02*
X281000D01*
X275457Y204044D02*
X280458Y199043D01*
X285000Y198911D02*
Y199000D01*
X282210Y196122D02*
X285000Y198911D01*
D145*
X142795Y37000D02*
X148653Y42858D01*
Y142639D01*
X130000Y37000D02*
X142795D01*
X30820Y50940D02*
Y102494D01*
X148551Y142741D02*
Y161570D01*
X158378Y171398D01*
X148551Y142741D02*
X148653Y142639D01*
M02*
