M48
;Layer_Color=9474304
;FILE_FORMAT=4:4
METRIC,LZ
;TYPE=PLATED
T01F00S00C0.1000
T02F00S00C0.1500
;TYPE=NON_PLATED
%
T01
X0048575Y0004225
T02
X002755Y00011
X002805
X002855
X002905
X002955
X003005
X003055
X003255
X003305
X003355
X003405
X00363Y00019
X004Y00022
X00402012Y00026025
X00425689Y00021427
X00427Y00015
Y00008
X0031625Y00028
X00311Y00032
X00039Y00074
X00035
Y00078
Y00082
X00039
Y00078
Y00086
X00035
Y0009
Y00094
X00039
Y0009
X000513Y001415
X00051Y00146
X000513Y001664
Y001765
X00309Y00165
X003267Y00169
X0033042Y00187282
X003338Y001948
X00326273Y00197873
X003155Y0020025
X00309Y00192
X0032Y00225509
X00324548Y00225461
X0032025Y0024
X0031525
X003105
X0030575Y0024025
X003005Y0024
X0029525
X00338Y00237
X003407Y002314
X00344Y00227
X0036Y00217
X003617Y001942
X00385Y00217
X00392
X003955Y002432
X004005Y002433
X00421Y00254
X00426Y00211
Y00205
X00429Y00194
X00413Y00173
Y00161
X003962Y00182
X00372Y00137
X00312Y00138
Y00124
X00305Y00093
Y00077
X003125Y000662
X002902Y000699
X002863Y000668
X00281488Y00069888
X0028Y00039
X00293
X00316
X00329
X00362457Y0003925
X0036895Y00035059
X00372433Y00037909
X00378156Y00037345
X0038025Y0004184
X00396939Y00041411
X00397Y00034
X00407
X00405767Y00064133
X00406Y00075
X0041002Y00097505
Y00108755
X003834Y0006
X00331Y00089
X00276Y001
Y0011
Y0012
X00336Y00254
X004539Y000451
M30
