M48
;Layer_Color=9474304
;FILE_FORMAT=4:4
METRIC,LZ
;TYPE=PLATED
T01F00S00C0.1000
T03F00S00C0.3000
T05F00S00C0.8000
;TYPE=NON_PLATED
T06F00S00C0.6500
T07F00S00C1.5000
T08F00S00C2.0000
%
T01
X00254342Y00013115
X003105Y00018
X00305679Y000252
X00320777Y00028254
X00324Y00023
X00329Y00024
X00336Y00022
X00338782Y00026101
X0034336Y0002645
X003478
X00349267Y00020501
X00363Y00027
X00370533Y000258
X00383907Y00025107
X00389Y000285
X004075Y0001975
X004164Y000294
X0043825Y0001225
Y00009
Y0000575
X0043475
X00445436Y00005564
X00445Y0001225
X0049605Y00014464
X00495026Y00019446
X005126Y000226
X0051Y00027
X00523Y00022
X005225Y00015
X00522525Y0001
X00510025Y00005
X00236405Y0001975
X0023114Y00019812
X00224Y00026
X0021717Y00025908
X00213Y00026
X00208151
X00198682Y00019442
X001923Y000188
X0018704Y00018831
X00182867Y00018855
X00179Y00019
X001849Y000256
X00136222Y00011816
X00136343Y00007818
X00088416Y00026531
X00106044Y00081876
X00106019Y00086
X0010595Y00090075
X00087Y0011
X00062992Y00107442
X00063Y00101769
X0007775Y0013
X0007575Y001415
X001035Y0015175
X001159Y0015675
Y0016175
X001215
X00123959Y00178
X0013457Y00177127
X00134714Y00181575
X00137814Y00186033
X001492Y00181
X00177Y0018475
X00193Y00186
X00201779Y00184167
X001938Y00170312
X00194Y00156
X0019
X00186
X00156278Y00153108
X00161Y00139
X00165
X00169
X00166996Y00127842
X00167045Y00124331
X00169Y0012125
X00165
X001612Y001213
X001615Y0010075
X00165
X0016825
Y000955
Y000915
X00165
X001615
X00157187Y00095507
X00158Y00052
X00182Y00062
X001885Y00072
X001888Y00082794
X0021275Y0008425
X00219035Y00084298
X002295Y000905
X002186Y00107
X002142Y001069
X00216Y0011
X00221
X002185Y001165
X002025
X00209595Y00142408
X00221Y00151
X00226
X00231
X002254Y001657
X00229Y00177
X00233
Y00181
X00229
X00226Y00231
Y00235
Y00239
X0023
Y00235
X0023475Y002365
Y0024
X002385
Y002365
X00216Y0023
X00195727Y002366
X001917Y00249
X00181Y0025
X001706Y00241715
X001765Y002315
X00181Y00217
X00156335Y00249636
X00123753Y002501
X00112541
X001124Y002407
X001177Y0023667
X001053Y002358
X0010532Y002291
X00105445Y0022
X00093
Y00225
X00089Y00229833
X00083Y00220677
X00080404Y00217634
X00080944Y00209421
X001Y00206
X00109Y00205
X00125Y0020523
X00115551Y00184848
X00120293Y0013804
X0012516Y00138015
X00113233Y0012344
X00108Y00128
X00048Y00155
X00033Y00157
X000268Y001567
Y001615
Y001664
X00037Y00161
X000268Y001465
Y001415
Y001364
X000112Y001515
Y001714
X00005Y00211
X00029
X00049Y00221
X0003Y00241
X00005
X00093Y00244
Y00254
X00016Y0009
Y00085
X00186Y000415
Y00038
X001895
Y000415
X00193
X001965
Y00038
Y000345
X00193
Y00038
X002
Y000345
X002035
X002375Y000653
X002354Y000676
X00247Y000634
X0025625Y00069
X00265142Y00062212
X0030075Y001045
X00303882Y00104528
X0030875Y001045
X00311882Y00104528
X003071Y00119
X003167Y00129346
X003247Y00129696
X003327Y001294
Y00121346
X003407
Y00129346
X003487
X003567
Y00121346
X003487
Y00113346
Y00105346
X003409Y00105363
X003407Y00113346
X003327
Y00105346
X003567
Y00113346
X00371064
Y00121346
Y00129346
X00379064
X00387064
X00387055Y00121355
X00387064Y00113346
Y00105696
X00379064
Y00113346
X00395064
Y00129346
X00403064
Y0014371
Y001508
Y0015971
Y001661
X00395064
Y0015971
X00387064
X00379064Y0015966
X003703Y001592
X00371064Y0015171
X00363064Y00153346
X003557Y001522
X003487Y0015171
Y0015971
X00348517Y00167508
X003409Y0016771
X00340517Y00159508
X00332Y001604
X003258Y00160505
X00315064Y00161346
X003167Y001537
X003162Y001443
X003087Y001465
X002994Y001509
X002946Y001549
X002918Y001581
X00289199Y00143399
X002853Y001467
X002754Y001485
X002714
X00264Y00148884
X002599Y001488
X00256251
X0025208Y00155968
X002488
X002454
X002468Y001704
X002503Y001681
X00250321Y00180012
X00247Y0018
X00268
X00273
X00277
X00281Y00199043
X00285Y00199
X0029282Y00193
X002992Y00191366
X00298Y00200011
X003055Y002
X003105Y002
X0032
X00347021Y00199593
X00351Y002
X003485Y001925
Y00186
X0035575Y001844
X0035425Y001765
X0034775Y001765
X00356248Y00167177
X003563Y001603
X00363571Y00169951
X00379064Y0017571
X0037975Y00192668
X003758Y001934
X00379Y001985
X00383Y00195
X00387011Y00195005
X00387008Y00201005
X00396Y0019825
X004006Y0020105
X003985Y002169
X003984Y002216
X00402046Y00219954
X00402Y00224
X00404266Y00227296
X003973Y002262
X00397979Y00230408
X00394Y0023
X003886Y002322
X003837
X003755Y002405
X003706
X00352Y00224
X00352111Y002182
X003455Y002155
X003405
X00335569Y00215844
X00334215Y00225
X00334668Y00240037
X003278Y002389
Y002342
X003205Y002346
X00317Y002345
X00292Y0023
X00283
X0028Y002168
X00272Y00207
X002551Y002068
Y002036
X002519
Y002068
X002551Y0021
X002554Y002165
X002506
X00267Y00254
X00271
X003005Y001764
X0030925
X00333482Y00184334
X003333Y001519
X00331601Y00145201
X00331064Y00137346
X00323064
X00339064Y00139
X00340942Y0014472
X003567Y0014371
X00379064
X00387064
X00395064
X003883Y001514
X00388288Y00167235
X004032Y001742
X00411109Y00184109
X004201Y001874
X00418598Y001775
X0043575Y00179
X00436072Y001666
X00433076Y00163827
X004355Y00157
X00453Y0016
Y00172
X004519Y001846
X004526Y001998
X00462Y00198
X00463Y00176
X00480799Y001801
X00496Y00185
X00506301Y00197699
X005195Y0019975
X005392Y002001
X005459Y002002
X005525
X00565Y00215
X0053225Y0021525
X00526
X0051275
X00513Y00174
X00521Y0018
Y0016
X005294
X00529674Y001499
X00525Y00143
Y00138
X0053
X005355Y0013775
X00544Y00136
Y00142
Y00148
Y00154
X00542Y0016
X005325Y0017
X00544Y0013
Y00124
X0054Y00114
X00540117Y00108647
X00538988Y00103124
X00546354
X00545084Y00084582
Y00079756
X00538226
Y00084582
X00535432Y00073406
X00535686Y00069088
X00529082
Y000635
X0052451Y0007112
X0052Y0006
X0051Y00052
X00507Y00045
X00502551Y00042449
X00512Y00043
X005175Y0004
X00523Y00037
X00531347Y00050091
X00544Y00055
X00553
X00559
Y00048
X00553
X00547
X00565912Y00048514
Y0004445
Y00040386
Y00036322
Y00052578
Y00056642
X00564311Y00063388
X00564388Y0006731
X00560832
X00561594Y00075946
X00565912
Y00079756
Y00083566
Y00087376
X00559054Y00084836
X0055245
Y00079756
X00557022Y00075946
X00515Y00084365
X0050894Y00082565
X00504963Y00082142
X0049525Y0007975
X00491026Y00081729
X00489442Y0008771
X00493Y0008775
X004965
Y001037
X005014
X005061Y001038
X005127
X00503Y00114
X00498Y00115
X00485Y00116
X00473
X00469512
X004663
X00454Y00123
Y00126
Y00129
Y00132
X00456196Y00137904
X00475Y00144
X0048Y00153
X00488Y00152
X00492088Y00138102
X00489Y00133
X00485Y00132
X004804Y001315
X00508Y00131
X00512
X0049Y001087
X00486304Y00104836
X00473049Y00102849
X0047368Y000872
X00477
X0048044
X00469Y00087
X00458427Y00087357
X004294Y00089
X00428752Y000731
X0043125Y00065475
X00430447Y00061094
X00424091Y00060047
X00420741Y00062233
X00416741Y000622
X00421Y00067
X00446522Y00067753
X00446272Y00063003
X0044714Y00058233
X00439506Y00052488
X00437209Y00046903
X0043275Y00047
X004164Y000398
Y000349
X00403Y0003925
X00403353Y00043272
X00393032Y00080177
X00387908Y000813
X00386769Y00089504
X00371182Y00088
X003625Y0008775
X003585Y00089
X003487Y00089346
X00364694Y00096253
X00371064Y00096844
X003706Y00105346
X00363064Y0010371
X0036375Y00079646
X003628Y000736
X003483Y000588
X003441
X0032883Y0008002
X00324955Y00081011
X002992Y001327
X00290821Y00125179
X00285347Y00121652
X00261Y0014
X00411064Y0014371
X004285Y0014325
X004185Y001219
X00411064Y00121346
X004185Y00113746
X004108Y000894
X00472Y00053
X00476
X0048
X00484
X004985Y0005625
X00501789Y00058527
X00498876Y00061711
X004779Y002226
X004733Y002227
X004692
X004652
X004545Y0022175
X0045Y00219
X004495Y00224
X004488Y002315
X004537Y002285
X0046Y00234
X004576Y002515
X004538
X0045
X004405Y002488
X004362Y002489
X0043725Y002396
X004415
X004249Y00248
X00425Y002512
X00405Y002165
X00437Y00208
X004355Y001982
X00372532Y00199763
X00365Y002005
X00479Y002478
T03
X00079Y00056
X000834Y000516
X00098Y0006
X00105
X00112
X00113Y00069
Y00075
X00106043Y0007494
X00106Y00069
X00116Y0005
X00122
X00128
X0013Y00037
X00124
X00118
X00101Y00035
X00117Y00108
X00123952
X00124Y00115
X00117
X0012825Y0015975
X0013475
X00149Y001752
X00162495Y00182127
X00275346Y00174755
X004565Y00178
X00488Y00227
X00496
X00504
X00512
X0052
X00512Y00242
X00496
T05
X0001582Y0003094
X0003082
Y0005094
X0001582
T06
X000568Y001301
Y001879
T07
X0001732Y0022769
T08
X00545244Y00024578
X00065244
Y00234578
X00545244
M30
