M48
;Layer_Color=9474304
;FILE_FORMAT=4:4
METRIC,LZ
;TYPE=PLATED
T01F00S00C0.1000
T02F00S00C0.1500
;TYPE=NON_PLATED
%
T01
X0047125Y000135
X004855
X00174Y00013
X00519Y00087
T02
X00249Y000262
X002805Y0001125
X003555Y00011
X00378Y00014
X0041425Y0001475
X00438Y0002
X004542Y000203
X00455329Y00029024
X00236219Y00026
X001958Y000273
X00184Y0000925
X00145Y00017
X001315Y00008
X001125
X000935
X00102726Y00026546
X0011424Y00026632
X00128256Y00026751
X0013819Y00050052
X00138Y00058
X00134
Y00062
X00138
Y00075
X00134
Y00087
Y00091
Y00095
X00138
Y00091
Y00087
Y00099
X00134
X00089Y00087
X00084
X00079
X00074
X00069
Y00082
Y00077
Y00072
X00074
Y00077
Y00082
X00079
Y00077
Y00072
X00084
Y00077
Y00082
X00089
Y00077
Y00072
X00088Y00041
Y0003725
X00084198
X00084Y00041
X000806Y000415
X0008Y00045
X00076
Y00049
X00072
Y00053
X00052Y0007
Y00075
X000496Y000904
X00032Y00099
Y00103
Y00107
X00028
Y00103
Y00099
X0001Y001
Y00104
Y00108
Y00112
X00008Y0008
X00011Y00076
X0000782Y0021894
Y0023644
X0002682
Y0021894
X0003667Y00222
X000442Y00221
X00042995Y00246691
X00083583Y002491
X00087643Y0024348
X001005Y002492
X00122074Y00245983
X00131966Y0024594
X0014432Y0024185
X00148215Y0023523
X0015271Y00235433
X00159813Y0023719
X00166339Y0023749
X0016507Y00228544
X0015659Y00225882
X001564Y002425
X001774Y002365
X0019575Y002292
X00206415Y00232315
X0020425Y00238467
X0020225Y002426
X001994Y002465
X00218Y0021
X00222
Y00205
X00218025
X00238055Y00212166
X0024255Y00212375
X0024145Y00219007
X0024Y00166
X00235Y00164
X0023Y00163
X00239Y00153891
X002379Y0014245
X002308Y001392
X002334Y001328
X00240387Y00132786
X0024Y001256
X002241Y001257
X002166Y001254
X002081Y001257
X002001
X001921
X002Y001336
X00208Y001337
X002161
X002241
X0023645Y0010875
X0024075Y0010725
X002397Y00076911
X002298Y000761
X00230721Y00085222
X0020615Y000835
X002106Y000654
X002145Y000578
X00216306Y00053543
X00222548Y00054348
X00204995Y00054568
X00201042Y00057523
X001966Y000568
X001974Y000631
X0021Y00045
X00172Y00046
X0017Y00036
X00168Y001582
X00166295Y00169343
X0019747Y0018075
X00209Y00165
X00222867Y00177311
X00171116Y0021575
X00149215Y00207615
X0014545Y0020515
X00142074Y00208126
X00138421Y00205371
X00133926Y0020515
X00129426
X00126Y0021475
X001Y002003
X00089612Y00210668
X0010125Y0016275
X001015Y00156
X002475Y001342
X00248Y001228
X002546Y001242
X00261Y001256
X002626Y001199
X002642Y0010955
X00257Y0010555
X00251266Y00102224
X002545Y00095
X002621Y00088
X00268Y00078
X0025366Y0007576
X00247453Y0007715
X002838Y000971
X002829Y00104
X002769Y0010755
X00292293Y0010695
X00291693Y0010065
X00296782Y00094763
X00296Y0011325
X0029147Y0011665
X00287116Y00117787
X003172Y00113823
Y00105823
X003252
Y00113823
X00325211Y00121846
X00317211
X003252Y00097823
Y00089823
X003171Y000894
X00317412Y00082058
X003332Y00081823
Y00073823
X00332372Y00092225
X003332Y00097823
X003412
X00349212Y00097846
X00378587
X00386587
X00397821Y00096528
X00405167Y00096939
X00403064Y00105346
Y00113346
X00411064
X00403064Y00121346
X00395064
X00379064
X00371064Y0014371
X00363064Y00145346
X003487Y0014371
X003407Y0015171
X003327Y0016771
X0033275Y001775
X00339064Y0017571
X003405Y001835
X0034Y001912
X00326902Y00198502
X0032Y00191794
X003247Y0018371
Y0017571
X00323Y001684
X003167Y0016771
X002832Y001767
X0027325Y00199
X0026825Y00199158
X002735Y0023005
X00258Y0024955
X003097Y002303
X003138Y0022705
X00341589Y0023175
X00352207Y0023152
X00367Y00226
X00372
X00377
X00369769Y0023575
X003698Y002073
X003615Y00208561
X00358269Y002125
X0033972Y00241118
X004225Y002325
X00425Y00225
X00419
Y0022
Y00215
X00425
X00431
Y0022
Y00225
X004224Y002076
X0041425Y00208
X00411Y002125
X004007Y001948
X003971Y001919
X00391398Y00193898
X00387993Y00190868
X003868Y001757
X0039577Y00174355
X00412298Y00176302
X00410482Y00169728
Y00161728
X004191Y0017
X00419281Y00150017
X00395064Y0015171
X00379064
Y0016771
X00371064
X003718Y00175887
X00442322Y001804
X004662Y001607
X00471Y001605
X004856Y00162785
X00498Y00167
X00506125Y00168076
X00506373Y00134927
X004289Y00106
Y00101316
X0042886Y00093216
X004222Y000935
X00419064Y00089346
X00395064Y00105346
X00381858Y0008098
X00381032Y0007185
X003846Y000643
X003894Y00064
X004144Y0005185
X00403Y00035
X00308399Y00066985
X002999Y000671
X00295064Y0006771
X00457643Y00230464
M30
